<svg xmlns="http://www.w3.org/2000/svg" xmlns:xlink="http://www.w3.org/1999/xlink" width="40" zoomAndPan="magnify" viewBox="0 0 30 30.000001" height="40" preserveAspectRatio="xMidYMid meet" version="1.0"><defs><clipPath id="6642581a51"><path d="M 14 2.164062 L 20 2.164062 L 20 9 L 14 9 Z M 14 2.164062 " clip-rule="nonzero"/></clipPath><clipPath id="71c8ebfdc5"><path d="M 24 10 L 26.105469 10 L 26.105469 12 L 24 12 Z M 24 10 " clip-rule="nonzero"/></clipPath><clipPath id="2632b17468"><path d="M 3.605469 9 L 25 9 L 25 21 L 3.605469 21 Z M 3.605469 9 " clip-rule="nonzero"/></clipPath><clipPath id="7eeef669b9"><path d="M 3.605469 19 L 25 19 L 25 26.84375 L 3.605469 26.84375 Z M 3.605469 19 " clip-rule="nonzero"/></clipPath><clipPath id="3124341af8"><path d="M 3.605469 16 L 25 16 L 25 24 L 3.605469 24 Z M 3.605469 16 " clip-rule="nonzero"/></clipPath></defs><path fill="#ffffff" d="M 7.167969 10.972656 C 8.570312 10.972656 9.625 9.972656 9.625 8.648438 C 9.625 7.855469 8.699219 6.460938 7.953125 5.339844 C 7.621094 4.839844 7.359375 4.4375 7.167969 4.105469 C 6.980469 4.4375 6.714844 4.839844 6.382812 5.339844 C 5.640625 6.460938 4.714844 7.855469 4.714844 8.648438 C 4.714844 9.972656 5.769531 10.972656 7.167969 10.972656 Z M 6.082031 8.316406 C 6.265625 8.316406 6.414062 8.464844 6.414062 8.648438 C 6.414062 9.050781 6.738281 9.351562 7.167969 9.351562 C 7.351562 9.351562 7.503906 9.503906 7.503906 9.6875 C 7.503906 9.871094 7.351562 10.019531 7.167969 10.019531 C 6.789062 10.019531 6.4375 9.882812 6.171875 9.636719 C 5.898438 9.382812 5.746094 9.03125 5.746094 8.648438 C 5.746094 8.464844 5.894531 8.316406 6.082031 8.316406 Z M 6.082031 8.316406 " fill-opacity="1" fill-rule="nonzero"/><g clip-path="url(#6642581a51)"><path fill="#ffffff" d="M 16.941406 8.054688 C 18.148438 8.054688 19.054688 7.195312 19.054688 6.0625 C 19.054688 5.378906 18.199219 4.089844 17.578125 3.152344 C 17.316406 2.757812 17.105469 2.4375 16.941406 2.164062 C 16.78125 2.4375 16.570312 2.757812 16.308594 3.152344 C 15.683594 4.089844 14.832031 5.378906 14.832031 6.0625 C 14.832031 7.195312 15.738281 8.054688 16.941406 8.054688 Z M 15.90625 5.761719 C 16.113281 5.761719 16.285156 5.929688 16.285156 6.136719 C 16.285156 6.355469 16.46875 6.472656 16.652344 6.472656 C 16.863281 6.472656 17.03125 6.640625 17.03125 6.847656 C 17.03125 7.054688 16.863281 7.226562 16.652344 7.226562 C 16.023438 7.226562 15.53125 6.746094 15.53125 6.136719 C 15.53125 5.929688 15.699219 5.761719 15.90625 5.761719 Z M 15.90625 5.761719 " fill-opacity="1" fill-rule="nonzero"/></g><g clip-path="url(#71c8ebfdc5)"><path fill="#ffffff" d="M 24.101562 10.539062 L 26.386719 10.539062 L 26.386719 11.375 L 24.101562 11.375 Z M 24.101562 10.539062 " fill-opacity="1" fill-rule="nonzero"/></g><path fill="#ffffff" d="M 21.175781 5.472656 L 22.011719 5.472656 L 22.011719 7.394531 L 21.175781 7.394531 Z M 21.175781 5.472656 " fill-opacity="1" fill-rule="nonzero"/><path fill="#ffffff" d="M 23.242188 8.195312 L 24.96875 6.675781 L 25.519531 7.304688 L 23.792969 8.820312 Z M 23.242188 8.195312 " fill-opacity="1" fill-rule="nonzero"/><g clip-path="url(#2632b17468)"><path fill="#ffffff" d="M 22.761719 13.730469 C 21.863281 13.664062 20.976562 13.453125 20.125 13.109375 C 19.113281 12.699219 18.140625 12.097656 17.234375 11.316406 C 16.484375 10.667969 15.695312 10.164062 14.882812 9.808594 C 14.902344 9.84375 14.921875 9.878906 14.945312 9.917969 C 15.132812 10.238281 15.390625 10.632812 15.667969 11.046875 C 16.488281 12.285156 17.421875 13.691406 17.421875 14.667969 C 17.421875 15.203125 17.285156 15.710938 17.023438 16.152344 C 17.191406 16.199219 17.359375 16.242188 17.53125 16.28125 C 17.707031 16.320312 17.820312 16.5 17.78125 16.679688 C 17.746094 16.835938 17.609375 16.941406 17.457031 16.941406 C 17.433594 16.941406 17.40625 16.9375 17.382812 16.933594 C 15.953125 16.609375 14.628906 15.953125 13.441406 14.980469 C 12.882812 14.519531 12.296875 14.132812 11.699219 13.824219 C 11.453125 13.695312 11.199219 13.578125 10.945312 13.476562 C 10.773438 13.410156 10.691406 13.214844 10.761719 13.042969 C 10.828125 12.875 11.023438 12.789062 11.195312 12.859375 C 11.371094 12.929688 11.546875 13.007812 11.71875 13.089844 C 12.023438 12.570312 12.40625 11.992188 12.777344 11.429688 C 13.105469 10.929688 13.417969 10.457031 13.652344 10.0625 C 13.828125 9.765625 13.917969 9.582031 13.964844 9.472656 C 13.230469 9.253906 12.480469 9.148438 11.707031 9.160156 C 11.261719 9.164062 10.859375 9.210938 10.511719 9.273438 C 10.433594 9.964844 10.121094 10.59375 9.609375 11.070312 C 9.03125 11.613281 8.25 11.910156 7.410156 11.910156 C 7.277344 11.910156 7.144531 11.902344 7.015625 11.886719 L 3.609375 15.265625 C 3.730469 15.253906 3.851562 15.246094 3.972656 15.238281 C 4.101562 15.230469 4.230469 15.226562 4.355469 15.222656 C 5.359375 15.207031 6.355469 15.363281 7.316406 15.6875 C 8.507812 16.089844 9.648438 16.757812 10.703125 17.664062 C 12.847656 19.511719 15.101562 20.113281 16.609375 20.292969 C 17.84375 20.441406 18.796875 20.335938 19.167969 20.28125 L 24.625 13.679688 C 24.011719 13.761719 23.390625 13.78125 22.761719 13.730469 Z M 22.761719 13.730469 " fill-opacity="1" fill-rule="nonzero"/></g><path fill="#ffffff" d="M 12.3125 13.398438 C 12.84375 13.695312 13.363281 14.054688 13.863281 14.464844 C 14.640625 15.101562 15.480469 15.59375 16.371094 15.933594 C 16.621094 15.566406 16.753906 15.132812 16.753906 14.667969 C 16.753906 13.890625 15.84375 12.519531 15.113281 11.417969 C 14.785156 10.925781 14.527344 10.53125 14.339844 10.203125 C 14.308594 10.261719 14.273438 10.320312 14.238281 10.382812 C 13.996094 10.792969 13.675781 11.28125 13.335938 11.796875 C 12.976562 12.339844 12.605469 12.902344 12.3125 13.398438 Z M 12.3125 13.398438 " fill-opacity="1" fill-rule="nonzero"/><g clip-path="url(#7eeef669b9)"><path fill="#ffffff" d="M 22.972656 20.171875 L 19.796875 24.011719 C 19.667969 24.167969 19.488281 24.269531 19.289062 24.300781 C 19.046875 24.335938 18.542969 24.398438 17.867188 24.398438 C 17.46875 24.398438 17.011719 24.375 16.515625 24.316406 C 14.890625 24.125 12.472656 23.476562 10.171875 21.496094 C 9.195312 20.65625 8.148438 20.042969 7.054688 19.671875 C 6.6875 19.546875 6.3125 19.453125 5.9375 19.382812 L 3.609375 21.691406 C 3.730469 21.679688 3.851562 21.667969 3.972656 21.660156 C 4.101562 21.65625 4.230469 21.648438 4.355469 21.648438 C 5.359375 21.628906 6.355469 21.785156 7.316406 22.113281 C 8.507812 22.515625 9.648438 23.179688 10.703125 24.089844 C 12.847656 25.9375 15.101562 26.539062 16.609375 26.71875 C 17.84375 26.863281 18.796875 26.761719 19.167969 26.703125 L 24.625 20.101562 C 24.082031 20.179688 23.53125 20.199219 22.972656 20.171875 Z M 22.972656 20.171875 " fill-opacity="1" fill-rule="nonzero"/></g><g clip-path="url(#3124341af8)"><path fill="#ffffff" d="M 22.972656 16.957031 L 19.796875 20.800781 C 19.667969 20.957031 19.488281 21.058594 19.289062 21.085938 C 19.046875 21.125 18.542969 21.183594 17.867188 21.183594 C 17.46875 21.183594 17.011719 21.164062 16.515625 21.105469 C 14.890625 20.910156 12.472656 20.265625 10.171875 18.285156 C 9.195312 17.445312 8.148438 16.832031 7.054688 16.460938 C 6.6875 16.335938 6.3125 16.238281 5.9375 16.167969 L 3.609375 18.480469 C 3.730469 18.46875 3.851562 18.457031 3.972656 18.449219 C 4.101562 18.441406 4.230469 18.4375 4.355469 18.433594 C 5.359375 18.417969 6.355469 18.574219 7.316406 18.898438 C 8.507812 19.304688 9.648438 19.96875 10.703125 20.878906 C 12.847656 22.722656 15.101562 23.328125 16.609375 23.503906 C 17.84375 23.652344 18.796875 23.546875 19.167969 23.492188 L 24.625 16.890625 C 24.082031 16.964844 23.53125 16.988281 22.972656 16.957031 Z M 22.972656 16.957031 " fill-opacity="1" fill-rule="nonzero"/></g></svg>