<svg xmlns="http://www.w3.org/2000/svg" xmlns:xlink="http://www.w3.org/1999/xlink" width="40" zoomAndPan="magnify" viewBox="0 0 30 30.000001" height="40" preserveAspectRatio="xMidYMid meet" version="1.0"><defs><clipPath id="a90c7aa34c"><path d="M 3.386719 3.628906 L 25.886719 3.628906 L 25.886719 26.128906 L 3.386719 26.128906 Z M 3.386719 3.628906 " clip-rule="nonzero"/></clipPath></defs><g clip-path="url(#a90c7aa34c)"><path fill="#ffffff" d="M 19.136719 25.378906 L 8.636719 25.378906 C 6.15625 25.378906 4.136719 23.695312 4.136719 21.628906 C 4.136719 20.148438 5.449219 18.710938 7.328125 18.132812 C 7.941406 17.945312 8.476562 17.609375 8.914062 17.164062 L 12.207031 19.894531 C 12.398438 20.054688 12.632812 20.128906 12.867188 20.128906 C 13.148438 20.128906 13.429688 20.015625 13.636719 19.792969 C 13.648438 19.78125 13.660156 19.769531 13.671875 19.753906 C 14.457031 18.8125 14.46875 17.4375 13.695312 16.480469 L 11.449219 13.886719 C 12.28125 13.316406 13.265625 13.003906 14.261719 13.003906 C 14.613281 13.003906 14.964844 13.039062 15.316406 13.105469 C 17.066406 13.425781 18.460938 14.539062 18.953125 16.007812 C 19.167969 16.644531 19.746094 17.121094 20.429688 17.226562 C 23.15625 17.640625 25.136719 19.332031 25.136719 21.253906 C 25.136719 23.527344 22.445312 25.378906 19.136719 25.378906 Z M 7.007812 14.324219 C 6.554688 13.394531 5.808594 11.941406 5.074219 10.789062 L 8.683594 7.199219 L 8.796875 7.394531 C 9.0625 7.839844 9.476562 8.1875 9.964844 8.371094 L 13.492188 9.6875 C 13.949219 9.859375 14.296875 10.238281 14.425781 10.703125 L 14.867188 12.285156 C 14.667969 12.265625 14.460938 12.253906 14.261719 12.253906 C 13.089844 12.253906 11.929688 12.632812 10.957031 13.320312 L 10.792969 13.132812 C 10.660156 12.976562 10.421875 12.960938 10.265625 13.097656 C 10.109375 13.234375 10.09375 13.46875 10.230469 13.625 L 13.121094 16.960938 C 13.652344 17.621094 13.652344 18.578125 13.121094 19.242188 C 13.109375 19.253906 13.101562 19.265625 13.089844 19.273438 C 12.992188 19.398438 12.804688 19.414062 12.683594 19.316406 L 9.113281 16.355469 L 7.648438 15.136719 C 7.382812 14.921875 7.164062 14.636719 7.007812 14.324219 Z M 4.136719 9.425781 L 4.136719 4.632812 C 4.136719 4.492188 4.253906 4.378906 4.394531 4.378906 L 6.699219 4.378906 C 6.902344 4.378906 7.09375 4.488281 7.195312 4.664062 L 8.292969 6.53125 L 4.644531 10.15625 C 4.492188 9.941406 4.339844 9.746094 4.195312 9.582031 C 4.15625 9.542969 4.136719 9.488281 4.136719 9.425781 Z M 20.542969 16.484375 C 20.132812 16.421875 19.789062 16.140625 19.664062 15.769531 C 19.109375 14.109375 17.59375 12.84375 15.683594 12.414062 L 15.148438 10.5 C 14.953125 9.804688 14.433594 9.242188 13.753906 8.984375 L 10.226562 7.667969 C 9.898438 7.546875 9.621094 7.3125 9.445312 7.011719 L 7.84375 4.285156 C 7.605469 3.878906 7.167969 3.628906 6.699219 3.628906 L 4.394531 3.628906 C 3.839844 3.628906 3.386719 4.082031 3.386719 4.632812 L 3.386719 9.425781 C 3.386719 9.671875 3.476562 9.90625 3.636719 10.085938 C 4.53125 11.089844 5.710938 13.378906 6.335938 14.65625 C 6.535156 15.0625 6.824219 15.429688 7.167969 15.714844 L 8.335938 16.683594 C 7.996094 17.019531 7.578125 17.273438 7.109375 17.417969 C 4.882812 18.097656 3.386719 19.792969 3.386719 21.628906 C 3.386719 24.109375 5.742188 26.128906 8.636719 26.128906 L 19.136719 26.128906 C 22.859375 26.128906 25.886719 23.941406 25.886719 21.253906 C 25.886719 18.960938 23.640625 16.953125 20.542969 16.484375 " fill-opacity="1" fill-rule="nonzero"/></g><path fill="#ffffff" d="M 22.484375 18.675781 C 22.300781 18.578125 22.074219 18.644531 21.976562 18.824219 C 21.875 19.007812 21.945312 19.234375 22.125 19.332031 C 22.320312 19.4375 22.5 19.554688 22.664062 19.679688 C 22.734375 19.730469 22.8125 19.753906 22.890625 19.753906 C 23.003906 19.753906 23.117188 19.703125 23.191406 19.605469 C 23.316406 19.4375 23.28125 19.203125 23.117188 19.082031 C 22.921875 18.933594 22.710938 18.796875 22.484375 18.675781 " fill-opacity="1" fill-rule="nonzero"/><path fill="#ffffff" d="M 20.320312 17.96875 C 19.34375 17.820312 18.546875 17.160156 18.242188 16.242188 C 17.84375 15.054688 16.640625 14.109375 15.179688 13.839844 C 14.875 13.785156 14.566406 13.753906 14.261719 13.753906 C 14.054688 13.753906 13.886719 13.921875 13.886719 14.128906 C 13.886719 14.335938 14.054688 14.503906 14.261719 14.503906 C 14.519531 14.503906 14.78125 14.527344 15.042969 14.578125 C 16.242188 14.796875 17.21875 15.546875 17.53125 16.480469 C 17.925781 17.664062 18.949219 18.519531 20.203125 18.710938 C 20.226562 18.710938 20.246094 18.710938 20.261719 18.710938 C 20.445312 18.710938 20.605469 18.582031 20.632812 18.394531 C 20.664062 18.191406 20.523438 18 20.320312 17.96875 " fill-opacity="1" fill-rule="nonzero"/></svg>