<svg xmlns="http://www.w3.org/2000/svg" xmlns:xlink="http://www.w3.org/1999/xlink" width="40" zoomAndPan="magnify" viewBox="0 0 30 30.000001" height="40" preserveAspectRatio="xMidYMid meet" version="1.0"><defs><clipPath id="ad58692a63"><path d="M 2.464844 5.335938 L 27.867188 5.335938 L 27.867188 23.480469 L 2.464844 23.480469 Z M 2.464844 5.335938 " clip-rule="nonzero"/></clipPath></defs><g clip-path="url(#ad58692a63)"><path fill="#ffffff" d="M 27.019531 17.328125 C 27.382812 16.773438 27.527344 16.199219 27.449219 15.628906 C 27.371094 15.035156 27.066406 14.589844 26.789062 14.292969 C 26.941406 14.042969 27.03125 13.78125 27.050781 13.515625 C 27.097656 12.859375 26.722656 12.183594 25.949219 11.5 C 26.109375 11.023438 26.148438 10.566406 26.050781 10.132812 C 25.820312 9.089844 24.917969 8.480469 24.574219 8.246094 C 23.949219 7.828125 23.4375 7.734375 22.734375 7.601562 C 22.316406 7.527344 21.796875 7.429688 21.125 7.242188 C 20.101562 6.957031 19.605469 6.75 18.960938 6.46875 C 16.425781 5.359375 13.425781 5.441406 12.292969 5.472656 C 8.4375 5.578125 2.71875 7.460938 2.53125 10.160156 C 2.46875 11.078125 3.03125 12.046875 4.203125 13.039062 C 4.042969 13.292969 3.953125 13.550781 3.933594 13.816406 C 3.265625 14.0625 2.863281 14.394531 2.738281 14.816406 C 2.609375 15.234375 2.75 15.75 3.128906 16.316406 C 2.90625 16.523438 2.769531 16.75 2.730469 16.992188 C 2.652344 17.46875 2.941406 18 3.582031 18.566406 C 3.429688 18.753906 3.34375 18.957031 3.328125 19.164062 C 3.183594 20.988281 8.414062 22.648438 10.257812 23.089844 C 11.980469 23.496094 13.757812 23.671875 15.488281 23.671875 C 20.210938 23.671875 24.558594 22.367188 26.296875 20.964844 C 26.804688 20.550781 27.058594 20.148438 27.050781 19.761719 C 27.050781 19.5625 26.96875 19.367188 26.824219 19.175781 C 27.089844 18.851562 27.234375 18.527344 27.25 18.207031 C 27.265625 17.925781 27.179688 17.644531 26.996094 17.359375 C 27.003906 17.351562 27.011719 17.339844 27.019531 17.328125 Z M 25.222656 17.101562 C 25.222656 17.238281 25.015625 17.394531 24.722656 17.394531 C 24.429688 17.394531 24.222656 17.238281 24.222656 17.101562 C 24.222656 16.964844 24.429688 16.808594 24.722656 16.808594 C 25.015625 16.808594 25.222656 16.964844 25.222656 17.101562 Z M 11.273438 17.617188 C 11.324219 17.824219 11.402344 18.023438 11.507812 18.210938 C 11.613281 18.398438 11.742188 18.570312 11.894531 18.722656 C 11.628906 18.6875 11.300781 18.585938 11.027344 18.320312 C 10.8125 18.121094 10.667969 17.851562 10.605469 17.554688 C 10.835938 17.582031 11.058594 17.601562 11.273438 17.617188 Z M 26.65625 13.488281 C 26.640625 13.730469 26.546875 13.972656 26.375 14.203125 C 24.777344 16.433594 17.039062 17.664062 11.449219 17.234375 C 11.113281 17.210938 10.765625 17.179688 10.394531 17.132812 C 8.699219 16.929688 7.320312 16.5625 6.40625 16.066406 C 5.792969 15.730469 4.351562 14.945312 4.320312 13.933594 C 4.320312 13.921875 4.320312 13.90625 4.320312 13.894531 C 4.324219 13.695312 4.390625 13.492188 4.511719 13.289062 C 5.03125 13.699219 5.855469 14.265625 7.027344 14.851562 C 7.679688 15.179688 9.03125 15.851562 10.839844 15.851562 C 10.859375 15.851562 10.882812 15.851562 10.90625 15.851562 C 12.160156 15.839844 12.9375 15.503906 13.835938 15.117188 C 14.183594 14.96875 14.542969 14.816406 14.957031 14.667969 C 15.464844 14.484375 15.980469 14.339844 16.496094 14.234375 L 17.007812 15.769531 C 17.035156 15.851562 17.113281 15.90625 17.195312 15.90625 C 17.214844 15.90625 17.238281 15.902344 17.257812 15.894531 C 17.363281 15.859375 17.417969 15.75 17.382812 15.644531 L 16.886719 14.160156 C 17.65625 14.03125 18.4375 13.988281 19.332031 14.027344 L 21.125 15.300781 C 21.160156 15.328125 21.203125 15.339844 21.242188 15.339844 C 21.304688 15.339844 21.363281 15.308594 21.402344 15.253906 C 21.464844 15.167969 21.445312 15.042969 21.355469 14.980469 L 20.078125 14.070312 C 20.265625 14.085938 20.449219 14.101562 20.632812 14.117188 C 22.210938 14.25 23.574219 14.367188 24.796875 13.253906 C 24.863281 13.191406 25.425781 12.648438 25.789062 11.886719 C 26.398438 12.453125 26.691406 12.988281 26.65625 13.488281 Z M 2.925781 10.1875 C 3.097656 7.742188 8.683594 5.96875 12.308594 5.867188 C 12.535156 5.863281 12.839844 5.855469 13.199219 5.855469 C 14.597656 5.855469 16.851562 5.976562 18.800781 6.832031 C 19.460938 7.121094 19.972656 7.332031 21.019531 7.621094 C 21.710938 7.816406 22.238281 7.914062 22.660156 7.992188 C 23.367188 8.125 23.796875 8.203125 24.355469 8.578125 C 24.660156 8.785156 25.46875 9.332031 25.664062 10.21875 C 25.75 10.613281 25.707031 11.039062 25.53125 11.488281 C 25.210938 12.316406 24.554688 12.941406 24.527344 12.964844 C 23.433594 13.957031 22.214844 13.855469 20.667969 13.722656 C 20.265625 13.6875 19.851562 13.652344 19.410156 13.632812 C 19.40625 13.632812 19.398438 13.632812 19.394531 13.632812 C 18.363281 13.585938 17.472656 13.644531 16.589844 13.808594 C 16 13.921875 15.40625 14.085938 14.824219 14.292969 C 14.398438 14.445312 14.03125 14.601562 13.679688 14.753906 C 12.785156 15.140625 12.074219 15.445312 10.902344 15.457031 C 9.148438 15.476562 7.835938 14.816406 7.195312 14.496094 C 5.929688 13.859375 5.078125 13.246094 4.589844 12.847656 C 3.429688 11.898438 2.867188 11.003906 2.925781 10.1875 Z M 26.417969 19.039062 C 24.226562 21.386719 15.75 23.261719 8.972656 20.949219 C 7.351562 20.394531 5.179688 19.390625 3.984375 18.394531 C 3.363281 17.878906 3.0625 17.417969 3.121094 17.054688 C 3.144531 16.910156 3.230469 16.769531 3.371094 16.636719 C 4.632812 18.203125 7.613281 20.058594 10.867188 20.546875 C 10.882812 20.550781 10.898438 20.550781 10.914062 20.554688 C 11.289062 20.609375 11.664062 20.636719 12.042969 20.636719 C 12.816406 20.636719 13.59375 20.519531 14.371094 20.292969 C 15.335938 20.007812 16.332031 19.773438 17.332031 19.597656 C 17.632812 19.546875 17.898438 19.492188 18.152344 19.441406 C 19.121094 19.253906 19.957031 19.089844 22.078125 18.984375 L 22.257812 18.976562 C 23.542969 18.914062 25.644531 18.808594 26.730469 17.6875 C 26.820312 17.859375 26.863281 18.027344 26.855469 18.1875 C 26.84375 18.453125 26.695312 18.738281 26.417969 19.039062 Z M 26.417969 19.039062 " fill-opacity="1" fill-rule="nonzero"/></g><path fill="#ffffff" d="M 11.234375 8.460938 C 11.742188 8.875 12.292969 9.246094 12.871094 9.554688 C 12.898438 9.574219 12.933594 9.582031 12.964844 9.582031 C 13.035156 9.582031 13.101562 9.542969 13.136719 9.476562 C 13.191406 9.378906 13.15625 9.261719 13.058594 9.207031 C 12.503906 8.910156 11.972656 8.554688 11.484375 8.15625 C 10.976562 7.738281 10.511719 7.269531 10.101562 6.761719 C 10.035156 6.675781 9.910156 6.660156 9.824219 6.730469 C 9.738281 6.796875 9.726562 6.921875 9.792969 7.007812 C 10.222656 7.539062 10.707031 8.027344 11.234375 8.460938 Z M 11.234375 8.460938 " fill-opacity="1" fill-rule="nonzero"/><path fill="#ffffff" d="M 17.558594 9.996094 C 17.578125 10.089844 17.660156 10.152344 17.75 10.152344 C 17.765625 10.152344 17.78125 10.148438 17.796875 10.144531 C 18.460938 9.988281 19.117188 9.761719 19.742188 9.46875 C 20.34375 9.191406 20.914062 8.855469 21.441406 8.46875 C 21.53125 8.40625 21.546875 8.28125 21.484375 8.191406 C 21.417969 8.105469 21.296875 8.085938 21.207031 8.148438 C 20.703125 8.519531 20.152344 8.84375 19.574219 9.109375 C 18.976562 9.390625 18.347656 9.609375 17.707031 9.761719 C 17.597656 9.785156 17.535156 9.890625 17.558594 9.996094 Z M 17.558594 9.996094 " fill-opacity="1" fill-rule="nonzero"/><path fill="#ffffff" d="M 8.179688 12.121094 C 8.769531 12.121094 9.359375 12.074219 9.933594 11.972656 C 10.042969 11.953125 10.113281 11.851562 10.097656 11.746094 C 10.078125 11.636719 9.976562 11.5625 9.867188 11.582031 C 9.242188 11.691406 8.605469 11.738281 7.96875 11.722656 C 7.296875 11.710938 6.636719 11.628906 6 11.484375 C 5.894531 11.460938 5.789062 11.527344 5.761719 11.632812 C 5.738281 11.738281 5.804688 11.847656 5.910156 11.871094 C 6.574219 12.019531 7.261719 12.105469 7.960938 12.121094 C 8.035156 12.121094 8.105469 12.121094 8.179688 12.121094 Z M 8.179688 12.121094 " fill-opacity="1" fill-rule="nonzero"/><path fill="#ffffff" d="M 12.625 8.011719 C 12.835938 8.257812 13.0625 8.484375 13.320312 8.707031 C 13.359375 8.738281 13.402344 8.753906 13.449219 8.753906 C 13.503906 8.753906 13.558594 8.730469 13.597656 8.6875 C 13.671875 8.601562 13.660156 8.476562 13.578125 8.40625 C 13.335938 8.199219 13.121094 7.984375 12.925781 7.753906 C 12.734375 7.535156 12.5625 7.300781 12.40625 7.0625 C 12.347656 6.972656 12.222656 6.945312 12.132812 7.003906 C 12.039062 7.066406 12.015625 7.1875 12.074219 7.277344 C 12.238281 7.53125 12.425781 7.78125 12.625 8.011719 Z M 12.625 8.011719 " fill-opacity="1" fill-rule="nonzero"/><path fill="#ffffff" d="M 6.441406 9.28125 C 6.46875 9.363281 6.546875 9.417969 6.632812 9.417969 C 6.652344 9.417969 6.671875 9.414062 6.691406 9.40625 C 6.796875 9.375 6.851562 9.261719 6.820312 9.160156 L 6.429688 7.953125 C 6.394531 7.847656 6.285156 7.789062 6.179688 7.824219 C 6.078125 7.855469 6.019531 7.96875 6.054688 8.074219 Z M 6.441406 9.28125 " fill-opacity="1" fill-rule="nonzero"/><path fill="#ffffff" d="M 7.3125 9.105469 C 7.339844 9.191406 7.417969 9.246094 7.503906 9.246094 C 7.523438 9.246094 7.539062 9.246094 7.558594 9.238281 C 7.664062 9.210938 7.726562 9.097656 7.695312 8.996094 L 7.328125 7.746094 C 7.300781 7.640625 7.1875 7.578125 7.085938 7.609375 C 6.980469 7.640625 6.917969 7.75 6.949219 7.855469 Z M 7.3125 9.105469 " fill-opacity="1" fill-rule="nonzero"/><path fill="#ffffff" d="M 8.148438 8.6875 C 8.179688 8.765625 8.253906 8.8125 8.332031 8.8125 C 8.355469 8.8125 8.378906 8.808594 8.402344 8.800781 C 8.507812 8.761719 8.558594 8.648438 8.519531 8.546875 L 8.152344 7.582031 C 8.113281 7.476562 8 7.425781 7.898438 7.464844 C 7.792969 7.503906 7.742188 7.617188 7.78125 7.71875 Z M 8.148438 8.6875 " fill-opacity="1" fill-rule="nonzero"/><path fill="#ffffff" d="M 20.394531 11.855469 L 19.375 12.628906 C 19.289062 12.695312 19.269531 12.820312 19.335938 12.90625 C 19.375 12.957031 19.4375 12.984375 19.496094 12.984375 C 19.539062 12.984375 19.578125 12.972656 19.613281 12.945312 L 20.632812 12.167969 C 20.722656 12.101562 20.738281 11.976562 20.671875 11.890625 C 20.605469 11.804688 20.480469 11.789062 20.394531 11.855469 Z M 20.394531 11.855469 " fill-opacity="1" fill-rule="nonzero"/><path fill="#ffffff" d="M 20.210938 11.148438 C 20.148438 11.0625 20.023438 11.039062 19.9375 11.105469 L 18.867188 11.871094 C 18.777344 11.933594 18.757812 12.058594 18.820312 12.148438 C 18.859375 12.199219 18.921875 12.230469 18.984375 12.230469 C 19.023438 12.230469 19.0625 12.21875 19.097656 12.191406 L 20.167969 11.425781 C 20.253906 11.363281 20.277344 11.238281 20.210938 11.148438 Z M 20.210938 11.148438 " fill-opacity="1" fill-rule="nonzero"/><path fill="#ffffff" d="M 19.503906 10.523438 C 19.433594 10.441406 19.308594 10.429688 19.222656 10.5 L 18.425781 11.167969 C 18.34375 11.238281 18.332031 11.363281 18.402344 11.449219 C 18.441406 11.496094 18.496094 11.519531 18.554688 11.519531 C 18.597656 11.519531 18.644531 11.503906 18.679688 11.472656 L 19.476562 10.804688 C 19.5625 10.734375 19.574219 10.609375 19.503906 10.523438 Z M 19.503906 10.523438 " fill-opacity="1" fill-rule="nonzero"/><path fill="#ffffff" d="M 9.84375 12.390625 C 9.796875 12.292969 9.679688 12.253906 9.578125 12.304688 C 9.480469 12.351562 9.441406 12.46875 9.492188 12.570312 L 10.054688 13.707031 C 10.089844 13.777344 10.160156 13.816406 10.230469 13.816406 C 10.261719 13.816406 10.292969 13.808594 10.320312 13.796875 C 10.417969 13.746094 10.457031 13.628906 10.410156 13.53125 Z M 9.84375 12.390625 " fill-opacity="1" fill-rule="nonzero"/><path fill="#ffffff" d="M 9.007812 12.6875 C 8.964844 12.589844 8.84375 12.546875 8.746094 12.59375 C 8.648438 12.636719 8.601562 12.753906 8.648438 12.855469 L 9.191406 14.039062 C 9.226562 14.109375 9.296875 14.152344 9.371094 14.152344 C 9.402344 14.152344 9.429688 14.148438 9.457031 14.136719 C 9.554688 14.089844 9.597656 13.972656 9.550781 13.871094 Z M 9.007812 12.6875 " fill-opacity="1" fill-rule="nonzero"/><path fill="#ffffff" d="M 8.246094 13.222656 C 8.191406 13.125 8.070312 13.09375 7.976562 13.144531 C 7.878906 13.199219 7.847656 13.320312 7.898438 13.414062 L 8.40625 14.320312 C 8.441406 14.382812 8.507812 14.421875 8.578125 14.421875 C 8.609375 14.421875 8.644531 14.414062 8.671875 14.394531 C 8.769531 14.34375 8.804688 14.222656 8.75 14.125 Z M 8.246094 13.222656 " fill-opacity="1" fill-rule="nonzero"/><path fill="#ffffff" d="M 15.289062 10.664062 C 15.289062 11.046875 15.683594 11.351562 16.1875 11.351562 C 16.6875 11.351562 17.082031 11.046875 17.082031 10.664062 C 17.082031 10.277344 16.6875 9.976562 16.1875 9.976562 C 15.683594 9.976562 15.289062 10.277344 15.289062 10.664062 Z M 16.6875 10.664062 C 16.6875 10.800781 16.480469 10.953125 16.1875 10.953125 C 15.890625 10.953125 15.6875 10.800781 15.6875 10.664062 C 15.6875 10.527344 15.890625 10.371094 16.1875 10.371094 C 16.480469 10.371094 16.6875 10.527344 16.6875 10.664062 Z M 16.6875 10.664062 " fill-opacity="1" fill-rule="nonzero"/><path fill="#ffffff" d="M 18.179688 8.609375 C 18.683594 8.609375 19.078125 8.308594 19.078125 7.921875 C 19.078125 7.535156 18.683594 7.234375 18.179688 7.234375 C 17.679688 7.234375 17.285156 7.535156 17.285156 7.921875 C 17.285156 8.308594 17.679688 8.609375 18.179688 8.609375 Z M 18.179688 7.628906 C 18.476562 7.628906 18.679688 7.785156 18.679688 7.921875 C 18.679688 8.058594 18.476562 8.214844 18.179688 8.214844 C 17.886719 8.214844 17.683594 8.058594 17.683594 7.921875 C 17.683594 7.785156 17.886719 7.628906 18.179688 7.628906 Z M 18.179688 7.628906 " fill-opacity="1" fill-rule="nonzero"/><path fill="#ffffff" d="M 9.804688 9.785156 C 10.308594 9.785156 10.703125 9.480469 10.703125 9.097656 C 10.703125 8.710938 10.308594 8.410156 9.804688 8.410156 C 9.304688 8.410156 8.910156 8.710938 8.910156 9.097656 C 8.910156 9.480469 9.304688 9.785156 9.804688 9.785156 Z M 9.804688 8.804688 C 10.101562 8.804688 10.304688 8.960938 10.304688 9.097656 C 10.304688 9.234375 10.101562 9.386719 9.804688 9.386719 C 9.511719 9.386719 9.304688 9.234375 9.304688 9.097656 C 9.304688 8.960938 9.511719 8.804688 9.804688 8.804688 Z M 9.804688 8.804688 " fill-opacity="1" fill-rule="nonzero"/><path fill="#ffffff" d="M 12.636719 13.125 C 12.363281 13.1875 12.132812 13.34375 12.007812 13.546875 C 11.917969 13.6875 11.890625 13.847656 11.925781 13.996094 C 12 14.300781 12.3125 14.496094 12.691406 14.496094 C 12.777344 14.496094 12.867188 14.484375 12.957031 14.464844 C 13.234375 14.398438 13.460938 14.246094 13.589844 14.042969 C 13.675781 13.898438 13.707031 13.742188 13.667969 13.589844 C 13.578125 13.214844 13.125 13.011719 12.636719 13.125 Z M 13.25 13.835938 C 13.183594 13.945312 13.035156 14.039062 12.867188 14.078125 C 12.582031 14.144531 12.34375 14.039062 12.3125 13.90625 C 12.296875 13.847656 12.320312 13.792969 12.34375 13.753906 C 12.414062 13.644531 12.558594 13.550781 12.726562 13.511719 C 12.789062 13.496094 12.847656 13.488281 12.90625 13.488281 C 13.109375 13.488281 13.257812 13.578125 13.285156 13.683594 C 13.296875 13.730469 13.285156 13.78125 13.25 13.835938 Z M 13.25 13.835938 " fill-opacity="1" fill-rule="nonzero"/><path fill="#ffffff" d="M 19.007812 15.09375 C 18.734375 15.160156 18.503906 15.3125 18.378906 15.515625 C 18.289062 15.660156 18.261719 15.820312 18.296875 15.96875 C 18.371094 16.273438 18.683594 16.464844 19.058594 16.464844 C 19.148438 16.464844 19.238281 16.453125 19.328125 16.433594 C 19.601562 16.367188 19.832031 16.214844 19.957031 16.011719 C 20.046875 15.871094 20.074219 15.710938 20.039062 15.558594 C 19.949219 15.1875 19.496094 14.980469 19.007812 15.09375 Z M 19.621094 15.804688 C 19.554688 15.917969 19.410156 16.007812 19.238281 16.046875 C 18.949219 16.113281 18.714844 16.011719 18.683594 15.875 C 18.667969 15.816406 18.691406 15.761719 18.714844 15.726562 C 18.785156 15.613281 18.929688 15.519531 19.097656 15.480469 C 19.160156 15.464844 19.21875 15.460938 19.273438 15.460938 C 19.476562 15.460938 19.628906 15.546875 19.65625 15.652344 C 19.667969 15.699219 19.65625 15.75 19.621094 15.804688 Z M 19.621094 15.804688 " fill-opacity="1" fill-rule="nonzero"/><path fill="#ffffff" d="M 17.984375 19.988281 C 17.738281 20.125 17.5625 20.335938 17.5 20.566406 C 17.457031 20.730469 17.472656 20.890625 17.554688 21.027344 C 17.671875 21.222656 17.890625 21.328125 18.144531 21.328125 C 18.316406 21.328125 18.5 21.277344 18.675781 21.179688 C 18.921875 21.039062 19.097656 20.828125 19.160156 20.597656 C 19.203125 20.433594 19.179688 20.273438 19.101562 20.140625 C 18.90625 19.808594 18.414062 19.742188 17.984375 19.988281 Z M 18.777344 20.496094 C 18.742188 20.621094 18.628906 20.75 18.480469 20.835938 C 18.222656 20.980469 17.964844 20.945312 17.894531 20.824219 C 17.863281 20.773438 17.871094 20.710938 17.882812 20.667969 C 17.917969 20.542969 18.027344 20.417969 18.179688 20.332031 C 18.292969 20.265625 18.414062 20.234375 18.511719 20.234375 C 18.628906 20.234375 18.722656 20.277344 18.761719 20.34375 C 18.789062 20.382812 18.792969 20.433594 18.777344 20.496094 Z M 18.777344 20.496094 " fill-opacity="1" fill-rule="nonzero"/><path fill="#ffffff" d="M 12.855469 12.214844 C 12.910156 12.214844 12.960938 12.191406 13 12.148438 C 13.054688 12.089844 13.070312 12.003906 13.035156 11.929688 L 12.285156 10.339844 C 12.183594 10.121094 11.960938 9.988281 11.714844 10.003906 C 11.472656 10.015625 11.277344 10.160156 11.199219 10.382812 C 11.191406 10.402344 11.1875 10.414062 11.1875 10.421875 C 11.019531 11.03125 11.707031 11.796875 12.785156 12.199219 C 12.808594 12.210938 12.832031 12.214844 12.855469 12.214844 Z M 11.574219 10.511719 C 11.605469 10.414062 11.695312 10.398438 11.734375 10.398438 C 11.738281 10.398438 11.742188 10.398438 11.746094 10.398438 C 11.808594 10.398438 11.890625 10.425781 11.929688 10.507812 L 12.445312 11.613281 C 11.777344 11.242188 11.5 10.773438 11.574219 10.511719 Z M 11.574219 10.511719 " fill-opacity="1" fill-rule="nonzero"/><path fill="#ffffff" d="M 23.289062 11.984375 C 23.429688 11.984375 23.574219 11.964844 23.710938 11.933594 C 24.207031 11.808594 24.628906 11.476562 24.863281 11.019531 C 24.957031 10.851562 24.933594 10.644531 24.8125 10.496094 C 24.6875 10.34375 24.492188 10.289062 24.304688 10.34375 C 24.019531 10.429688 23.722656 10.507812 23.425781 10.566406 C 23.074219 10.636719 22.722656 10.691406 22.378906 10.722656 C 22.183594 10.742188 22.023438 10.871094 21.96875 11.054688 C 21.910156 11.238281 21.96875 11.433594 22.117188 11.558594 C 22.449219 11.835938 22.867188 11.984375 23.289062 11.984375 Z M 22.347656 11.171875 C 22.351562 11.152344 22.367188 11.121094 22.417969 11.117188 C 22.773438 11.082031 23.140625 11.027344 23.503906 10.953125 C 23.8125 10.890625 24.121094 10.8125 24.421875 10.722656 C 24.429688 10.722656 24.441406 10.71875 24.449219 10.71875 C 24.476562 10.71875 24.496094 10.738281 24.507812 10.746094 C 24.519531 10.761719 24.535156 10.796875 24.515625 10.835938 C 24.328125 11.195312 24.003906 11.453125 23.617188 11.546875 C 23.183594 11.652344 22.71875 11.542969 22.371094 11.253906 C 22.335938 11.222656 22.339844 11.191406 22.347656 11.171875 Z M 22.347656 11.171875 " fill-opacity="1" fill-rule="nonzero"/><path fill="#ffffff" d="M 14.417969 8.964844 C 14.480469 8.988281 14.542969 9 14.605469 9 C 14.726562 9 14.84375 8.953125 14.9375 8.867188 C 15.152344 8.65625 15.382812 8.453125 15.613281 8.269531 C 15.878906 8.054688 16.164062 7.847656 16.464844 7.65625 C 16.628906 7.550781 16.710938 7.367188 16.675781 7.175781 C 16.644531 6.988281 16.496094 6.839844 16.308594 6.796875 C 15.738281 6.667969 15.144531 6.816406 14.71875 7.1875 C 14.335938 7.523438 14.121094 8.011719 14.125 8.523438 C 14.125 8.714844 14.242188 8.890625 14.417969 8.964844 Z M 14.980469 7.488281 C 15.234375 7.265625 15.5625 7.148438 15.902344 7.148438 C 16.007812 7.148438 16.117188 7.160156 16.222656 7.183594 C 16.273438 7.195312 16.285156 7.230469 16.285156 7.246094 C 16.289062 7.269531 16.289062 7.296875 16.253906 7.320312 C 15.941406 7.523438 15.640625 7.738281 15.363281 7.960938 C 15.125 8.152344 14.886719 8.359375 14.660156 8.582031 C 14.628906 8.613281 14.589844 8.605469 14.574219 8.597656 C 14.558594 8.59375 14.519531 8.570312 14.519531 8.519531 C 14.515625 8.121094 14.683594 7.746094 14.980469 7.488281 Z M 14.980469 7.488281 " fill-opacity="1" fill-rule="nonzero"/><path fill="#ffffff" d="M 5.671875 10.90625 C 6.015625 10.964844 6.363281 11.042969 6.703125 11.136719 C 6.746094 11.148438 6.789062 11.152344 6.832031 11.152344 C 6.976562 11.152344 7.117188 11.089844 7.207031 10.972656 C 7.328125 10.820312 7.34375 10.621094 7.25 10.449219 C 6.976562 9.949219 6.472656 9.605469 5.90625 9.53125 C 5.394531 9.46875 4.882812 9.628906 4.492188 9.96875 C 4.34375 10.097656 4.289062 10.292969 4.351562 10.476562 C 4.414062 10.660156 4.570312 10.785156 4.769531 10.800781 C 5.058594 10.820312 5.363281 10.855469 5.671875 10.90625 Z M 4.726562 10.351562 C 4.722656 10.335938 4.714844 10.300781 4.753906 10.265625 C 5.015625 10.039062 5.347656 9.914062 5.6875 9.914062 C 5.742188 9.914062 5.800781 9.917969 5.855469 9.925781 C 6.296875 9.980469 6.6875 10.25 6.90625 10.640625 C 6.925781 10.679688 6.914062 10.707031 6.898438 10.726562 C 6.886719 10.738281 6.859375 10.769531 6.808594 10.753906 C 6.453125 10.65625 6.09375 10.578125 5.734375 10.519531 C 5.414062 10.464844 5.097656 10.425781 4.800781 10.40625 C 4.75 10.402344 4.734375 10.371094 4.726562 10.351562 Z M 4.726562 10.351562 " fill-opacity="1" fill-rule="nonzero"/></svg>