<svg xmlns="http://www.w3.org/2000/svg" xmlns:xlink="http://www.w3.org/1999/xlink" width="40" zoomAndPan="magnify" viewBox="0 0 30 30.000001" height="40" preserveAspectRatio="xMidYMid meet" version="1.0"><defs><clipPath id="c8b80fd215"><path d="M 3.386719 5.988281 L 25.886719 5.988281 L 25.886719 22.683594 L 3.386719 22.683594 Z M 3.386719 5.988281 " clip-rule="nonzero"/></clipPath></defs><g clip-path="url(#c8b80fd215)"><path fill="#ffffff" d="M 15.816406 8.832031 L 15.816406 10.25 L 13.683594 10.25 L 13.683594 8.832031 Z M 22.59375 16.921875 L 23.179688 21.925781 C 23.195312 22.03125 23.164062 22.128906 23.09375 22.203125 C 23.027344 22.28125 22.933594 22.324219 22.828125 22.324219 L 6.671875 22.324219 C 6.570312 22.324219 6.476562 22.28125 6.40625 22.203125 C 6.335938 22.128906 6.308594 22.03125 6.320312 21.925781 L 6.90625 16.921875 C 7.308594 13.523438 10.1875 10.960938 13.609375 10.960938 L 15.890625 10.960938 C 19.3125 10.960938 22.195312 13.523438 22.59375 16.921875 Z M 23.628906 8.121094 L 21.496094 8.121094 C 21.300781 8.121094 21.140625 8.28125 21.140625 8.476562 C 21.140625 8.671875 21.300781 8.832031 21.496094 8.832031 L 23.628906 8.832031 C 25 8.832031 26.113281 7.714844 26.113281 6.34375 C 26.113281 6.148438 25.953125 5.988281 25.757812 5.988281 L 3.742188 5.988281 C 3.546875 5.988281 3.386719 6.148438 3.386719 6.34375 C 3.386719 7.714844 4.503906 8.832031 5.871094 8.832031 L 12.976562 8.832031 L 12.976562 10.28125 C 9.476562 10.578125 6.617188 13.292969 6.203125 16.835938 L 5.613281 21.84375 C 5.578125 22.148438 5.671875 22.449219 5.875 22.675781 C 6.078125 22.902344 6.367188 23.035156 6.671875 23.035156 L 22.828125 23.035156 C 23.132812 23.035156 23.421875 22.902344 23.625 22.675781 C 23.828125 22.449219 23.921875 22.148438 23.886719 21.84375 L 23.296875 16.835938 C 22.882812 13.292969 20.023438 10.578125 16.527344 10.28125 L 16.527344 8.832031 L 20.078125 8.832031 C 20.273438 8.832031 20.433594 8.671875 20.433594 8.476562 C 20.433594 8.28125 20.273438 8.121094 20.078125 8.121094 L 5.871094 8.121094 C 5.015625 8.121094 4.296875 7.507812 4.132812 6.699219 L 25.367188 6.699219 C 25.203125 7.507812 24.484375 8.121094 23.628906 8.121094 " fill-opacity="1" fill-rule="nonzero"/></g><path fill="#ffffff" d="M 18.246094 14.214844 L 17.957031 14.382812 C 17.785156 14.480469 17.726562 14.699219 17.824219 14.867188 C 17.890625 14.980469 18.011719 15.042969 18.132812 15.042969 C 18.195312 15.042969 18.253906 15.03125 18.3125 14.996094 L 18.601562 14.828125 C 18.8125 15.277344 18.949219 15.769531 18.992188 16.289062 L 18.65625 16.289062 C 18.460938 16.289062 18.300781 16.445312 18.300781 16.640625 C 18.300781 16.839844 18.460938 16.996094 18.65625 16.996094 L 18.992188 16.996094 C 18.949219 17.515625 18.8125 18.007812 18.601562 18.457031 L 18.3125 18.289062 C 18.140625 18.1875 17.925781 18.246094 17.824219 18.417969 C 17.726562 18.585938 17.785156 18.804688 17.957031 18.902344 L 18.246094 19.070312 C 17.957031 19.488281 17.59375 19.847656 17.179688 20.140625 L 17.011719 19.847656 C 16.914062 19.675781 16.695312 19.621094 16.527344 19.71875 C 16.355469 19.816406 16.296875 20.03125 16.394531 20.203125 L 16.5625 20.492188 C 16.113281 20.707031 15.625 20.84375 15.105469 20.886719 L 15.105469 20.546875 C 15.105469 20.351562 14.945312 20.195312 14.75 20.195312 C 14.554688 20.195312 14.394531 20.351562 14.394531 20.546875 L 14.394531 20.886719 C 13.875 20.84375 13.386719 20.707031 12.9375 20.492188 L 13.105469 20.203125 C 13.203125 20.03125 13.144531 19.816406 12.976562 19.71875 C 12.804688 19.621094 12.589844 19.675781 12.488281 19.847656 L 12.320312 20.140625 C 11.90625 19.847656 11.542969 19.488281 11.253906 19.070312 L 11.542969 18.902344 C 11.714844 18.804688 11.773438 18.585938 11.675781 18.417969 C 11.578125 18.246094 11.359375 18.1875 11.191406 18.289062 L 10.898438 18.457031 C 10.6875 18.007812 10.550781 17.515625 10.507812 16.996094 L 10.84375 16.996094 C 11.039062 16.996094 11.199219 16.839844 11.199219 16.640625 C 11.199219 16.445312 11.039062 16.289062 10.84375 16.289062 L 10.507812 16.289062 C 10.550781 15.769531 10.6875 15.277344 10.898438 14.828125 L 11.191406 14.996094 C 11.246094 15.03125 11.304688 15.042969 11.367188 15.042969 C 11.492188 15.042969 11.609375 14.980469 11.675781 14.867188 C 11.773438 14.699219 11.714844 14.480469 11.542969 14.382812 L 11.253906 14.214844 C 11.542969 13.796875 11.90625 13.433594 12.320312 13.144531 L 12.488281 13.4375 C 12.554688 13.550781 12.675781 13.613281 12.796875 13.613281 C 12.859375 13.613281 12.917969 13.597656 12.976562 13.566406 C 13.144531 13.46875 13.203125 13.253906 13.105469 13.082031 L 12.9375 12.792969 C 13.386719 12.578125 13.875 12.441406 14.394531 12.398438 L 14.394531 12.738281 C 14.394531 12.933594 14.554688 13.089844 14.75 13.089844 C 14.945312 13.089844 15.105469 12.933594 15.105469 12.738281 L 15.105469 12.398438 C 15.625 12.441406 16.113281 12.578125 16.5625 12.792969 L 16.394531 13.082031 C 16.296875 13.253906 16.355469 13.46875 16.527344 13.566406 C 16.582031 13.597656 16.640625 13.613281 16.703125 13.613281 C 16.824219 13.613281 16.945312 13.550781 17.011719 13.4375 L 17.179688 13.144531 C 17.59375 13.433594 17.957031 13.796875 18.246094 14.214844 Z M 9.777344 16.640625 C 9.777344 19.382812 12.007812 21.613281 14.75 21.613281 C 17.492188 21.613281 19.722656 19.382812 19.722656 16.640625 C 19.722656 13.902344 17.492188 11.671875 14.75 11.671875 C 12.007812 11.671875 9.777344 13.902344 9.777344 16.640625 " fill-opacity="1" fill-rule="nonzero"/><path fill="#ffffff" d="M 14.75 16.996094 C 14.554688 16.996094 14.394531 16.839844 14.394531 16.640625 C 14.394531 16.445312 14.554688 16.289062 14.75 16.289062 C 14.945312 16.289062 15.105469 16.445312 15.105469 16.640625 C 15.105469 16.839844 14.945312 16.996094 14.75 16.996094 Z M 15.105469 15.640625 L 15.105469 14.15625 C 15.105469 13.960938 14.945312 13.800781 14.75 13.800781 C 14.554688 13.800781 14.394531 13.960938 14.394531 14.15625 L 14.394531 15.640625 C 13.984375 15.789062 13.683594 16.179688 13.683594 16.640625 C 13.683594 17.230469 14.164062 17.707031 14.75 17.707031 C 15.339844 17.707031 15.816406 17.230469 15.816406 16.640625 C 15.816406 16.179688 15.519531 15.789062 15.105469 15.640625 " fill-opacity="1" fill-rule="nonzero"/></svg>