<?xml version="1.0" encoding="utf-8"?>
<!-- Generator: Adobe Illustrator 27.0.0, SVG Export Plug-In . SVG Version: 6.00 Build 0)  -->
<svg version="1.1" id="Capa_1" xmlns="http://www.w3.org/2000/svg" xmlns:xlink="http://www.w3.org/1999/xlink" x="0px" y="0px"
	 viewBox="0 0 40 40" style="enable-background:new 0 0 40 40;" xml:space="preserve">
<style type="text/css">
	.st0{fill:#FFFFFF;}
	.st1{clip-path:url(#SVGID_00000068661967854979767740000005062746534676135057_);}
	.st2{clip-path:url(#SVGID_00000003065462855101652570000001911093384665619098_);}
</style>
<g>
	<g>
		<path class="st0" d="M12.8,18.2c-0.2-0.1-0.3-0.2-0.5-0.3c-0.2-0.1-0.3-0.2-0.5-0.3c-0.1-0.1-0.2-0.1-0.3-0.2c0,0-0.1,0-0.1-0.1
			c-0.1-0.1-0.2-0.1-0.3-0.2C11,17.1,10.9,17,10.8,17c0,0-0.1-0.1-0.1-0.1c-0.1-0.1-0.2-0.1-0.2-0.2c0,0,0,0-0.1,0c0,0,0,0,0,0
			c-0.2,0-0.2-0.1-0.4-0.2c-0.1-0.1-0.1-0.1-0.2-0.1c0,0,0,0,0,0c0,0-0.1-0.1-0.1-0.1c0,0-0.1,0-0.1-0.1c0,0,0,0,0,0
			c-0.2-0.1-0.3-0.3-0.5-0.4c0,0-0.1-0.1-0.1-0.1c-0.1-0.1-0.2-0.2-0.2-0.3c-0.1-0.1-0.1-0.2-0.2-0.3c0,0-0.1-0.1-0.1-0.2
			c0,0,0,0,0,0c-0.1-0.1-0.1-0.2-0.1-0.3c-0.1-0.1-0.1-0.2-0.1-0.3c0,0,0,0,0-0.1c0.1-0.1,0-0.3,0.1-0.4c0-0.1,0-0.2,0.1-0.3
			c0,0,0-0.1,0-0.1c0-0.1,0-0.2,0.1-0.3c0-0.1,0.1-0.2,0.2-0.3c0,0,0-0.1,0.1-0.1c0.1-0.1,0.2-0.2,0.3-0.3c0.1-0.1,0.2-0.2,0.3-0.3
			c0.1,0,0.1-0.1,0.2-0.2c0,0,0,0,0,0c0.1,0,0.2-0.1,0.3-0.1c0,0,0,0,0.1,0c0.1,0,0.1-0.1,0.2-0.1c0.1,0,0.2-0.1,0.2,0
			c0.1,0,0.2,0,0.3,0c0.1,0,0.2-0.1,0.4-0.1c0.1,0,0.2,0,0.2,0c0,0,0.1,0,0.1,0c0.1,0,0.2,0,0.3-0.1c0.1,0,0.1,0,0.2,0
			c0.2,0,0.3,0,0.5-0.1c0.1,0,0.3,0,0.4,0c0.2,0,0.3,0.1,0.5,0.1c0.1,0,0.3,0,0.4,0c0.1,0,0.1,0,0.2,0c0.1,0,0.2,0,0.2,0
			c0.1,0,0.2,0,0.2,0c0.1,0,0.2,0,0.2,0c0,0,0.1,0,0.1,0c0.1,0,0.3,0.1,0.4,0.1c0.1,0,0.1,0.1,0.2,0.1c0,0,0.1,0,0.1,0
			c0.1,0,0.1,0,0.2,0.1c0,0,0.1,0,0.1,0c0.2,0,0.3,0.1,0.5,0.1c0.1,0,0.1,0.1,0.2,0.1c0.1,0,0.2,0.1,0.2,0.1c0.1,0,0.1,0.1,0.2,0.1
			c0.1,0.1,0.2,0.1,0.3,0.2c0.1,0,0.2,0.1,0.3,0.1c0.2,0.1,0.4,0.2,0.6,0.3c0.1,0.1,0.3,0.1,0.4,0.2c0,0,0.1,0,0.1,0
			c0.1,0.1,0.2,0.1,0.3,0.2c0.1,0.1,0.2,0.1,0.3,0.2c0.1,0.1,0.3,0.1,0.4,0.2c0,0,0.1,0.1,0.1,0.1c0.1,0.1,0.2,0.1,0.3,0.2
			c0,0,0,0,0,0c0.1,0,0.1,0,0.2,0.1c0.1,0,0.2,0.1,0.3,0.2c0.1,0.1,0.2,0.1,0.3,0.2c0.1,0,0.2,0.1,0.2,0.1c0,0,0.1,0,0.1,0
			c0.1,0,0.1,0,0.1,0.1c0.2,0.1,0.3,0.2,0.6,0.3c0.1,0,0.2,0,0.3,0.1c0,0,0.1,0,0.2,0c0.1,0.1,0.3,0.1,0.4,0.2c0,0,0,0,0,0
			c0.1,0,0.1,0,0.2,0.1c0.1,0,0.2,0.1,0.3,0.1c0.1,0,0.1,0.1,0.1,0.1c0.1,0.1,0.3,0.1,0.4,0.2c0.1,0,0.1,0.1,0.2,0.1
			c0,0,0.1,0,0.2,0c0.1,0,0.3-0.1,0.4-0.1c0.1,0,0.1,0,0.1-0.1c0,0,0.1,0,0.1-0.1c0.1,0,0.2-0.1,0.3-0.1c0.1,0,0.2,0,0.3,0
			c0.1,0,0.1,0,0.2,0c0.1,0,0.2,0,0.4,0c0.1,0,0.2,0,0.3-0.1c0.1-0.1,0.2,0,0.3,0c0.1,0,0.2,0,0.3,0c0,0,0.1,0,0.1,0
			c0.1,0,0.2,0,0.3,0c0.1,0,0.2,0,0.3,0c0.1,0,0.2,0,0.3,0c0,0,0,0,0.1,0c0,0,0,0,0.1,0c0,0,0.1,0,0.1,0c0.1,0,0.3,0,0.4,0
			c0.1,0,0.3,0,0.4,0c0.1,0,0.3,0,0.4,0c0.1,0,0.2,0,0.4,0c0.1,0,0.2,0,0.3,0c0.1,0,0.2,0.1,0.3,0.1c0.2,0,0.3,0.1,0.4,0.1
			c0.2,0.1,0.4,0.1,0.5,0.2c0.1,0,0.2,0.1,0.3,0.1c0,0,0.1,0.1,0.1,0.1c0.1,0,0.1,0.1,0.2,0.1c0.1,0.1,0.2,0.1,0.2,0.1
			c0.1,0,0.2,0.1,0.3,0.1c0,0,0,0,0,0c0.2,0.1,0.4,0.2,0.6,0.3c0.1,0.1,0.2,0.1,0.3,0.2c0,0.1,0.1,0.1,0.2,0.2
			c0.1,0.1,0.1,0.1,0.2,0.2c0.1,0.1,0.3,0.3,0.3,0.4c0,0.1,0.1,0.2,0.1,0.3c0,0.1,0,0.2,0,0.3c0,0.1,0,0.1,0,0.2c0,0,0,0.1,0,0.1
			c0,0.1,0,0.2-0.1,0.3c0,0.1,0,0.1-0.1,0.2c0,0,0,0,0,0c0,0.1-0.1,0.2-0.2,0.3c-0.1,0.1-0.2,0.2-0.4,0.3c-0.1,0-0.2,0.1-0.2,0.1
			c0,0,0,0-0.1,0c-0.2,0.1-0.3,0.2-0.5,0.2c-0.1,0-0.1,0.1-0.2,0.1c-0.1,0-0.1,0-0.2,0.1c-0.1,0.1-0.2,0.1-0.3,0.1
			c-0.1,0-0.1,0-0.2,0c0,0,0,0,0,0c-0.1,0-0.1,0.1,0,0.1c0,0,0,0,0,0c0.1,0.1,0.2,0.1,0.4,0.2c0.1,0.1,0.2,0.2,0.3,0.2
			c0.1,0.1,0.2,0.2,0.3,0.2c0.1,0,0.2,0.1,0.2,0.1c0,0,0.1,0,0.1,0.1c0.1,0.1,0.2,0.1,0.3,0.2c0,0,0,0,0.1,0c0,0,0,0,0,0
			c0,0.1,0.1,0.1,0.1,0.1c0.2,0.2,0.3,0.3,0.5,0.4c0.1,0.1,0.1,0.1,0.2,0.2c0,0.1,0.2,0.1,0.2,0.2c0.1,0.1,0.1,0.1,0.2,0.2
			c0,0,0.1,0.1,0.1,0.1c0.1,0.1,0.1,0.1,0.2,0.2c0.1,0.1,0.2,0.2,0.3,0.3c0.1,0.1,0.1,0.2,0.2,0.3c0,0.1,0.1,0.2,0.1,0.3
			c0.1,0.1,0.1,0.2,0.1,0.3c0,0.2,0.1,0.5,0.2,0.7c0,0.1,0,0.3,0.1,0.4c0,0.1,0,0.2,0,0.3c0,0.1-0.1,0.3-0.1,0.4
			C36.1,25.8,36,25.9,36,26c-0.1,0.1-0.1,0.3-0.2,0.4c-0.1,0.1-0.2,0.3-0.3,0.3c0,0-0.1,0.1-0.1,0.1C35.3,27,35.1,27,35,27.2
			c-0.1,0.1-0.2,0.1-0.2,0.2c-0.1,0-0.2,0.1-0.3,0.1c-0.2,0.1-0.3,0.1-0.5,0.1c-0.1,0-0.3,0-0.4,0c-0.1,0-0.2,0-0.3,0
			c-0.1,0-0.3,0-0.4,0c-0.1,0-0.2,0-0.3-0.1c-0.1,0-0.2-0.1-0.3-0.1c-0.1,0-0.2,0-0.3-0.1c-0.2,0-0.4-0.2-0.6-0.2
			c-0.1,0-0.1-0.1-0.2-0.1c0,0-0.1-0.1-0.1-0.1c-0.1-0.1-0.2-0.1-0.3-0.2c-0.1-0.1-0.2-0.1-0.2-0.1c-0.1,0-0.2-0.1-0.2-0.1
			c-0.1-0.1-0.2-0.1-0.3-0.1c-0.2-0.1-0.4-0.1-0.6-0.2c-0.1,0-0.1-0.1-0.2-0.1c0,0-0.1,0-0.1,0c0,0-0.1,0-0.1-0.1c0,0,0,0-0.1,0
			c-0.1,0-0.1,0-0.2-0.1c-0.1-0.1-0.2-0.1-0.2-0.2c0,0,0,0,0,0c-0.1,0-0.2-0.1-0.3-0.2c0,0-0.1,0-0.1-0.1c-0.1,0-0.2-0.1-0.2-0.1
			c-0.1,0-0.2-0.1-0.2-0.1c-0.1,0-0.2-0.1-0.2-0.1c-0.1,0-0.2-0.1-0.3-0.1c-0.1-0.1-0.2-0.1-0.3-0.2c0,0-0.1,0-0.1,0
			c-0.1,0-0.1,0-0.2-0.1c-0.2-0.1-0.4-0.2-0.6-0.3c0,0-0.1-0.1-0.1-0.1c-0.1-0.1-0.3-0.1-0.4-0.2c-0.1-0.1-0.3-0.2-0.4-0.2
			c0,0,0,0,0,0c-0.1-0.1-0.2-0.1-0.3-0.2c-0.1,0-0.1,0-0.1-0.1c-0.1-0.1-0.2-0.1-0.4-0.2c-0.2-0.1-0.3-0.2-0.5-0.2
			c-0.1,0-0.2-0.1-0.4-0.2c-0.1,0-0.2-0.1-0.3-0.2c-0.1,0-0.1,0-0.2-0.1c-0.1,0-0.2-0.1-0.3-0.1c-0.2-0.1-0.4-0.2-0.6-0.3
			c0,0,0,0-0.1,0c-0.1,0-0.1,0-0.2,0c-0.1,0.1-0.3,0.1-0.4,0.1c-0.1,0-0.2,0-0.4,0.1c-0.1,0-0.2,0-0.2,0.1c-0.1,0-0.1,0.1-0.2,0.1
			c0,0-0.1,0-0.1,0c0,0,0,0-0.1,0c-0.1,0.1-0.2,0.1-0.3,0.1c0,0,0,0-0.1,0c0,0-0.1,0-0.1,0c-0.2,0-0.3,0.1-0.5,0.1
			c-0.1,0-0.2,0.1-0.3,0.1c-0.1,0-0.2,0.1-0.3,0.1c-0.1,0-0.2,0.1-0.3,0.1c-0.1,0-0.2,0-0.2,0.1c-0.1,0-0.2,0.1-0.3,0.1
			c-0.1,0-0.2,0.1-0.3,0.1c-0.1,0-0.2,0.1-0.3,0.1c0,0,0,0,0,0c-0.1,0.1-0.3,0.1-0.4,0.1c-0.1,0-0.2,0.1-0.3,0.1
			c-0.2,0-0.3,0.1-0.5,0.1c-0.1,0-0.2,0.1-0.3,0.1c-0.1,0-0.3,0.1-0.4,0.1c-0.1,0-0.3,0.1-0.4,0.1c-0.1,0-0.2,0-0.3,0
			c-0.1,0-0.2,0-0.3,0c-0.1,0-0.3,0.1-0.4,0.1c-0.1,0-0.2,0.1-0.3,0.1c-0.2,0-0.3,0.1-0.5,0.1c-0.1,0-0.1,0-0.2,0.1
			c-0.2,0.1-0.4,0.1-0.6,0.1c-0.1,0-0.2,0-0.3,0.1c-0.2,0-0.4,0-0.5,0.1c-0.1,0-0.3,0-0.4,0.1c-0.1,0-0.2,0-0.4,0
			c-0.2,0-0.4,0.1-0.6,0.1c-0.1,0-0.2,0-0.3,0c-0.1,0-0.1,0-0.2,0c-0.1,0-0.1,0-0.2,0c-0.2,0-0.3,0-0.5,0c-0.1,0-0.2,0-0.3,0
			c-0.2,0-0.4,0-0.6,0c-0.1,0-0.3,0.1-0.4,0.1c-0.1,0-0.3,0.1-0.4,0.1c-0.1,0-0.2,0-0.4,0c-0.2,0-0.4,0-0.5,0c-0.1,0-0.3,0-0.4,0
			c-0.1,0-0.2-0.1-0.4-0.1c0,0-0.1,0-0.1-0.1c-0.1-0.1-0.2-0.2-0.3-0.3c-0.1-0.1-0.3-0.3-0.4-0.4c-0.1-0.1-0.1-0.1-0.1-0.2
			c0-0.1-0.1-0.2-0.1-0.4c0-0.1,0-0.1,0-0.2c0-0.1,0-0.2,0-0.3c0-0.1,0-0.2-0.1-0.3c0-0.2,0-0.3,0-0.5c0-0.1,0-0.2,0.1-0.3
			c0-0.1,0-0.1,0.1-0.2c0,0,0-0.1,0.1-0.1c0,0,0.1-0.1,0.1-0.1C4.9,22,5,21.9,5.1,21.7c0-0.1,0.1-0.2,0.2-0.2c0-0.1,0.1-0.2,0.2-0.3
			c0.1-0.1,0.2-0.2,0.3-0.3c0.1-0.1,0.2-0.1,0.3-0.2c0,0,0.1,0,0.1-0.1c0.1-0.2,0.3-0.2,0.5-0.3c0.1,0,0.1-0.1,0.2-0.1
			C6.9,20.1,7,20.1,7,20c0.1,0,0.1-0.1,0.2-0.1c0,0,0,0,0,0c0.1,0,0.1-0.1,0.2-0.1c0.1-0.1,0.3-0.1,0.4-0.2c0.1,0,0.1-0.1,0.2-0.1
			c0.1-0.1,0.2-0.1,0.4-0.2c0.1-0.1,0.2-0.1,0.3-0.2c0.1,0,0.2-0.1,0.3-0.1c0,0,0,0,0.1,0C9.2,19,9.4,19,9.5,18.9
			c0.2-0.1,0.4-0.1,0.7-0.2c0.1,0,0.2-0.1,0.4-0.1c0.1,0,0.2-0.1,0.3-0.1c0.1,0,0.2,0,0.3-0.1c0.1,0,0.1,0,0.2,0
			c0.2-0.1,0.4-0.1,0.6-0.2c0.1,0,0.3,0,0.4,0c0.1,0,0.1,0,0.2,0C12.6,18.2,12.7,18.2,12.8,18.2z M15.6,19.6L15.6,19.6
			C15.6,19.6,15.5,19.6,15.6,19.6c-0.1-0.1-0.1-0.1-0.2,0c-0.1,0.1-0.2,0.2-0.3,0.3c0,0-0.1,0.1-0.1,0.1c0,0,0,0,0,0
			c0.2-0.1,0.3-0.3,0.5-0.5c0,0-0.1-0.1-0.1-0.1c-0.1-0.1-0.2-0.1-0.4,0c0,0-0.1,0.1-0.1,0.1c-0.1,0.1-0.2,0.2-0.3,0.2
			c0,0,0,0-0.1,0c0,0,0,0,0-0.1c0.1-0.1,0.3-0.3,0.4-0.4c0,0,0,0,0,0c0,0,0,0,0,0c-0.1,0-0.1,0-0.1-0.1c-0.1-0.1-0.2-0.1-0.3,0
			c0,0,0,0.1-0.1,0.1c-0.1,0.1-0.2,0.2-0.3,0.3c0.1,0.1,0.1,0.1,0.1,0c0.1-0.1,0.2-0.2,0.3-0.3c0.1,0,0.1-0.1,0.2-0.1
			c-0.2,0.1-0.3,0.3-0.5,0.4c0.1,0.1,0.2,0.1,0.2,0.1c0.1,0,0.1,0,0.1,0c0,0,0.1-0.1,0.1-0.1c0,0,0.1-0.1,0.1-0.1
			c0.1,0,0.2-0.1,0.2-0.2c0,0,0,0,0,0c0,0-0.1,0.1-0.1,0.1c0,0,0.1,0,0.1,0c0,0,0,0,0.1,0c0,0,0,0,0,0.1c0,0,0,0-0.1,0
			c-0.1,0-0.1,0-0.2,0.1c-0.1,0-0.1,0-0.2,0.1c-0.1,0.2-0.1,0.2,0.1,0.3c0,0,0.1,0,0.1,0.1c0.1,0,0.2,0.1,0.4,0.1c0.1,0,0.1,0,0.1,0
			c0.1-0.1,0.1-0.1,0.2-0.2c0,0,0.1-0.1,0.2-0.1c-0.1,0.1-0.1,0.1-0.2,0.1c-0.1,0.1-0.1,0.1-0.2,0.2c0,0,0.1,0,0.1,0.1c0,0,0,0,0,0
			c0.1-0.1,0.2-0.2,0.3-0.3c0,0,0-0.1,0-0.1c-0.1,0-0.1-0.1-0.2-0.1c-0.1-0.1-0.1-0.1-0.2,0c-0.1,0.1-0.2,0.2-0.3,0.2
			c0,0-0.1,0.1-0.1,0.1c0,0,0,0,0,0c0.1-0.1,0.2-0.2,0.3-0.3C15.8,19.7,15.7,19.7,15.6,19.6C15.6,19.7,15.6,19.6,15.6,19.6z M13,19
			c0-0.1,0-0.1,0.1-0.1c0.1-0.1,0.2-0.3,0.4-0.4c0,0-0.1,0-0.1,0c-0.1-0.1-0.2-0.1-0.3-0.1c-0.1,0-0.1,0-0.2,0.1
			c-0.1,0.1-0.2,0.2-0.3,0.3c0,0,0,0,0,0.1c0,0,0.1,0.1,0.1,0c0.1-0.1,0.2-0.1,0.3-0.2c0,0,0-0.1,0.1-0.1c0,0,0-0.1,0.1,0
			c0,0,0,0.1,0,0.1c0,0.1-0.1,0.1-0.1,0.2c-0.1,0.1-0.1,0.1-0.2,0.2C12.9,18.9,12.9,19,13,19C13,19,13.1,19,13,19c0,0-0.1,0-0.2-0.1
			c0,0-0.1-0.1-0.1-0.1c-0.1,0-0.1-0.1-0.1-0.1c-0.1,0-0.2-0.1-0.2-0.1c-0.2-0.1-0.3-0.1-0.6-0.1c-0.1,0-0.2,0.1-0.3,0.1
			c-0.2,0.1-0.4,0.1-0.6,0.2c-0.2,0.1-0.3,0.1-0.5,0.1c-0.1,0-0.1,0-0.2,0.1c-0.1,0-0.2,0.1-0.3,0.1c-0.1,0-0.2,0.1-0.4,0.1
			c-0.2,0.1-0.3,0.1-0.5,0.2c-0.1,0-0.2,0.1-0.2,0.1c-0.1,0.1-0.2,0.1-0.3,0.2c0,0-0.1,0-0.2,0.1C8,19.8,7.8,19.9,7.7,20
			c0,0,0,0,0,0c-0.1,0-0.2,0.1-0.3,0.1c-0.1,0-0.2,0.1-0.2,0.1c-0.1,0.1-0.2,0.1-0.2,0.2c-0.1,0.1-0.2,0.1-0.4,0.2
			c-0.1,0.1-0.2,0.1-0.3,0.2C6.2,20.9,6.1,21,6.1,21c-0.1,0.1-0.3,0.2-0.3,0.3c0,0,0,0,0,0c-0.1,0-0.1,0.1-0.1,0.1
			c-0.1,0.1-0.1,0.3-0.2,0.4c0,0,0,0,0,0.1c0,0.1-0.1,0.2-0.2,0.3c0,0.1-0.1,0.2-0.2,0.3c0,0.1,0,0.1,0,0.1
			c-0.1,0.1-0.1,0.2-0.1,0.3c0,0,0,0,0,0c-0.1,0.1,0,0.2,0,0.3c0,0.2,0.1,0.4,0.1,0.6c0,0.1,0,0.2,0,0.3c0,0.1,0,0.3,0.1,0.4
			c0,0.1,0.1,0.1,0.1,0.2c0,0,0.1,0.1,0.1,0.1c0,0,0.1,0.1,0.1,0.1c0.1,0.1,0.1,0.1,0.2,0.2c0.1,0.1,0.2,0.1,0.3,0.2
			c0.2,0,0.3,0.1,0.5,0.1c0.1,0,0.2,0,0.3,0c0.1,0,0.2,0,0.2,0c0.1,0,0.2,0,0.3,0c0.1,0,0.2,0,0.2,0c0.1,0,0.2,0,0.3,0
			c0.1,0,0.3-0.1,0.4-0.1c0.1,0,0.3,0,0.4,0c0.1,0,0.2,0,0.3,0c0,0,0.1,0,0.1,0c0.1,0,0.2-0.1,0.3,0c0,0,0,0,0,0c0.1,0,0.3,0,0.4,0
			c0.2,0,0.3,0,0.4-0.1c0.2,0,0.3-0.1,0.5-0.1c0.1,0,0.2,0,0.3,0c0.2-0.1,0.3,0,0.5-0.1c0.2,0,0.3,0,0.5,0c0.1,0,0.1,0,0.2,0
			c0,0,0.1,0,0.1-0.1c0-0.2,0.1-0.3,0.2-0.4c-0.1,0-0.1,0-0.2,0.1c0,0.1-0.1,0.1-0.1,0.2c0,0,0,0.1-0.1,0.1c0,0,0,0,0,0
			c0,0,0,0,0-0.1c0,0,0,0,0,0c0-0.1,0.1-0.2,0.1-0.3c-0.1,0-0.1,0-0.2,0c0,0-0.1,0-0.1,0.1c0,0.1-0.1,0.2-0.1,0.2
			c0,0.1,0,0.1-0.1,0.1c0.1-0.1,0.1-0.2,0.1-0.4c-0.1,0-0.1,0-0.2,0c-0.1,0-0.1,0.1-0.1,0.1c0,0.1,0,0.1-0.1,0.2c0,0-0.1,0.1-0.1,0
			c0-0.1,0.1-0.2,0.1-0.3c-0.1,0-0.2,0-0.3,0.1c0-0.1,0-0.1,0.1-0.1c0.1,0,0.1,0,0.2,0c0.1,0,0.1,0,0.1-0.1c0,0,0,0,0.1,0
			c0,0,0.1,0,0.1,0c0.1,0,0.2-0.1,0.3-0.1c0.2,0,0.3-0.1,0.5-0.1c0.4-0.1,0.7-0.3,1.1-0.3c0.3-0.1,0.5-0.1,0.8-0.2
			c0.1,0,0.2,0,0.3-0.1c0,0,0.1,0,0.1,0c0.1,0,0.2,0,0.3-0.1c0,0,0,0,0,0c0,0.1,0.1,0,0.1,0c0.1,0,0.2,0,0.4-0.1
			c0.2,0,0.4-0.1,0.6-0.1c0.3-0.1,0.6-0.2,1-0.2c0.3-0.1,0.6-0.2,0.9-0.2c0.3-0.1,0.5-0.1,0.8-0.2c0.2-0.1,0.4-0.1,0.5-0.2
			c0,0,0,0,0,0c0,0,0.1,0,0.1,0c0.2-0.1,0.3-0.1,0.5-0.1c0.1,0,0.2,0,0.2-0.1c0,0,0.1,0,0.1,0c0,0,0,0,0,0c0,0,0.1,0,0.1,0
			c0.1,0,0.1,0,0.1-0.1c0,0,0,0,0.1,0c0,0.1-0.1,0.1-0.1,0.2c0,0.1-0.1,0.1-0.1,0.2c0,0.1-0.1,0.1-0.1,0.2c0.1,0,0.1,0,0.2,0
			c0.1,0,0.2-0.1,0.2-0.2c0-0.1,0.1-0.2,0.1-0.3c0,0,0-0.1,0.1-0.1c0,0,0,0,0,0c0,0,0,0,0,0c0,0.1-0.1,0.2-0.1,0.3c0,0,0,0,0,0
			c0.1,0,0.2,0,0.3-0.2c0,0,0-0.1,0-0.1c0,0,0-0.1,0-0.1c-0.1,0-0.1-0.1-0.2-0.1c0,0,0,0,0,0c-0.1-0.1-0.2-0.1-0.3-0.1
			c-0.1,0-0.1,0-0.2-0.1c-0.1-0.1-0.2-0.1-0.3-0.1c0,0-0.1,0-0.1,0c-0.1-0.1-0.2-0.1-0.3-0.1c-0.1,0-0.1,0-0.2,0
			c0,0-0.1-0.1-0.1-0.1c-0.1,0-0.1,0-0.2-0.1c-0.1-0.1-0.2-0.1-0.4-0.2c-0.1,0-0.1,0-0.2,0c-0.5,0.1-0.9,0-1.3-0.2
			c-0.1,0-0.1,0-0.2,0c-0.1,0-0.1,0-0.2,0c-0.1,0-0.2,0-0.3,0.1c-0.1,0-0.2,0.1-0.3,0.1c-0.1,0-0.1,0-0.2,0c0,0,0,0,0,0c0,0,0,0,0,0
			c0,0,0,0,0.1,0c0.1,0,0.2-0.1,0.2-0.1c0.1,0,0.2-0.1,0.3-0.1c-0.1,0-0.1-0.1-0.2,0c-0.1,0-0.3,0.1-0.4,0.2
			c-0.1,0.1-0.3,0.1-0.4,0.2c0,0-0.1,0-0.1,0c0,0,0-0.1,0-0.1c0,0,0,0,0,0c0.2-0.1,0.5-0.3,0.7-0.4c-0.1-0.1-0.2-0.1-0.3-0.2
			c-0.1-0.1-0.2-0.1-0.3-0.2c-0.1,0-0.2-0.1-0.2-0.1c-0.1,0-0.2,0-0.2-0.1c-0.2-0.1-0.4-0.1-0.6-0.3c-0.1,0.1-0.2,0.1-0.3,0.2
			c-0.1,0-0.1,0.1-0.2,0.1c0,0.1-0.1,0.1-0.1,0.1c-0.1,0-0.2,0.1-0.2,0.2c0-0.1,0-0.2,0.1-0.3c0.1,0,0.1-0.1,0.1-0.1
			c0.1-0.1,0.1-0.1,0.2-0.2c0.1,0,0.1-0.1,0.2-0.1c0.1-0.1,0.1-0.1,0-0.1c-0.1-0.1-0.2-0.1-0.3-0.2c-0.2-0.1-0.4-0.2-0.5-0.3
			c0,0,0,0,0,0c0.1,0,0.1,0,0.1,0.1c0.1,0,0.2,0.1,0.2,0.1c0,0,0.1,0,0.1,0c0.2-0.2,0.3-0.3,0.5-0.4c0,0,0,0,0,0c0,0,0,0-0.1,0
			c-0.1-0.1-0.1-0.1-0.1,0c-0.1,0.1-0.2,0.2-0.3,0.3c0,0-0.1,0.1-0.1,0.1c0,0,0,0-0.1,0c0,0,0,0,0,0c0.2-0.1,0.3-0.3,0.4-0.4
			c0,0-0.1-0.1-0.1-0.1c-0.2-0.1-0.2-0.1-0.3,0c-0.1,0.1-0.2,0.2-0.3,0.3c0,0,0,0-0.1,0c0,0,0,0,0,0c0.1-0.1,0.2-0.3,0.4-0.4
			c0,0,0,0,0-0.1c-0.1-0.1-0.1-0.1-0.2,0c-0.1,0.1-0.2,0.2-0.3,0.3c0,0-0.1,0.1-0.1,0.1c0,0,0-0.1,0.1-0.1c0.1-0.1,0.2-0.2,0.3-0.3
			c0,0,0,0,0-0.1c0,0,0,0,0,0c-0.1,0-0.1,0-0.1,0c-0.1,0.1-0.2,0.2-0.3,0.3c0,0,0,0-0.1,0c0,0,0,0,0,0c0,0,0,0,0,0c0,0,0,0,0,0
			c0.1-0.1,0.3-0.3,0.4-0.4c0,0,0,0,0,0c-0.1-0.1-0.1,0-0.2,0c-0.1,0.1-0.1,0.2-0.2,0.2C13.2,18.9,13.1,18.9,13,19z M17.1,12.6
			C17.1,12.6,17.1,12.6,17.1,12.6c-0.2-0.1-0.3-0.2-0.4-0.2c-0.1,0-0.1-0.1-0.2-0.1c-0.1,0-0.2-0.1-0.3-0.1c-0.1,0-0.1-0.1-0.2-0.1
			c0,0-0.1,0-0.1,0c-0.2-0.1-0.4-0.1-0.6-0.2c-0.1,0-0.2-0.1-0.3-0.1c-0.2,0-0.3-0.1-0.5-0.1c-0.2,0-0.3-0.1-0.5-0.1
			c0,0-0.1,0-0.1,0c-0.1,0-0.2,0-0.3,0c-0.1,0-0.2,0-0.2,0c-0.1,0-0.2,0-0.3,0c0,0,0,0-0.1,0c-0.1,0-0.2,0-0.2,0c-0.1,0-0.2,0-0.3,0
			c-0.2,0.1-0.5,0-0.7,0.1c-0.1,0-0.2,0-0.3,0c0,0-0.1,0-0.1,0c-0.1,0.1-0.3,0.1-0.4,0.1c-0.1,0-0.2,0-0.3,0c-0.1,0-0.2,0-0.2,0
			c-0.1,0-0.2,0.1-0.3,0.1c-0.1,0-0.2,0.1-0.2,0.1c-0.1,0.1-0.2,0.1-0.3,0.2c0,0-0.1,0.1-0.1,0.1c-0.1,0.1-0.1,0.2-0.2,0.2
			c0,0-0.1,0.1-0.1,0.1c0,0.1-0.1,0.2-0.2,0.2c0,0-0.1,0.1-0.1,0.1c-0.1,0.1-0.1,0.2-0.1,0.3c0,0.1,0,0.1,0,0.1
			c-0.1,0.1-0.1,0.2-0.1,0.3c0,0.1,0,0.2,0,0.4c0,0.1,0.1,0.3,0.1,0.4c0,0.1,0.1,0.2,0.1,0.3c0.1,0.2,0.2,0.3,0.3,0.5
			c0,0.1,0.1,0.1,0.1,0.1c0.1,0.1,0.2,0.1,0.3,0.2c0,0.1,0.1,0.1,0.2,0.1c0.1,0.1,0.2,0.1,0.3,0.2c0.1,0.1,0.2,0.2,0.3,0.3
			c0.1,0.1,0.1,0.1,0.2,0.1c0.1,0,0.1,0.1,0.2,0.1c0.1,0.1,0.2,0.1,0.3,0.2c0,0,0.1,0.1,0.1,0.1c0.1,0.1,0.2,0.1,0.2,0.2
			c0.1,0.1,0.1,0.1,0.2,0.1c0,0,0.1,0,0.1,0.1c0,0,0.1,0.1,0.1,0.1c0,0,0,0,0.1,0c0.1,0,0.2,0.1,0.3,0.2c0.1,0.1,0.2,0.1,0.3,0.2
			c0,0,0.1,0,0.1,0.1c0.1,0.1,0.2,0.1,0.3,0.2c0.1,0,0.1,0.1,0.2,0.1c0.1,0,0.2,0.1,0.3,0.2c0.1,0.1,0.3,0.1,0.4,0.2c0,0,0,0,0.1,0
			c0,0,0.1,0,0.1,0.1c0,0,0.1,0,0.1,0.1c0.1,0.1,0.2,0.1,0.3,0.2c0.1,0,0.1,0.1,0.2,0.1c0.1,0.1,0.3,0.1,0.4,0.2
			c0.1,0,0.2,0.1,0.2,0.1c0.1,0,0.2,0.1,0.2,0.1c0,0,0,0,0.1,0c0.2,0.1,0.4,0.2,0.6,0.4c0,0,0,0,0.1,0c0.1,0,0.1,0.1,0.2,0.1
			c0,0,0.1,0.1,0.2,0.1c0,0,0.1,0,0.1,0c0,0,0,0,0.1,0c0.1,0,0.2,0.1,0.3,0.1c0,0,0,0,0.1,0c0.1,0.1,0.2,0.1,0.3,0.2
			c0,0,0.1,0.1,0.1,0.1c0.1,0,0.2,0.1,0.3,0.1c0.1,0.1,0.3,0.1,0.4,0.2c0,0,0,0,0,0c0.1,0,0.2,0.1,0.3,0.1c0.1,0.1,0.3,0.1,0.4,0.2
			c0.1,0,0.2,0.1,0.3,0.2c0.1,0.1,0.3,0.1,0.4,0.2c0.1,0,0.1,0,0.2,0c0.1,0,0.1,0.1,0.2,0.1c0.1,0.1,0.2,0.1,0.3,0.1
			c0,0,0.1,0.1,0.2,0.1c0.2,0,0.3,0.1,0.4,0.2c0.1,0,0.2,0.1,0.3,0.1c0.1,0,0.1,0.1,0.2,0.1c0.1,0,0.1,0,0.2,0.1
			c0.1,0.1,0.2,0.1,0.4,0.1c0.2,0.1,0.3,0.2,0.5,0.2c0.1,0.1,0.3,0.1,0.4,0.2c0,0,0.1,0,0.2,0c0.1,0.1,0.3,0.1,0.4,0.2
			c0.1,0,0.2,0.1,0.3,0.2c0.1,0,0.1,0,0.2,0.1c0.1,0.1,0.2,0.1,0.3,0.2c0.2,0.1,0.3,0.2,0.5,0.2c0.1,0,0.1,0,0.2,0.1c0,0,0,0,0.1,0
			c0,0,0.1,0,0.1,0c0.1,0,0.2,0.1,0.2,0.1c0.1,0,0.1,0,0.2,0.1c0.1,0.1,0.2,0.1,0.4,0.2c0.1,0.1,0.2,0.1,0.3,0.1
			c0.1,0,0.1,0.1,0.2,0.1c0.1,0,0.1,0,0.2,0.1c0,0,0.1,0,0.1,0c0.1,0.1,0.3,0.1,0.4,0.2c0.1,0.1,0.2,0.1,0.3,0.1c0,0,0,0,0.1,0
			c0.1,0,0.1,0.1,0.2,0.1c0.1,0,0.1,0,0.2,0.1c0.1,0.1,0.2,0.1,0.3,0.2c0.1,0,0.1,0,0.2,0.1c0.1,0.1,0.1,0.1,0.2,0.1
			c0.1,0,0.1,0.1,0.1,0.1c0.1,0,0.2,0.1,0.2,0.1c0.1,0,0.1,0.1,0.2,0.1s0.1,0,0.2,0.1c0.1,0,0.1,0,0.2,0.1c0.1,0.1,0.2,0.1,0.3,0.1
			c0.1,0,0.2,0.1,0.3,0.1c0.2,0.1,0.3,0.1,0.5,0.2c0.1,0.1,0.3,0.1,0.4,0.2c0,0,0,0,0.1,0c0.1,0.1,0.2,0.1,0.3,0.2
			c0.2,0.1,0.4,0.2,0.6,0.2c0.2,0.1,0.3,0.1,0.5,0.1c0,0,0.1,0,0.2,0c0.1,0,0.1,0.1,0.2,0.1c0.1,0,0.1,0,0.2,0c0.1,0,0.2,0,0.3,0
			c0.2,0,0.4,0.1,0.5,0c0,0,0,0,0,0c0.1,0,0.1,0,0.2,0c0.2,0,0.3,0,0.4-0.1c0,0,0.1,0,0.1,0c0.1,0,0.2-0.1,0.3-0.2
			c0.1-0.1,0.2-0.2,0.3-0.3c0.1-0.1,0.2-0.2,0.3-0.4c0,0,0-0.1,0-0.1c0.1-0.1,0.2-0.3,0.2-0.4c0.1-0.1,0.2-0.2,0.2-0.4
			c0,0,0-0.1,0-0.1c0-0.1,0-0.2,0-0.3c0-0.1-0.1-0.2-0.1-0.2c0-0.1,0-0.2-0.1-0.3c0-0.1,0-0.1-0.1-0.2c0-0.2-0.1-0.4-0.1-0.5
			c0-0.1-0.1-0.2-0.2-0.4c0-0.1-0.1-0.1-0.1-0.2c-0.1-0.1-0.2-0.2-0.2-0.3c0,0,0,0,0,0c-0.1,0-0.1-0.1-0.1-0.1
			c-0.1-0.1-0.2-0.1-0.2-0.2c0,0,0,0-0.1,0c0,0,0,0,0,0c0-0.1-0.2-0.1-0.2-0.2c-0.1,0-0.1-0.1-0.2-0.2c0,0-0.1-0.1-0.1-0.1
			c-0.1,0-0.2-0.1-0.3-0.2c-0.2-0.1-0.3-0.3-0.5-0.4c-0.1-0.1-0.2-0.2-0.3-0.2c-0.2-0.1-0.3-0.2-0.5-0.3c0,0,0,0,0,0
			c0,0-0.1-0.1-0.1-0.1c-0.1,0-0.1-0.1-0.1-0.1c-0.1-0.1-0.3-0.2-0.4-0.3c-0.1-0.1-0.2-0.1-0.3-0.2c-0.1,0-0.1,0-0.2-0.1
			c-0.1-0.1-0.2-0.1-0.2-0.2c-0.1-0.1-0.2-0.2-0.4-0.3c0,0,0,0,0,0c0-0.1-0.1-0.1-0.2-0.2c-0.1,0-0.1-0.1-0.2-0.1c0,0,0,0-0.1,0
			c0,0-0.1,0-0.1-0.1c-0.1-0.1-0.2-0.2-0.3-0.2c-0.1-0.1-0.2-0.1-0.2-0.2c-0.1-0.1-0.1-0.1-0.2-0.1c-0.1,0-0.2-0.1-0.3-0.1
			c0,0,0,0,0,0c-0.1-0.1-0.3-0.1-0.4-0.2c-0.1,0-0.2-0.1-0.2-0.1c-0.1-0.1-0.1-0.1-0.2-0.1c0,0-0.1,0-0.1,0
			c-0.1-0.1-0.1-0.1-0.2-0.2c-0.2-0.1-0.3-0.2-0.5-0.3c-0.1,0-0.1-0.1-0.2-0.1c0,0-0.1,0-0.1,0c-0.1,0-0.2-0.1-0.3-0.1c0,0,0,0,0,0
			c-0.1-0.1-0.2-0.1-0.3-0.2c0,0,0,0-0.1,0c-0.1-0.1-0.1-0.1-0.2-0.1c-0.1,0-0.1-0.1-0.2-0.1c0,0-0.1,0-0.1,0c0,0-0.1,0-0.1-0.1
			c-0.1,0-0.2-0.1-0.3-0.1c-0.1-0.1-0.2-0.1-0.3-0.1c-0.1,0-0.2-0.1-0.4-0.1c-0.1-0.1-0.2-0.1-0.3-0.1c-0.1,0-0.2-0.1-0.3-0.1
			c-0.1,0-0.1-0.1-0.2-0.1c-0.1,0-0.2-0.1-0.2-0.1C24,16,23.9,16,23.8,15.9c0,0,0,0-0.1,0c-0.1,0-0.1-0.1-0.1-0.1
			c-0.1,0-0.1,0-0.1-0.1c0,0-0.1,0-0.1-0.1c-0.1-0.1-0.2-0.1-0.3-0.1c0,0-0.1-0.1-0.2-0.1c-0.1,0-0.2-0.1-0.3-0.1
			c-0.1,0-0.1-0.1-0.2-0.1c-0.1,0-0.1,0-0.2,0c-0.1-0.1-0.2-0.1-0.2-0.1c-0.1,0-0.2,0-0.3-0.1s-0.2,0-0.2-0.1
			c-0.1-0.1-0.2-0.2-0.3-0.2c-0.2-0.1-0.4-0.2-0.6-0.3c0,0,0,0-0.1,0c0,0,0,0-0.1-0.1c0,0-0.1,0-0.1-0.1c-0.1,0-0.1-0.1-0.2-0.1
			c-0.2-0.1-0.4-0.1-0.5-0.3c-0.1-0.1-0.3-0.2-0.4-0.2c-0.1,0-0.2-0.1-0.3-0.2c0,0-0.1,0-0.1-0.1c-0.1-0.1-0.2-0.2-0.3-0.2
			c0,0,0,0-0.1,0c-0.1-0.1-0.3-0.2-0.5-0.3c0,0,0,0,0,0c-0.1,0-0.1,0-0.2-0.1c0,0-0.1,0-0.1,0c-0.1,0-0.1,0-0.2-0.1
			C17.2,12.7,17.2,12.6,17.1,12.6z M34,17.9c0-0.1,0-0.2,0-0.2c0,0,0,0,0,0c0,0,0,0-0.1,0c-0.1,0.1-0.2,0.2-0.3,0.3
			c0,0.1-0.1,0.1-0.2,0.1c0,0,0,0-0.1,0c-0.1,0,0-0.1,0-0.1c0,0,0,0,0,0c-0.1,0-0.1-0.1,0-0.1c0.1-0.1,0.3-0.3,0.4-0.4
			c0.1-0.1,0.1-0.1,0-0.2c0,0-0.1,0-0.1,0c-0.1,0.1-0.1,0.1-0.2,0.2c-0.1,0.1-0.3,0.3-0.4,0.4c0,0,0,0-0.1,0c0,0,0-0.1,0.1-0.1
			c0.1-0.1,0.3-0.3,0.4-0.4c0.1-0.1,0-0.1,0-0.1c-0.1,0-0.1,0-0.2,0c-0.1,0.1-0.2,0.2-0.2,0.2c-0.1,0.1-0.2,0.2-0.3,0.2
			c0.2-0.2,0.3-0.4,0.5-0.5c0,0-0.1,0-0.1-0.1c0.1,0,0.3,0,0.4,0.1c0.1-0.1,0.1-0.1,0-0.1s-0.1-0.1-0.2-0.1
			c-0.1-0.1-0.2-0.2-0.4-0.3c0,0,0,0-0.1,0c-0.1,0-0.2-0.1-0.3-0.1c0,0,0,0,0,0c0,0-0.1,0-0.1,0c-0.1,0-0.3-0.1-0.4-0.1
			c-0.1,0-0.2-0.1-0.3-0.2c-0.1-0.1-0.2-0.1-0.3-0.2c-0.1,0-0.2-0.1-0.3-0.1c-0.1-0.1-0.2-0.1-0.3-0.1c-0.1,0-0.1-0.1-0.1-0.1
			c-0.1,0-0.2-0.1-0.3-0.1c-0.1,0-0.2,0-0.3,0c-0.1,0-0.2,0.1-0.3,0.1c0,0,0,0,0,0c0,0,0,0,0,0c0,0,0,0,0,0c0.1,0,0.1-0.1,0.2-0.1
			c-0.1,0-0.2,0-0.3-0.1c-0.2,0-0.3,0-0.5,0c-0.1,0-0.2,0-0.3,0c-0.1,0-0.2,0-0.2,0c-0.1,0-0.2,0-0.4,0c-0.1,0-0.1,0-0.2,0
			c-0.1,0-0.2,0-0.3,0c0,0,0,0,0,0c-0.1,0-0.3,0-0.4,0c-0.1,0-0.2,0-0.3,0c0,0,0,0,0,0c-0.1,0-0.3,0-0.4,0c0,0-0.1,0-0.1,0
			c-0.1,0-0.1,0-0.2,0c-0.1,0-0.1,0.1-0.2,0.1c-0.2,0.1-0.3,0.1-0.4,0.3c0,0,0,0.1-0.1,0.1c-0.1,0-0.2,0.1-0.3,0.2c0,0,0,0,0,0
			c0,0,0,0,0-0.1L25,16.2c0,0,0,0,0.1,0c0.1,0,0.2,0.1,0.3,0.1c0.1,0,0.1,0.1,0.2,0.1c0.2,0,0.3,0.1,0.4,0.2c0.1,0,0.2,0.1,0.2,0.1
			c0.1,0.1,0.2,0.1,0.3,0.1c0.2,0.1,0.3,0.2,0.5,0.3c0.1,0,0.1,0.1,0.2,0c0.1,0,0.1,0,0.2-0.1c0.1,0,0.1-0.1,0.2-0.1
			c0.1-0.1,0.3-0.2,0.4-0.3c0.1,0,0.1-0.1,0.2-0.1c0.1-0.1,0.2-0.2,0.4-0.3c0,0,0.1,0,0.1-0.1c0.1-0.1,0.2-0.1,0.2-0.2
			c0,0,0.1-0.1,0.1-0.1c0.1-0.1,0.2-0.1,0.3-0.2c0.1,0,0.1-0.1,0.2-0.1c0,0,0.1,0,0.1,0s0,0,0,0.1c0,0-0.1,0-0.1,0.1
			c-0.1,0.1-0.1,0.1-0.2,0.2c-0.1,0.1-0.2,0.1-0.2,0.2c-0.1,0.1-0.2,0.2-0.4,0.3c-0.1,0-0.1,0.1-0.2,0.1c0,0-0.1,0.1-0.1,0.1
			c-0.1,0-0.2,0.1-0.3,0.2c0,0-0.1,0-0.1,0.1c0,0,0,0.1,0,0.1c0,0,0,0,0,0c0,0,0,0,0,0c0,0,0,0,0,0c-0.1-0.1-0.1,0-0.2,0
			c0,0-0.1,0-0.1,0.1c0,0-0.1,0-0.1,0.1c-0.1,0-0.2,0-0.2,0.1c0.1,0,0.2,0.1,0.3,0.1c0-0.1,0-0.1,0.1-0.1c0.1,0,0.1,0,0.2-0.1
			c0,0,0.1,0,0.1,0c0,0,0,0.1,0,0.1c0,0,0,0.1-0.1,0.1c0,0-0.1,0-0.1,0c0.1,0.1,0.1,0.1,0.2,0.1c0.1,0,0.1,0.1,0.1,0.1
			c0,0,0,0,0.1,0.1c0.1,0.1,0.2,0.1,0.3,0.2c0,0,0,0,0,0c0,0.1,0.1,0.1,0.2,0.1c0.1,0,0.1,0.1,0.2,0.1c0.1,0,0.1,0.1,0.2,0.1
			c0.1,0,0.1,0.1,0.2,0.1c0.1,0.1,0.2,0.1,0.3,0.1c0,0,0.1,0,0.1,0.1c0,0,0,0,0.1,0c0.1,0,0.2,0.1,0.4,0.2c0.1,0.1,0.3,0.2,0.4,0.3
			c0,0,0,0,0,0c0.1,0,0.2,0.1,0.2,0.2c0.2,0.2,0.4,0.3,0.6,0.5c0,0,0.1,0.1,0.1,0.1c0.1,0,0.1,0.1,0.2,0.1c0.1-0.1,0.2-0.3,0.2-0.4
			c-0.1,0-0.1,0-0.2,0.1c0,0.1-0.1,0.1-0.1,0.2c0-0.1,0.1-0.2,0.1-0.3c-0.1,0-0.2,0-0.3,0l1-0.1c0,0-0.1,0-0.1,0
			c-0.1,0-0.1,0-0.1,0.1c0,0.1-0.1,0.2-0.1,0.2c0,0.1-0.1,0.2-0.1,0.2c0,0,0.1,0,0.1,0c0.1,0,0.1,0,0.1-0.1c0.1-0.1,0.1-0.2,0.2-0.3
			c0,0,0-0.1,0.1,0c-0.1,0.2-0.1,0.3-0.2,0.4c0.1,0,0.1,0,0.2-0.1c0.1-0.1,0.1-0.2,0.2-0.4c0,0,0-0.1,0.1-0.1c0,0,0,0,0.1,0
			c0,0,0,0,0,0c-0.1,0.2-0.2,0.3-0.3,0.5c0.1,0,0.2,0,0.2-0.1c0-0.1,0.1-0.2,0.2-0.3c0,0,0-0.1,0.1-0.1c0,0.1-0.1,0.2-0.2,0.4
			c0.1,0,0.3-0.1,0.3-0.3c0,0-0.1,0-0.1,0c0,0,0,0,0,0c0,0,0,0,0,0c0.1-0.1,0.2-0.1,0.3-0.2c0,0,0,0,0.1,0c0,0,0,0,0,0.1
			c0,0,0,0,0,0c-0.1,0.1-0.2,0.2-0.2,0.3c0.1-0.1,0.2-0.1,0.3-0.2c0.1-0.1,0.2-0.1,0.3-0.2c0,0,0.1-0.1,0.2-0.1c0.1,0,0.1,0,0.1-0.1
			c0-0.1,0.1-0.1,0.1-0.1c0.1-0.1,0.2-0.2,0.2-0.3c0.1-0.1,0.1-0.3,0.1-0.4c0,0,0-0.1-0.1,0c0,0-0.1,0.1-0.1,0.1
			c-0.1,0-0.1,0.1-0.2,0.1c0,0,0-0.1,0-0.1c0.1-0.1,0.1-0.1,0.2-0.2C34,18.1,34,18,34,18C34.1,17.9,34,17.9,34,17.9
			c0,0.1-0.1,0.1-0.1,0.2c-0.1,0.1-0.2,0.1-0.3,0.2c0,0,0,0,0,0c0.1-0.1,0.2-0.2,0.3-0.2C33.9,17.9,34,17.9,34,17.9
			c-0.1-0.1-0.1-0.1,0-0.1C34,17.8,34,17.8,34,17.9z M14.5,23.7L14.5,23.7c-0.1,0-0.1,0-0.2,0c-0.1,0-0.1,0-0.1,0.1
			c-0.1,0.1-0.1,0.2-0.2,0.4c0,0-0.1,0.1-0.1,0.2c0.1-0.1,0.2-0.1,0.4-0.1c0.2,0,0.3-0.1,0.5-0.1c0.1-0.1,0.2,0,0.3-0.1
			c0.1,0,0.2-0.1,0.3-0.1c0,0,0.1,0,0.1,0c0,0,0.1,0,0.1-0.1c0-0.1,0-0.1,0.1-0.2c0-0.1,0.1-0.2,0.1-0.2c0,0,0,0,0.1,0
			c0,0,0,0,0,0.1c0,0-0.1,0.1-0.1,0.1c0,0.1-0.1,0.2-0.1,0.2c0.1,0,0.2,0,0.2-0.1c0-0.1,0.1-0.2,0.2-0.3c0,0,0,0,0-0.1
			c-0.2,0-0.5,0.1-0.7,0.1c0,0,0,0,0,0c0,0.1-0.1,0.2-0.2,0.3c0,0.1-0.1,0.2-0.2,0.2c0,0,0,0,0,0c0,0,0,0,0,0c0-0.1,0.1-0.1,0.1-0.2
			c0.1-0.1,0.1-0.2,0.2-0.3c-0.1,0-0.2,0-0.3,0c0,0,0,0-0.1,0.1c0,0.1-0.1,0.2-0.1,0.3c0,0.1-0.1,0.1-0.1,0.2c0,0,0,0,0,0
			c0,0,0,0,0,0c0.1-0.1,0.1-0.3,0.2-0.4C14.7,23.6,14.6,23.7,14.5,23.7c0,0.2-0.1,0.3-0.1,0.4c0,0,0,0.1-0.1,0.1c0,0,0,0,0,0
			c0,0,0,0,0,0C14.4,24,14.4,23.8,14.5,23.7z M13,24.4c0.1,0,0.1,0,0.1-0.1c0-0.1,0.1-0.2,0.1-0.2c0,0,0,0,0-0.1c0,0,0,0,0,0
			c-0.1,0-0.1,0-0.2,0.1c-0.1,0.2-0.1,0.3-0.2,0.5c0.2,0,0.3,0,0.5-0.1c0.1,0,0.2-0.1,0.3-0.1c0.1,0,0.1,0,0.1,0s0.1,0,0.2,0
			c0.1,0,0.1,0,0.1-0.1c0,0,0,0,0,0c0.1-0.1,0.2-0.3,0.2-0.5c-0.1,0-0.1,0-0.2,0c0,0,0,0,0,0c0,0.1-0.1,0.2-0.1,0.2
			c0,0.1-0.1,0.2-0.2,0.3c0,0-0.1,0.1-0.1,0c0.1-0.2,0.2-0.4,0.3-0.5c-0.1,0-0.1,0-0.2,0c0,0,0,0,0,0c0,0.1-0.1,0.2-0.1,0.2
			c0,0.1-0.1,0.2-0.1,0.3c0,0,0,0-0.1,0c0,0,0,0,0-0.1c0,0,0.1-0.1,0.1-0.1c0-0.1,0.1-0.2,0.2-0.3c0,0,0,0,0,0c0,0-0.1,0-0.2,0
			c-0.1,0-0.1,0.1-0.2,0.2c0,0.1-0.1,0.2-0.1,0.3C13.1,24.4,13.1,24.5,13,24.4C13,24.4,13,24.4,13,24.4z M16.7,20.3
			c-0.1,0-0.1,0-0.1-0.1c0,0,0,0-0.1,0c-0.1,0.1-0.2,0.2-0.2,0.2c0,0-0.1,0.1-0.1,0c0,0,0-0.1,0.1-0.1c0.1-0.1,0.1-0.1,0.2-0.2
			c0,0,0-0.1,0-0.1c0,0-0.1,0-0.2,0c-0.1,0.1-0.2,0.2-0.3,0.3c0.2,0.1,0.3,0.2,0.4,0.3c0,0,0.1,0,0.1,0c0.1,0,0.1,0,0.2-0.1
			c0,0,0.1,0,0.1-0.1c0.1,0,0.2-0.1,0.2-0.2c-0.1,0-0.1-0.1-0.2-0.1C16.8,20.3,16.8,20.4,16.7,20.3c0,0.2-0.1,0.2-0.2,0.3
			c0,0-0.1,0.1-0.2,0.1C16.5,20.6,16.7,20.4,16.7,20.3z M25,15.7c-0.2,0-0.1,0.2-0.2,0.3c0-0.1,0-0.1,0-0.1c0,0,0-0.1-0.1,0
			c-0.1,0-0.2,0.1-0.3,0.1c0,0-0.1,0-0.1,0c0.1,0,0.1,0.1,0.2,0.1c0,0,0.1,0,0.1,0c0.1,0.1,0.1,0.1,0.2,0.1c0,0,0.1,0,0.1,0
			c0.1-0.1,0.2-0.2,0.2-0.3c0,0,0.1-0.1,0-0.1C25.2,15.7,25.1,15.7,25,15.7c0,0.2-0.1,0.2-0.1,0.3c0,0,0,0-0.1,0
			C24.9,16,25,15.9,25,15.7z M16.7,23.3c-0.1,0-0.3,0.1-0.4,0.1c0,0-0.1,0-0.1,0.1c0,0,0,0,0,0c0,0.1-0.1,0.2-0.1,0.3
			c0,0.1,0,0.1,0,0.1c0.1,0,0.1,0,0.1-0.1c0-0.1,0.1-0.2,0.1-0.3c0-0.1,0.1-0.1,0.1-0.2c0,0.2-0.1,0.3-0.2,0.5c0,0,0.1-0.1,0.1-0.1
			c0,0,0,0,0.1-0.1c0-0.1,0.1-0.2,0.1-0.3C16.7,23.4,16.7,23.3,16.7,23.3z M12.7,24.1c-0.1,0-0.2,0.1-0.3,0.1c0,0,0,0,0,0
			c-0.1,0.2-0.1,0.3-0.2,0.5c0.2,0,0.3,0,0.3-0.2C12.6,24.4,12.6,24.3,12.7,24.1z M18.2,22.9c-0.1,0-0.2,0.1-0.4,0.1
			c-0.1,0-0.1,0-0.1,0.1c0,0,0,0.1,0,0.1c0,0.1-0.1,0.1-0.1,0.2c0,0,0,0,0,0.1c0-0.1,0.1,0,0.2-0.1c0-0.1,0.1-0.1,0.1-0.2
			c0,0,0-0.1,0.1-0.1c0,0,0-0.1,0.1-0.1c0,0.1-0.1,0.2-0.2,0.4c0,0,0.1,0,0.1,0c0.1,0,0.1,0,0.1-0.1C18.1,23.1,18.1,23,18.2,22.9z
			 M31.7,20c0.1-0.2,0.2-0.4,0.3-0.6c-0.1,0-0.2,0-0.2,0c0,0,0,0,0,0c0,0.1-0.1,0.3-0.2,0.4c0,0.1,0,0.1,0,0.1
			C31.6,20,31.6,20,31.7,20z M33.4,18.1C33.4,18.1,33.4,18.1,33.4,18.1c0.2-0.2,0.3-0.3,0.5-0.5c0,0,0-0.1,0-0.1c0,0-0.1,0-0.1,0
			c0,0,0,0,0,0c-0.1,0.1-0.3,0.3-0.4,0.4c0,0,0,0,0,0.1C33.4,18,33.4,18,33.4,18.1z M18,20.9c-0.1,0-0.2,0-0.2,0
			c0,0-0.1,0.1-0.1,0.1c0,0,0,0-0.1,0c0,0,0.1-0.1,0.1-0.1c0,0,0.1,0,0.1-0.1c-0.1,0-0.2,0-0.2,0c-0.1,0.1-0.1,0.1-0.2,0.2
			c0.1,0,0.2,0.1,0.3,0.1c0.1,0,0.2,0,0.3-0.1C17.9,21,17.9,21,18,20.9C18,21,18,20.9,18,20.9z M17.4,20.6c-0.1,0-0.2-0.1-0.3-0.1
			c0,0.1,0,0.1,0,0.2c-0.1,0.1-0.2,0.2-0.3,0.2c0.1,0,0.2,0.1,0.3,0c0,0,0.1,0,0.1-0.1C17.3,20.8,17.3,20.7,17.4,20.6z M15.8,20.4
			c0.1,0,0.1,0,0.2,0.1c0,0,0.1,0,0.1,0c0,0,0,0,0.1,0c0.1-0.1,0.2-0.2,0.2-0.3c0,0-0.1,0-0.1,0c0,0-0.1,0-0.1,0
			C16,20.2,15.9,20.3,15.8,20.4z M16.9,23.6c0.1,0,0.2-0.1,0.2-0.1c0.1-0.1,0.1-0.2,0.2-0.4c-0.1,0-0.1,0-0.2,0c0,0,0,0-0.1,0
			c0,0.1-0.1,0.2-0.1,0.3C16.9,23.5,16.9,23.6,16.9,23.6z M19.5,22.6c-0.1,0-0.2,0-0.3,0.2c0,0.1-0.1,0.1-0.1,0.2c0.1,0,0.1,0,0.1,0
			c0.1,0,0.1,0,0.1-0.1C19.4,22.8,19.4,22.7,19.5,22.6z M18.4,23.1C18.4,23.1,18.5,23.1,18.4,23.1c0.1,0,0.2,0,0.2-0.1
			c0-0.1,0.1-0.2,0.2-0.3c-0.1,0-0.2,0-0.2,0.1c0,0,0,0,0,0C18.5,22.9,18.4,23,18.4,23.1z M17.6,23C17.6,23,17.6,23,17.6,23
			c-0.2,0-0.2,0.1-0.3,0.1c0,0.1-0.1,0.1-0.1,0.2c0,0,0,0.1-0.1,0.1c0,0,0,0,0,0c0.1,0,0.2-0.1,0.2-0.1C17.5,23.3,17.6,23.1,17.6,23
			z M20.3,22.3c-0.2,0-0.2,0.1-0.3,0.2c0,0,0,0.1,0,0.1c0,0-0.1,0.1-0.1,0.1c0,0,0,0,0.1,0c0.1,0,0.2,0,0.2-0.1
			C20.2,22.6,20.2,22.5,20.3,22.3C20.3,22.4,20.3,22.4,20.3,22.3z M18.7,23.1c0.1,0,0.1,0,0.1-0.1C19,23,19,23,19,22.9
			c0-0.1,0.1-0.2,0.1-0.2c-0.1,0-0.2,0-0.2,0.1C18.9,22.9,18.8,23,18.7,23.1z M12.9,24.1c-0.1,0-0.2,0-0.2,0.2
			c0,0.1-0.1,0.1-0.1,0.2c0,0.1-0.1,0.1-0.1,0.2c0,0,0.1,0,0.1,0c0,0,0.1,0,0-0.1c0,0,0,0,0-0.1c0,0,0,0,0,0
			C12.8,24.3,12.9,24.2,12.9,24.1z M18.1,23.2c0.1,0,0.2,0,0.2-0.1c0-0.1,0.1-0.2,0.1-0.3c-0.1,0-0.1,0-0.2,0c0,0,0,0,0,0
			C18.2,23,18.1,23.1,18.1,23.2z M17,23.2C17,23.2,17,23.2,17,23.2c-0.1,0-0.2,0-0.2,0.1c0,0.1-0.1,0.2-0.1,0.2c0,0-0.1,0.1,0,0.1
			c0,0,0.1,0,0.1,0c0,0,0,0,0-0.1C16.8,23.5,16.9,23.3,17,23.2z M12.2,18.5c0.1,0.1,0.2,0.1,0.2,0.2c0,0,0.1,0,0.1,0
			c0.1-0.1,0.1-0.1,0.2-0.2C12.6,18.4,12.4,18.5,12.2,18.5z M19.7,22.5c-0.1,0-0.1,0-0.2,0.1c0,0.1,0,0.1-0.1,0.2c0,0,0,0.1,0,0.1
			c0,0,0.1,0,0.1-0.1C19.6,22.7,19.7,22.6,19.7,22.5z M25.1,16.1C25.2,16.1,25.2,16,25.1,16.1c0.1,0,0.1,0,0.1-0.1
			c0.1-0.1,0.2-0.2,0.2-0.3c-0.1,0-0.1,0-0.2,0C25.3,15.8,25.2,16,25.1,16.1z M20,22.4c-0.1,0-0.1,0-0.1,0.1
			c-0.1,0.1-0.1,0.2-0.2,0.3c0.1,0,0.1,0,0.1-0.1c0,0,0,0,0,0C19.9,22.6,19.9,22.5,20,22.4z M17.8,21.2c0.1,0.1,0.2,0,0.3-0.1
			c0,0,0-0.1,0-0.1c0,0-0.1,0-0.1,0C18,21,17.9,21.1,17.8,21.2z M18.5,21.2c-0.1,0-0.2-0.1-0.2-0.1c0,0,0,0-0.1,0
			c0,0-0.1,0.1-0.2,0.1C18.3,21.2,18.4,21.2,18.5,21.2z M25.7,15.7c-0.1,0-0.1,0-0.2,0c0,0.1-0.1,0.1-0.2,0.2c0,0,0,0,0,0.1
			C25.5,15.9,25.6,15.8,25.7,15.7z M21,22.5c0.1,0,0.1,0,0.1,0c0,0,0.1,0,0.1-0.1c0,0,0-0.1-0.1-0.1c0,0,0,0-0.1,0
			C21,22.4,21,22.4,21,22.5z M17.1,21c0.1,0.1,0.2,0.1,0.3-0.1C17.3,20.9,17.2,20.9,17.1,21z M17.3,20.8c0.1,0,0.1,0,0.2,0
			c0,0,0,0,0,0c0,0,0,0,0,0C17.5,20.7,17.5,20.7,17.3,20.8C17.4,20.7,17.4,20.7,17.3,20.8z M21.3,22.4
			C21.3,22.4,21.3,22.3,21.3,22.4C21.2,22.4,21.2,22.4,21.3,22.4C21.3,22.4,21.3,22.4,21.3,22.4z"/>
	</g>
</g>
<path class="st0" d="M25,16.9c0.1,0,0.2,0.1,0.3,0.1c0,0,0.1,0,0.1,0c0,0.1-0.1,0-0.1,0c-0.1,0-0.3,0-0.4-0.1
	c-0.1,0-0.2-0.1-0.3-0.1c0,0-0.1,0-0.1,0c-0.1,0-0.1,0-0.1,0c0,0-0.1-0.1-0.2,0c0,0,0,0-0.1,0c0,0,0,0,0,0c0-0.1,0-0.1-0.1-0.1
	c-0.2,0-0.4,0-0.5,0c-0.2,0-0.4-0.1-0.6-0.2c-0.1,0-0.2,0-0.3-0.1c-0.2,0-0.5-0.1-0.7-0.2c-0.2-0.1-0.5-0.1-0.7-0.2
	c-0.2,0-0.3-0.1-0.5-0.1c-0.3-0.1-0.6-0.1-0.9-0.1c-0.1,0-0.2,0-0.3,0c-0.1,0-0.1,0-0.2,0c0,0-0.1,0-0.1,0c0-0.1-0.1-0.1-0.1,0
	c0,0-0.1,0-0.1,0c-0.1,0-0.2,0-0.3,0c-0.1,0-0.2,0-0.4,0c-0.1,0-0.1,0-0.1-0.1c0,0,0,0,0-0.1c0,0,0,0,0,0c0,0,0,0,0,0
	c0.1-0.1,0.3-0.3,0.4-0.4c0,0,0,0,0,0c-0.1,0-0.2,0-0.3,0.1c-0.2,0-0.3,0.1-0.5,0.1c-0.2,0.1-0.4,0.1-0.7,0.1
	c-0.3,0-0.6,0.1-0.8,0.1c-0.2,0-0.4,0.1-0.6,0.1c-0.2,0-0.3,0.1-0.5,0.1c-0.2,0-0.4,0-0.6,0c-0.2,0-0.5-0.1-0.7-0.1
	c-0.2,0-0.5-0.1-0.7-0.1c-0.1,0-0.1,0-0.2,0c0-0.1,0-0.1,0.1-0.1c0.1,0,0.1,0,0.2,0c0.4,0.1,0.7,0.1,1.1,0.1c0.2,0,0.3,0,0.5,0
	c0.2,0,0.5,0,0.7-0.1c0.2,0,0.3,0,0.5-0.1c0.1,0,0.3,0,0.4-0.1c0.2-0.1,0.5-0.1,0.7-0.1c0.2,0,0.3,0,0.5,0c0.1,0,0.3-0.1,0.4-0.1
	c0.2-0.1,0.4-0.1,0.6-0.1c0.1,0,0.3,0,0.4-0.1c0,0,0,0,0,0c-0.1,0.1-0.2,0.2-0.3,0.3c-0.1,0.1-0.1,0.2-0.2,0.2c0,0,0,0,0.1,0
	c0.2,0,0.3,0,0.5,0c0.1,0,0.1,0,0.1,0c0.1-0.1,0.2-0.2,0.3-0.3c0.1-0.1,0.2-0.2,0.4-0.3c-0.1-0.1-0.2,0-0.3,0.1
	c-0.2,0.2-0.3,0.3-0.5,0.5c0,0-0.1,0.1-0.2,0.1c-0.1,0-0.1,0-0.1-0.1c0,0,0,0,0,0c0,0,0.1,0,0.1,0c0.2-0.1,0.3-0.3,0.5-0.4
	c0,0,0.1,0,0.1-0.1c-0.1,0-0.1,0-0.2,0c-0.1,0-0.1,0-0.2,0c0,0,0-0.1,0.1-0.1c0.2-0.1,0.4-0.1,0.7-0.1c0.2,0,0.4,0.1,0.5,0.1
	c0.1,0,0.1,0,0.2,0c0,0,0,0,0,0c0,0,0.1,0,0.1,0c0.2,0,0.5,0.1,0.7,0.2c0.2,0.1,0.4,0.2,0.6,0.3c0.1,0,0.1,0.1,0.2,0.1
	c0.1,0.1,0.3,0.1,0.4,0.1c0.1,0,0.2,0,0.3,0c0.2,0,0.3,0.1,0.4,0.1c0.2,0.1,0.3,0.1,0.5,0.2c0.2,0.1,0.5,0.2,0.7,0.3
	c0,0,0.1,0,0.2,0c0.3,0.1,0.5,0.2,0.7,0.3c0.2,0.1,0.3,0.2,0.4,0.3c0,0,0,0,0,0c0,0,0,0,0,0c0,0,0,0,0,0c-0.1,0-0.1-0.1-0.2-0.1
	c-0.1-0.1-0.2-0.1-0.4-0.2C25.1,16.8,25,16.8,25,16.9z M19.3,15.8c0.1,0,0.1,0,0.2,0c0,0,0-0.1,0.1-0.1c0,0,0,0,0,0
	c0.2-0.1,0.3-0.3,0.5-0.4c0,0,0.1-0.1,0.1-0.1c-0.1,0-0.2-0.1-0.3,0.1c-0.1,0.1-0.2,0.2-0.3,0.4C19.5,15.6,19.4,15.7,19.3,15.8z
	 M19.6,15.8c0.1,0,0.2,0,0.2-0.1c0,0,0.1-0.1,0.1-0.1c0.1,0,0.1-0.1,0.2-0.1c0.1-0.1,0.2-0.2,0.3-0.2c0,0,0,0,0,0c0,0,0,0,0,0
	c0,0-0.1,0-0.1,0c-0.1,0-0.1,0-0.2,0.1c-0.1,0.1-0.1,0.1-0.2,0.2C19.9,15.5,19.8,15.7,19.6,15.8z M20.8,15.3c-0.1-0.1-0.2-0.1-0.3,0
	c-0.1,0.1-0.2,0.2-0.3,0.2c-0.1,0.1-0.2,0.2-0.3,0.2c0.1,0,0.1,0,0.2,0c0,0,0.1,0,0.1,0C20.4,15.6,20.6,15.4,20.8,15.3z M21.8,15.7
	c-0.1,0-0.1,0-0.1-0.1c0,0-0.1,0-0.1,0c-0.1,0.1-0.3,0.2-0.4,0.3c0,0-0.1,0-0.1,0.1c0.1,0,0.1,0,0.2,0.1c0,0,0,0,0,0
	c0-0.1,0.1-0.1,0.1-0.1C21.6,15.9,21.7,15.8,21.8,15.7z M20.8,16C20.8,16,20.8,16,20.8,16c0.1,0.1,0.2,0.1,0.3,0c0,0,0,0,0,0
	c0.1-0.1,0.3-0.2,0.4-0.3c0,0,0,0,0,0c0,0,0,0,0,0c0,0,0,0-0.1,0c-0.1,0-0.1,0-0.2,0c0,0-0.1,0.1-0.1,0.1C21,15.8,20.9,15.8,20.8,16
	z M19.9,15.1c-0.1,0-0.1,0-0.1,0c0,0-0.1,0.1-0.1,0.1c-0.1,0.1-0.2,0.2-0.3,0.3c-0.1,0.1-0.1,0.2-0.2,0.3c0.1,0,0.1,0,0.2,0
	c0.2-0.2,0.3-0.3,0.5-0.5C19.7,15.2,19.8,15.2,19.9,15.1z M21.4,16.1c0.1,0,0.1,0,0.1,0c0.1,0,0.1,0,0.2,0c0,0,0,0,0.1-0.1
	c0.1-0.1,0.2-0.1,0.3-0.2c-0.1,0-0.1-0.1-0.2-0.1c0,0-0.1,0-0.1,0C21.7,15.9,21.6,16,21.4,16.1z M21.3,15.5c0,0-0.1,0-0.1-0.1
	c0,0-0.1,0-0.1,0c-0.1,0.1-0.2,0.2-0.3,0.3c-0.1,0.1-0.1,0.1-0.2,0.2c0.1,0,0.1,0.1,0.2,0c0.1-0.1,0.2-0.2,0.3-0.2
	C21.1,15.6,21.2,15.5,21.3,15.5z M22.4,15.9L22.4,15.9c0,0-0.1,0-0.1-0.1c-0.1,0-0.1,0-0.2,0c-0.1,0.1-0.2,0.2-0.4,0.3
	c0,0-0.1,0-0.1,0.1c0,0,0.1,0,0.1,0c0,0,0.1,0,0.1,0C22.1,16.1,22.3,16,22.4,15.9z M22.7,16.4c0.1,0,0.1,0,0.2,0c0,0,0.1,0,0.1,0
	c0.1-0.1,0.2-0.2,0.3-0.3c-0.1-0.1-0.1-0.1-0.2,0C22.9,16.2,22.8,16.3,22.7,16.4z M22.7,16c-0.2,0-0.2,0-0.3,0.1
	c-0.1,0.1-0.3,0.2-0.4,0.3c0,0,0,0,0,0c0.1,0.1,0.2,0,0.3,0c0,0,0.1-0.1,0.1-0.1C22.5,16.1,22.6,16.1,22.7,16z M22.3,16.3
	c0.1,0,0.2,0.1,0.3,0c0.1-0.1,0.2-0.1,0.2-0.2c0,0,0.1-0.1,0.1-0.1c-0.1-0.1-0.2-0.1-0.3,0c0,0.1-0.1,0.1-0.2,0.1
	C22.5,16.2,22.4,16.3,22.3,16.3z M23,16.5c0.1,0.1,0.1,0.1,0.2,0.1c0.1-0.1,0.3-0.2,0.4-0.3c0,0,0,0,0,0c-0.1-0.1-0.1-0.1-0.2,0
	C23.2,16.3,23.1,16.4,23,16.5z M21,15.3c0,0-0.1,0-0.1,0c-0.2,0.2-0.4,0.3-0.6,0.5c0,0,0,0,0,0c0,0,0,0,0,0c0,0,0,0,0.1,0
	c0.1-0.1,0.1-0.1,0.2-0.2C20.8,15.6,20.9,15.5,21,15.3z M23.7,16.3c-0.1-0.1-0.1-0.1-0.2,0c-0.1,0-0.1,0.1-0.2,0.1
	c0,0-0.1,0.1-0.1,0.1c0.1,0,0.1,0,0.1,0C23.5,16.5,23.6,16.4,23.7,16.3z M23.5,16.6c0.1,0,0.1,0,0.1,0c0.1-0.1,0.2-0.1,0.3-0.2
	c-0.1-0.1-0.1-0.1-0.2,0c0,0,0,0-0.1,0C23.6,16.5,23.5,16.5,23.5,16.6z M24.4,16.6c-0.2-0.1-0.2-0.1-0.3,0.1
	C24.2,16.7,24.2,16.7,24.4,16.6z M24.4,16.7c0.2,0.1,0.2,0.1,0.3-0.1C24.6,16.6,24.5,16.6,24.4,16.7z M24.7,16.8
	c0.1,0.1,0.1,0.1,0.2,0c0,0,0-0.1,0-0.1C24.8,16.7,24.8,16.7,24.7,16.8z M23.8,16.6C23.8,16.6,23.8,16.6,23.8,16.6c0,0,0.1,0,0.1,0
	c0.1,0,0.1-0.1,0.2-0.1c0,0,0,0,0,0c0,0,0,0-0.1,0C24,16.5,23.9,16.5,23.8,16.6z"/>
<path class="st0" d="M28.7,19.6c0.1-0.1,0.1-0.1,0.2-0.2c0.1-0.1,0.1-0.1,0.2-0.1c0,0,0,0,0,0c0,0,0,0,0,0c0,0-0.1,0-0.1,0
	c-0.1,0.1-0.2,0.2-0.3,0.2c0,0-0.1,0.1-0.2,0.1c0.1-0.1,0.2-0.1,0.2-0.2c0.1-0.1,0.1-0.1,0.2-0.2c-0.1-0.1-0.1-0.1-0.2,0
	c-0.1,0.1-0.3,0.2-0.5,0.3c0,0,0,0-0.1,0c0.2-0.1,0.4-0.2,0.5-0.3c-0.1-0.1-0.1-0.1-0.2,0c-0.1,0.1-0.2,0.2-0.4,0.3
	c-0.1,0-0.2,0.1-0.2,0.1c0,0,0,0,0,0c-0.2,0-0.8,0.1-0.9,0.1c-0.3,0-0.6-0.1-0.8-0.2c0,0-0.1,0-0.1-0.1c0.1,0,0.1,0,0.2,0
	c0.1,0.1,0.3,0.1,0.4,0.2c0.1,0,0.2,0,0.3,0c0.2,0,0.4,0,0.6,0c0,0,0,0,0.1,0c0.2-0.1,0.3-0.2,0.4-0.4c-0.1,0-0.2,0-0.2,0
	c-0.1,0.1-0.2,0.2-0.3,0.2c0,0-0.1,0-0.1,0c0.1-0.1,0.3-0.2,0.4-0.3c-0.1,0-0.2,0-0.2,0.1c-0.1,0.1-0.2,0.2-0.3,0.2c0,0-0.1,0-0.1,0
	c0.1-0.1,0.2-0.2,0.4-0.3c-0.1,0-0.2,0-0.2,0c-0.1,0.1-0.2,0.2-0.2,0.2c-0.1,0-0.1,0-0.2,0c0,0,0-0.1,0.1-0.1c0.1,0,0.2-0.1,0.3-0.2
	c0,0,0,0,0,0c-0.1,0-0.1,0-0.2,0.1c-0.1,0.1-0.2,0.2-0.3,0.2c0,0,0,0,0,0c0,0,0,0-0.1,0c0,0,0,0,0-0.1c0.1-0.1,0.2-0.1,0.3-0.2
	c0,0,0,0,0,0c-0.1,0-0.1,0-0.1,0c-0.1,0.1-0.1,0.1-0.2,0.2c0,0-0.1,0-0.1,0.1c0,0-0.1,0-0.1,0c0,0,0-0.1,0.1-0.1
	c0.1-0.1,0.2-0.1,0.2-0.2c-0.1,0-0.1,0-0.1,0c-0.3,0-0.5,0.1-0.8,0.1c-0.1,0-0.2,0-0.2,0c-0.2,0-0.3,0.1-0.5,0.1c-0.1,0-0.2,0-0.3,0
	c-0.2,0-0.4,0-0.6,0c0,0,0,0,0,0c-0.1,0-0.2,0-0.4-0.1c0,0-0.1,0-0.2,0c-0.2,0-0.5-0.1-0.8-0.1c-0.2,0-0.3,0-0.5,0
	c-0.1,0-0.3,0-0.4-0.1c0,0-0.1,0-0.1,0c-0.1,0-0.2,0-0.3-0.1c-0.1,0-0.2,0-0.3,0c-0.3,0-0.6,0-0.9,0c-0.1,0-0.1,0-0.2,0
	c0-0.1,0.1-0.1,0.1-0.1c0.1,0,0.2,0,0.3,0c0.2,0,0.4,0,0.5,0c0.2,0,0.3-0.1,0.5,0c0.3,0,0.5,0,0.8,0.1c0.1,0,0.1,0,0.2,0
	c0.2,0,0.4,0,0.6,0c0.2,0,0.4,0.1,0.5,0.1c0.1,0,0.2,0,0.3,0.1c0.2,0,0.4,0,0.5,0c0.2,0,0.4,0,0.6,0c0.1,0,0.3,0,0.4-0.1
	c0.1,0,0.3-0.1,0.4-0.1c0.1,0,0.2,0,0.3,0c0.1,0,0.2,0,0.3,0c0.1,0,0.1,0,0.2,0c0.1,0,0.1,0,0.2,0c0.1,0,0.2,0,0.4,0
	c0.1,0,0.1,0,0.2,0c0,0,0,0,0.1,0c0.1,0,0.2,0,0.3,0c0.1,0,0.2,0,0.2,0c0.2,0,0.4,0,0.5,0c0.1,0,0.1,0,0.2,0c0.1,0,0.2,0,0.3,0.1
	c0,0,0.1,0,0.1,0c0.1,0,0.1,0,0.2,0.1c0.1,0,0.2,0,0.3,0.1c0,0,0,0,0.1,0c0.1,0.1,0.2,0.1,0.3,0.2c0.1,0,0.1,0,0.2,0.1
	c0.1,0,0.2,0.1,0.3,0.2c0,0,0,0,0,0c0.1,0.1,0.2,0.1,0.3,0.2c0.2,0.2,0.3,0.3,0.5,0.4c0.1,0.1,0.2,0.1,0.3,0.2c0,0,0,0,0,0
	c0,0,0,0.1,0,0.1c0,0-0.1,0-0.1,0c-0.1-0.1-0.3-0.1-0.4-0.3c0,0,0,0-0.1,0c0,0,0,0-0.1,0c-0.1,0.1-0.2,0-0.3,0c0,0,0,0,0,0
	c0-0.1-0.1-0.1-0.1-0.1c0,0,0,0,0,0c0-0.1,0-0.1-0.1-0.1c0,0,0,0-0.1,0c0,0,0,0,0-0.1c0,0,0,0,0,0c-0.1,0-0.2-0.1-0.3-0.1
	c-0.1,0-0.1,0-0.2-0.1c-0.2,0-0.4-0.1-0.6-0.1C29,19.6,28.9,19.6,28.7,19.6C28.8,19.6,28.8,19.6,28.7,19.6
	C28.7,19.6,28.7,19.6,28.7,19.6c0.1,0,0.2,0,0.2,0c0.1-0.1,0.2-0.1,0.3-0.2c0,0,0.1,0,0.1-0.1c-0.1,0-0.1,0-0.2,0
	c0,0-0.1,0.1-0.1,0.1C29,19.4,28.8,19.5,28.7,19.6z M27.7,19.5c0.1,0,0.2,0,0.2-0.1c0.1-0.1,0.2-0.1,0.2-0.2c0,0,0.1-0.1,0.1-0.1
	c-0.1,0-0.1,0-0.2,0C28,19.2,27.8,19.4,27.7,19.5z M29.4,19.6c0.1,0,0.1,0,0.2,0c0,0,0.1,0,0.1,0c0.1-0.1,0.2-0.1,0.3-0.2
	c-0.1-0.1-0.1-0.1-0.2-0.1C29.6,19.5,29.5,19.6,29.4,19.6z M29,19.6c0.1,0,0.2,0,0.2,0c0.1-0.1,0.2-0.1,0.3-0.1c0,0,0.1,0,0.1-0.1
	c-0.1,0-0.1,0-0.2,0C29.3,19.4,29.1,19.5,29,19.6z M29.2,19.6c0,0,0.1,0.1,0.1,0c0,0,0,0,0,0c0.2,0,0.3-0.1,0.4-0.2
	c-0.1-0.1-0.1-0.1-0.2,0C29.5,19.4,29.4,19.5,29.2,19.6C29.3,19.6,29.2,19.6,29.2,19.6z M30.1,19.6c0,0-0.1-0.1-0.1,0
	c-0.1,0-0.2,0.1-0.3,0.2C29.9,19.8,30,19.7,30.1,19.6z M28.5,19.1c-0.1,0-0.1,0-0.1,0c-0.1,0.1-0.1,0.1-0.2,0.2
	c-0.1,0-0.1,0.1-0.2,0.1C28.1,19.4,28.3,19.3,28.5,19.1z M30.1,19.8c0,0,0.1,0,0.1,0.1c0,0,0,0,0.1,0c0.1,0,0.1-0.1,0.2-0.1
	C30.3,19.7,30.3,19.7,30.1,19.8z M29.9,19.7c0.1,0.1,0.2,0,0.4-0.1c-0.1,0-0.1-0.1-0.2,0C30.1,19.7,30,19.7,29.9,19.7z M30.6,19.9
	c-0.1-0.1-0.1-0.1-0.2-0.1c0,0-0.1,0-0.1,0.1C30.4,20,30.5,20,30.6,19.9z M30.6,20.1c0,0,0.1,0,0.1-0.1c0,0,0,0,0,0
	C30.7,20,30.6,20,30.6,20.1C30.5,20,30.5,20,30.6,20.1C30.5,20.1,30.6,20.1,30.6,20.1z M30.8,20.1c-0.1,0-0.1,0-0.2,0.1
	C30.7,20.2,30.8,20.2,30.8,20.1z M30.8,20.3c0.1,0,0.1,0,0.2,0c0,0,0,0,0,0c0,0,0,0,0,0C30.9,20.2,30.8,20.2,30.8,20.3z"/>
<g>
	<g>
		<path class="st0" d="M17.1,12.6C17.1,12.6,17.1,12.7,17.1,12.6c0.1,0.1,0.1,0.1,0.2,0.2c0.1,0.1,0.2,0.1,0.3,0.2
			c0.1,0,0.2,0.1,0.2,0.1c0.1,0.1,0.2,0.2,0.3,0.2c0.1,0.1,0.2,0.2,0.3,0.2c0.2,0.1,0.4,0.2,0.5,0.4c0,0,0.1,0.1,0.1,0.1
			c0,0,0.1,0,0.1,0.1c0,0,0,0,0,0c0,0,0,0,0,0c-0.1,0-0.1,0-0.2-0.1c-0.1-0.1-0.1-0.1-0.2,0c-0.1,0-0.2,0.1-0.3,0.1
			c0,0,0.1,0.1,0.1,0.1c0,0,0,0,0,0c0,0,0,0-0.1,0c0,0-0.1,0-0.1,0c-0.2-0.1-0.3-0.2-0.5-0.2c0,0,0,0,0,0.1c0,0,0,0-0.1,0
			c-0.1-0.1-0.1-0.1-0.2-0.1c0,0,0,0,0,0c0,0,0,0,0,0c0,0,0.1,0,0.1,0c0,0,0,0,0,0c-0.2,0-0.3-0.1-0.4-0.1c-0.1-0.1-0.2,0-0.3-0.1
			c-0.1,0-0.1,0-0.2-0.1c0,0-0.1-0.1-0.1-0.1c0,0,0,0-0.1,0c-0.1-0.1-0.3-0.2-0.4-0.3c-0.1,0-0.2-0.1-0.4-0.1
			c-0.1,0-0.3-0.1-0.4-0.1c-0.2,0-0.4,0-0.5-0.1c0,0-0.1,0-0.1,0c-0.1,0.1-0.1,0-0.2,0c0,0,0.1,0,0.1,0c0.2-0.1,0.4-0.2,0.5-0.3
			c0.1,0,0.1-0.1,0.2-0.1c0,0,0,0,0,0c-0.2,0-0.3-0.1-0.4-0.1c-0.2-0.1-0.3-0.1-0.5,0.1c0,0,0,0,0,0c-0.2,0.1-0.3,0.3-0.5,0.4
			c0,0,0,0,0,0c0.1,0,0.1,0,0.2,0c0,0,0,0,0,0c0.2-0.2,0.4-0.3,0.6-0.4c0,0,0.1,0,0.1-0.1c0,0,0,0,0,0c0,0,0,0,0,0
			c0,0-0.1,0.1-0.1,0.1c-0.1,0.1-0.3,0.2-0.4,0.3c0,0,0,0,0,0.1c0,0,0,0,0.1,0c0.1,0,0.1,0,0.2,0c0.2-0.1,0.3-0.3,0.5-0.4
			c0,0,0.1-0.1,0.1,0c0,0,0,0,0,0c-0.2,0.1-0.4,0.3-0.6,0.4c0,0-0.1,0-0.1,0.1c0,0-0.1,0-0.1,0c0,0-0.1,0-0.1,0c0,0,0,0,0-0.1
			c-0.1,0-0.2,0-0.2,0c0,0,0,0,0,0c-0.2,0-0.4,0-0.6,0c-0.3,0-0.5,0-0.8,0c-0.2,0-0.4,0-0.5,0c-0.2,0-0.5,0-0.7,0.1c0,0-0.1,0-0.1,0
			c0,0-0.1,0-0.1,0c0,0,0-0.1,0-0.1c0.1,0,0.1-0.1,0.1-0.1c0,0,0.1,0,0.1,0c0,0,0,0.1,0,0.1c0.1,0,0.3,0,0.4,0c0.3,0,0.5,0,0.8,0
			c0.1,0,0.3,0,0.4,0c0.1,0,0.1,0,0.2-0.1c0.2-0.2,0.4-0.3,0.6-0.5c0,0,0,0,0,0c0,0,0,0,0.1,0c0,0,0,0,0,0.1
			c-0.1,0.1-0.2,0.2-0.2,0.2c-0.1,0.1-0.2,0.2-0.3,0.3c0.1,0.1,0.1,0.1,0.2,0c0.2-0.2,0.3-0.3,0.5-0.4c0.1,0,0.1-0.1,0.2-0.1
			c-0.1,0-0.3-0.1-0.4,0c0-0.1,0-0.1,0.1-0.1c0.1,0,0.3,0,0.4,0c0.1,0,0.3,0,0.4,0c0.2,0,0.4,0.1,0.6,0.1c0.2,0,0.4,0.1,0.5,0.2
			c0.2,0,0.4,0.1,0.6,0.2c0.1,0.1,0.3,0.1,0.4,0.1C17,12.6,17,12.6,17.1,12.6L17.1,12.6z M17.2,12.9c-0.1,0-0.1-0.1-0.1-0.1
			c0,0,0,0-0.1,0c-0.1,0.1-0.3,0.2-0.4,0.2c-0.1,0-0.1,0-0.2,0.1c0,0,0.1,0.1,0.1,0.1c0,0,0.1,0,0.1,0c0.1,0,0.1,0,0.2-0.1
			c0.1-0.1,0.2-0.1,0.3-0.2C17.1,12.9,17.1,12.9,17.2,12.9z M16.1,12.9c0.1,0.1,0.2,0.1,0.3,0c0.1,0,0.1-0.1,0.2-0.1
			c0.1,0,0.2-0.1,0.3-0.1c-0.1-0.1-0.2-0.1-0.3-0.1c0,0-0.1,0-0.1,0C16.4,12.8,16.3,12.9,16.1,12.9z M17.6,13.2
			c0-0.1-0.1-0.1-0.2-0.1c0,0-0.1,0-0.1,0c-0.1,0.1-0.2,0.1-0.3,0.2c-0.1,0-0.1,0.1-0.2,0.1c0.1,0.1,0.1,0.1,0.2,0c0,0,0,0,0.1,0
			C17.3,13.3,17.5,13.2,17.6,13.2z M14.6,12.1c-0.1,0-0.1,0-0.2,0c0,0,0,0,0,0c-0.2,0.1-0.3,0.2-0.4,0.3c-0.1,0.1-0.1,0.1-0.2,0.2
			c0,0,0,0,0,0c0,0,0,0,0,0c0.1,0,0.1,0,0.1,0c0.1-0.1,0.3-0.2,0.4-0.3C14.4,12.2,14.5,12.2,14.6,12.1z M15.8,12.9c0,0,0.1,0,0.1,0
			c0.1,0,0.1,0,0.2,0c0,0,0.1-0.1,0.1-0.1c0.1-0.1,0.2-0.1,0.3-0.2c-0.1-0.1-0.2-0.1-0.3,0c-0.1,0.1-0.2,0.1-0.3,0.2
			C15.9,12.8,15.8,12.8,15.8,12.9z M15.7,12.4c-0.1-0.1-0.2-0.1-0.3,0c-0.1,0.1-0.2,0.2-0.3,0.2c-0.1,0-0.1,0.1-0.2,0.1
			c0.1,0,0.1,0,0.2,0C15.3,12.6,15.5,12.5,15.7,12.4C15.7,12.4,15.7,12.4,15.7,12.4z M16,12.5c-0.1-0.1-0.2-0.1-0.2,0
			c0,0-0.1,0.1-0.1,0.1c-0.1,0.1-0.3,0.2-0.4,0.3c0,0,0.1,0,0.1,0c0.1,0,0.1,0,0.2,0c0.1-0.1,0.1-0.1,0.2-0.1
			C15.8,12.6,15.9,12.5,16,12.5z M16.7,13.3c0.1,0.1,0.1,0.1,0.2,0c0.1-0.1,0.2-0.1,0.3-0.2c0,0,0.1,0,0.1-0.1c0,0,0,0,0-0.1
			c0,0-0.1,0-0.2,0C17,13.1,16.9,13.1,16.7,13.3C16.7,13.2,16.7,13.2,16.7,13.3z M17.2,13.5c0.1,0.1,0.2,0.1,0.3,0
			c0,0,0.1,0,0.1-0.1c0,0,0.1,0,0.1-0.1c0,0,0,0-0.1-0.1c-0.1-0.1-0.1-0.1-0.2,0C17.5,13.3,17.4,13.4,17.2,13.5z M18,13.5
			c-0.1-0.1-0.2-0.1-0.2,0c-0.1,0-0.2,0.1-0.2,0.1c0.1,0.1,0.1,0.1,0.2,0.1C17.8,13.6,17.9,13.5,18,13.5z M18.3,14
			c0,0,0.1,0.1,0.1,0.1c0.1,0,0.2-0.1,0.3-0.1c-0.1,0-0.1-0.1-0.1-0.1c0,0,0,0-0.1,0C18.5,13.9,18.4,13.9,18.3,14z M18.2,13.6
			c-0.1-0.1-0.1-0.1-0.2,0c0,0-0.1,0-0.1,0.1c0,0-0.1,0-0.1,0.1c0,0,0.1,0.1,0.1,0C18.1,13.7,18.2,13.7,18.2,13.6z M16.2,12.5
			c-0.1,0-0.1,0-0.2,0c-0.1,0.1-0.2,0.1-0.3,0.2c-0.1,0-0.2,0.1-0.2,0.1c0,0,0.1,0,0.1,0C15.9,12.7,16,12.6,16.2,12.5z M18.5,13.7
			c0,0-0.1-0.1-0.1,0c-0.1,0-0.2,0.1-0.3,0.1c0,0,0.1,0.1,0.1,0C18.3,13.8,18.4,13.8,18.5,13.7z"/>
	</g>
</g>
<path class="st0" d="M28.7,20.4C28.7,20.5,28.7,20.4,28.7,20.4c-0.3,0-0.5,0-0.7,0.1c-0.2,0-0.4,0-0.7,0.1c-0.2,0-0.5,0.1-0.7,0.2
	c-0.1,0.1-0.2,0.1-0.3,0.1c-0.1,0-0.1,0-0.2,0c-0.1,0-0.2,0-0.4,0c-0.1,0-0.2,0-0.3-0.1c-0.1,0-0.2-0.1-0.3-0.1c-0.1,0-0.2,0-0.2,0
	c-0.1,0-0.2,0-0.3,0c-0.1,0-0.2,0-0.3-0.1c-0.1-0.1-0.2-0.1-0.4-0.1c-0.2,0-0.3-0.1-0.4-0.1c-0.2-0.1-0.3-0.1-0.5-0.2
	c-0.2-0.1-0.4-0.1-0.5-0.2c-0.1-0.1-0.3-0.1-0.4-0.2c-0.1-0.1-0.2-0.1-0.4-0.2c-0.1,0-0.2-0.1-0.3-0.1c-0.1,0-0.1,0-0.2,0
	c-0.3-0.1-0.5-0.2-0.8-0.4c-0.1,0-0.1-0.1-0.2-0.1c-0.1,0-0.1-0.1-0.2-0.1c0,0,0,0,0,0c0,0,0,0,0,0c0.2,0.1,0.4,0.2,0.6,0.3
	c0.2,0.1,0.3,0.2,0.5,0.3c0.1,0,0.1,0,0.2,0c0.2,0,0.3,0,0.4,0.1c0.2,0.1,0.3,0.1,0.5,0.2c0.1,0,0.3,0.1,0.4,0.2
	c0.1,0,0.2,0.1,0.3,0.1c0.1,0,0.3,0.1,0.4,0.2c0.2,0.1,0.4,0.2,0.6,0.2c0.2,0,0.3,0.1,0.4,0.1c0.1,0,0.2,0,0.3,0c0.1,0,0.2,0,0.4,0
	c0.1,0,0.2,0,0.2,0c0,0,0.1,0,0.1,0c0.1,0.1,0.2,0,0.3,0c0.1,0,0.1,0,0.2,0c0.1,0,0.3,0,0.4,0c0.1,0,0.1,0,0.2-0.1
	c0.1-0.1,0.2-0.1,0.4-0.1c0.3,0,0.6-0.1,1-0.1c0.1,0,0.2,0,0.3,0C28.4,20.3,28.7,20.4,28.7,20.4z"/>
<path class="st0" d="M18.7,14.3c-0.1,0-0.3,0.1-0.4,0c-0.2,0-0.4,0-0.6,0.1c-0.1,0-0.2,0.1-0.3,0c-0.1,0-0.2,0-0.3,0
	c-0.2,0-0.4,0-0.6,0.1c-0.1,0-0.2,0-0.3,0.1c-0.2,0.1-0.3,0.1-0.5,0.1c-0.2,0-0.4,0-0.7,0.1c-0.1,0-0.2,0-0.3,0c-0.1,0-0.2,0-0.3,0
	c-0.1,0-0.1,0-0.2,0.1C14,14.9,13.9,15,13.7,15c-0.1,0-0.2,0-0.2,0c-0.1,0-0.2,0-0.2,0.1c0,0,0,0-0.1,0c-0.2,0-0.5-0.1-0.7-0.1
	c0,0,0,0-0.1,0c-0.1-0.1-0.2-0.1-0.3-0.2c0,0-0.1,0-0.1,0c-0.1-0.1-0.2-0.2-0.4-0.3c0,0,0,0,0,0c0,0,0,0,0-0.1c0,0,0,0,0.1,0
	c0.1,0,0.1,0.1,0.2,0.1c0.1,0.1,0.2,0.2,0.4,0.2c0.1,0.1,0.2,0.1,0.4,0.2c0.1,0,0.1,0,0.2,0c0.1,0,0.2,0.1,0.4,0.1
	c0.1,0,0.1,0,0.2,0c0.1,0,0.2-0.1,0.3,0c0.2,0,0.3-0.1,0.5-0.2c0.1-0.1,0.3-0.1,0.4-0.1c0.2,0.1,0.5,0.1,0.7,0c0.1,0,0.2,0,0.4,0
	c0.1,0,0.1,0,0.2,0c0.2,0,0.3-0.1,0.5-0.2c0,0,0,0,0.1,0c0.2,0,0.4-0.1,0.6-0.1c0,0,0.1,0,0.1,0c0.1,0,0.2,0,0.3,0
	c0.1,0,0.2,0,0.3,0c0.2-0.1,0.4-0.1,0.6,0C18.4,14.3,18.5,14.3,18.7,14.3C18.7,14.3,18.7,14.3,18.7,14.3z"/>
<path class="st0" d="M27.1,17.8c-0.2-0.2-0.3-0.3-0.6-0.3c0,0-0.1,0-0.1,0c0-0.1,0.1,0,0.1,0c0.1,0,0.2,0,0.3,0.1
	C27,17.6,27.1,17.6,27.1,17.8c0.1,0,0.2,0,0.3,0c0,0,0,0,0,0c0,0,0,0,0,0C27.3,17.9,27.2,17.9,27.1,17.8c0,0.1-0.1,0.1-0.1,0.1
	c-0.2,0-0.4,0-0.7-0.1c-0.2,0-0.4,0-0.5,0c-0.3,0-0.5,0-0.8,0.1c-0.3,0-0.6,0-0.9,0c-0.3,0-0.6,0-0.9,0c-0.3,0-0.5,0-0.8,0
	c-0.2,0-0.4,0.1-0.5,0.1c-0.1,0-0.1,0-0.2,0c-0.1,0-0.3,0-0.4-0.1c-0.1,0-0.2,0-0.3,0c-0.1,0-0.2,0-0.2-0.1c0,0,0,0,0,0c0,0,0,0,0,0
	c0.1,0,0.2,0,0.3,0c0.2,0,0.3,0,0.5,0c0.1,0,0.2,0,0.3,0c0.1,0,0.1-0.1,0.2-0.1c0.1,0,0.2-0.1,0.2-0.1c0.2,0,0.3,0,0.5-0.1
	c0.1,0,0.2,0,0.3,0c0.1,0,0.3,0,0.4,0c0.2,0,0.3,0,0.5,0c0.3,0,0.6,0,0.9,0c0.1,0,0.3,0,0.4-0.1c0.1,0,0.2,0,0.3,0
	c0.1,0,0.3,0,0.4,0c0.1,0,0.2,0,0.4,0C26.7,17.8,26.9,17.9,27.1,17.8z"/>
<path class="st0" d="M9.9,13.9l-0.7,0.8c0.1,0,0.1,0,0.2,0c0,0,0,0,0,0c0-0.1,0.1-0.2,0.1-0.2c0.1-0.1,0.2-0.2,0.4-0.3
	c0,0,0,0,0.1,0C10,13.9,9.9,13.9,9.9,13.9c0.1,0.1,0.1,0,0.2,0.1c0.1,0,0.2,0,0.2,0c0,0,0,0,0.1,0.1c-0.1,0-0.2,0.1-0.3,0.2
	c-0.1,0.1-0.2,0.2-0.4,0.4c0,0,0,0,0,0c0.1,0,0.2,0,0.2,0c0,0,0,0,0,0c0-0.1,0.1-0.1,0.1-0.1c0-0.1,0.1-0.1,0.1-0.1
	c0-0.1,0.1-0.1,0.1-0.1c0.1-0.1,0.2-0.2,0.3-0.2c-0.2,0.2-0.4,0.4-0.6,0.7c0.1,0,0.3,0,0.4-0.1c0.1-0.1,0.3-0.3,0.4-0.4
	c0.1-0.1,0.1-0.1,0.1,0c0.1,0.1,0.2,0.2,0.2,0.3c0,0,0.1,0.1,0.1,0.1c0,0,0,0-0.1,0c0,0-0.1,0-0.1,0c-0.1,0.1-0.2,0.2-0.4,0.3
	c0.1,0.1,0.1,0.1,0.2,0c0.1-0.1,0.2-0.1,0.3-0.2c0,0,0,0,0.1,0c0,0.1-0.1,0.1-0.2,0.1c-0.1,0-0.1,0.1-0.2,0.1c0.1,0.1,0.1,0.1,0.2,0
	c0.1,0,0.2-0.1,0.2-0.1c0,0,0,0,0,0c0,0,0,0,0,0c-0.1,0-0.1,0.1-0.2,0.1c0,0,0,0,0,0c0.1,0,0.1,0,0.2,0.1c0,0-0.1,0-0.1,0
	c-0.1,0-0.2,0-0.4,0c-0.1,0-0.1,0-0.2-0.1c0,0-0.1,0-0.1,0c-0.1,0,0-0.1,0-0.1c0,0,0,0-0.1-0.1c0,0,0,0-0.1,0c0,0-0.1,0-0.1,0.1
	c0,0,0,0,0,0c0,0,0,0,0,0c0,0,0.1-0.1,0.1-0.1c-0.1-0.1-0.1-0.1-0.2,0c0,0-0.1,0-0.1,0.1c0,0,0,0,0-0.1c0,0,0,0,0-0.1
	c-0.1,0-0.1,0-0.2,0c-0.2,0-0.4,0-0.6,0.1c-0.1,0-0.1,0-0.2,0c-0.1,0-0.2,0-0.3-0.1c0,0-0.1-0.1-0.1-0.1c0.1,0,0.1,0,0.2-0.1
	c0.2-0.2,0.4-0.4,0.5-0.5c0,0,0,0,0,0c0,0-0.1,0-0.1-0.1c-0.1,0-0.1,0-0.2,0C9.2,14,9,14.2,8.9,14.3c0,0,0,0-0.1,0
	c0-0.1,0.1-0.1,0.1-0.2C9,14,9.2,13.9,9.3,13.8c0,0,0.1,0,0-0.1c0.1,0,0.2,0.1,0.3,0.1c0,0.1-0.1,0.1-0.1,0.1
	c-0.1,0.1-0.2,0.2-0.4,0.3c-0.1,0.1-0.1,0.1-0.2,0.2c0,0,0,0.1,0,0.1c0.1,0.1,0.1,0.1,0.2,0C9.4,14.3,9.6,14.1,9.9,13.9
	C9.9,13.9,9.9,13.9,9.9,13.9z M11,14.2c0-0.1-0.1-0.1-0.1-0.2c-0.2,0.2-0.3,0.3-0.5,0.5c0,0,0.1,0,0.1,0c0.1,0,0.1,0,0.1,0
	C10.8,14.4,10.9,14.3,11,14.2z M9.4,14.6c0.1,0,0.2-0.1,0.3-0.1c0.1-0.1,0.1-0.1,0.2-0.2c0.1-0.1,0.2-0.2,0.3-0.3
	c-0.1,0-0.1,0-0.2,0c-0.1,0.1-0.2,0.2-0.3,0.3C9.7,14.4,9.5,14.5,9.4,14.6z M10.6,14.6C10.7,14.6,10.7,14.6,10.6,14.6
	c0.1,0.1,0.1,0.1,0.2,0c0.1-0.1,0.2-0.2,0.4-0.3c0-0.1-0.1-0.1-0.1-0.1C10.9,14.3,10.8,14.5,10.6,14.6z"/>
<path class="st0" d="M24.4,21C24.4,21,24.4,21.1,24.4,21c-0.2,0.2-0.4,0.3-0.6,0.4c-0.1,0-0.2,0.1-0.2,0.1c0.1,0.1,0.2,0.1,0.3,0.1
	c0,0,0.1,0,0.1,0c0.1-0.1,0.3-0.2,0.4-0.3c0.1-0.1,0.2-0.1,0.3-0.2c0,0,0,0,0,0c0,0,0,0,0,0c-0.1,0-0.1,0.1-0.2,0.1
	c-0.2,0.1-0.3,0.2-0.5,0.3c0.1,0.1,0.1,0.1,0.2,0.1c0,0,0.1,0,0.1,0c0.2-0.1,0.4-0.3,0.6-0.4c0.1,0,0.1-0.1,0.2-0.1c0,0,0,0.1,0,0.1
	c-0.1,0.1-0.3,0.2-0.4,0.3c-0.1,0.1-0.2,0.1-0.3,0.2c0.1,0.1,0.2,0.1,0.2,0.1c0,0,0.1,0,0.1,0c0.3-0.2,0.6-0.4,0.8-0.5
	c0,0,0,0,0.1,0c0,0.1-0.1,0.1-0.2,0.1c-0.2,0.1-0.4,0.3-0.6,0.4c0,0-0.1,0.1-0.1,0.1c0.1,0.1,0.2,0.1,0.4,0.2c0.1,0,0.2,0,0.2,0
	c0.2-0.1,0.4-0.3,0.7-0.4c0.1,0,0.1-0.1,0.2-0.1c-0.1,0.1-0.3,0.2-0.4,0.3c-0.2,0.1-0.3,0.2-0.4,0.3c0,0.1,0.1,0.1,0.1,0.1
	c-0.2-0.1-0.4-0.2-0.6-0.3c0,0,0,0,0,0c0,0-0.1,0-0.2-0.1c0-0.1-0.1-0.1-0.2-0.1c-0.1,0-0.1-0.1-0.2-0.1c-0.1,0-0.1,0-0.2-0.1
	c-0.1,0-0.1-0.1-0.2-0.1c-0.1,0-0.1-0.1-0.2-0.1c-0.1,0-0.2-0.1-0.3-0.1c-0.1,0-0.2-0.1-0.3-0.1c-0.2-0.1-0.4-0.1-0.6-0.2
	c-0.1-0.1-0.3-0.1-0.4-0.2c-0.1,0-0.1-0.1-0.2-0.1c0,0,0,0,0-0.1s0,0,0.1,0c0.2,0.1,0.4,0.2,0.6,0.2c0.1,0.1,0.2,0.1,0.4,0.2
	c0.1,0,0.1,0,0.2,0c0.1-0.1,0.2-0.1,0.3-0.2c0,0,0,0,0,0c0,0,0.1-0.1,0.1,0c0,0,0,0.1-0.1,0.1c-0.1,0.1-0.2,0.1-0.3,0.2
	c0,0-0.1,0-0.1,0.1c0.1,0.1,0.2,0.1,0.2,0.1c0,0,0,0,0.1,0c0.1,0.1,0.2,0,0.2,0c0.2-0.1,0.3-0.2,0.5-0.3c0,0,0,0,0.1,0
	c-0.1,0.1-0.2,0.1-0.3,0.2c-0.1,0.1-0.2,0.1-0.3,0.2c0.1,0,0.1,0.1,0.2,0.1c0,0,0.1,0,0.1,0C23.9,21.3,24.1,21.2,24.4,21
	C24.3,21,24.4,21,24.4,21z"/>
<path class="st0" d="M17.5,17.7c0.2,0.1,0.3,0.1,0.5,0c0.1-0.1,0.2-0.1,0.3-0.1c0.1,0,0.2,0.1,0.2,0.1c0.1,0.1,0.3,0.1,0.4,0.2
	c0,0,0,0,0,0c0,0,0,0,0,0c-0.1,0-0.2,0-0.3,0c-0.1-0.1-0.2-0.1-0.4-0.2c-0.1-0.1-0.1,0-0.2,0c0,0-0.1,0.1-0.1,0.1
	c-0.1,0.1-0.2,0.1-0.3,0.1c-0.2,0-0.4-0.1-0.5-0.2c-0.1,0-0.1,0-0.2,0c-0.1,0-0.2,0-0.3-0.1c0,0-0.1-0.1-0.1-0.1c0,0-0.1,0-0.2,0
	c-0.2,0.1-0.3,0.1-0.5,0.1c-0.1,0-0.2,0-0.3-0.1c-0.1,0-0.2-0.1-0.2-0.1c-0.1,0-0.1-0.1-0.2-0.1c-0.1-0.1-0.2-0.1-0.3-0.2
	c-0.3-0.1-0.5-0.2-0.7-0.4c0,0,0,0,0,0c0,0,0,0,0-0.1c0,0,0,0,0.1,0c0.1,0.1,0.2,0.1,0.4,0.2c0.1,0,0.2,0.1,0.3,0.1
	c0.1,0,0.2,0.1,0.3,0.1c0,0,0.1,0,0.1,0c0.1,0.1,0.1,0.1,0.2,0.1c0.1,0,0.2,0.1,0.3,0.2c0.1,0,0.1,0,0.2,0c0.1,0,0.2,0,0.3,0
	c0,0,0.1,0,0.1,0c0.1,0,0.1,0,0.2,0c0,0,0.1,0.1,0.1,0.1c0.1,0,0.1,0,0.2,0c0.2,0,0.4,0,0.5,0.1C17.3,17.7,17.3,17.6,17.5,17.7
	c0-0.1,0.1-0.2,0.1-0.2c0,0,0.1,0,0.1,0c0,0,0,0.1,0,0.1c0,0,0,0-0.1,0C17.6,17.6,17.5,17.6,17.5,17.7z"/>
<path class="st0" d="M26.4,18.6c0.1-0.1,0.3-0.3,0.4-0.4c-0.1,0-0.1,0-0.1,0c0,0,0,0,0,0c0,0.1-0.1,0.2-0.2,0.2
	C26.4,18.5,26.4,18.5,26.4,18.6C26.4,18.6,26.4,18.6,26.4,18.6c-0.2-0.1-0.2,0.1-0.4,0.2c0-0.1,0.1-0.1,0.1-0.2
	c-0.1,0-0.2,0-0.2,0.1c0,0,0,0,0,0c0,0,0-0.1,0-0.1c-0.1,0-0.1,0-0.2,0.1c0,0,0,0-0.1,0.1c0-0.1,0-0.1,0-0.1c-0.1,0-0.2,0-0.2,0.1
	c0,0-0.1,0.1-0.1,0c0,0,0,0,0,0c0,0-0.1,0-0.2,0c0.1-0.2,0.3-0.3,0.4-0.4c-0.1,0-0.1,0-0.1,0c-0.1,0.1-0.2,0.2-0.3,0.3
	c0,0.1-0.1,0.1-0.2,0.1c0,0,0,0,0,0c0,0,0,0,0,0c0,0,0,0,0,0c0.1-0.1,0.2-0.2,0.3-0.3c0,0,0.1-0.1,0.1-0.1c0,0,0.1,0,0-0.1
	c0,0,0,0,0,0c0,0,0,0,0,0c0.3,0.1,0.5,0,0.8,0c0.1,0,0.2,0,0.3,0c0.1,0,0.2,0,0.3,0c0.1,0,0.1,0.1,0,0.1
	C26.7,18.4,26.6,18.5,26.4,18.6C26.4,18.7,26.4,18.6,26.4,18.6z M26.3,18.3c-0.1,0-0.1,0-0.2,0c-0.1,0.1-0.2,0.2-0.3,0.3
	c0.1,0,0.1,0,0.2-0.1C26.1,18.5,26.2,18.4,26.3,18.3z M25.2,18.6c0.1,0,0.1,0,0.2-0.1c0.1-0.1,0.2-0.2,0.2-0.2c0,0,0.1,0,0.1-0.1
	c-0.1,0-0.1,0-0.2,0C25.5,18.4,25.4,18.5,25.2,18.6z M26.1,18.3c-0.1,0-0.1,0-0.2,0c-0.1,0.1-0.2,0.2-0.4,0.3c0,0,0.1,0,0.1,0
	c0.1,0,0.1,0,0.2-0.1C25.8,18.4,25.9,18.3,26.1,18.3z M26.1,18.6c0.1,0,0.2,0,0.2-0.1c0.1-0.1,0.1-0.1,0.2-0.2c0,0,0.1-0.1,0.1-0.1
	c-0.1,0.1-0.2,0-0.3,0.1c0,0,0,0-0.1,0.1C26.2,18.4,26.2,18.5,26.1,18.6z"/>
<path class="st0" d="M13.4,12.2c-0.1,0-0.2,0-0.2,0.1c-0.1,0.1-0.2,0.2-0.4,0.3c0,0-0.1,0.1-0.1,0.1c0,0,0,0,0,0c0,0,0,0,0,0
	c0.1-0.1,0.3-0.3,0.4-0.3c0,0,0,0,0,0c0,0-0.1,0-0.1,0c-0.1,0-0.2,0-0.3,0c-0.1,0-0.2,0.1-0.3,0.1c-0.1,0-0.3,0-0.4,0.1
	c-0.2,0.1-0.4,0.1-0.6,0.2c-0.1,0-0.1,0.1-0.2,0.1c-0.1,0-0.1,0-0.1,0.1c0,0.1-0.1,0.1-0.1,0.1c0,0,0,0,0,0c0,0,0,0,0,0
	c0,0,0-0.1,0.1-0.1c0,0-0.1,0-0.1,0c-0.1,0-0.3,0-0.4,0c0,0,0,0-0.1,0c0,0,0,0,0,0c0,0,0,0,0,0c0.1,0,0.1,0,0.2,0
	c0.2,0,0.4,0,0.7-0.1c0.1,0,0.1-0.1,0.1-0.1c0.1-0.1,0.3-0.1,0.4-0.1c0.1,0,0.2,0,0.4-0.1c0.2,0,0.5-0.1,0.7-0.1
	C13.1,12,13.2,12.1,13.4,12.2C13.4,12.1,13.4,12.1,13.4,12.2L13.4,12.2z"/>
<path class="st0" d="M27.8,23.1C27.8,23.1,27.9,23.1,27.8,23.1c0.1,0.1,0.2,0.1,0.3,0.2c0.1,0,0.2,0.1,0.2,0.2
	c0.1,0.2,0.3,0.3,0.4,0.4c0,0,0,0,0.1,0c0.2,0,0.3,0.1,0.5,0.2c0.1,0,0.2,0.1,0.2,0.1c0.1,0.1,0.2,0.1,0.3,0.1
	c0.1,0,0.3,0.1,0.4,0.1c0.1,0.1,0.3,0.1,0.4,0.2c0.1,0,0.1,0,0.2,0c0,0,0,0,0,0c0,0,0.1,0,0.1,0c0,0,0,0-0.1,0c-0.1,0-0.2,0-0.3,0
	c-0.1,0-0.2-0.1-0.2-0.1c-0.2-0.1-0.4-0.2-0.6-0.2c-0.2,0-0.3-0.1-0.4-0.2c0,0-0.1,0-0.1-0.1c-0.2,0-0.3-0.1-0.4-0.2
	c-0.2,0-0.3-0.1-0.4-0.2c-0.1-0.1-0.2-0.2-0.3-0.3c0,0-0.1-0.1-0.1-0.1C28,23.3,27.9,23.2,27.8,23.1C27.8,23.1,27.8,23.1,27.8,23.1z
	"/>
<path class="st0" d="M23.3,18.6c0.1,0,0.1,0,0.2,0c0,0,0,0,0.1,0c0,0,0.1-0.1,0.1-0.1c0.1-0.1,0.2-0.2,0.3-0.2c0,0,0,0-0.1,0
	c0,0-0.1,0-0.1,0c0,0,0,0,0.1,0c0.1,0,0.2,0,0.3,0c0.2,0,0.3,0.1,0.5,0c-0.2,0.1-0.3,0.3-0.4,0.5c0,0,0.1,0,0.1,0
	c-0.1,0-0.2,0-0.3,0c-0.2,0-0.4,0-0.6,0c-0.2,0-0.4,0-0.6-0.1c-0.1,0-0.2-0.1-0.3-0.1c0,0,0,0,0,0c0.1-0.1,0.1-0.2,0.2-0.2
	c0,0,0,0,0,0c0,0,0,0,0,0c-0.1,0.1-0.1,0.1-0.2,0.2c0,0,0,0,0,0c0.2,0.1,0.1,0.1,0.3-0.1c0,0,0-0.1,0.1-0.1c0,0,0.1-0.1,0.1,0
	c0,0,0,0.1,0,0.1c0,0.1-0.1,0.1-0.2,0.1c0,0,0.1,0,0.2,0.1c0,0,0.1,0,0.1-0.1c0.1-0.1,0.1-0.2,0.2-0.2c0,0,0.1-0.1,0.1-0.1
	c0,0,0,0.1-0.1,0.1c-0.1,0.1-0.2,0.2-0.3,0.3C23.2,18.6,23.2,18.6,23.3,18.6L23.3,18.6z M24,18.6C24,18.6,24,18.6,24,18.6
	c0.1,0,0.2,0,0.3-0.1c0.1-0.1,0.2-0.2,0.3-0.3c-0.1,0-0.2,0-0.3,0.1c-0.1,0.1-0.1,0.1-0.2,0.2C24,18.6,24,18.6,24,18.6z M23.7,18.6
	c0.1,0,0.2,0,0.3-0.1c0,0,0.1-0.1,0.1-0.1c0.1-0.1,0.1-0.1,0.2-0.2c0,0,0,0-0.1,0c-0.1,0-0.1,0-0.2,0c0,0-0.1,0.1-0.1,0.1
	C23.8,18.4,23.7,18.5,23.7,18.6z"/>
<path class="st0" d="M29,20.4C29,20.4,29,20.4,29,20.4c-0.1,0-0.1,0-0.1,0C28.9,20.4,28.9,20.4,29,20.4c0-0.1,0.1-0.1,0.2-0.1
	c0,0,0.1,0,0.1,0c0.1,0,0.3-0.1,0.4,0c0.1,0,0.1,0,0.2,0c0.2,0,0.3,0,0.5,0.1c0.1,0,0.2,0,0.3,0.1c0.2,0,0.4,0.1,0.6,0.2
	c0,0,0,0,0,0c0,0,0,0,0,0s0,0,0,0c0,0-0.1,0-0.1,0c-0.2-0.1-0.3-0.1-0.5-0.1c0,0,0,0,0,0c-0.2,0-0.3,0-0.5-0.1c-0.1,0-0.2,0-0.3,0
	c-0.1,0-0.2,0-0.3,0c-0.2,0-0.3,0-0.5,0C29.1,20.4,29.1,20.4,29,20.4z"/>
<path class="st0" d="M33.5,25.1c-0.2,0-0.4,0-0.6,0c-0.2,0-0.3,0-0.5,0.1c-0.1,0-0.2,0-0.3-0.1C32,25,31.9,25,31.8,25
	c-0.1,0-0.1,0-0.2,0c-0.1,0-0.2-0.1-0.3-0.1c0,0,0,0,0.1,0c0.1,0.1,0.3,0.1,0.4,0.1c0.1,0,0.2,0,0.3,0.1c0.3,0.1,0.3,0.1,0.6,0.1
	c0.2,0,0.3-0.1,0.5-0.1c0.1,0,0.1,0,0.2,0c0.1,0,0.3,0,0.4,0c0,0,0,0,0,0s0,0-0.1,0C33.7,25,33.7,25,33.5,25.1
	C33.6,25,33.6,25,33.5,25.1c0,0.1,0,0.2-0.2,0.2C33.4,25.2,33.4,25.1,33.5,25.1z"/>
<path class="st0" d="M34.1,24C34.1,24,34.1,24,34.1,24c-0.2-0.2-0.3-0.3-0.5-0.5c-0.1-0.1-0.1-0.1-0.2-0.2c0,0-0.1-0.1-0.1-0.1
	c-0.2,0-0.3,0-0.4-0.2c0,0-0.1,0-0.1,0c0,0-0.1,0-0.1,0c-0.3-0.1-0.6-0.2-0.9-0.3c-0.1,0-0.1,0-0.2,0c0,0-0.1,0-0.1,0c0,0,0,0,0.1,0
	c0.1,0,0.2,0,0.3,0c0.3,0,0.5,0.1,0.8,0.2c0,0,0,0,0.1,0c0.1,0,0.2,0.1,0.3,0.2c0.1,0.1,0.2,0.1,0.3,0.2c0.1,0,0.1,0,0.2,0.1
	C33.7,23.5,33.9,23.7,34.1,24C34.1,24,34.1,24,34.1,24z"/>
<path class="st0" d="M27.2,22.8c0.1,0.1,0.2,0.1,0.3,0c0.1,0,0.1,0,0.2,0c0,0,0.1,0,0.1,0c0-0.1,0.1-0.2,0.2-0.3c0,0,0,0,0,0
	c0.1-0.1,0.1-0.1,0.2-0.1c0.1,0.1,0.1,0.1,0.2,0.2c0,0,0.1,0,0.1,0c0.1,0,0.1,0,0.2,0c0,0,0,0,0,0c0,0,0,0,0,0c-0.1,0-0.2,0-0.3,0
	c-0.1,0-0.1,0-0.2-0.1c0,0-0.1-0.1-0.1-0.1c-0.1-0.1-0.1-0.1-0.1,0c0,0.1-0.1,0.1-0.1,0.2c0,0,0,0.1,0,0.1c0,0,0,0,0,0
	c0,0,0,0.1,0,0.1c0,0-0.1,0-0.1,0c-0.1,0-0.2,0-0.4,0C27.3,22.9,27.2,22.9,27.2,22.8C27.2,22.9,27.1,22.9,27.2,22.8z"/>
<path class="st0" d="M31.4,22.7c0,0-0.1,0-0.1,0c-0.1,0-0.3,0-0.4,0c-0.2,0-0.5,0-0.7,0c-0.2,0-0.4,0-0.5,0c-0.1,0-0.2,0.1-0.3,0.1
	c-0.1,0-0.2,0.1-0.4,0c0,0,0,0,0,0c0,0,0,0,0.1,0c0,0,0,0,0,0c0.1,0,0.2,0,0.3,0c0.3-0.1,0.5-0.2,0.8-0.1c0.1,0,0.3,0,0.4,0
	c0.1,0,0.3,0,0.4,0C31.1,22.6,31.3,22.6,31.4,22.7z"/>
<path class="st0" d="M19,17.9C19.1,17.9,19.1,17.9,19,17.9c0.1,0,0.2,0.1,0.3,0.1c0.1,0.1,0.2,0.1,0.3,0.1c0,0,0.1,0,0.1,0
	c0,0,0.1,0,0.1,0c0.1-0.1,0.2-0.1,0.3-0.1c0.2,0,0.3,0.1,0.5,0.1c0,0,0,0,0,0c0,0,0,0,0,0c0,0,0,0,0,0c0,0-0.1,0-0.1,0
	c-0.1,0-0.3,0-0.4,0c-0.1,0-0.1,0-0.2,0c0,0-0.1,0-0.1,0.1c0,0.1-0.1,0.1-0.2,0.1c-0.1,0-0.1,0-0.2,0c-0.1,0-0.2,0-0.3-0.1
	C19.2,18,19.1,18,19,17.9z"/>
<path class="st0" d="M33.5,23c0,0.1,0.1,0.1,0.1,0.1c0,0,0.1,0,0.1,0c0.1-0.1,0.2-0.1,0.3-0.2c0,0,0.1,0,0.1,0
	c-0.1,0.2-0.2,0.2-0.4,0.3c0,0,0.1,0.1,0.1,0.1c0,0,0.1,0,0.1,0c0.1-0.1,0.2-0.1,0.2-0.2c0,0,0.1,0,0.1-0.1c0,0,0,0,0.1,0
	c0,0,0,0,0,0.1c-0.1,0.1-0.2,0.2-0.4,0.3c0,0,0,0,0,0c0.1,0,0.1,0,0.2,0c0.1-0.1,0.2-0.2,0.3-0.3c0,0,0,0,0,0c0,0,0,0,0,0
	c0,0,0,0,0,0c0,0-0.1,0,0,0.1c0,0,0.1,0.1,0.1,0c0,0,0,0,0.1,0c-0.1,0,0,0.1-0.1,0.2c0,0,0,0,0-0.1c-0.1,0-0.2,0.1-0.3,0.1
	c0.1,0,0.1-0.1,0.2-0.1c0,0,0.1,0,0-0.1c0,0-0.1-0.1-0.1,0c0,0,0,0,0,0c-0.1,0.1-0.2,0.1-0.3,0.2c0,0,0.1,0.1,0.1,0.1
	c0,0,0.1,0,0.1,0.1c0,0,0,0,0,0c0,0,0,0,0,0c0,0,0,0,0,0c-0.1-0.1-0.2-0.1-0.3-0.2c-0.1-0.1-0.2-0.1-0.3-0.2
	c-0.1-0.1-0.2-0.2-0.4-0.2C33.4,22.9,33.5,23,33.5,23L33.5,23z"/>
<path class="st0" d="M33.5,22c-0.1,0-0.1-0.1-0.2-0.1c-0.1-0.1-0.3-0.2-0.5-0.2c-0.1,0-0.2-0.1-0.2-0.1c0,0-0.1-0.1-0.2-0.1
	c-0.1,0-0.1-0.1-0.2-0.2c0-0.1-0.1-0.1-0.1-0.2c0,0,0-0.1,0-0.1c0,0,0.1,0,0.1,0c0,0.1,0.1,0.2,0.2,0.2c0.1,0.1,0.2,0.1,0.3,0.2
	c0,0.1,0.1,0.1,0.2,0.1C33.2,21.7,33.3,21.8,33.5,22C33.5,21.9,33.5,21.9,33.5,22z"/>
<path class="st0" d="M33.3,25.6C33.3,25.6,33.3,25.6,33.3,25.6c-0.1,0-0.2,0-0.3,0c-0.1,0-0.2,0-0.3,0c-0.2-0.1-0.4-0.1-0.6-0.2
	c0,0-0.1,0-0.1-0.1c0,0,0,0,0,0c0,0,0,0,0,0c0.2,0,0.4,0.1,0.6,0.2c0.2,0.1,0.3,0.1,0.5,0.1C33.2,25.5,33.2,25.5,33.3,25.6
	C33.3,25.5,33.3,25.6,33.3,25.6z"/>
<path class="st0" d="M22.2,19.7C22.2,19.6,22.3,19.6,22.2,19.7c0.2,0,0.2,0.1,0.4,0.1c0.1,0,0.2,0.1,0.3,0.1c0.1,0,0.2,0.1,0.3,0.1
	c0,0,0,0,0.1,0c0,0,0,0,0,0s0,0.1,0,0.1c-0.1,0-0.2,0-0.3,0c-0.1-0.1-0.2-0.1-0.3-0.1c0,0-0.1,0-0.1,0
	C22.4,19.9,22.3,19.7,22.2,19.7C22.2,19.7,22.2,19.7,22.2,19.7z"/>
<path class="st0" d="M27.2,24.2c0.1,0,0.1,0,0.1,0c0.1,0.1,0.2,0.1,0.3,0.2c0.1,0.1,0.3,0.2,0.4,0.2c0.1,0,0.3,0.1,0.4,0.2
	c0.1,0,0.1,0.1,0.2,0.1c0,0-0.1,0-0.1,0c-0.2-0.1-0.4-0.2-0.7-0.2c-0.2-0.1-0.3-0.2-0.5-0.3C27.3,24.3,27.2,24.3,27.2,24.2z"/>
<path class="st0" d="M10.7,12.9c0,0-0.1,0-0.1,0c-0.1,0-0.3-0.1-0.4-0.1c-0.1,0-0.1-0.1-0.1-0.1c-0.1-0.1-0.1-0.1-0.2-0.2
	c-0.1-0.1-0.1-0.2,0-0.2c0,0,0,0,0,0c0,0,0,0,0,0c0,0.1,0.1,0.1,0.1,0.2c0.1,0.1,0.2,0.2,0.3,0.2C10.4,12.8,10.5,12.9,10.7,12.9
	C10.7,12.9,10.7,12.9,10.7,12.9z"/>
<path class="st0" d="M13.6,16.7C13.5,16.7,13.5,16.7,13.6,16.7c-0.1-0.2-0.2-0.2-0.3-0.3c-0.1-0.1-0.2-0.1-0.3-0.2
	c-0.1-0.1-0.2-0.1-0.2-0.2c0,0-0.1-0.1,0-0.1c0,0,0.1,0,0.1,0c0.1,0.1,0.2,0.2,0.4,0.3c0,0,0.1,0.1,0.1,0.1
	C13.4,16.4,13.5,16.5,13.6,16.7L13.6,16.7z"/>
<path class="st0" d="M30.9,23c0,0,0.1,0,0.1,0c0.1,0,0.2,0.1,0.3,0.1c0,0,0.1,0,0.1,0.1c0,0.1,0.1,0.2,0.2,0.2c0.1,0,0.2,0,0.3,0.1
	c0.1,0,0.2,0.1,0.3,0.1c0.1,0,0.1,0.1,0.2,0c0,0,0,0,0,0c0,0,0,0,0,0c0,0-0.1,0.1-0.1,0c-0.1,0-0.2,0-0.3-0.1
	c-0.1,0-0.2-0.1-0.3-0.1c-0.1,0-0.2-0.1-0.2-0.2c0,0-0.1,0-0.1-0.1C31.1,23.2,31,23.1,30.9,23C30.9,23.1,30.9,23.1,30.9,23z"/>
<path class="st0" d="M28,21.2C28,21.2,27.9,21.2,28,21.2c-0.3,0-0.4,0-0.6,0c-0.1,0-0.1,0-0.2-0.1c-0.1-0.1-0.1-0.1-0.2,0
	c0,0-0.1,0-0.1,0c0,0,0,0,0,0c0,0,0,0,0,0c0.1,0,0.1-0.1,0.2-0.1c0.1,0,0.1,0,0.2,0c0,0,0.1,0,0.1,0.1c0,0,0.1,0,0.1,0
	c0,0,0.1,0,0.1,0C27.7,21.1,27.8,21.1,28,21.2C28,21.2,28,21.2,28,21.2z"/>
<path class="st0" d="M19.7,19.7l0.2,0.2c0,0-0.1,0-0.1,0C19.7,19.8,19.7,19.7,19.7,19.7c-0.1-0.1-0.1-0.1-0.1-0.1c0,0,0,0,0.1,0
	c0.1,0,0.1,0,0.1-0.1c0-0.1,0-0.1,0-0.2c0-0.1,0-0.1,0.1-0.1c0,0,0.1,0,0,0.1c-0.1,0.1,0,0.1,0,0.2c0,0,0,0.1,0,0.1
	C19.9,19.6,19.9,19.7,19.7,19.7C19.8,19.7,19.7,19.7,19.7,19.7z"/>
<path class="st0" d="M29.3,23.6c0,0.1,0,0.2-0.2,0.1c0,0-0.1,0-0.1,0c-0.1,0-0.2-0.1-0.2-0.2c0-0.1,0-0.2,0.1-0.2c0,0,0.1,0,0.1,0
	c0,0,0,0.1,0,0.1c0,0,0,0,0,0c0,0,0,0.1,0.1,0.1C29.2,23.6,29.2,23.6,29.3,23.6C29.3,23.5,29.3,23.6,29.3,23.6L29.3,23.6z"/>
<path class="st0" d="M28.7,21.2c-0.1,0-0.2,0-0.2,0c0,0-0.1,0-0.1-0.1c0,0,0,0,0.1,0c0.1,0,0.1,0,0.2,0c0.1,0,0.2,0,0.3-0.1
	c0,0,0,0,0.1,0c0,0,0.1,0,0.1,0c0,0,0,0,0,0.1C29,21.2,28.9,21.2,28.7,21.2C28.7,21.2,28.7,21.2,28.7,21.2z"/>
<g>
	<defs>
		<rect id="SVGID_1_" x="9.3" y="11.2" width="2.7" height="2.2"/>
	</defs>
	<clipPath id="SVGID_00000179640238130030438050000005130204616199600514_">
		<use xlink:href="#SVGID_1_"  style="overflow:visible;"/>
	</clipPath>
	<g style="clip-path:url(#SVGID_00000179640238130030438050000005130204616199600514_);">
		<path class="st0" d="M10.6,12.3C10.6,12.3,10.6,12.2,10.6,12.3c0-0.1-0.1-0.1-0.1-0.2c0,0-0.1-0.1-0.1-0.1c0,0,0,0,0-0.1
			c0,0,0,0,0.1,0c0,0,0,0.1,0.1,0.1c0.1,0.1,0.1,0.1,0.3,0c0,0,0.1-0.1,0.1-0.1c0,0,0,0,0,0c0,0,0.1,0,0.1,0c0,0.1,0,0.1-0.1,0.1
			c-0.1,0-0.2,0-0.2,0.1C10.8,12.2,10.7,12.2,10.6,12.3z"/>
	</g>
</g>
<path class="st0" d="M15.7,15.2C15.7,15.2,15.7,15.2,15.7,15.2c0.1-0.1,0.2-0.2,0.3-0.2c0,0,0.1-0.1,0.1-0.1c0,0,0,0,0.1,0
	c0,0,0,0,0,0.1c-0.1,0.1-0.1,0.1-0.2,0.2c0,0,0.1,0,0.1,0c0.1-0.1,0.2-0.2,0.3-0.2c0,0,0,0,0,0c0-0.1,0.1,0,0.1,0c0,0,0,0.1,0,0.1
	c-0.1,0.1-0.2,0.1-0.2,0.2c0,0-0.1,0.1-0.1,0.1c0,0-0.1,0.1-0.1,0c0,0-0.1,0-0.1,0c0,0,0,0-0.1,0.1C15.8,15.3,15.8,15.3,15.7,15.2
	C15.7,15.2,15.7,15.2,15.7,15.2z"/>
<path class="st0" d="M34.3,24.2c0.1,0.1,0.2,0.2,0.3,0.3c0.1,0.1,0.1,0.3,0,0.3c-0.1,0-0.1,0.1-0.2,0.1c0,0-0.1,0-0.1,0
	c0,0,0,0,0.1,0c0,0,0,0,0.1,0c0.2-0.1,0.2-0.2,0.1-0.3C34.4,24.4,34.4,24.3,34.3,24.2C34.3,24.3,34.3,24.2,34.3,24.2z"/>
<path class="st0" d="M30.5,23.5c0,0,0.1,0,0.1,0c0.1,0.1,0.2,0.2,0.2,0.2c0,0,0,0,0,0c0,0,0,0,0,0c0,0,0,0,0,0
	c-0.1,0-0.1-0.1-0.2-0.1c-0.1,0-0.1-0.1-0.2-0.1c0,0-0.1,0-0.1,0c0,0,0-0.1,0-0.1C30.4,23.5,30.4,23.5,30.5,23.5z"/>
<path class="st0" d="M19.2,14.3c0,0,0.1,0,0.1,0c0.1,0,0.2,0.1,0.3,0.1c0,0,0.1,0,0.1,0.1c0,0,0,0,0,0c0,0,0,0,0,0
	c-0.1,0-0.3,0-0.4-0.1c0,0-0.1,0-0.1,0c0,0-0.1,0-0.1,0C19,14.3,19.1,14.3,19.2,14.3C19.1,14.3,19.2,14.3,19.2,14.3z"/>
<path class="st0" d="M13.4,12.2L13.4,12.2c0.1-0.1,0.1-0.1,0.2-0.1c0,0,0,0,0,0c0,0,0,0,0,0.1c0,0,0,0,0,0c-0.1,0.1-0.3,0.3-0.4,0.4
	c0,0-0.1,0.1-0.1,0.1c0,0-0.1,0-0.1,0c0,0,0-0.1,0-0.1c0.1,0,0.1-0.1,0.1-0.1C13.2,12.3,13.3,12.3,13.4,12.2z"/>
<path class="st0" d="M22,20.6c0,0.1,0.1,0.1,0.1,0c0.2-0.1,0.3-0.2,0.5-0.3c0,0,0,0,0,0c0,0,0,0,0,0c0,0,0,0,0,0
	c-0.1,0-0.1,0.1-0.2,0.1c-0.1,0.1-0.2,0.1-0.3,0.2c0,0,0,0-0.1,0C22,20.8,22,20.8,22,20.6z"/>
<path class="st0" d="M16.3,15.1c0.1,0,0.1,0,0.2-0.1c0.1-0.1,0.1-0.1,0.2-0.2c0.1-0.1,0-0.1,0.1-0.1c0,0.1-0.1,0.1-0.1,0.2
	c-0.1,0-0.1,0.1-0.2,0.1c0.1,0,0.1,0,0.2-0.1c0.1-0.1,0.1-0.1,0.2-0.2c0,0,0-0.1,0.1,0c0,0,0,0,0,0.1c0,0-0.1,0.1-0.1,0.1
	c0,0,0,0-0.1,0.1c0,0-0.1,0,0,0.1c0,0,0,0,0,0c-0.1,0-0.1,0-0.2,0C16.5,15.1,16.4,15.1,16.3,15.1C16.3,15.2,16.3,15.1,16.3,15.1z"/>
<path class="st0" d="M33.6,22.5c-0.1,0-0.1,0-0.1,0s-0.1,0.1-0.1,0.1c0,0,0,0,0,0c0,0,0,0,0,0c-0.1,0-0.2,0-0.2-0.1
	c-0.1,0-0.3-0.1-0.4-0.2c0,0,0,0,0,0c0,0,0,0,0,0c0.1,0.1,0.3,0.1,0.4,0.2c0.1,0,0.2,0.1,0.3,0.1C33.5,22.5,33.5,22.5,33.6,22.5z"/>
<path class="st0" d="M13.7,16.8c0,0,0.1,0.1,0.1,0.1c0.1,0.1,0.3,0.2,0.4,0.2c0.1,0,0.2,0.1,0.2,0.2c0,0,0,0,0,0c0,0,0,0-0.1,0
	c0,0-0.1-0.1-0.1-0.1C14,17.2,13.8,17,13.7,16.8C13.7,16.8,13.6,16.8,13.7,16.8z"/>
<path class="st0" d="M15.6,15c0,0.1-0.1,0.1-0.2,0.2c0,0,0,0-0.1,0.1c0.1,0,0.2,0,0.3-0.1c0,0,0.1-0.1,0.1-0.1c0,0,0-0.1,0.1,0
	c0,0.1-0.1,0.1-0.1,0.1c0,0,0,0.1,0,0.1c-0.1,0-0.1,0-0.1,0c0,0-0.1,0.1-0.1,0.1c0,0,0,0,0-0.1c-0.1,0-0.1,0-0.2,0l0.2-0.3
	c-0.1,0-0.3,0-0.4,0c0,0,0,0,0,0C15.3,15,15.5,15,15.6,15z"/>
<path class="st0" d="M16.9,19.4C16.9,19.4,16.9,19.4,16.9,19.4c0.2,0.1,0.3,0.2,0.4,0.2c0.1,0,0.1,0.1,0.2,0.1c0,0,0,0,0,0
	c0,0,0,0,0,0c-0.1,0-0.1,0-0.2-0.1c-0.1,0-0.2-0.1-0.2-0.1C16.9,19.5,16.8,19.5,16.9,19.4C16.8,19.4,16.8,19.3,16.9,19.4
	C16.8,19.3,16.9,19.3,16.9,19.4C16.9,19.3,16.9,19.3,16.9,19.4z"/>
<path class="st0" d="M29.9,21.5C29.9,21.5,30,21.5,29.9,21.5c0.1,0.1-0.2,0.1-0.3,0.1C29.7,21.6,29.8,21.5,29.9,21.5
	C29.9,21.5,29.9,21.5,29.9,21.5c0,0,0-0.1,0-0.1c0.1-0.1,0.1-0.2,0.2-0.2c0-0.1,0-0.1,0-0.1c0,0,0,0,0,0c0.1-0.1,0.2,0,0.3,0
	C30.2,21.2,30.1,21.4,29.9,21.5z"/>
<path class="st0" d="M16.4,17c0,0.1,0,0.1-0.1,0.1c0,0,0,0-0.1,0c0,0,0,0,0,0c0,0,0-0.1,0-0.1c0-0.1-0.1-0.1-0.1-0.2
	c0-0.1,0-0.1,0-0.1c0,0,0.1,0,0.1,0C16.3,16.8,16.4,16.9,16.4,17C16.4,17,16.4,17,16.4,17z"/>
<path class="st0" d="M22.4,20.3C22.4,20.3,22.4,20.3,22.4,20.3c-0.2,0.2-0.4,0.3-0.6,0.4c0,0-0.1,0-0.1,0c0,0,0,0-0.1,0c0,0,0,0,0,0
	c0.2-0.1,0.3-0.2,0.5-0.3C22.3,20.3,22.3,20.3,22.4,20.3z"/>
<path class="st0" d="M26.7,24.1C26.7,24.1,26.6,24.1,26.7,24.1c-0.1,0-0.2,0-0.2-0.1c-0.1-0.1-0.2-0.2-0.3-0.2c0,0,0,0,0,0
	c0,0,0,0,0,0c0,0,0,0,0,0c0,0,0.1,0,0.1,0c0.1,0.1,0.2,0.1,0.3,0.2C26.6,24,26.6,24,26.7,24.1C26.7,24,26.7,24,26.7,24.1z"/>
<path class="st0" d="M20.8,18.4c0-0.1,0-0.1,0.1-0.2c0,0,0,0,0.1,0c0,0,0,0,0,0.1c0,0.1,0,0.1,0,0.1c0,0,0,0.1,0,0.1
	c0,0-0.1,0-0.1,0C20.9,18.5,20.8,18.4,20.8,18.4z"/>
<path class="st0" d="M16.8,17.2C16.8,17.2,16.8,17.2,16.8,17.2c-0.1,0-0.1,0-0.2,0c0-0.1-0.1-0.1-0.2-0.1c0,0,0,0,0-0.1
	c0,0,0-0.1,0.1,0C16.7,17,16.7,17,16.8,17.2C16.8,17.1,16.8,17.2,16.8,17.2z"/>
<path class="st0" d="M21.6,20.5c0.1-0.1,0.2-0.1,0.3-0.2c0.1-0.1,0.2-0.1,0.3-0.2c0,0,0,0.1,0,0.1c-0.2,0.1-0.3,0.2-0.5,0.3
	C21.7,20.5,21.7,20.5,21.6,20.5C21.7,20.6,21.6,20.6,21.6,20.5C21.6,20.5,21.6,20.5,21.6,20.5C21.6,20.4,21.6,20.4,21.6,20.5
	C21.6,20.5,21.6,20.5,21.6,20.5z"/>
<path class="st0" d="M10.6,13.8c-0.1,0-0.2,0-0.2,0c0,0,0,0,0,0c0,0,0,0,0,0c0,0,0,0,0,0c0.1,0,0.2,0,0.2,0c0,0,0.1,0,0.1,0
	c0,0,0,0,0,0.1c0,0,0,0-0.1,0C10.7,13.8,10.6,13.8,10.6,13.8z"/>
<path class="st0" d="M22.9,20.5C22.9,20.5,22.9,20.6,22.9,20.5c-0.2,0.2-0.3,0.3-0.5,0.3c-0.1,0-0.1,0-0.1-0.1c0,0,0,0,0,0
	c0,0,0,0,0.1,0C22.6,20.7,22.7,20.6,22.9,20.5C22.9,20.5,22.9,20.5,22.9,20.5C22.9,20.5,22.9,20.5,22.9,20.5z"/>
<path class="st0" d="M30.5,24.9C30.6,24.8,30.6,24.8,30.5,24.9c0.2,0.1,0.3,0.1,0.5,0.1c0.1,0,0.2,0,0.3,0.1c0,0,0,0,0,0.1
	c0,0,0,0,0,0C31.1,25,31,25,30.8,25C30.7,24.9,30.6,24.9,30.5,24.9z"/>
<path class="st0" d="M24.8,22.1c0.3-0.2,0.6-0.4,1-0.6c0,0,0,0,0,0.1c-0.1,0.1-0.1,0.1-0.2,0.1c-0.2,0.1-0.4,0.3-0.7,0.4
	C24.9,22.1,24.9,22.1,24.8,22.1z"/>
<path class="st0" d="M30.3,21.3c0.1,0,0.2-0.1,0.3-0.1c0,0.1-0.1,0.1-0.2,0.2C30.3,21.4,30.3,21.4,30.3,21.3c-0.1,0.1-0.1,0.1-0.1,0
	c0,0,0,0,0,0c0.1-0.1,0.1-0.2,0.2-0.3c0,0,0.1-0.1,0.1-0.1c0,0,0,0.1,0,0.1C30.4,21.2,30.3,21.3,30.3,21.3z"/>
<path class="st0" d="M14.3,16.4C14.3,16.4,14.3,16.4,14.3,16.4c-0.1-0.1-0.1-0.1,0-0.2c0,0,0,0,0.1,0c0,0,0,0,0.1,0
	c0.1,0.1,0.2,0.1,0.3,0.2c0,0,0,0,0.1,0.1c0,0,0,0,0,0.1c0,0-0.1,0-0.1,0c0,0,0,0,0,0c0-0.1,0-0.1-0.1-0.1c-0.1-0.1-0.2-0.1-0.2-0.2
	c0,0,0,0-0.1,0C14.3,16.3,14.3,16.3,14.3,16.4C14.3,16.4,14.3,16.4,14.3,16.4z"/>
<path class="st0" d="M11.1,13.7C11.1,13.7,11,13.7,11.1,13.7C11.1,13.6,11.1,13.6,11.1,13.7c0.1-0.1,0.1,0,0.1,0c0,0,0,0.1,0,0.1
	c0,0,0,0,0,0c0,0,0.1,0.1,0,0.1c0,0-0.1,0-0.1,0C11.1,13.8,11.1,13.8,11.1,13.7C11,13.8,11,13.8,11.1,13.7
	C11,13.8,10.9,13.8,11.1,13.7C11,13.7,11,13.7,11.1,13.7C11,13.7,11,13.7,11.1,13.7z"/>
<path class="st0" d="M21.9,20.1c-0.1,0.1-0.1,0.1-0.2,0.2c-0.1,0.1-0.2,0.1-0.3,0.2c0,0,0,0-0.1,0c0,0,0,0,0,0c0,0,0-0.1,0.1-0.1
	c0,0,0.1,0,0.1,0C21.6,20.3,21.7,20.2,21.9,20.1C21.8,20.1,21.9,20.1,21.9,20.1z"/>
<path class="st0" d="M23.2,20.6c-0.2,0.1-0.3,0.3-0.5,0.4c0,0,0,0-0.1,0c0,0,0,0,0,0c0,0,0,0,0,0c0.1-0.1,0.3-0.2,0.4-0.3
	C23.1,20.7,23.1,20.6,23.2,20.6C23.2,20.6,23.2,20.6,23.2,20.6z"/>
<path class="st0" d="M24.4,18.7c0.1-0.1,0.2-0.2,0.3-0.3c0,0,0.1-0.1,0.1-0.1c0,0,0,0,0,0s0,0,0,0c-0.1,0.1-0.2,0.3-0.3,0.4
	C24.5,18.7,24.5,18.7,24.4,18.7z"/>
<path class="st0" d="M12.5,12.3C12.6,12.3,12.6,12.3,12.5,12.3C12.6,12.3,12.6,12.4,12.5,12.3c0,0.1-0.1,0.2-0.2,0.3c0,0,0,0,0,0
	c0,0,0,0-0.1,0c0,0,0,0,0,0c0.1-0.1,0.1-0.1,0.2-0.2C12.5,12.3,12.5,12.3,12.5,12.3z"/>
<path class="st0" d="M21.1,20.3c0.2-0.2,0.5-0.3,0.6-0.3C21.5,20.1,21.2,20.4,21.1,20.3z"/>
<path class="st0" d="M23.3,18.6C23.3,18.6,23.3,18.6,23.3,18.6c0.1-0.2,0.2-0.3,0.3-0.4c0,0,0,0,0.1,0c0,0,0,0,0.1,0c0,0,0,0,0,0
	c0,0-0.1,0.1-0.1,0.1c-0.1,0.1-0.1,0.1-0.2,0.2C23.4,18.6,23.3,18.6,23.3,18.6L23.3,18.6z"/>
<path class="st0" d="M18.4,14.5c-0.1,0.1-0.2,0.3-0.4,0.4c0-0.1,0.1-0.2,0.2-0.3c-0.1,0-0.2,0-0.3-0.1c0.1,0,0.1,0,0.2,0
	C18.2,14.6,18.3,14.5,18.4,14.5z"/>
<path class="st0" d="M25.1,18.2C25.1,18.2,25.1,18.3,25.1,18.2c-0.1,0.2-0.2,0.3-0.3,0.4c0,0,0,0-0.1,0.1c0,0,0,0,0,0c0,0,0,0,0,0
	c0,0,0,0,0,0c0.1-0.1,0.2-0.2,0.3-0.3C25,18.3,25.1,18.2,25.1,18.2z"/>
<path class="st0" d="M18.8,16.8c-0.1,0-0.1,0-0.2-0.1c0,0,0,0,0,0c0,0,0,0,0,0c0.1,0,0.2,0,0.2,0c0,0,0.1,0,0.1,0.1
	C18.9,16.8,18.8,16.8,18.8,16.8C18.8,16.8,18.8,16.8,18.8,16.8z"/>
<path class="st0" d="M24.3,17.3C24.3,17.3,24.3,17.3,24.3,17.3c0.1,0.1,0.2,0.1,0.2,0c0.1,0,0.1,0,0.2,0.1c0,0,0,0,0,0c0,0,0,0,0,0
	c0,0-0.1,0-0.1,0C24.4,17.4,24.3,17.4,24.3,17.3C24.2,17.3,24.2,17.3,24.3,17.3C24.2,17.3,24.2,17.3,24.3,17.3z"/>
<path class="st0" d="M9.2,13.6c-0.1,0.2-0.3,0.4-0.5,0.6C8.8,13.9,9,13.8,9.2,13.6z"/>
<path class="st0" d="M34.8,26.4C34.7,26.4,34.7,26.4,34.8,26.4c-0.1,0-0.1,0-0.2,0c0,0,0-0.1,0-0.1c0.1,0,0.2,0,0.3,0
	c0,0,0,0.1,0,0.1C34.9,26.4,34.8,26.4,34.8,26.4z"/>
<path class="st0" d="M23.1,21.3c0.1-0.1,0.1-0.1,0.2-0.2c0.1-0.1,0.2-0.1,0.3-0.2c0,0,0,0,0,0c0,0,0,0,0,0
	C23.5,21.1,23.3,21.2,23.1,21.3C23.1,21.3,23.1,21.3,23.1,21.3z"/>
<path class="st0" d="M13,13.9c0,0-0.1-0.1-0.1-0.1c0-0.1,0.1-0.1,0.1-0.1c0,0,0.1,0,0.1,0C13.1,13.8,13,13.9,13,13.9z"/>
<path class="st0" d="M30.1,23.6C30.1,23.6,30.1,23.6,30.1,23.6C30,23.7,30,23.7,30.1,23.6C30,23.6,30,23.6,30.1,23.6
	c-0.1,0-0.1-0.1-0.2-0.1c0,0,0,0,0,0c0,0,0,0,0-0.1c0.1,0,0.1,0,0.2,0C30.1,23.5,30,23.5,30.1,23.6z"/>
<path class="st0" d="M17,15c0.1,0,0.1,0,0.2,0c0.1-0.1,0.2-0.1,0.2-0.2c0,0,0-0.1,0.1-0.1c0,0,0,0,0,0c0,0,0,0,0,0
	c-0.1,0.1-0.2,0.2-0.4,0.3C17.1,15,17,15,17,15L17,15z"/>
<path class="st0" d="M16.9,18.1c0.1,0,0.1,0,0.2,0.1c0,0,0.1,0.1,0.2,0.1c0,0,0.1,0,0,0.1c0,0,0,0,0,0c0,0-0.1,0-0.1,0
	C17,18.3,17,18.2,16.9,18.1C16.9,18.1,16.9,18.1,16.9,18.1C16.9,18.1,16.9,18.1,16.9,18.1z"/>
<path class="st0" d="M19.7,18.5C19.7,18.5,19.7,18.5,19.7,18.5c-0.1,0.1-0.1,0.2-0.2,0.2c0,0,0,0-0.1,0c0,0,0,0,0-0.1c0,0,0,0,0,0
	c0,0,0.1-0.1,0.1-0.1C19.6,18.4,19.7,18.4,19.7,18.5C19.7,18.4,19.7,18.4,19.7,18.5C19.7,18.4,19.7,18.4,19.7,18.5z"/>
<path class="st0" d="M24.4,21C24.4,21,24.4,21,24.4,21c0.1,0,0.1,0,0.1,0c0.2,0.1,0.3,0.1,0.5,0.2c0,0,0,0,0,0
	C24.8,21.2,24.6,21.1,24.4,21z"/>
<path class="st0" d="M21,17.7C21,17.7,21,17.7,21,17.7c-0.1,0.1-0.2,0.1-0.3,0.2c0,0,0,0-0.1,0c0,0,0,0,0,0c0,0,0,0,0,0
	C20.8,17.8,20.9,17.8,21,17.7C21,17.7,21,17.7,21,17.7C21,17.7,21,17.7,21,17.7z"/>
<path class="st0" d="M20.8,17.5C20.8,17.5,20.8,17.5,20.8,17.5c-0.1,0-0.2-0.1-0.2-0.1c0,0,0,0,0-0.1c0,0,0,0,0.1,0c0,0,0,0,0.1,0
	C20.8,17.4,20.8,17.4,20.8,17.5z"/>
<path class="st0" d="M29.5,21.4c0,0,0.1-0.1,0.1-0.1c-0.1,0-0.2,0.1-0.3,0.1c0-0.1,0.3-0.2,0.4-0.2C29.6,21.2,29.6,21.3,29.5,21.4
	C29.5,21.4,29.5,21.4,29.5,21.4z"/>
<path class="st0" d="M24.9,17.2c0.1,0,0.1,0,0.2,0c0,0,0.1,0,0,0.1c0,0,0,0-0.1,0c-0.1,0-0.2,0-0.3-0.1c0,0,0,0,0,0c0,0,0,0,0,0
	C24.8,17.2,24.9,17.2,24.9,17.2z"/>
<path class="st0" d="M17.2,17.5C17.1,17.5,17.1,17.5,17.2,17.5c0-0.1,0.1-0.2,0.2-0.2c0,0,0,0,0.1,0c0,0,0,0,0,0
	C17.4,17.5,17.3,17.5,17.2,17.5z"/>
<path class="st0" d="M26,17.3c0-0.1,0.1-0.1,0.1-0.1c0,0,0.1,0,0.1,0c0.1,0,0.1,0.1,0.2,0.1c0,0,0,0-0.1,0c-0.1,0-0.1,0-0.2-0.1
	C26.2,17.3,26.1,17.3,26,17.3z"/>
<path class="st0" d="M17.7,16.5C17.7,16.5,17.7,16.5,17.7,16.5c0.1,0,0.2,0,0.2,0c0,0,0.1,0,0.1,0c0,0,0,0.1,0,0.1
	c-0.1,0.1-0.1,0.1-0.2,0C17.8,16.6,17.7,16.5,17.7,16.5z"/>
<path class="st0" d="M20.4,20C20.4,19.9,20.4,19.9,20.4,20c0.2,0.1,0.3,0.2,0.5,0.3C20.7,20.2,20.5,20.1,20.4,20z"/>
<path class="st0" d="M26,20.4C26,20.4,26,20.4,26,20.4c-0.1,0-0.1,0-0.1-0.1c0,0,0,0,0.1,0c0,0,0.1,0,0.1,0c0,0,0.1,0,0.1,0
	C26.2,20.4,26.1,20.4,26,20.4C26.1,20.4,26.1,20.4,26,20.4z"/>
<path class="st0" d="M14.3,16.4c0.2,0,0.3,0.1,0.3,0.2c0,0,0,0,0,0c0,0,0,0,0,0c-0.1,0-0.1-0.1-0.1-0.1
	C14.4,16.5,14.4,16.4,14.3,16.4z"/>
<path class="st0" d="M12.3,12.4C12.3,12.4,12.3,12.4,12.3,12.4c-0.1,0.1-0.2,0.2-0.3,0.2c0,0,0,0,0,0c0,0,0,0,0,0c0,0,0,0,0,0
	c0.1-0.1,0.1-0.1,0.2-0.2C12.2,12.4,12.2,12.4,12.3,12.4C12.3,12.4,12.3,12.4,12.3,12.4z"/>
<path class="st0" d="M33.5,23C33.5,23,33.5,23,33.5,23c0.1-0.1,0.2-0.2,0.3-0.2c0,0,0,0,0.1,0c0,0,0,0,0,0.1
	c-0.1,0.1-0.2,0.1-0.2,0.1C33.6,23,33.6,23,33.5,23L33.5,23z"/>
<path class="st0" d="M11.9,12.5c-0.1,0.1-0.2,0.1-0.3,0.2c0,0,0,0-0.1,0c0,0,0,0,0,0c0,0,0,0,0,0C11.7,12.6,11.7,12.5,11.9,12.5
	C11.9,12.4,11.9,12.4,11.9,12.5z"/>
<path class="st0" d="M21,20.2c0.1-0.1,0.2-0.2,0.3-0.2c0,0,0,0,0,0c0,0,0,0,0,0C21.3,20.1,21.2,20.2,21,20.2z"/>
<path class="st0" d="M17.4,15c0.1,0,0.1-0.1,0.2-0.2c0,0,0.1-0.1,0.1-0.1c0,0,0,0,0.1-0.1c0,0,0,0,0,0c0,0,0,0,0,0
	c-0.1,0.1-0.2,0.2-0.2,0.3C17.6,15,17.5,15,17.4,15C17.5,15,17.4,15,17.4,15z"/>
<path class="st0" d="M29.6,21.5C29.6,21.5,29.6,21.5,29.6,21.5c0.1-0.1,0.2-0.2,0.3-0.3c0,0,0,0,0.1,0c0,0,0,0,0,0c0,0,0,0,0,0
	C29.8,21.3,29.7,21.4,29.6,21.5z"/>
<path class="st0" d="M17.8,15.8c-0.1,0-0.1,0-0.2,0c-0.1,0-0.1,0-0.2,0c0,0,0,0,0,0c0,0,0,0,0,0c0,0,0,0,0,0
	C17.6,15.7,17.7,15.8,17.8,15.8z"/>
<path class="st0" d="M34.2,26.4c0,0.1-0.1,0.1-0.1,0.1c-0.1,0-0.2,0-0.3,0.1c0,0,0,0,0,0c0,0,0,0,0,0c0,0,0,0,0,0
	C34,26.5,34.1,26.5,34.2,26.4z"/>
<path class="st0" d="M22.5,17.1c0-0.1,0.1-0.1,0.1-0.2c0,0,0.1,0,0.1,0c0,0,0,0.1,0,0.1C22.6,17.1,22.5,17.1,22.5,17.1z"/>
<path class="st0" d="M26.9,20C26.9,20,26.9,20,26.9,20c0.1,0,0.1,0.1,0.1,0.1c0,0,0,0-0.1,0c-0.1,0-0.1,0-0.2-0.1c0,0,0,0,0,0
	C26.8,20,26.8,20,26.9,20C26.8,20,26.8,20,26.9,20z"/>
<path class="st0" d="M25.5,20.5c0,0-0.1,0-0.1,0c0,0-0.1,0-0.1-0.1c0,0,0.1-0.1,0.1,0C25.5,20.4,25.5,20.4,25.5,20.5
	c0.1-0.1,0.1-0.1,0.1-0.1C25.6,20.4,25.6,20.4,25.5,20.5C25.5,20.5,25.5,20.5,25.5,20.5z"/>
<path class="st0" d="M14.7,15.4c0.1-0.1,0.2-0.2,0.3-0.3c0,0,0,0,0,0c0,0,0,0,0.1,0c0,0,0,0,0,0.1c-0.1,0.1-0.1,0.1-0.2,0.2
	C14.8,15.4,14.8,15.4,14.7,15.4z"/>
<path class="st0" d="M14.4,15.3C14.4,15.3,14.4,15.3,14.4,15.3c0-0.1,0.2-0.2,0.2-0.2c0,0,0,0,0,0c0,0,0,0,0,0
	C14.6,15.2,14.5,15.3,14.4,15.3C14.4,15.3,14.4,15.3,14.4,15.3z"/>
<path class="st0" d="M14.9,15.4c0.1-0.1,0.2-0.2,0.3-0.3c0,0,0,0,0.1,0C15.2,15.2,15.1,15.3,14.9,15.4z"/>
<path class="st0" d="M20.6,17.7C20.5,17.7,20.5,17.7,20.6,17.7C20.5,17.7,20.5,17.7,20.6,17.7c0-0.1,0-0.1,0-0.1c0,0,0.1,0,0.1,0
	C20.7,17.6,20.7,17.7,20.6,17.7C20.6,17.7,20.6,17.7,20.6,17.7z"/>
<path class="st0" d="M25.1,20.4C25.1,20.4,25.1,20.4,25.1,20.4c0-0.1,0-0.2,0.1-0.2c0.1,0,0.1,0,0.1,0.1
	C25.3,20.3,25.2,20.4,25.1,20.4z"/>
<path class="st0" d="M32,23.2c-0.1,0-0.1-0.1-0.1-0.1c0-0.1-0.1-0.1-0.1-0.1c0,0,0,0,0,0c0,0,0,0,0,0c0,0,0.1,0,0.1,0
	C31.9,23,32,23.1,32,23.2z"/>
<path class="st0" d="M33.4,22.9c0.1-0.1,0.2-0.2,0.3-0.2c0,0,0,0,0.1,0c0,0,0,0,0,0C33.6,22.8,33.5,22.9,33.4,22.9z"/>
<path class="st0" d="M17,15c0,0-0.1,0.1-0.1,0.1c0.1-0.1,0.2-0.2,0.3-0.3c0,0,0-0.1,0.1,0c0,0,0,0,0,0.1C17.1,14.8,17,14.9,17,15
	L17,15z"/>
<path class="st0" d="M26.6,20.3c-0.1,0-0.1,0-0.2,0c0,0,0,0,0,0c0,0,0,0,0,0c0,0,0,0,0,0c0,0,0,0,0.1,0
	C26.6,20.2,26.7,20.2,26.6,20.3C26.7,20.3,26.7,20.3,26.6,20.3z"/>
<path class="st0" d="M31.4,24c0-0.1,0-0.1,0-0.1c0,0,0.1,0,0.1,0C31.5,24,31.5,24,31.4,24c0.1,0.1,0.1,0.1,0,0.1
	C31.4,24.1,31.4,24.1,31.4,24C31.4,24.1,31.3,24,31.4,24z"/>
<path class="st0" d="M12.3,13.4c-0.1,0-0.1,0-0.1-0.1c0,0-0.1,0-0.1,0c0,0,0,0,0,0c0,0,0,0,0,0c0.1,0,0.1,0.1,0.2,0.1
	C12.3,13.3,12.3,13.3,12.3,13.4z"/>
<path class="st0" d="M16.6,16c0,0-0.1,0.1-0.1,0.1s-0.1,0-0.1-0.1C16.4,16,16.5,15.9,16.6,16C16.5,15.9,16.6,16,16.6,16z"/>
<path class="st0" d="M33.3,24.3C33.3,24.3,33.4,24.3,33.3,24.3c0.1,0.1,0.1,0.1,0,0.1c0,0,0,0-0.1,0C33.2,24.4,33.2,24.4,33.3,24.3
	C33.2,24.3,33.2,24.3,33.3,24.3C33.3,24.3,33.3,24.3,33.3,24.3z"/>
<path class="st0" d="M32.6,22.6c0.1,0,0.2,0,0.3,0.1c0,0,0.1,0,0.1,0.1c0,0,0,0,0,0c0,0,0,0,0,0C32.8,22.7,32.7,22.6,32.6,22.6
	C32.6,22.6,32.6,22.6,32.6,22.6z"/>
<path class="st0" d="M32.2,24.6c-0.1,0-0.1,0-0.2-0.1c0,0,0-0.1,0-0.1s0.1,0,0.1,0c0,0,0,0,0,0C32.2,24.5,32.2,24.5,32.2,24.6z"/>
<path class="st0" d="M31.8,26.4c0.2,0,0.4,0.1,0.6,0.2c-0.1,0-0.1,0-0.2,0c-0.1,0-0.1,0-0.2-0.1C32,26.4,31.9,26.4,31.8,26.4z"/>
<path class="st0" d="M8.6,13.6c0-0.1,0-0.1,0-0.1c0.1-0.1,0.2-0.1,0.2-0.1c0,0,0,0,0,0c0,0,0,0,0,0c0,0,0,0-0.1,0
	C8.7,13.4,8.7,13.5,8.6,13.6z"/>
<path class="st0" d="M24,20.2C24,20.2,24,20.2,24,20.2c0.1,0,0.2,0.1,0.2,0.1c0,0,0,0,0,0c0,0,0,0,0,0C24.1,20.3,24,20.3,24,20.2z"
	/>
<path class="st0" d="M30,22.8c0,0,0.1,0,0.1,0.1c0,0,0,0,0,0c0,0,0,0,0,0C30.1,22.9,30,22.9,30,22.8C30,22.8,30,22.8,30,22.8
	C30,22.8,30,22.8,30,22.8z"/>
<path class="st0" d="M17.7,15c0.1-0.1,0.2-0.2,0.3-0.3c0,0.1-0.1,0.1-0.2,0.2C17.9,14.9,17.8,15,17.7,15z"/>
<path class="st0" d="M29.3,23.6C29.4,23.5,29.4,23.5,29.3,23.6c0.1-0.1,0.2-0.1,0.2,0c0,0,0,0,0,0c0,0,0,0-0.1,0
	C29.4,23.6,29.4,23.6,29.3,23.6L29.3,23.6z"/>
<path class="st0" d="M15,13.3C14.9,13.3,14.9,13.3,15,13.3c-0.1,0-0.1,0-0.2,0c0,0,0,0,0,0c0,0,0,0,0-0.1C14.8,13.2,15,13.3,15,13.3
	z"/>
<path class="st0" d="M9.8,13.3C9.8,13.3,9.8,13.3,9.8,13.3c0.1,0,0.1,0.1,0.1,0c0,0,0,0,0,0c0,0,0,0,0,0c0,0-0.1,0-0.1,0
	C9.8,13.4,9.8,13.3,9.8,13.3C9.8,13.3,9.8,13.3,9.8,13.3C9.8,13.3,9.8,13.3,9.8,13.3z"/>
<path class="st0" d="M9.3,12.8C9.2,12.8,9.2,12.8,9.3,12.8c0-0.1,0-0.1,0.1-0.2c0,0,0.1,0,0.1,0c0,0,0,0.1,0,0.1
	C9.3,12.8,9.3,12.8,9.3,12.8z"/>
<path class="st0" d="M20.8,20c0.1-0.1,0.2-0.1,0.3-0.2c0,0,0,0,0,0c0,0,0,0,0,0C21,19.9,20.9,20,20.8,20z"/>
<path class="st0" d="M28.5,23.2c0.1,0,0.1,0,0.2,0.1c0,0,0,0,0,0C28.6,23.4,28.5,23.3,28.5,23.2C28.5,23.2,28.5,23.2,28.5,23.2
	L28.5,23.2z"/>
<path class="st0" d="M12.6,13.4C12.6,13.4,12.6,13.4,12.6,13.4c0.1,0.1,0,0.1,0,0.1C12.5,13.5,12.5,13.5,12.6,13.4
	C12.5,13.4,12.5,13.4,12.6,13.4z"/>
<path class="st0" d="M18.1,19.9c0.1,0.1,0.2,0.1,0.3,0.1C18.3,20.1,18.2,20.1,18.1,19.9z"/>
<path class="st0" d="M10.3,12.3c0.1-0.1,0.1-0.1,0.2,0c0,0,0,0,0,0.1C10.4,12.3,10.4,12.3,10.3,12.3z"/>
<path class="st0" d="M17.2,17.3C17.1,17.3,17.1,17.3,17.2,17.3C17.1,17.3,17.1,17.3,17.2,17.3C17.1,17.3,17.1,17.3,17.2,17.3
	C17.2,17.2,17.2,17.2,17.2,17.3C17.2,17.3,17.2,17.3,17.2,17.3C17.2,17.3,17.2,17.3,17.2,17.3C17.2,17.3,17.2,17.3,17.2,17.3z"/>
<path class="st0" d="M22.1,19.5C22.1,19.5,22.1,19.5,22.1,19.5C22.1,19.5,22.1,19.5,22.1,19.5C22.2,19.6,22.1,19.6,22.1,19.5
	C22.1,19.6,22.1,19.6,22.1,19.5C22.1,19.6,22.1,19.6,22.1,19.5C22,19.6,22,19.6,22.1,19.5C22,19.5,22,19.5,22.1,19.5z"/>
<path class="st0" d="M23.8,17.2c0.1,0,0.1,0,0.2,0c0,0,0,0,0,0c0,0,0,0,0,0C23.9,17.3,23.9,17.3,23.8,17.2z"/>
<path class="st0" d="M23.9,20.1c-0.1,0-0.1,0-0.2,0c0,0-0.1,0-0.1-0.1C23.7,20,23.8,20,23.9,20.1z"/>
<path class="st0" d="M24.9,20C24.9,20,24.9,20.1,24.9,20c-0.1,0.1-0.1,0-0.1,0C24.8,20,24.9,19.9,24.9,20
	C24.9,19.9,24.9,19.9,24.9,20z"/>
<path class="st0" d="M33.8,24.6C33.8,24.6,33.7,24.6,33.8,24.6C33.7,24.5,33.8,24.5,33.8,24.6c0.1-0.1,0.1-0.1,0.1-0.1
	C33.9,24.6,33.8,24.6,33.8,24.6z"/>
<path class="st0" d="M28.5,23.2C28.5,23.2,28.5,23.2,28.5,23.2C28.4,23.2,28.4,23.2,28.5,23.2c-0.1-0.1,0-0.1,0-0.1
	S28.6,23.1,28.5,23.2C28.5,23.2,28.5,23.2,28.5,23.2L28.5,23.2z"/>
<path class="st0" d="M16.1,16C16.1,16,16.1,16.1,16.1,16C16,16,16,16,16,16C16,16,16,15.9,16.1,16C16.1,15.9,16.1,15.9,16.1,16z"/>
<path class="st0" d="M32.5,24.6C32.5,24.7,32.5,24.7,32.5,24.6c-0.1,0-0.1,0-0.1,0C32.4,24.6,32.4,24.6,32.5,24.6
	C32.5,24.6,32.5,24.6,32.5,24.6z"/>
<path class="st0" d="M22.3,17.3C22.3,17.3,22.3,17.2,22.3,17.3C22.2,17.2,22.2,17.2,22.3,17.3C22.3,17.2,22.3,17.2,22.3,17.3
	c0-0.1,0-0.1,0.1-0.1C22.4,17.2,22.4,17.2,22.3,17.3C22.4,17.2,22.4,17.3,22.3,17.3z"/>
<path class="st0" d="M32.6,24C32.6,24,32.5,24.1,32.6,24c-0.1,0.1-0.1,0-0.1,0C32.4,24,32.5,23.9,32.6,24C32.5,23.9,32.6,24,32.6,24
	z"/>
<path class="st0" d="M16.3,16.3c0,0,0.1,0.1,0.1,0.1c0,0,0,0,0,0C16.4,16.4,16.3,16.4,16.3,16.3C16.3,16.3,16.3,16.3,16.3,16.3z"/>
<path class="st0" d="M12.8,13.7C12.8,13.7,12.8,13.8,12.8,13.7c-0.1,0.1-0.1,0-0.1,0C12.7,13.7,12.7,13.6,12.8,13.7
	C12.8,13.6,12.8,13.7,12.8,13.7z"/>
<path class="st0" d="M14.6,13.3C14.5,13.3,14.5,13.3,14.6,13.3c-0.1-0.1-0.1-0.1,0-0.1C14.6,13.2,14.6,13.2,14.6,13.3
	C14.6,13.3,14.6,13.3,14.6,13.3z"/>
<path class="st0" d="M33.3,25.2C33.2,25.2,33.2,25.2,33.3,25.2C33.2,25.1,33.2,25.1,33.3,25.2C33.3,25.1,33.3,25.1,33.3,25.2
	C33.3,25.2,33.3,25.2,33.3,25.2z"/>
<path class="st0" d="M16.8,18.3C16.8,18.3,16.7,18.3,16.8,18.3c0-0.1-0.1-0.1,0-0.1c0,0,0,0,0,0C16.8,18.2,16.8,18.3,16.8,18.3
	C16.8,18.3,16.8,18.3,16.8,18.3z"/>
<path class="st0" d="M15.1,15c-0.1,0-0.2,0-0.4,0c0,0,0,0-0.1,0C14.8,15,15,15,15.1,15z"/>
<path class="st0" d="M21.2,17.5C21.2,17.5,21.1,17.5,21.2,17.5c-0.1,0.1-0.1,0-0.1,0C21.1,17.4,21.1,17.4,21.2,17.5
	C21.2,17.4,21.2,17.4,21.2,17.5z"/>
<path class="st0" d="M25.7,21.4c0.1,0,0.1,0,0.2,0C25.9,21.4,25.8,21.4,25.7,21.4C25.8,21.4,25.7,21.4,25.7,21.4z"/>
<path class="st0" d="M28.9,21.6c0.1,0,0.2,0,0.2,0C29.1,21.6,29,21.6,28.9,21.6z"/>
<path class="st0" d="M21,17.6C21,17.6,21,17.7,21,17.6c-0.1,0-0.1,0-0.1,0C20.9,17.6,20.9,17.6,21,17.6C21,17.6,21,17.6,21,17.6z"/>
<path class="st0" d="M14,15.4C14,15.4,14.1,15.4,14,15.4c0.1,0,0.2,0.1,0.3,0.1C14.2,15.5,14.1,15.5,14,15.4L14,15.4z"/>
<path class="st0" d="M22.1,17.3C22.1,17.3,22.1,17.2,22.1,17.3C22.1,17.2,22.1,17.2,22.1,17.3C22.1,17.2,22.2,17.2,22.1,17.3
	C22.2,17.2,22.2,17.3,22.1,17.3z"/>
<path class="st0" d="M15.5,13.4C15.5,13.4,15.4,13.4,15.5,13.4c-0.1,0-0.1,0-0.1,0C15.4,13.3,15.4,13.3,15.5,13.4
	C15.5,13.3,15.5,13.3,15.5,13.4z"/>
<path class="st0" d="M19.9,19.6C19.9,19.6,20,19.6,19.9,19.6c0.1,0,0.1,0,0.1,0.1C20.1,19.7,20.1,19.7,19.9,19.6
	C20,19.7,20,19.7,19.9,19.6z"/>
<path class="st0" d="M8.7,13.9c0-0.1,0-0.1,0.1-0.1c0,0,0,0,0.1,0C8.8,13.8,8.8,13.8,8.7,13.9C8.7,13.8,8.7,13.9,8.7,13.9z"/>
<path class="st0" d="M17.3,15.9c0,0-0.1,0-0.1,0c0,0,0,0,0,0C17.2,15.9,17.2,15.9,17.3,15.9C17.2,15.9,17.2,15.9,17.3,15.9z"/>
<path class="st0" d="M15.6,15l0.3-0.1C15.8,15,15.7,15,15.6,15z"/>
<path class="st0" d="M14,15.4c-0.1,0-0.1-0.1-0.2-0.1C13.9,15.3,14,15.3,14,15.4L14,15.4z"/>
<path class="st0" d="M17.4,16C17.3,16,17.3,16,17.4,16C17.3,15.9,17.4,15.9,17.4,16C17.4,15.9,17.4,16,17.4,16
	C17.4,16,17.4,16,17.4,16z"/>
<path class="st0" d="M20.7,20C20.7,19.9,20.7,19.9,20.7,20c0.1,0,0.1-0.1,0.1,0C20.8,19.9,20.8,20,20.7,20C20.7,20,20.7,20,20.7,20z
	"/>
<path class="st0" d="M26.5,19.3c0-0.1,0-0.1,0.1-0.1C26.5,19.2,26.5,19.2,26.5,19.3z"/>
<path class="st0" d="M10.9,13.6C10.9,13.6,10.9,13.6,10.9,13.6C10.9,13.6,10.9,13.6,10.9,13.6C11,13.6,11,13.6,10.9,13.6
	C11,13.6,10.9,13.6,10.9,13.6z"/>
<path class="st0" d="M11.1,12.4C11,12.4,11,12.4,11.1,12.4C11,12.3,11,12.3,11.1,12.4C11.1,12.3,11.1,12.3,11.1,12.4
	C11.1,12.4,11.1,12.4,11.1,12.4z"/>
<path class="st0" d="M11.3,14C11.3,14,11.3,14,11.3,14C11.4,14,11.4,14,11.3,14C11.3,14.1,11.3,14,11.3,14z"/>
<path class="st0" d="M17.2,15c0.1,0,0.1,0,0.2,0C17.3,15,17.2,15,17.2,15C17.2,15,17.2,15,17.2,15z"/>
<path class="st0" d="M19.2,20.5C19.2,20.5,19.2,20.5,19.2,20.5C19.3,20.5,19.3,20.5,19.2,20.5C19.3,20.5,19.3,20.5,19.2,20.5
	C19.2,20.5,19.2,20.5,19.2,20.5z"/>
<path class="st0" d="M18.2,15.6C18.2,15.6,18.2,15.6,18.2,15.6C18.1,15.6,18.1,15.6,18.2,15.6C18.1,15.6,18.2,15.5,18.2,15.6
	C18.2,15.5,18.2,15.6,18.2,15.6z"/>
<path class="st0" d="M16.9,14.7C16.9,14.7,16.8,14.7,16.9,14.7C16.8,14.7,16.9,14.7,16.9,14.7z"/>
<path class="st0" d="M13.6,16.7C13.6,16.7,13.6,16.7,13.6,16.7C13.6,16.8,13.6,16.7,13.6,16.7L13.6,16.7z"/>
<path class="st0" d="M17,14.7C17.1,14.7,17.1,14.7,17,14.7C17.1,14.7,17.1,14.7,17,14.7z"/>
<path class="st0" d="M6.2,23.4c0.1,0,0.1,0,0.2-0.1c0.2,0,0.4-0.1,0.6-0.2c0.1,0,0.3-0.1,0.4-0.1C7.7,23,8,22.9,8.2,22.8
	c0.2-0.1,0.4-0.1,0.6-0.2c0.2-0.1,0.5-0.1,0.7-0.2c0.1,0,0.2-0.1,0.3-0.1c0.2-0.1,0.5-0.2,0.7-0.3c0.1,0,0.2-0.1,0.2-0.1
	c0.3-0.2,0.5-0.3,0.9-0.4c0.1,0,0.2,0,0.3-0.1c0,0,0,0,0,0c0,0,0,0,0,0c-0.1,0-0.2,0.1-0.3,0.1c-0.2,0.1-0.4,0.1-0.6,0.3
	c0,0-0.1,0.1-0.1,0.1c-0.2,0.1-0.4,0.3-0.6,0.3c-0.2,0.1-0.4,0.2-0.6,0.2c-0.2,0.1-0.5,0.2-0.7,0.3C8.6,22.8,8.3,22.9,8,23
	c-0.2,0.1-0.4,0.1-0.6,0.2c-0.2,0.1-0.4,0.1-0.6,0.2C6.7,23.4,6.4,23.5,6.2,23.4z"/>
<path class="st0" d="M14.9,22.6C14.9,22.6,14.9,22.6,14.9,22.6c-0.2,0-0.4-0.2-0.6-0.4c-0.1-0.1-0.2-0.3-0.3-0.4
	c0-0.1-0.1-0.1-0.1-0.1c-0.1,0-0.1,0-0.2-0.1c0,0-0.1,0-0.1-0.1c0.1,0,0.1,0,0.2-0.1c0-0.1,0.1-0.2,0.1-0.3c0,0,0,0,0-0.1
	c0,0-0.1,0-0.1-0.1c-0.1,0.1-0.1,0.2-0.1,0.2c0,0,0,0,0,0.1c0,0,0,0,0,0c0,0,0,0,0-0.1c0-0.1,0-0.2,0.1-0.2c0-0.1,0.1-0.1,0.1-0.2
	c0-0.1,0-0.1,0.1-0.1c0,0,0,0,0.1,0s0,0,0,0.1c0,0,0,0,0,0c-0.1,0.1-0.1,0.1,0,0.2c0.1,0,0.1,0.1,0.1,0.2c0,0.1-0.1,0.3-0.1,0.4
	c0.1,0,0.1,0,0.1,0c0-0.1,0.1-0.1,0.1-0.2c0,0,0,0,0-0.1c0,0,0-0.1,0.1-0.1c0,0,0,0,0.1,0.1c0.1,0.1,0.2,0.3,0.3,0.4
	c0,0,0.1,0.1,0.1,0.1c0.1,0.1,0.2,0.1,0.2,0.2c0.1,0,0.1,0.1,0.1,0.2c0,0.2,0.1,0.3,0.2,0.4c0,0,0.1,0,0.1,0.1
	c0.1,0.1,0.3,0.2,0.4,0.4c0,0,0,0,0.1,0.1c0,0,0,0,0,0c0,0,0,0,0,0c0,0,0,0-0.1,0c-0.1-0.1-0.2-0.2-0.3-0.3
	C15.1,22.7,15,22.7,14.9,22.6c-0.1-0.1-0.2-0.2-0.2-0.4c0,0,0,0,0-0.1c0-0.1-0.1-0.1-0.2-0.2c-0.1-0.1-0.2-0.2-0.2-0.3
	c0,0,0-0.1-0.1-0.1c-0.1,0.2-0.1,0.2,0,0.3s0.2,0.3,0.3,0.4c0,0.1,0.1,0.1,0.2,0.2C14.7,22.5,14.8,22.6,14.9,22.6z M14.1,21.3
	c0,0.1-0.1,0.2-0.1,0.3c0,0,0.1,0,0.1,0C14.1,21.5,14.2,21.5,14.1,21.3z"/>
<path class="st0" d="M12.5,19c0,0.1-0.1,0.1-0.2,0.2c-0.1,0.1-0.2,0.2-0.2,0.4c0,0,0,0.1-0.1,0.1c0,0,0,0.1-0.1,0.1
	c0-0.1,0-0.1,0-0.2c0-0.1,0-0.1,0.1-0.2c-0.1,0-0.1,0.1-0.2,0.1c0,0.1-0.1,0.2-0.1,0.4c0,0,0,0.1,0,0.1c0,0,0,0,0-0.1
	c0-0.1,0-0.2,0-0.2c0,0,0-0.1,0-0.1c-0.1,0-0.1,0-0.1,0.1c-0.1,0.1-0.1,0.2-0.2,0.3c0,0,0.1,0,0.1,0c0,0,0,0,0,0.1c0,0,0,0,0,0
	c-0.1,0-0.1,0-0.2,0c-0.1,0-0.2,0.1-0.3,0.1c-0.1,0-0.1,0-0.1,0.1c-0.1,0.1-0.2,0.2-0.3,0.2c-0.2,0-0.3,0-0.5,0c0,0,0,0,0,0
	c0,0,0,0,0.1,0c0.1,0,0.3,0,0.4,0c0.1,0,0.2-0.1,0.3-0.2c0-0.1,0.1-0.1,0.2-0.1c0.1,0,0.2-0.1,0.4-0.1c0,0,0,0,0-0.1
	c0-0.1,0.1-0.2,0.1-0.3c-0.1,0-0.2,0-0.2,0.1c0,0.1-0.1,0.1-0.1,0.1c0,0,0,0-0.1,0c0,0,0,0,0-0.1c0,0,0-0.1,0-0.1
	c-0.1,0-0.1,0-0.2,0.1c-0.2,0.1-0.4,0.2-0.6,0.2c-0.1,0-0.2,0-0.2,0c0,0,0,0,0,0c0.1,0,0.2-0.1,0.3-0.1c0.1,0,0.3-0.1,0.4-0.2
	c0.1-0.1,0.2-0.1,0.3-0.2c0.1-0.1,0.3-0.1,0.4-0.2c0.1-0.1,0.2-0.1,0.3-0.1C12.1,19.2,12.2,19.1,12.5,19C12.4,19,12.4,19,12.5,19z"
	/>
<path class="st0" d="M6,23.4C6,23.4,6,23.4,6,23.4c0-0.1,0-0.2,0-0.2c0.2-0.2,0.3-0.3,0.6-0.4c0.1,0,0.2-0.1,0.3-0.2
	c0.1-0.2,0.3-0.3,0.5-0.5c0.1-0.1,0.2-0.2,0.3-0.3c0,0,0.1-0.1,0.1-0.1c0,0,0,0,0,0c0,0,0,0,0,0c0,0,0,0,0,0
	c-0.1,0.1-0.2,0.2-0.3,0.3c-0.1,0.1-0.2,0.3-0.3,0.4c-0.1,0.1-0.2,0.2-0.3,0.3c0,0-0.1,0.1-0.1,0.1C6.5,23.1,6.3,23.2,6,23.4
	C6.1,23.4,6.1,23.4,6,23.4z"/>
<path class="st0" d="M9.2,21.8c-0.1,0-0.1,0-0.2,0c0,0-0.1,0-0.1,0c-0.1,0.1-0.2,0.2-0.4,0.2c0,0,0,0,0,0c0,0,0,0-0.1,0
	c0,0,0,0,0-0.1c0-0.1,0.1-0.1,0.1-0.1c0.1,0,0.2-0.1,0.2-0.2c0.1-0.1,0.1-0.1,0.2-0.1c0,0,0.1,0,0.1,0.1C9.1,21.7,9.2,21.7,9.2,21.8
	c0.2-0.1,0.3-0.1,0.4-0.2c0.2-0.1,0.3-0.1,0.5-0.2c0.1,0,0.1,0,0.2,0c0,0,0,0,0,0c0,0,0,0,0,0c0,0-0.1,0-0.1,0
	c-0.3,0.1-0.5,0.2-0.8,0.2C9.3,21.7,9.2,21.7,9.2,21.8z"/>
<path class="st0" d="M9.9,20.1c0,0.1,0,0.1-0.1,0.1c-0.1,0.1-0.2,0.1-0.3,0.2c-0.1,0-0.2,0.1-0.3,0.2c-0.1,0.1-0.2,0.1-0.3,0.2
	c0,0-0.1,0-0.1,0.1C8.9,21,8.8,21,8.7,21.1c-0.1,0.1-0.3,0.2-0.4,0.2c0,0-0.1,0-0.1,0c0,0,0,0,0,0c0.1-0.1,0.2-0.1,0.3-0.1
	C8.6,21,8.7,21,8.8,20.9c0,0,0,0,0,0c0.2-0.1,0.4-0.3,0.5-0.4c0.1,0,0.1-0.1,0.2-0.1C9.7,20.3,9.8,20.2,9.9,20.1z"/>
<path class="st0" d="M10.9,21.6c-0.1,0-0.1,0-0.2,0c0,0,0,0,0-0.1c0,0,0,0,0.1,0c0,0,0,0,0.1,0c0.1,0,0.1,0,0.1-0.1
	c0.1-0.1,0.2-0.2,0.3-0.2c0.1,0,0.1,0,0.2-0.1c0.1,0,0.1,0,0.2,0c0,0,0.1,0,0.1,0c0,0,0,0,0,0.1c-0.1,0.1-0.3,0.1-0.4,0.1
	c-0.1,0-0.1,0-0.1,0c0,0-0.1,0-0.1,0.1c0,0,0,0,0,0.1C11,21.6,11,21.6,10.9,21.6z"/>
<path class="st0" d="M13.4,21.4C13.3,21.3,13.3,21.3,13.4,21.4c0-0.2-0.1-0.2-0.1-0.2c-0.1,0-0.1,0-0.2,0c-0.1,0-0.3,0-0.4,0
	c-0.1,0-0.1,0-0.2,0.1c-0.1,0.1-0.2,0.2-0.3,0.2c0,0,0,0-0.1,0c0,0,0,0,0-0.1c0,0,0,0,0,0c0.1-0.1,0.2-0.2,0.3-0.3
	c0.1-0.1,0.2-0.1,0.3-0.1c0.1,0,0.2,0,0.3,0.1c0,0,0.1,0,0.1,0c0.1,0,0.1,0,0.2,0c0,0,0.1,0,0.1,0c0.1,0,0.1,0,0.1,0.1
	C13.4,21.3,13.4,21.3,13.4,21.4z"/>
<path class="st0" d="M10.1,22.9c-0.1,0-0.1,0-0.1-0.1c0,0,0,0,0-0.1c0,0,0,0,0.1,0C10,22.8,10.1,22.8,10.1,22.9
	c0.1-0.1,0.1-0.1,0.1-0.1c0.1-0.1,0.3-0.1,0.4-0.2c0,0,0.1,0,0.1-0.1c0.1-0.1,0.1-0.1,0.2-0.2c0.1-0.1,0.2-0.1,0.4-0.2c0,0,0,0,0,0
	c0,0,0,0,0,0c0,0-0.1,0.1-0.1,0.1c-0.2,0.1-0.3,0.2-0.4,0.3c0,0,0,0-0.1,0c-0.2,0-0.3,0.1-0.4,0.2C10.2,22.9,10.1,22.9,10.1,22.9z"
	/>
<path class="st0" d="M7.5,22.9C7.5,22.9,7.5,22.9,7.5,22.9C7.5,22.9,7.4,22.9,7.5,22.9C7.4,22.8,7.4,22.8,7.5,22.9
	c0-0.1,0-0.1,0.1-0.1c0.1,0,0.2-0.1,0.2-0.1c0,0,0,0,0.1,0c0,0,0.1,0,0.1,0c0,0,0,0.1-0.1,0.1C7.9,22.8,7.7,22.9,7.5,22.9z"/>
<g>
	<defs>
		<rect id="SVGID_00000025416482870671809280000002903003445476519315_" x="4.5" y="21.3" width="2.2" height="2.7"/>
	</defs>
	<clipPath id="SVGID_00000065039782892188784230000007743128021459709629_">
		<use xlink:href="#SVGID_00000025416482870671809280000002903003445476519315_"  style="overflow:visible;"/>
	</clipPath>
	<g style="clip-path:url(#SVGID_00000065039782892188784230000007743128021459709629_);">
		<path class="st0" d="M5.5,22.7c-0.1,0-0.1,0-0.2,0c0,0,0,0,0,0c0,0,0,0,0,0C5.3,22.6,5.4,22.6,5.5,22.7c0-0.1,0.1-0.1,0.2-0.2
			c0.1-0.1,0.1-0.2,0.2-0.2c0,0,0,0,0.1-0.1c0,0,0,0,0,0c0,0,0,0,0,0c0,0,0,0,0,0c-0.1,0.1-0.2,0.2-0.3,0.3
			C5.6,22.7,5.5,22.7,5.5,22.7z"/>
	</g>
</g>
<path class="st0" d="M13.7,20.1c0,0.1-0.1,0.1-0.1,0.2c-0.1,0.1-0.2,0.1-0.3,0.2c0,0,0,0-0.1,0c0,0,0,0,0-0.1
	c0.1-0.1,0.2-0.2,0.3-0.3C13.6,20.1,13.6,20.1,13.7,20.1C13.7,20.1,13.7,20.1,13.7,20.1z"/>
<path class="st0" d="M10.8,19.2C10.8,19.2,10.8,19.3,10.8,19.2c-0.1,0.1-0.1,0.1-0.2,0.1c-0.1,0-0.2,0.1-0.4,0.1c0,0-0.1,0-0.1,0.1
	c0,0-0.1,0-0.1,0c0,0,0,0,0-0.1c0,0,0.1,0,0.1-0.1C10.4,19.4,10.6,19.3,10.8,19.2C10.8,19.2,10.8,19.2,10.8,19.2z"/>
<path class="st0" d="M12.5,19.6c0.1,0,0.1-0.1,0.2-0.1c0,0,0,0,0.1-0.1c0,0,0.1-0.1,0.1-0.1c0.1,0,0.1,0,0.1,0.1
	c0,0.1-0.1,0.2-0.3,0.2C12.5,19.6,12.5,19.6,12.5,19.6z"/>
<path class="st0" d="M12.2,21.7C12.3,21.7,12.3,21.7,12.2,21.7C12.3,21.7,12.3,21.8,12.2,21.7c-0.1,0.1-0.2,0.2-0.3,0.2
	c0,0-0.1,0-0.1,0.1c0,0,0,0,0,0c0,0,0,0,0,0c0,0,0,0,0,0c0.1-0.1,0.2-0.1,0.3-0.2C12.2,21.7,12.2,21.7,12.2,21.7z"/>
<path class="st0" d="M7.2,21.6C7.2,21.6,7.2,21.6,7.2,21.6c-0.1,0-0.2,0.1-0.3,0.1c0,0,0,0,0,0c0,0-0.1,0-0.1,0c0,0,0-0.1,0-0.1
	c0,0,0.1-0.1,0.1-0.1c0,0,0.1,0,0.1-0.1C7.1,21.5,7.2,21.5,7.2,21.6C7.2,21.6,7.2,21.6,7.2,21.6z"/>
<path class="st0" d="M9.7,20.8C9.7,20.8,9.7,20.8,9.7,20.8c0.1,0,0.1,0,0.1,0.1c0,0.1-0.1,0-0.1,0.1c-0.1,0-0.1,0.1-0.2,0.1
	c0,0-0.1,0-0.1,0c0,0,0-0.1,0-0.1C9.5,20.9,9.6,20.8,9.7,20.8z"/>
<path class="st0" d="M13.8,19.6C13.8,19.7,13.8,19.7,13.8,19.6c0.1,0.1,0,0.2,0,0.2c0,0,0,0-0.1,0c0,0-0.1-0.1-0.1-0.1
	c0,0,0-0.1,0-0.1C13.7,19.7,13.8,19.7,13.8,19.6z"/>
<path class="st0" d="M14.2,18.9c-0.1,0.1-0.3,0.3-0.4,0.4C13.8,19.2,14.1,18.9,14.2,18.9z"/>
<path class="st0" d="M13.2,21.7c-0.1,0-0.1,0-0.2-0.1c0,0,0,0,0-0.1c0,0,0,0,0,0C13.1,21.6,13.2,21.6,13.2,21.7
	C13.2,21.6,13.2,21.6,13.2,21.7C13.2,21.7,13.2,21.7,13.2,21.7z"/>
<path class="st0" d="M7.1,20.6C7.1,20.6,7.1,20.6,7.1,20.6C7,20.6,7,20.5,7.1,20.6c0-0.1,0.1-0.2,0.2-0.2c0,0,0,0,0,0
	C7.3,20.5,7.1,20.6,7.1,20.6z"/>
<path class="st0" d="M12.5,20.8c0.1,0,0.2,0,0.3-0.1C12.8,20.8,12.7,20.8,12.5,20.8z"/>
<path class="st0" d="M9.3,19.5C9.3,19.5,9.3,19.5,9.3,19.5C9.3,19.6,9.3,19.6,9.3,19.5C9.2,19.6,9.2,19.6,9.3,19.5
	C9.2,19.5,9.2,19.5,9.3,19.5z"/>
<path class="st0" d="M12.3,19.6C12.3,19.6,12.3,19.6,12.3,19.6c-0.1,0-0.1,0-0.1,0C12.2,19.5,12.2,19.5,12.3,19.6
	C12.3,19.5,12.3,19.5,12.3,19.6z"/>
<path class="st0" d="M26,16.4C26,16.4,26,16.4,26,16.4C26,16.3,26,16.3,26,16.4c0-0.1,0-0.1,0-0.1c0.1,0,0.2-0.1,0.3-0.2
	c0,0,0,0,0.1,0c0.1-0.1,0.2-0.2,0.3-0.2c0.1,0,0.1-0.1,0.2-0.1c0,0,0,0,0,0c0.1,0,0.2-0.1,0.2-0.1c0,0,0.1,0,0.1,0c0,0,0,0,0,0
	c0,0,0,0,0,0c-0.1,0-0.1,0.1-0.2,0.1c-0.1,0-0.2,0.1-0.2,0.2c0,0.1-0.1,0.1-0.2,0.1c-0.1,0-0.2,0.1-0.2,0.2
	C26.4,16.3,26.2,16.3,26,16.4z"/>
<path class="st0" d="M31.7,16.8C31.7,16.8,31.7,16.9,31.7,16.8c-0.1,0.1-0.2,0.1-0.3,0.1c-0.1,0-0.1,0-0.1,0.1c0,0,0,0,0,0
	c-0.1,0-0.2,0.2-0.3,0.2c0,0-0.1,0.1-0.1,0.2c0,0-0.1,0.1-0.1,0.1c0,0,0-0.1,0-0.1c0-0.1,0.1-0.1,0.1-0.2c0-0.1,0.1-0.2,0.2-0.3
	c0.1,0,0.2-0.1,0.2-0.2c0,0,0,0,0.1,0c0.1,0,0.1-0.1,0.2-0.1c0-0.1,0.1-0.1,0.2-0.1c0,0,0.1,0,0.1,0C31.8,16.7,31.8,16.7,31.7,16.8
	C31.7,16.8,31.7,16.8,31.7,16.8L31.7,16.8z"/>
<path class="st0" d="M32.1,17.7c0.1,0,0.1,0,0.2,0c0.2-0.2,0.3-0.3,0.5-0.5c0,0,0.1-0.1,0.1-0.1c-0.2,0.2-0.4,0.4-0.6,0.6
	c0.1,0,0.2,0,0.2,0c0.1-0.1,0.2-0.2,0.2-0.3c0.1-0.1,0.2-0.2,0.3-0.3c0,0,0.1-0.1,0.1-0.1c-0.1,0.1-0.2,0.2-0.2,0.2
	c-0.1,0.1-0.2,0.3-0.4,0.4c-0.1,0.1-0.1,0.1-0.2,0.1c-0.1,0-0.2,0-0.2,0.1c0,0,0,0,0,0c0,0,0,0,0,0C32.1,17.8,32.1,17.8,32.1,17.7
	C32,17.8,32,17.8,32.1,17.7c-0.1,0.1-0.2,0.2-0.2,0.2c0-0.1,0-0.1,0-0.1c0-0.1-0.1,0-0.1,0c0,0,0.1,0,0.1,0
	C31.9,17.8,32,17.7,32.1,17.7c0.1-0.2,0.3-0.4,0.4-0.5c0,0,0,0,0.1-0.1c0,0,0-0.1,0.1,0C32.5,17.3,32.3,17.5,32.1,17.7z"/>
<path class="st0" d="M31.2,18C31.1,18,31.2,18,31.2,18c0.3-0.4,0.6-0.7,0.8-1c0.1-0.1,0.1-0.1,0.2-0.2c0,0,0-0.1,0-0.1
	c0,0-0.1-0.1,0-0.1c0,0.1,0.1,0.1,0.2,0.2c0,0,0.1,0.1,0.1,0.1c0.1,0,0.1,0.1,0.1,0.1c-0.1,0-0.1,0-0.1,0c-0.2,0.2-0.3,0.4-0.5,0.6
	c-0.1,0.1-0.1,0.2-0.2,0.2c0,0,0,0.1-0.1,0.1c0.3-0.3,0.5-0.6,0.8-0.9c0,0-0.1-0.1-0.1-0.1C31.9,17.2,31.5,17.7,31.2,18z"/>
<path class="st0" d="M30.3,17.8c0,0.1-0.1,0.1-0.1,0.1C30.1,18,30,18,30,18c-0.1,0-0.3,0.1-0.4,0.1c-0.1,0-0.2,0.1-0.3,0.1
	c0,0,0,0,0,0c0,0,0,0,0,0c0,0,0,0,0,0c0.1-0.1,0.2-0.1,0.3-0.2c0.2,0,0.4-0.1,0.7-0.2C30.2,17.9,30.3,17.9,30.3,17.8z"/>
<path class="st0" d="M29.2,16.5C29.2,16.5,29.2,16.6,29.2,16.5c-0.1,0.1-0.2,0.2-0.3,0.3c0,0,0,0-0.1,0c0,0-0.1,0-0.1,0
	c0,0,0-0.1,0-0.1c0,0,0,0,0-0.1c0-0.1,0.1-0.1,0.2-0.2C29.1,16.4,29.2,16.4,29.2,16.5C29.2,16.5,29.2,16.5,29.2,16.5z"/>
<path class="st0" d="M32.2,16.5c0,0.1-0.1,0.2-0.1,0.2c-0.1,0.1-0.2,0.3-0.3,0.4c-0.1,0.1-0.2,0.3-0.3,0.4c-0.1,0.1-0.2,0.2-0.2,0.3
	c0,0,0,0,0,0c0,0,0,0,0,0c0,0,0,0,0,0c0,0,0.1-0.1,0.1-0.1c0.1-0.1,0.2-0.3,0.3-0.4c0.1-0.1,0.2-0.2,0.3-0.3c0,0,0-0.1,0.1-0.1
	c0,0,0,0,0-0.1c0,0,0-0.1,0.1-0.1c0,0,0.1,0,0.1,0C32.1,16.6,32.1,16.5,32.2,16.5z"/>
<path class="st0" d="M29.3,17.8C29.2,17.8,29.2,17.8,29.3,17.8c-0.1-0.1,0-0.2,0-0.2c0.1,0,0.1-0.1,0.2-0.1c0.1,0,0.2,0,0.2,0.1
	c0,0,0,0,0,0C29.5,17.7,29.5,17.8,29.3,17.8C29.3,17.8,29.3,17.8,29.3,17.8z"/>
<path class="st0" d="M30.5,17.9c0-0.1,0.1-0.1,0.1-0.1c0.2,0,0.3-0.1,0.4-0.3c0-0.1,0.1-0.1,0.1-0.2c0,0,0,0,0.1-0.1
	c0,0,0.1,0,0.1,0c0,0,0,0,0,0.1c-0.1,0.1-0.2,0.2-0.3,0.4c0,0.1-0.1,0.1-0.2,0.1C30.7,17.8,30.6,17.9,30.5,17.9z"/>
<path class="st0" d="M28.1,17.3c0.1,0,0.1,0,0.1,0c0,0,0.1,0,0.1,0c0,0,0,0,0.1,0c0.1-0.1,0.1,0,0.2,0c0,0,0,0,0,0c0,0,0,0,0,0
	c0,0-0.1,0-0.1,0c0,0-0.1,0-0.1,0.1C28.3,17.4,28.1,17.4,28.1,17.3c-0.1,0.1-0.1,0.1-0.1,0c0-0.1,0.1-0.1,0.1-0.1
	C28.1,17.2,28.1,17.2,28.1,17.3C28.1,17.2,28.1,17.2,28.1,17.3z"/>
<path class="st0" d="M30.8,16.8c0,0.1-0.1,0.1-0.1,0.1c-0.2,0.1-0.3,0.2-0.4,0.4c-0.1,0.1-0.2,0.1-0.2,0.1c0,0-0.1,0-0.1,0
	c0,0,0.1,0,0.1-0.1c0.1-0.1,0.2-0.1,0.3-0.2C30.4,17,30.6,16.9,30.8,16.8z"/>
<path class="st0" d="M27.5,16c-0.1,0-0.1,0-0.1,0C27.4,15.9,27.4,15.9,27.5,16c0,0,0,0,0.1-0.1c0,0,0,0,0,0c0,0,0-0.1,0.1-0.1
	c0,0,0,0.1,0,0.1C27.7,15.9,27.6,16,27.5,16c-0.1,0.2-0.2,0.4-0.3,0.6c-0.1,0.1-0.1,0.2-0.2,0.2c0.1-0.1,0.2-0.3,0.2-0.4
	C27.4,16.2,27.5,16.1,27.5,16z"/>
<path class="st0" d="M30.5,16.1c-0.1,0-0.2-0.1-0.1-0.1c0-0.1,0.1-0.1,0.1-0.1c0.1,0,0.2,0,0.2,0c0,0,0,0,0,0c0,0.1,0,0.1,0,0.1
	C30.6,16.1,30.6,16.1,30.5,16.1z"/>
<path class="st0" d="M26.8,16.8c0-0.1,0-0.1,0-0.1c0.1-0.1,0.1-0.2,0.2-0.2c0.1-0.2,0.2-0.3,0.3-0.5c0,0,0.1-0.1,0.1-0.1
	C27.1,16.2,27,16.5,26.8,16.8z"/>
<path class="st0" d="M27.4,16.6c0.2-0.3,0.4-0.5,0.6-0.8C27.9,16,27.5,16.5,27.4,16.6z"/>
<path class="st0" d="M31.1,17.9c-0.1,0.2-0.5,0.3-0.7,0.3C30.7,18.2,30.9,18,31.1,17.9z"/>
<path class="st0" d="M28.2,15.8c-0.3,0.6-0.3,0.6-0.5,0.7C27.9,16.2,28.1,16,28.2,15.8z"/>
<path class="st0" d="M29.8,16.7c0-0.1,0-0.1,0.1-0.1c0.1,0,0.1-0.1,0.2,0c0,0.1,0,0.1-0.1,0.1C30,16.7,29.9,16.7,29.8,16.7
	C29.8,16.7,29.8,16.7,29.8,16.7z"/>
<path class="st0" d="M28,16.4c0-0.1,0.1-0.2,0.2-0.3c0.1-0.1,0.1-0.2,0.1-0.2c0,0,0,0,0-0.1c0,0,0,0,0,0c0,0,0,0,0,0
	c0,0,0,0-0.1,0.1c0,0.1-0.1,0.2-0.2,0.3C28.2,16.4,28.1,16.4,28,16.4z"/>
<path class="st0" d="M26.7,16.4c0-0.1,0-0.1,0-0.1c0.1-0.1,0.1-0.2,0.2-0.3c0,0,0-0.1,0.1-0.1c0,0,0,0,0,0c0,0,0,0,0,0
	C26.9,16.1,26.8,16.3,26.7,16.4C26.7,16.4,26.7,16.4,26.7,16.4z"/>
<path class="st0" d="M26.6,16.7c-0.1,0-0.2,0-0.2-0.1c0-0.1,0-0.1,0-0.2c0,0,0,0,0,0c0,0,0,0,0,0c0,0,0,0.1,0,0.1
	C26.5,16.6,26.5,16.6,26.6,16.7z"/>
<path class="st0" d="M29.5,16.1c0.1-0.2,0.2-0.2,0.3-0.3c0,0,0,0,0,0C29.7,15.9,29.6,16,29.5,16.1z"/>
<path class="st0" d="M31.7,16.8C31.7,16.8,31.7,16.8,31.7,16.8C31.8,16.8,31.8,16.8,31.7,16.8C31.8,16.8,31.8,16.9,31.7,16.8
	c0,0.1,0,0.2-0.1,0.2c0,0,0,0,0,0c0,0,0,0,0,0C31.6,16.9,31.7,16.9,31.7,16.8z"/>
<path class="st0" d="M30.9,16.2C30.9,16.2,30.9,16.2,30.9,16.2c-0.1-0.1-0.1-0.1,0-0.1c0,0,0,0,0.1,0c0,0,0.1,0,0.1,0.1
	C31,16.2,31,16.2,30.9,16.2C30.9,16.2,30.9,16.2,30.9,16.2z"/>
<path class="st0" d="M30.8,16.8c0-0.1,0.1-0.1,0.1-0.1c0,0,0,0,0,0c0,0,0,0,0,0C30.9,16.7,30.9,16.8,30.8,16.8z"/>
<path class="st0" d="M30.9,17.9C30.9,17.9,30.9,17.9,30.9,17.9c0,0.1-0.1,0.1-0.1,0.2c0,0,0,0,0,0C30.7,18,30.8,17.9,30.9,17.9
	C30.8,17.9,30.9,17.9,30.9,17.9z"/>
<path class="st0" d="M28,16.4c-0.1,0.1-0.2,0.1-0.2,0.2C27.8,16.5,27.9,16.5,28,16.4z"/>
<path class="st0" d="M29.7,17C29.7,17,29.7,17,29.7,17C29.7,17.1,29.7,17.1,29.7,17C29.7,17.1,29.7,17.1,29.7,17
	C29.7,17,29.7,17,29.7,17z"/>
<path class="st0" d="M33.9,18.4C33.9,18.5,33.8,18.4,33.9,18.4C33.8,18.4,33.9,18.4,33.9,18.4z"/>
<path class="st0" d="M15.6,19.6C15.6,19.6,15.6,19.7,15.6,19.6c-0.1,0.3-0.3,0.4-0.5,0.5c0.1-0.1,0.1-0.2,0.2-0.3
	C15.4,19.8,15.5,19.7,15.6,19.6L15.6,19.6z"/>
<path class="st0" d="M15.4,24C15.4,23.9,15.4,23.9,15.4,24c0-0.2,0.1-0.3,0.2-0.4c0,0,0,0,0.1,0c0,0,0,0,0,0.1
	C15.6,23.7,15.5,23.8,15.4,24C15.4,23.9,15.4,23.9,15.4,24z"/>
<path class="st0" d="M16.5,20.4C16.5,20.4,16.5,20.5,16.5,20.4C16.4,20.5,16.4,20.5,16.5,20.4C16.4,20.4,16.5,20.4,16.5,20.4z"/>
</svg>
