<svg xmlns="http://www.w3.org/2000/svg" xmlns:xlink="http://www.w3.org/1999/xlink" width="40" zoomAndPan="magnify" viewBox="0 0 30 30.000001" height="40" preserveAspectRatio="xMidYMid meet" version="1.0"><defs><clipPath id="94d4bb7dbf"><path d="M 21 6.964844 L 24 6.964844 L 24 9 L 21 9 Z M 21 6.964844 " clip-rule="nonzero"/></clipPath><clipPath id="1625222505"><path d="M 4.234375 10 L 6 10 L 6 13 L 4.234375 13 Z M 4.234375 10 " clip-rule="nonzero"/></clipPath><clipPath id="3324353abd"><path d="M 15 20 L 18 20 L 18 22.207031 L 15 22.207031 Z M 15 20 " clip-rule="nonzero"/></clipPath></defs><path fill="#ffffff" d="M 16.632812 13.269531 L 15.921875 13.417969 L 15.769531 13.527344 L 15.636719 13.640625 L 15.53125 13.761719 L 15.445312 13.890625 L 15.386719 14.03125 L 15.351562 14.175781 L 15.339844 14.328125 L 15.351562 14.484375 L 15.386719 14.652344 C 15.40625 14.714844 15.429688 14.769531 15.453125 14.824219 C 15.523438 14.953125 15.566406 15.027344 15.589844 15.046875 C 15.65625 15.136719 15.738281 15.214844 15.835938 15.277344 C 16.078125 15.4375 16.324219 15.492188 16.570312 15.441406 L 16.636719 15.421875 C 16.679688 15.410156 16.726562 15.390625 16.769531 15.367188 C 16.8125 15.347656 16.855469 15.320312 16.894531 15.289062 C 16.980469 15.226562 17.066406 15.144531 17.148438 15.046875 C 17.238281 14.933594 17.308594 14.824219 17.363281 14.714844 C 17.390625 14.660156 17.410156 14.605469 17.429688 14.550781 C 17.464844 14.414062 17.480469 14.332031 17.476562 14.304688 C 17.480469 14.261719 17.476562 14.21875 17.472656 14.179688 L 17.457031 14.117188 C 17.449219 14.074219 17.433594 14.03125 17.414062 13.988281 C 17.375 13.90625 17.316406 13.820312 17.246094 13.734375 C 17.1875 13.660156 17.082031 13.558594 16.925781 13.4375 C 16.832031 13.371094 16.734375 13.316406 16.632812 13.269531 " fill-opacity="1" fill-rule="nonzero"/><path fill="#ffffff" d="M 22.589844 16.292969 L 22.550781 16.292969 C 22.425781 16.300781 22.3125 16.332031 22.214844 16.394531 C 22.105469 16.460938 22.042969 16.507812 22.027344 16.527344 C 21.992188 16.5625 21.953125 16.601562 21.921875 16.644531 C 21.839844 16.761719 21.796875 16.832031 21.785156 16.863281 C 21.765625 16.914062 21.746094 16.960938 21.734375 17.007812 C 21.703125 17.125 21.691406 17.191406 21.695312 17.214844 C 21.695312 17.257812 21.695312 17.300781 21.703125 17.34375 C 21.71875 17.445312 21.738281 17.511719 21.757812 17.546875 C 21.777344 17.597656 21.800781 17.644531 21.828125 17.6875 C 21.878906 17.773438 21.945312 17.847656 22.019531 17.90625 C 22.136719 17.992188 22.246094 18.046875 22.351562 18.066406 C 22.488281 18.09375 22.621094 18.105469 22.757812 18.101562 C 22.828125 18.097656 22.886719 18.09375 22.929688 18.089844 C 23.054688 18.070312 23.125 18.054688 23.140625 18.042969 C 23.269531 18 23.375 17.933594 23.453125 17.847656 C 23.667969 17.636719 23.769531 17.382812 23.757812 17.085938 C 23.753906 17.050781 23.742188 17.011719 23.726562 16.972656 L 23.699219 16.914062 C 23.660156 16.832031 23.601562 16.746094 23.519531 16.652344 L 22.902344 16.332031 C 22.8125 16.308594 22.707031 16.296875 22.589844 16.292969 " fill-opacity="1" fill-rule="nonzero"/><path fill="#ffffff" d="M 21.203125 14.066406 L 21.152344 14.097656 C 21.054688 14.160156 21 14.257812 20.988281 14.394531 L 20.988281 14.460938 C 20.988281 14.527344 20.992188 14.5625 20.996094 14.566406 C 21.011719 14.628906 21.035156 14.683594 21.066406 14.730469 C 21.101562 14.78125 21.144531 14.824219 21.195312 14.855469 C 21.214844 14.867188 21.230469 14.875 21.246094 14.878906 L 21.273438 14.890625 C 21.292969 14.894531 21.308594 14.898438 21.328125 14.902344 C 21.421875 14.910156 21.539062 14.875 21.675781 14.804688 C 21.742188 14.761719 21.78125 14.738281 21.792969 14.726562 C 21.816406 14.707031 21.839844 14.6875 21.859375 14.667969 C 21.902344 14.625 21.9375 14.578125 21.96875 14.527344 C 21.980469 14.5 21.984375 14.472656 21.984375 14.445312 L 21.976562 14.402344 C 21.96875 14.371094 21.953125 14.34375 21.933594 14.3125 C 21.890625 14.253906 21.820312 14.195312 21.726562 14.132812 L 21.203125 14.066406 " fill-opacity="1" fill-rule="nonzero"/><path fill="#ffffff" d="M 17.382812 17.640625 L 17.328125 17.640625 C 17.21875 17.65625 17.128906 17.710938 17.0625 17.808594 C 17.039062 17.84375 17.015625 17.878906 17 17.921875 L 16.976562 17.992188 L 16.964844 18.058594 C 16.960938 18.105469 16.960938 18.148438 16.964844 18.1875 L 16.972656 18.25 C 16.980469 18.289062 16.996094 18.328125 17.015625 18.363281 L 17.046875 18.414062 C 17.078125 18.457031 17.097656 18.480469 17.105469 18.480469 C 17.117188 18.492188 17.132812 18.503906 17.152344 18.511719 L 17.183594 18.523438 C 17.207031 18.535156 17.234375 18.539062 17.261719 18.546875 C 17.335938 18.5625 17.382812 18.566406 17.40625 18.570312 C 17.425781 18.570312 17.449219 18.570312 17.472656 18.570312 C 17.5625 18.5625 17.636719 18.53125 17.695312 18.472656 L 17.734375 18.425781 L 17.765625 18.371094 L 17.785156 18.3125 L 17.792969 18.253906 L 17.789062 18.1875 L 17.777344 18.113281 L 17.757812 18.039062 C 17.738281 17.988281 17.710938 17.933594 17.679688 17.875 L 17.414062 17.640625 L 17.382812 17.640625 " fill-opacity="1" fill-rule="nonzero"/><path fill="#ffffff" d="M 10.355469 15.894531 L 10.277344 15.898438 C 10.074219 15.914062 9.859375 15.996094 9.636719 16.144531 C 9.472656 16.257812 9.339844 16.394531 9.238281 16.550781 C 9.019531 16.90625 8.953125 17.273438 9.027344 17.648438 C 9.066406 17.820312 9.128906 17.980469 9.222656 18.128906 C 9.269531 18.207031 9.324219 18.277344 9.386719 18.347656 C 9.414062 18.390625 9.515625 18.484375 9.695312 18.628906 C 10.089844 18.921875 10.503906 19.046875 10.929688 19.011719 C 11.171875 19 11.417969 18.949219 11.671875 18.863281 C 11.894531 18.785156 12.015625 18.734375 12.035156 18.714844 C 12.101562 18.675781 12.160156 18.628906 12.214844 18.582031 C 12.496094 18.304688 12.601562 17.9375 12.53125 17.472656 C 12.535156 17.429688 12.496094 17.320312 12.414062 17.140625 C 12.375 17.070312 12.332031 17.003906 12.28125 16.941406 C 12.089844 16.738281 11.898438 16.566406 11.703125 16.421875 C 11.511719 16.28125 11.316406 16.167969 11.117188 16.085938 L 10.96875 16.027344 L 10.75 15.984375 C 10.695312 15.957031 10.636719 15.9375 10.578125 15.921875 C 10.535156 15.910156 10.460938 15.898438 10.355469 15.894531 " fill-opacity="1" fill-rule="nonzero"/><path fill="#ffffff" d="M 19.246094 9.535156 L 19.199219 9.539062 C 19.054688 9.550781 18.914062 9.621094 18.777344 9.746094 L 18.742188 9.78125 C 18.71875 9.808594 18.699219 9.828125 18.683594 9.851562 C 18.671875 9.875 18.660156 9.898438 18.652344 9.917969 C 18.636719 9.945312 18.632812 10 18.640625 10.089844 C 18.65625 10.273438 18.726562 10.4375 18.859375 10.582031 C 18.964844 10.699219 19.113281 10.753906 19.304688 10.746094 C 19.453125 10.746094 19.644531 10.660156 19.878906 10.492188 C 19.953125 10.4375 20.015625 10.375 20.070312 10.308594 C 20.097656 10.257812 20.109375 10.226562 20.109375 10.214844 C 20.113281 10.191406 20.113281 10.171875 20.113281 10.148438 C 20.113281 10.128906 20.113281 10.105469 20.105469 10.082031 L 20.085938 10.003906 C 20.082031 9.992188 20.074219 9.976562 20.058594 9.960938 C 20.015625 9.902344 19.921875 9.808594 19.773438 9.679688 L 19.246094 9.535156 " fill-opacity="1" fill-rule="nonzero"/><g clip-path="url(#94d4bb7dbf)"><path fill="#ffffff" d="M 21.855469 6.964844 L 21.789062 6.96875 C 21.703125 6.980469 21.621094 7.011719 21.542969 7.066406 C 21.503906 7.09375 21.46875 7.128906 21.433594 7.167969 C 21.410156 7.1875 21.359375 7.25 21.289062 7.359375 C 21.242188 7.445312 21.210938 7.546875 21.191406 7.660156 C 21.164062 7.882812 21.160156 8.039062 21.179688 8.121094 C 21.226562 8.363281 21.328125 8.546875 21.476562 8.667969 C 21.703125 8.871094 21.925781 8.964844 22.152344 8.949219 C 22.265625 8.9375 22.398438 8.886719 22.550781 8.800781 C 22.578125 8.785156 22.65625 8.738281 22.785156 8.65625 C 22.894531 8.574219 22.953125 8.519531 22.964844 8.5 C 22.988281 8.484375 23.027344 8.425781 23.082031 8.328125 C 23.101562 8.285156 23.113281 8.246094 23.125 8.199219 C 23.128906 8.058594 23.125 7.976562 23.113281 7.949219 C 23.117188 7.921875 23.09375 7.839844 23.046875 7.707031 C 23.023438 7.65625 22.996094 7.605469 22.964844 7.554688 C 22.851562 7.367188 22.757812 7.253906 22.691406 7.207031 C 22.609375 7.136719 22.519531 7.085938 22.417969 7.054688 L 22.339844 7.03125 L 21.855469 6.964844 " fill-opacity="1" fill-rule="nonzero"/></g><path fill="#ffffff" d="M 14.324219 18.074219 L 14.300781 18.082031 C 14.195312 18.117188 14.117188 18.179688 14.058594 18.269531 C 14.042969 18.300781 14.03125 18.339844 14.03125 18.382812 C 14.03125 18.425781 14.042969 18.46875 14.066406 18.511719 C 14.078125 18.53125 14.09375 18.550781 14.109375 18.574219 L 14.132812 18.597656 C 14.167969 18.628906 14.207031 18.652344 14.261719 18.671875 C 14.382812 18.710938 14.503906 18.714844 14.625 18.683594 C 14.644531 18.675781 14.667969 18.667969 14.683594 18.65625 L 14.710938 18.636719 C 14.71875 18.632812 14.738281 18.613281 14.765625 18.574219 C 14.789062 18.535156 14.796875 18.511719 14.796875 18.503906 C 14.800781 18.476562 14.800781 18.449219 14.785156 18.421875 C 14.777344 18.402344 14.769531 18.394531 14.765625 18.390625 C 14.757812 18.382812 14.734375 18.367188 14.707031 18.347656 C 14.617188 18.296875 14.527344 18.25 14.4375 18.203125 L 14.324219 18.074219 " fill-opacity="1" fill-rule="nonzero"/><path fill="#ffffff" d="M 13.296875 10.765625 L 12.972656 11.105469 C 12.882812 11.160156 12.808594 11.21875 12.746094 11.28125 C 12.714844 11.3125 12.6875 11.34375 12.664062 11.378906 C 12.648438 11.394531 12.621094 11.445312 12.578125 11.535156 C 12.546875 11.636719 12.53125 11.730469 12.53125 11.816406 L 12.53125 11.878906 C 12.535156 11.921875 12.542969 11.960938 12.554688 11.996094 C 12.570312 12.035156 12.585938 12.070312 12.605469 12.105469 C 12.679688 12.195312 12.726562 12.246094 12.742188 12.253906 C 12.773438 12.28125 12.804688 12.304688 12.835938 12.324219 C 12.902344 12.359375 12.96875 12.375 13.039062 12.375 C 13.148438 12.375 13.234375 12.355469 13.304688 12.324219 C 13.34375 12.304688 13.382812 12.285156 13.417969 12.261719 C 13.4375 12.253906 13.492188 12.210938 13.578125 12.128906 C 13.625 12.074219 13.667969 12.015625 13.703125 11.957031 C 13.738281 11.898438 13.769531 11.835938 13.792969 11.773438 L 13.824219 11.675781 C 13.859375 11.546875 13.871094 11.40625 13.859375 11.261719 L 13.828125 11.15625 L 13.789062 11.066406 L 13.742188 10.984375 C 13.707031 10.9375 13.671875 10.894531 13.625 10.863281 C 13.582031 10.832031 13.53125 10.804688 13.476562 10.789062 L 13.390625 10.769531 L 13.296875 10.765625 " fill-opacity="1" fill-rule="nonzero"/><path fill="#ffffff" d="M 8.378906 11.515625 L 7.832031 11.84375 L 7.726562 11.917969 L 7.644531 12.003906 L 7.585938 12.09375 L 7.550781 12.191406 L 7.539062 12.292969 L 7.550781 12.40625 L 7.582031 12.527344 L 7.640625 12.652344 L 7.722656 12.789062 C 7.789062 12.882812 7.859375 12.960938 7.929688 13.019531 C 7.945312 13.042969 8 13.078125 8.089844 13.125 C 8.125 13.144531 8.164062 13.15625 8.199219 13.164062 C 8.34375 13.203125 8.503906 13.164062 8.679688 13.054688 C 8.757812 13.007812 8.824219 12.957031 8.878906 12.90625 C 8.910156 12.878906 8.933594 12.851562 8.957031 12.824219 C 8.984375 12.796875 9.003906 12.769531 9.023438 12.742188 L 9.050781 12.699219 C 9.074219 12.648438 9.09375 12.59375 9.101562 12.53125 C 9.109375 12.484375 9.105469 12.398438 9.089844 12.269531 C 9.070312 12.203125 9.050781 12.144531 9.03125 12.085938 C 8.980469 11.953125 8.949219 11.882812 8.9375 11.867188 C 8.90625 11.792969 8.851562 11.71875 8.777344 11.644531 C 8.699219 11.570312 8.5625 11.527344 8.378906 11.515625 " fill-opacity="1" fill-rule="nonzero"/><g clip-path="url(#1625222505)"><path fill="#ffffff" d="M 4.777344 10.851562 L 4.742188 10.851562 C 4.722656 10.855469 4.699219 10.859375 4.675781 10.867188 L 4.640625 10.878906 C 4.621094 10.890625 4.59375 10.902344 4.570312 10.917969 C 4.492188 10.972656 4.425781 11.027344 4.378906 11.089844 C 4.328125 11.148438 4.292969 11.21875 4.269531 11.300781 L 4.253906 11.359375 C 4.246094 11.402344 4.242188 11.445312 4.242188 11.492188 L 4.261719 11.59375 L 4.296875 11.683594 L 4.34375 11.765625 L 4.410156 11.835938 L 4.488281 11.890625 L 4.582031 11.9375 L 4.691406 11.972656 L 4.816406 11.996094 L 4.957031 12.007812 C 5.183594 12.003906 5.34375 11.925781 5.433594 11.777344 L 5.460938 11.71875 C 5.480469 11.667969 5.496094 11.613281 5.503906 11.558594 C 5.519531 11.445312 5.515625 11.320312 5.496094 11.1875 L 5.472656 11.085938 C 5.457031 11.019531 5.4375 10.945312 5.410156 10.871094 L 4.914062 10.886719 C 4.859375 10.859375 4.8125 10.847656 4.777344 10.851562 " fill-opacity="1" fill-rule="nonzero"/></g><path fill="#ffffff" d="M 6.175781 17.132812 L 6.15625 17.132812 C 6 17.140625 5.847656 17.210938 5.707031 17.339844 C 5.574219 17.472656 5.503906 17.632812 5.5 17.820312 L 5.511719 17.894531 L 5.542969 17.964844 L 5.585938 18.03125 L 5.648438 18.09375 L 5.726562 18.152344 C 5.808594 18.195312 5.859375 18.21875 5.878906 18.222656 C 5.914062 18.234375 5.953125 18.246094 5.992188 18.253906 C 6.070312 18.269531 6.152344 18.277344 6.242188 18.277344 C 6.457031 18.285156 6.640625 18.226562 6.796875 18.109375 L 6.84375 18.058594 L 6.882812 17.996094 L 6.90625 17.929688 L 6.914062 17.851562 L 6.910156 17.769531 L 6.890625 17.675781 C 6.875 17.613281 6.851562 17.542969 6.816406 17.46875 L 6.351562 17.175781 C 6.34375 17.171875 6.320312 17.160156 6.28125 17.148438 C 6.25 17.136719 6.214844 17.132812 6.175781 17.132812 " fill-opacity="1" fill-rule="nonzero"/><g clip-path="url(#3324353abd)"><path fill="#ffffff" d="M 16.28125 20.558594 L 16.175781 20.589844 L 16.082031 20.632812 L 16 20.6875 L 15.933594 20.75 L 15.878906 20.820312 L 15.835938 20.90625 L 15.808594 21 L 15.792969 21.101562 L 15.789062 21.21875 L 15.8125 21.34375 L 15.84375 21.457031 L 15.890625 21.5625 L 15.945312 21.65625 L 16.015625 21.742188 L 16.09375 21.816406 L 16.1875 21.878906 L 16.292969 21.933594 C 16.480469 22.015625 16.675781 22.027344 16.886719 21.964844 L 16.996094 21.925781 C 17.019531 21.914062 17.039062 21.898438 17.058594 21.882812 L 17.089844 21.859375 C 17.109375 21.839844 17.125 21.816406 17.140625 21.792969 C 17.152344 21.785156 17.171875 21.742188 17.203125 21.664062 L 17.230469 21.527344 L 17.238281 21.394531 L 17.226562 21.273438 L 17.203125 21.15625 L 17.160156 21.050781 L 17.101562 20.949219 L 17.023438 20.855469 L 16.933594 20.769531 L 16.824219 20.691406 L 16.28125 20.558594 " fill-opacity="1" fill-rule="nonzero"/></g><path fill="#ffffff" d="M 21.335938 19.816406 L 21.261719 19.832031 C 21.035156 19.875 20.867188 19.984375 20.765625 20.152344 C 20.742188 20.1875 20.726562 20.21875 20.710938 20.253906 L 20.695312 20.304688 C 20.6875 20.335938 20.679688 20.371094 20.679688 20.402344 C 20.679688 20.515625 20.695312 20.601562 20.722656 20.664062 C 20.738281 20.703125 20.761719 20.746094 20.785156 20.789062 C 20.859375 20.902344 20.90625 20.972656 20.933594 21.003906 C 20.996094 21.089844 21.09375 21.1875 21.234375 21.289062 C 21.277344 21.320312 21.320312 21.34375 21.363281 21.367188 C 21.382812 21.378906 21.449219 21.40625 21.5625 21.441406 C 21.632812 21.460938 21.71875 21.460938 21.816406 21.445312 C 21.898438 21.429688 21.988281 21.398438 22.082031 21.347656 C 22.210938 21.269531 22.304688 21.1875 22.371094 21.097656 L 22.402344 21.054688 C 22.421875 21.023438 22.4375 20.992188 22.449219 20.960938 C 22.457031 20.933594 22.464844 20.90625 22.46875 20.875 C 22.480469 20.785156 22.472656 20.6875 22.441406 20.582031 C 22.410156 20.480469 22.371094 20.402344 22.324219 20.339844 C 22.222656 20.191406 22.125 20.066406 22.035156 19.964844 L 21.335938 19.816406 " fill-opacity="1" fill-rule="nonzero"/><path fill="#ffffff" d="M 24.121094 11.523438 L 24.0625 11.527344 C 23.898438 11.542969 23.710938 11.613281 23.503906 11.746094 C 23.460938 11.773438 23.421875 11.808594 23.382812 11.84375 C 23.359375 11.859375 23.308594 11.921875 23.226562 12.035156 C 23.160156 12.128906 23.109375 12.238281 23.066406 12.359375 C 23.042969 12.4375 23.023438 12.515625 23.007812 12.597656 C 22.976562 12.714844 22.964844 12.929688 22.972656 13.242188 C 22.976562 13.429688 23.015625 13.613281 23.085938 13.796875 L 23.121094 13.875 C 23.148438 13.929688 23.179688 13.976562 23.214844 14.023438 C 23.25 14.066406 23.289062 14.105469 23.332031 14.144531 C 23.398438 14.210938 23.546875 14.296875 23.78125 14.402344 C 23.984375 14.476562 24.160156 14.503906 24.316406 14.492188 C 24.640625 14.480469 24.917969 14.382812 25.144531 14.199219 C 25.160156 14.203125 25.242188 14.101562 25.398438 13.898438 C 25.46875 13.800781 25.53125 13.714844 25.578125 13.632812 L 25.644531 13.511719 C 25.683594 13.4375 25.710938 13.367188 25.726562 13.308594 C 25.742188 13.246094 25.746094 13.191406 25.742188 13.140625 C 25.726562 13.097656 25.71875 13.050781 25.714844 13.007812 L 25.691406 12.933594 C 25.667969 12.882812 25.632812 12.820312 25.585938 12.757812 C 25.492188 12.625 25.351562 12.464844 25.164062 12.28125 L 25.015625 12.140625 L 24.253906 11.539062 C 24.222656 11.53125 24.179688 11.527344 24.121094 11.523438 " fill-opacity="1" fill-rule="nonzero"/><path fill="#ffffff" d="M 19.382812 15.449219 L 19.300781 15.453125 C 19.097656 15.46875 18.914062 15.523438 18.746094 15.617188 L 18.621094 15.6875 C 18.519531 15.78125 18.445312 15.863281 18.398438 15.933594 C 18.175781 16.222656 18.082031 16.582031 18.117188 17.011719 C 18.132812 17.132812 18.183594 17.265625 18.269531 17.414062 C 18.28125 17.445312 18.363281 17.5625 18.523438 17.765625 C 18.589844 17.847656 18.667969 17.933594 18.753906 18.019531 C 18.839844 18.09375 18.9375 18.152344 19.054688 18.191406 C 19.113281 18.210938 19.175781 18.226562 19.242188 18.238281 C 19.269531 18.25 19.378906 18.253906 19.570312 18.257812 C 19.832031 18.246094 20.019531 18.210938 20.140625 18.152344 C 20.265625 18.09375 20.375 18.015625 20.46875 17.917969 C 20.726562 17.6875 20.84375 17.410156 20.824219 17.089844 C 20.820312 17.015625 20.796875 16.917969 20.753906 16.796875 C 20.753906 16.695312 20.75 16.621094 20.742188 16.582031 C 20.734375 16.535156 20.714844 16.46875 20.683594 16.378906 C 20.644531 16.28125 20.558594 16.152344 20.421875 16 C 20.320312 15.882812 20.152344 15.742188 19.925781 15.578125 C 19.84375 15.535156 19.742188 15.503906 19.625 15.472656 C 19.527344 15.457031 19.445312 15.445312 19.382812 15.449219 " fill-opacity="1" fill-rule="nonzero"/></svg>