<svg xmlns="http://www.w3.org/2000/svg" xmlns:xlink="http://www.w3.org/1999/xlink" width="40" zoomAndPan="magnify" viewBox="0 0 30 30.000001" height="40" preserveAspectRatio="xMidYMid meet" version="1.0"><defs><clipPath id="52351c845c"><path d="M 5 9 L 25 9 L 25 20 L 5 20 Z M 5 9 " clip-rule="nonzero"/></clipPath><clipPath id="d9342b28e1"><path d="M 14.898438 3.121094 L 26.398438 14.199219 L 15.320312 25.699219 L 3.820312 14.621094 Z M 14.898438 3.121094 " clip-rule="nonzero"/></clipPath><clipPath id="215d3b260e"><path d="M 14.898438 3.121094 L 26.398438 14.199219 L 15.320312 25.699219 L 3.820312 14.621094 Z M 14.898438 3.121094 " clip-rule="nonzero"/></clipPath></defs><g clip-path="url(#52351c845c)"><g clip-path="url(#d9342b28e1)"><g clip-path="url(#215d3b260e)"><path fill="#ffffff" d="M 24.035156 13.554688 C 23.792969 11.699219 21.214844 10.613281 19.808594 10.304688 C 19.785156 10.296875 19.757812 10.289062 19.734375 10.289062 C 19.558594 10.253906 19.40625 10.230469 19.28125 10.21875 C 19.175781 10.140625 19.011719 10.039062 18.796875 9.933594 C 18.78125 9.925781 18.765625 9.921875 18.75 9.914062 C 18.4375 9.769531 18.015625 9.621094 17.476562 9.550781 C 16.171875 9.375 15.175781 9.835938 14.839844 10.023438 C 14.4375 9.886719 13.363281 9.582031 12.207031 9.828125 C 11.121094 10.058594 10.542969 10.648438 10.230469 10.96875 C 10.105469 10.953125 9.953125 10.945312 9.796875 10.9375 C 9.757812 10.929688 9.722656 10.925781 9.6875 10.933594 C 9.042969 10.925781 8.207031 11.042969 7.429688 11.535156 C 5.808594 12.5625 5.019531 14.335938 5.507812 15.847656 C 5.640625 16.257812 5.90625 16.640625 6.269531 16.992188 C 8.222656 18.875 13.105469 19.824219 16.652344 19.242188 C 20.476562 18.617188 24.386719 16.265625 24.035156 13.554688 Z M 19.554688 10.808594 C 19.773438 11.152344 20.015625 11.671875 20.035156 12.324219 C 20.039062 12.484375 20.03125 12.632812 20.015625 12.777344 C 19.972656 12.390625 19.886719 11.972656 19.734375 11.542969 C 19.640625 11.28125 19.523438 11.027344 19.390625 10.78125 C 19.441406 10.789062 19.496094 10.796875 19.554688 10.808594 Z M 15.054688 10.53125 C 15.441406 11.042969 15.730469 11.609375 15.898438 12.222656 C 15.9375 12.367188 15.96875 12.511719 15.996094 12.660156 C 15.882812 12.398438 15.75 12.121094 15.609375 11.824219 C 15.414062 11.410156 15.148438 10.996094 14.835938 10.585938 C 14.898438 10.59375 14.960938 10.589844 15.015625 10.550781 C 15.027344 10.546875 15.042969 10.539062 15.054688 10.53125 Z M 10.523438 11.453125 C 10.550781 11.425781 10.582031 11.390625 10.617188 11.355469 C 10.625 11.347656 10.632812 11.339844 10.640625 11.332031 C 11.148438 11.785156 11.5 12.414062 11.757812 12.921875 C 11.777344 12.960938 11.800781 13.007812 11.828125 13.070312 C 11.796875 13.023438 11.765625 12.976562 11.734375 12.929688 C 11.371094 12.402344 10.949219 11.917969 10.476562 11.480469 C 10.492188 11.472656 10.507812 11.464844 10.523438 11.453125 Z M 16.5625 18.703125 C 12.238281 19.410156 6.726562 17.828125 6.027344 15.679688 C 5.617188 14.40625 6.3125 12.890625 7.722656 11.996094 C 8.375 11.582031 9.078125 11.480469 9.636719 11.480469 C 10.273438 11.988281 10.828125 12.578125 11.285156 13.242188 C 11.796875 13.984375 12.175781 14.800781 12.410156 15.664062 C 12.496094 15.980469 12.964844 15.902344 12.945312 15.578125 C 12.859375 14.003906 12.386719 12.960938 12.246094 12.679688 C 11.972656 12.132812 11.597656 11.46875 11.046875 10.957031 C 11.339844 10.722656 11.746094 10.484375 12.320312 10.363281 C 12.914062 10.238281 13.484375 10.273438 13.925781 10.351562 C 14.441406 10.914062 14.84375 11.488281 15.117188 12.058594 C 15.539062 12.945312 15.9375 13.84375 16 14.433594 C 16.03125 14.742188 16.488281 14.765625 16.539062 14.449219 C 16.671875 13.664062 16.632812 12.84375 16.425781 12.078125 C 16.25 11.433594 15.953125 10.839844 15.558594 10.296875 C 16.019531 10.128906 16.671875 9.992188 17.402344 10.089844 C 17.855469 10.152344 18.214844 10.269531 18.480469 10.390625 C 18.796875 10.796875 19.046875 11.246094 19.21875 11.726562 C 19.585938 12.753906 19.523438 13.683594 19.410156 14.28125 C 19.355469 14.566406 19.726562 14.730469 19.898438 14.492188 C 20.167969 14.125 20.613281 13.351562 20.582031 12.308594 C 20.566406 11.792969 20.433594 11.351562 20.273438 10.992188 C 21.101562 11.25 22.113281 11.722656 22.78125 12.367188 C 23.160156 12.730469 23.429688 13.152344 23.492188 13.625 C 23.792969 15.9375 20.152344 18.117188 16.5625 18.703125 Z M 16.5625 18.703125 " fill-opacity="1" fill-rule="nonzero"/></g></g></g></svg>