<svg xmlns="http://www.w3.org/2000/svg" xmlns:xlink="http://www.w3.org/1999/xlink" width="40" zoomAndPan="magnify" viewBox="0 0 30 30.000001" height="40" preserveAspectRatio="xMidYMid meet" version="1.0"><defs><clipPath id="8719ee445b"><path d="M 2.578125 6 L 27.253906 6 L 27.253906 23.316406 L 2.578125 23.316406 Z M 2.578125 6 " clip-rule="nonzero"/></clipPath></defs><g clip-path="url(#8719ee445b)"><path fill="#ffffff" d="M 26.265625 17.242188 C 25.785156 18.714844 24.296875 19.960938 21.964844 20.847656 C 16.5625 22.902344 11.558594 22.917969 8.574219 20.886719 C 7.746094 20.320312 7.445312 19.503906 7.34375 18.917969 C 7.160156 17.890625 7.445312 16.910156 7.785156 16.433594 C 8.441406 15.519531 9.546875 14.625 10.8125 13.851562 C 11.582031 14.066406 15.582031 15.324219 17.996094 18.699219 C 18.066406 18.800781 18.179688 18.855469 18.296875 18.855469 C 18.320312 18.855469 18.339844 18.855469 18.363281 18.851562 C 18.503906 18.824219 18.617188 18.71875 18.65625 18.582031 C 18.667969 18.542969 19.609375 14.726562 15.007812 11.9375 C 15.316406 11.839844 15.617188 11.753906 15.90625 11.6875 C 16.035156 11.65625 16.164062 11.632812 16.289062 11.605469 C 16.882812 11.738281 21.042969 12.847656 23.242188 18 C 23.296875 18.136719 23.429688 18.226562 23.578125 18.226562 L 23.582031 18.226562 C 23.726562 18.226562 23.859375 18.144531 23.917969 18.011719 C 23.933594 17.976562 25.355469 14.707031 22.089844 11.640625 C 23.703125 12.019531 25.003906 12.710938 25.609375 13.648438 C 26.40625 14.875 26.632812 16.121094 26.265625 17.242188 Z M 14.082031 12.257812 C 17.433594 14.042969 17.992188 16.304688 18.019531 17.523438 C 15.90625 15.035156 13.085938 13.824219 11.695312 13.347656 C 12.476562 12.925781 13.292969 12.554688 14.082031 12.257812 Z M 4.324219 13.890625 C 3.675781 13.328125 3.335938 12.367188 3.4375 11.382812 C 3.484375 10.929688 3.664062 10.21875 4.226562 9.527344 C 4.550781 9.566406 6.679688 9.886719 8.160156 11.691406 C 8.59375 12.222656 8.957031 12.375 9.222656 12.375 C 9.316406 12.375 9.398438 12.359375 9.46875 12.332031 C 9.8125 12.203125 10.003906 11.824219 9.988281 11.292969 C 9.960938 10.296875 9.195312 8.65625 7.265625 7.738281 C 7.996094 7.519531 8.746094 7.386719 9.488281 7.332031 C 9.910156 7.578125 11.585938 8.613281 12.636719 10.003906 C 12.769531 10.171875 12.980469 10.273438 13.199219 10.273438 C 13.257812 10.273438 13.316406 10.265625 13.371094 10.25 C 13.582031 10.195312 13.746094 10.050781 13.832031 9.847656 C 13.941406 9.597656 13.992188 9.128906 13.492188 7.996094 C 13.917969 8.203125 14.304688 8.453125 14.621094 8.753906 C 15.367188 9.464844 15.753906 10.113281 15.710938 10.582031 C 15.683594 10.851562 15.527344 10.992188 15.472656 11.03125 C 13.050781 11.660156 9.996094 13.167969 8.132812 14.9375 C 7.59375 14.945312 5.496094 14.910156 4.324219 13.890625 Z M 5.476562 8.496094 C 5.722656 8.359375 5.972656 8.242188 6.230469 8.128906 C 8.019531 8.6875 8.929688 9.917969 9.179688 10.886719 C 9.300781 11.347656 9.226562 11.605469 9.226562 11.632812 C 9.222656 11.632812 9.058594 11.617188 8.734375 11.222656 C 7.457031 9.664062 5.78125 9.09375 4.882812 8.890625 C 5.058594 8.753906 5.253906 8.621094 5.476562 8.496094 Z M 12.484375 7.609375 C 13.101562 8.789062 13.171875 9.289062 13.164062 9.46875 C 12.460938 8.570312 11.550781 7.828125 10.84375 7.328125 C 11.421875 7.371094 11.972656 7.464844 12.484375 7.609375 Z M 20.632812 11.394531 C 23.441406 13.402344 23.648438 15.578125 23.484375 16.777344 C 21.824219 13.539062 19.460938 12.042969 17.914062 11.371094 C 18.84375 11.292969 19.761719 11.300781 20.632812 11.394531 Z M 26.234375 13.242188 C 24.832031 11.082031 20.523438 10.054688 16.40625 10.824219 C 16.417969 10.773438 16.441406 10.734375 16.445312 10.679688 C 16.53125 9.953125 16.085938 9.125 15.132812 8.21875 C 12.6875 5.898438 8.03125 6.21875 5.113281 7.847656 C 3.707031 8.636719 2.847656 9.863281 2.699219 11.308594 C 2.574219 12.53125 3.007812 13.734375 3.835938 14.453125 C 4.894531 15.367188 6.476562 15.605469 7.449219 15.664062 C 7.355469 15.777344 7.265625 15.886719 7.183594 16 C 6.648438 16.742188 6.421875 17.964844 6.613281 19.046875 C 6.796875 20.089844 7.332031 20.9375 8.160156 21.5 C 9.757812 22.589844 11.886719 23.136719 14.320312 23.136719 C 16.726562 23.136719 19.433594 22.605469 22.230469 21.539062 C 24.777344 20.570312 26.417969 19.164062 26.972656 17.472656 C 27.410156 16.128906 27.15625 14.667969 26.234375 13.242188 " fill-opacity="1" fill-rule="nonzero"/></g></svg>