<svg xmlns="http://www.w3.org/2000/svg" xmlns:xlink="http://www.w3.org/1999/xlink" width="40" zoomAndPan="magnify" viewBox="0 0 30 30.000001" height="40" preserveAspectRatio="xMidYMid meet" version="1.0"><defs><clipPath id="5ae3a02d58"><path d="M 3.550781 3.492188 L 26.777344 3.492188 L 26.777344 25.992188 L 3.550781 25.992188 Z M 3.550781 3.492188 " clip-rule="nonzero"/></clipPath></defs><g clip-path="url(#5ae3a02d58)"><path fill="#ffffff" d="M 26.425781 13.121094 C 26.425781 10.550781 25.421875 8.136719 23.605469 6.320312 C 21.789062 4.503906 19.375 3.503906 16.804688 3.503906 C 14.238281 3.503906 11.824219 4.503906 10.003906 6.320312 C 8.1875 8.136719 7.1875 10.550781 7.1875 13.121094 C 7.1875 14.9375 7.691406 16.675781 8.628906 18.183594 L 4.433594 22.378906 C 3.574219 23.234375 3.574219 24.632812 4.433594 25.492188 C 4.863281 25.921875 5.425781 26.136719 5.992188 26.136719 C 6.554688 26.136719 7.117188 25.921875 7.546875 25.492188 L 11.742188 21.296875 C 13.25 22.234375 14.988281 22.738281 16.804688 22.738281 C 19.375 22.738281 21.789062 21.738281 23.605469 19.921875 C 25.421875 18.105469 26.425781 15.691406 26.425781 13.121094 Z M 6.972656 24.917969 C 6.449219 25.441406 5.53125 25.441406 5.007812 24.917969 C 4.746094 24.65625 4.601562 24.304688 4.601562 23.933594 C 4.601562 23.5625 4.746094 23.214844 5.007812 22.953125 L 9.09375 18.867188 C 9.371094 19.238281 9.671875 19.589844 10.003906 19.921875 C 10.339844 20.253906 10.6875 20.554688 11.054688 20.832031 Z M 10.582031 19.347656 C 7.148438 15.914062 7.148438 10.328125 10.582031 6.894531 C 12.296875 5.179688 14.550781 4.320312 16.804688 4.320312 C 19.0625 4.320312 21.316406 5.179688 23.03125 6.894531 C 26.464844 10.328125 26.464844 15.914062 23.03125 19.347656 C 19.597656 22.777344 14.015625 22.777344 10.582031 19.347656 Z M 10.582031 19.347656 " fill-opacity="1" fill-rule="nonzero"/></g><path fill="#ffffff" d="M 22.300781 7.625 C 19.269531 4.597656 14.339844 4.597656 11.3125 7.625 C 8.28125 10.65625 8.28125 15.585938 11.3125 18.617188 C 12.828125 20.128906 14.816406 20.886719 16.804688 20.886719 C 18.796875 20.886719 20.785156 20.128906 22.300781 18.617188 C 25.328125 15.585938 25.328125 10.65625 22.300781 7.625 Z M 21.726562 18.039062 C 19.011719 20.75 14.601562 20.75 11.886719 18.039062 C 9.175781 15.328125 9.175781 10.914062 11.886719 8.203125 C 13.242188 6.847656 15.023438 6.167969 16.804688 6.167969 C 18.585938 6.167969 20.367188 6.847656 21.726562 8.203125 C 24.4375 10.914062 24.4375 15.328125 21.726562 18.039062 Z M 21.726562 18.039062 " fill-opacity="1" fill-rule="nonzero"/><path fill="#ffffff" d="M 23.113281 12.839844 C 23 12.71875 20.261719 9.898438 16.804688 9.898438 C 13.351562 9.898438 10.613281 12.71875 10.5 12.839844 C 10.347656 12.996094 10.347656 13.246094 10.5 13.402344 C 10.613281 13.523438 13.351562 16.347656 16.804688 16.347656 C 20.261719 16.347656 23 13.523438 23.113281 13.402344 C 23.265625 13.246094 23.265625 12.996094 23.113281 12.839844 Z M 19.214844 13.121094 C 19.214844 14.449219 18.136719 15.53125 16.804688 15.53125 C 15.476562 15.53125 14.394531 14.449219 14.394531 13.121094 C 14.394531 11.792969 15.476562 10.710938 16.804688 10.710938 C 18.136719 10.710938 19.214844 11.792969 19.214844 13.121094 Z M 14.132812 11.320312 C 13.785156 11.835938 13.582031 12.457031 13.582031 13.121094 C 13.582031 13.785156 13.785156 14.40625 14.132812 14.921875 C 12.855469 14.355469 11.855469 13.546875 11.382812 13.121094 C 11.855469 12.695312 12.855469 11.886719 14.132812 11.320312 Z M 19.480469 14.921875 C 19.828125 14.40625 20.03125 13.789062 20.03125 13.121094 C 20.03125 12.457031 19.828125 11.835938 19.480469 11.324219 C 20.757812 11.886719 21.757812 12.699219 22.226562 13.121094 C 21.757812 13.546875 20.757812 14.355469 19.480469 14.921875 Z M 19.480469 14.921875 " fill-opacity="1" fill-rule="nonzero"/><path fill="#ffffff" d="M 16.804688 13.871094 C 17.21875 13.871094 17.554688 13.535156 17.554688 13.121094 C 17.554688 12.707031 17.21875 12.371094 16.804688 12.371094 C 16.394531 12.371094 16.058594 12.707031 16.058594 13.121094 C 16.058594 13.535156 16.394531 13.871094 16.804688 13.871094 Z M 16.804688 13.054688 C 16.84375 13.054688 16.871094 13.085938 16.871094 13.121094 C 16.871094 13.195312 16.742188 13.195312 16.742188 13.121094 C 16.742188 13.085938 16.769531 13.054688 16.804688 13.054688 Z M 16.804688 13.054688 " fill-opacity="1" fill-rule="nonzero"/></svg>