<svg xmlns="http://www.w3.org/2000/svg" xmlns:xlink="http://www.w3.org/1999/xlink" width="40" zoomAndPan="magnify" viewBox="0 0 30 30.000001" height="40" preserveAspectRatio="xMidYMid meet" version="1.0"><defs><clipPath id="e4ae274d0a"><path d="M 6.128906 3.488281 L 23.546875 3.488281 L 23.546875 25.988281 L 6.128906 25.988281 Z M 6.128906 3.488281 " clip-rule="nonzero"/></clipPath></defs><g clip-path="url(#e4ae274d0a)"><path fill="#ffffff" d="M 15.261719 5.910156 L 15.890625 6.34375 L 13.773438 9.640625 L 9.542969 12.742188 L 7.1875 11.128906 Z M 17.765625 4.824219 C 17.792969 4.785156 17.808594 4.738281 17.820312 4.691406 C 17.863281 4.460938 18.089844 4.28125 18.28125 4.246094 L 19.472656 4.714844 C 19.347656 4.863281 19.257812 5.050781 19.203125 5.257812 L 15.660156 10.773438 L 11.363281 13.992188 L 10.203125 13.195312 L 14.277344 10.207031 C 14.3125 10.179688 14.347656 10.144531 14.371094 10.105469 Z M 20.316406 6.292969 C 20.121094 6.292969 19.902344 6.019531 19.902344 5.65625 C 19.902344 5.328125 20.09375 5.050781 20.316406 5.050781 C 20.339844 5.050781 20.363281 5.054688 20.386719 5.0625 C 20.410156 5.074219 20.441406 5.082031 20.464844 5.09375 C 20.484375 5.109375 20.507812 5.121094 20.527344 5.140625 C 20.542969 5.152344 20.554688 5.171875 20.570312 5.183594 C 20.601562 5.222656 20.632812 5.265625 20.65625 5.316406 C 20.660156 5.320312 20.664062 5.328125 20.667969 5.339844 C 20.6875 5.378906 20.699219 5.425781 20.710938 5.476562 C 20.722656 5.53125 20.730469 5.589844 20.730469 5.65625 C 20.730469 6.019531 20.515625 6.292969 20.316406 6.292969 Z M 22.828125 11.125 L 15.179688 16.609375 L 12.023438 14.445312 L 16.164062 11.335938 C 16.203125 11.308594 16.234375 11.277344 16.257812 11.238281 L 18.324219 8.023438 Z M 15.5625 25.03125 L 15.5625 17.265625 L 18.847656 14.90625 L 23.109375 11.855469 L 23.109375 19.886719 Z M 6.886719 11.835938 L 9.1875 13.414062 L 9.148438 17.445312 C 9.148438 17.578125 9.214844 17.703125 9.332031 17.769531 L 11.21875 18.902344 C 11.277344 18.9375 11.347656 18.957031 11.414062 18.957031 C 11.476562 18.957031 11.539062 18.941406 11.597656 18.90625 C 11.714844 18.839844 11.789062 18.714844 11.789062 18.578125 L 11.789062 15.199219 L 14.808594 17.269531 L 14.808594 25.050781 L 6.886719 19.878906 Z M 9.9375 13.929688 L 11.035156 14.679688 L 11.035156 17.914062 L 9.90625 17.234375 Z M 6.300781 20.402344 L 14.980469 26.0625 C 14.984375 26.066406 14.988281 26.066406 14.992188 26.070312 C 15 26.074219 15.003906 26.078125 15.007812 26.082031 C 15.023438 26.089844 15.039062 26.09375 15.054688 26.101562 C 15.066406 26.101562 15.074219 26.105469 15.085938 26.109375 C 15.117188 26.117188 15.152344 26.125 15.183594 26.125 C 15.21875 26.125 15.253906 26.117188 15.285156 26.109375 C 15.296875 26.105469 15.308594 26.101562 15.316406 26.097656 C 15.332031 26.09375 15.351562 26.085938 15.363281 26.078125 C 15.371094 26.074219 15.375 26.070312 15.382812 26.066406 C 15.386719 26.0625 15.394531 26.0625 15.398438 26.058594 L 23.695312 20.394531 C 23.800781 20.328125 23.863281 20.210938 23.863281 20.085938 L 23.863281 11.121094 C 23.863281 11.121094 23.863281 11.117188 23.863281 11.117188 C 23.863281 11.085938 23.855469 11.050781 23.847656 11.019531 C 23.847656 11.011719 23.839844 11.003906 23.839844 10.996094 C 23.832031 10.972656 23.820312 10.953125 23.808594 10.933594 C 23.804688 10.921875 23.796875 10.914062 23.789062 10.902344 C 23.78125 10.886719 23.765625 10.871094 23.753906 10.855469 C 23.742188 10.847656 23.730469 10.839844 23.722656 10.832031 C 23.714844 10.824219 23.707031 10.8125 23.699219 10.808594 L 18.734375 7.386719 L 19.21875 6.628906 L 19.878906 6.945312 C 20.015625 7.007812 20.164062 7.046875 20.316406 7.046875 C 20.964844 7.046875 21.488281 6.421875 21.488281 5.65625 C 21.488281 5.5625 21.476562 5.46875 21.464844 5.378906 C 21.460938 5.378906 21.460938 5.378906 21.460938 5.375 C 21.402344 5.019531 21.234375 4.726562 20.980469 4.53125 C 20.976562 4.527344 20.976562 4.527344 20.972656 4.523438 C 20.914062 4.480469 20.855469 4.445312 20.789062 4.410156 C 20.78125 4.40625 20.777344 4.402344 20.773438 4.402344 C 20.6875 4.359375 20.597656 4.324219 20.5 4.304688 L 18.476562 3.515625 C 18.429688 3.496094 18.382812 3.488281 18.339844 3.488281 C 17.78125 3.488281 17.242188 3.921875 17.097656 4.472656 L 16.300781 5.710938 L 15.484375 5.148438 C 15.359375 5.058594 15.195312 5.058594 15.066406 5.140625 L 6.304688 10.800781 C 6.292969 10.808594 6.28125 10.820312 6.273438 10.828125 C 6.261719 10.839844 6.25 10.84375 6.242188 10.855469 C 6.226562 10.867188 6.214844 10.886719 6.203125 10.902344 C 6.195312 10.910156 6.1875 10.921875 6.183594 10.929688 C 6.171875 10.953125 6.160156 10.972656 6.152344 10.996094 C 6.152344 11.003906 6.148438 11.011719 6.144531 11.019531 C 6.136719 11.050781 6.128906 11.082031 6.128906 11.113281 C 6.128906 11.113281 6.128906 11.117188 6.128906 11.117188 C 6.128906 11.117188 6.128906 11.121094 6.128906 11.121094 L 6.128906 20.085938 C 6.128906 20.210938 6.195312 20.332031 6.300781 20.402344 " fill-opacity="1" fill-rule="nonzero"/></g><path fill="#ffffff" d="M 18.957031 18.761719 L 17.070312 20.109375 L 17.070312 18.398438 L 18.957031 17.050781 Z M 19.507812 15.980469 C 19.378906 15.914062 19.230469 15.925781 19.113281 16.007812 L 16.472656 17.894531 C 16.375 17.964844 16.316406 18.078125 16.316406 18.203125 L 16.316406 20.84375 C 16.316406 20.984375 16.394531 21.113281 16.523438 21.179688 C 16.574219 21.207031 16.636719 21.21875 16.695312 21.21875 C 16.773438 21.21875 16.847656 21.195312 16.914062 21.148438 L 19.554688 19.261719 C 19.652344 19.191406 19.710938 19.078125 19.710938 18.957031 L 19.710938 16.316406 C 19.710938 16.175781 19.632812 16.042969 19.507812 15.980469 " fill-opacity="1" fill-rule="nonzero"/><path fill="#ffffff" d="M 11.582031 20.78125 L 13.84375 22.289062 L 14.261719 21.660156 L 12 20.152344 L 11.582031 20.78125 " fill-opacity="1" fill-rule="nonzero"/><path fill="#ffffff" d="M 11.582031 22.289062 L 13.84375 23.796875 L 14.261719 23.167969 L 12 21.660156 L 11.582031 22.289062 " fill-opacity="1" fill-rule="nonzero"/></svg>