<svg xmlns="http://www.w3.org/2000/svg" xmlns:xlink="http://www.w3.org/1999/xlink" width="40" zoomAndPan="magnify" viewBox="0 0 30 30.000001" height="40" preserveAspectRatio="xMidYMid meet" version="1.0"><defs><clipPath id="6186e4f991"><path d="M 6.1875 17 L 23.605469 17 L 23.605469 27.582031 L 6.1875 27.582031 Z M 6.1875 17 " clip-rule="nonzero"/></clipPath><clipPath id="186fdfd8ce"><path d="M 11 2.902344 L 23 2.902344 L 23 13 L 11 13 Z M 11 2.902344 " clip-rule="nonzero"/></clipPath></defs><g clip-path="url(#6186e4f991)"><path fill="#ffffff" d="M 12.492188 27.234375 L 17.503906 27.234375 C 20.589844 27.234375 23.097656 24.722656 23.097656 21.636719 L 23.097656 19.605469 C 23.519531 19.433594 23.8125 19.019531 23.8125 18.539062 C 23.8125 17.90625 23.296875 17.386719 22.660156 17.386719 L 7.332031 17.386719 C 6.699219 17.386719 6.179688 17.90625 6.179688 18.539062 C 6.179688 19.019531 6.476562 19.433594 6.894531 19.605469 L 6.894531 21.636719 C 6.898438 24.722656 9.40625 27.234375 12.492188 27.234375 Z M 22.582031 21.640625 C 22.582031 24.441406 20.304688 26.71875 17.503906 26.71875 L 12.492188 26.71875 C 9.691406 26.71875 7.414062 24.441406 7.414062 21.640625 L 7.414062 19.691406 L 22.582031 19.691406 Z M 6.699219 18.539062 C 6.699219 18.1875 6.980469 17.90625 7.332031 17.90625 L 22.660156 17.90625 C 23.011719 17.90625 23.296875 18.1875 23.296875 18.539062 C 23.296875 18.890625 23.011719 19.175781 22.660156 19.175781 L 7.332031 19.175781 C 6.984375 19.175781 6.699219 18.890625 6.699219 18.539062 Z M 6.699219 18.539062 " fill-opacity="1" fill-rule="nonzero"/></g><path fill="#ffffff" d="M 17.179688 26.25 C 17.335938 26.25 17.492188 26.242188 17.648438 26.226562 C 17.789062 26.214844 17.890625 26.089844 17.878906 25.945312 C 17.867188 25.804688 17.742188 25.699219 17.597656 25.714844 C 17.457031 25.726562 17.316406 25.734375 17.179688 25.734375 C 17.035156 25.734375 16.921875 25.851562 16.921875 25.992188 C 16.921875 26.136719 17.035156 26.25 17.179688 26.25 Z M 17.179688 26.25 " fill-opacity="1" fill-rule="nonzero"/><path fill="#ffffff" d="M 18.527344 26.050781 C 18.554688 26.050781 18.578125 26.050781 18.601562 26.042969 C 20.683594 25.410156 22.078125 23.527344 22.078125 21.351562 C 22.078125 21.210938 21.960938 21.09375 21.820312 21.09375 C 21.679688 21.09375 21.5625 21.210938 21.5625 21.351562 C 21.5625 23.296875 20.3125 24.980469 18.453125 25.546875 C 18.316406 25.585938 18.238281 25.730469 18.28125 25.867188 C 18.3125 25.980469 18.417969 26.050781 18.527344 26.050781 Z M 18.527344 26.050781 " fill-opacity="1" fill-rule="nonzero"/><g clip-path="url(#186fdfd8ce)"><path fill="#ffffff" d="M 22.292969 7.902344 C 22.394531 7.800781 22.394531 7.636719 22.292969 7.539062 L 17.753906 2.996094 C 17.65625 2.898438 17.484375 2.898438 17.386719 2.996094 L 12.992188 7.394531 L 11.800781 8.585938 C 11.699219 8.6875 11.699219 8.851562 11.800781 8.949219 L 15 12.148438 C 15.046875 12.199219 15.113281 12.226562 15.179688 12.226562 L 17.867188 12.226562 C 17.9375 12.226562 18 12.195312 18.050781 12.148438 Z M 12.347656 8.769531 L 12.917969 8.199219 C 12.921875 8.335938 13.035156 8.445312 13.171875 8.445312 L 13.53125 8.445312 L 13.53125 8.804688 C 13.53125 8.949219 13.648438 9.0625 13.792969 9.0625 L 14.152344 9.0625 L 14.152344 9.421875 C 14.152344 9.566406 14.265625 9.683594 14.410156 9.683594 L 14.769531 9.683594 L 14.769531 10.042969 C 14.769531 10.183594 14.882812 10.300781 15.027344 10.300781 L 15.386719 10.300781 L 15.386719 10.660156 C 15.386719 10.800781 15.503906 10.917969 15.644531 10.917969 L 16.003906 10.917969 L 16.003906 11.277344 C 16.003906 11.421875 16.121094 11.539062 16.261719 11.539062 L 16.621094 11.539062 L 16.621094 11.707031 L 15.28125 11.707031 Z M 17.753906 11.707031 L 17.679688 11.707031 C 17.632812 11.667969 17.574219 11.644531 17.511719 11.644531 L 17.144531 11.644531 L 17.144531 11.316406 C 17.144531 11.304688 17.152344 11.292969 17.152344 11.28125 C 17.152344 11.140625 17.035156 11.023438 16.890625 11.023438 L 16.523438 11.023438 L 16.523438 10.695312 C 16.527344 10.683594 16.53125 10.675781 16.53125 10.660156 C 16.53125 10.519531 16.417969 10.402344 16.273438 10.402344 L 15.90625 10.402344 L 15.90625 10.074219 C 15.910156 10.0625 15.914062 10.054688 15.914062 10.042969 C 15.914062 9.898438 15.800781 9.78125 15.65625 9.78125 L 15.289062 9.78125 L 15.289062 9.453125 C 15.292969 9.445312 15.296875 9.433594 15.296875 9.421875 C 15.296875 9.277344 15.179688 9.164062 15.039062 9.164062 L 14.671875 9.164062 L 14.671875 8.835938 C 14.675781 8.824219 14.679688 8.8125 14.679688 8.800781 C 14.679688 8.660156 14.5625 8.542969 14.421875 8.542969 L 14.054688 8.542969 L 14.054688 8.214844 C 14.058594 8.203125 14.0625 8.195312 14.0625 8.179688 C 14.0625 8.039062 13.945312 7.921875 13.804688 7.921875 L 13.4375 7.921875 L 13.4375 7.675781 L 17.570312 3.542969 L 21.746094 7.71875 Z M 17.753906 11.707031 " fill-opacity="1" fill-rule="nonzero"/></g><path fill="#ffffff" d="M 17.804688 4.175781 C 17.703125 4.074219 17.539062 4.074219 17.441406 4.175781 L 16.445312 5.171875 C 16.34375 5.269531 16.34375 5.433594 16.445312 5.535156 C 16.496094 5.585938 16.5625 5.609375 16.628906 5.609375 C 16.695312 5.609375 16.761719 5.582031 16.8125 5.535156 L 17.625 4.722656 L 18.324219 5.421875 C 18.425781 5.523438 18.585938 5.523438 18.6875 5.421875 C 18.789062 5.324219 18.789062 5.160156 18.6875 5.058594 Z M 17.804688 4.175781 " fill-opacity="1" fill-rule="nonzero"/><path fill="#ffffff" d="M 16.839844 13.300781 C 16.839844 13.265625 16.832031 13.234375 16.816406 13.203125 C 16.804688 13.167969 16.785156 13.140625 16.761719 13.117188 C 16.664062 13.019531 16.492188 13.019531 16.394531 13.117188 C 16.347656 13.164062 16.320312 13.234375 16.320312 13.300781 C 16.320312 13.367188 16.347656 13.433594 16.394531 13.480469 C 16.445312 13.53125 16.511719 13.558594 16.578125 13.558594 C 16.648438 13.558594 16.710938 13.53125 16.761719 13.480469 C 16.808594 13.433594 16.839844 13.367188 16.839844 13.300781 Z M 16.839844 13.300781 " fill-opacity="1" fill-rule="nonzero"/><path fill="#ffffff" d="M 17.890625 14.261719 C 17.890625 14.195312 17.863281 14.125 17.816406 14.078125 C 17.71875 13.980469 17.546875 13.980469 17.449219 14.078125 C 17.402344 14.125 17.375 14.195312 17.375 14.261719 C 17.375 14.328125 17.402344 14.394531 17.449219 14.445312 C 17.496094 14.492188 17.5625 14.519531 17.632812 14.519531 C 17.699219 14.519531 17.769531 14.492188 17.816406 14.445312 C 17.863281 14.394531 17.890625 14.328125 17.890625 14.261719 Z M 17.890625 14.261719 " fill-opacity="1" fill-rule="nonzero"/><path fill="#ffffff" d="M 14.90625 15.828125 C 14.882812 15.804688 14.851562 15.785156 14.820312 15.773438 C 14.757812 15.746094 14.6875 15.746094 14.625 15.773438 C 14.59375 15.785156 14.5625 15.804688 14.539062 15.828125 C 14.492188 15.878906 14.464844 15.941406 14.464844 16.011719 C 14.464844 16.082031 14.492188 16.148438 14.539062 16.195312 C 14.585938 16.242188 14.65625 16.269531 14.722656 16.269531 C 14.789062 16.269531 14.855469 16.242188 14.90625 16.195312 C 14.953125 16.148438 14.980469 16.082031 14.980469 16.011719 C 14.980469 15.980469 14.972656 15.945312 14.960938 15.914062 C 14.945312 15.882812 14.929688 15.851562 14.90625 15.828125 Z M 14.90625 15.828125 " fill-opacity="1" fill-rule="nonzero"/><path fill="#ffffff" d="M 16.511719 14.917969 C 16.414062 14.882812 16.300781 14.90625 16.226562 14.976562 C 16.179688 15.023438 16.152344 15.089844 16.152344 15.15625 C 16.152344 15.226562 16.179688 15.292969 16.226562 15.339844 C 16.273438 15.390625 16.34375 15.414062 16.410156 15.414062 C 16.445312 15.414062 16.480469 15.410156 16.511719 15.398438 C 16.523438 15.390625 16.539062 15.382812 16.554688 15.375 C 16.570312 15.363281 16.582031 15.355469 16.59375 15.339844 C 16.617188 15.316406 16.636719 15.289062 16.648438 15.257812 C 16.664062 15.226562 16.671875 15.191406 16.671875 15.15625 C 16.671875 15.089844 16.640625 15.023438 16.59375 14.976562 C 16.582031 14.964844 16.570312 14.953125 16.554688 14.941406 C 16.539062 14.933594 16.523438 14.925781 16.511719 14.917969 Z M 16.511719 14.917969 " fill-opacity="1" fill-rule="nonzero"/><path fill="#ffffff" d="M 14.90625 13.746094 C 14.882812 13.722656 14.851562 13.707031 14.820312 13.691406 C 14.757812 13.667969 14.6875 13.667969 14.625 13.691406 C 14.59375 13.707031 14.5625 13.722656 14.539062 13.746094 C 14.492188 13.796875 14.464844 13.863281 14.464844 13.929688 C 14.464844 13.996094 14.492188 14.066406 14.539062 14.113281 C 14.585938 14.160156 14.65625 14.1875 14.722656 14.1875 C 14.789062 14.1875 14.855469 14.160156 14.90625 14.113281 C 14.929688 14.085938 14.945312 14.0625 14.960938 14.027344 C 14.972656 13.996094 14.980469 13.964844 14.980469 13.929688 C 14.980469 13.863281 14.953125 13.796875 14.90625 13.746094 Z M 14.90625 13.746094 " fill-opacity="1" fill-rule="nonzero"/><path fill="#ffffff" d="M 17.652344 16.203125 C 17.640625 16.195312 17.625 16.1875 17.609375 16.179688 C 17.59375 16.175781 17.578125 16.171875 17.5625 16.167969 C 17.511719 16.15625 17.457031 16.164062 17.410156 16.179688 C 17.378906 16.195312 17.351562 16.214844 17.328125 16.238281 C 17.304688 16.261719 17.285156 16.289062 17.273438 16.320312 C 17.257812 16.355469 17.25 16.386719 17.25 16.421875 C 17.25 16.488281 17.28125 16.554688 17.328125 16.601562 C 17.351562 16.628906 17.378906 16.644531 17.410156 16.660156 C 17.441406 16.671875 17.476562 16.679688 17.511719 16.679688 C 17.527344 16.679688 17.542969 16.675781 17.5625 16.675781 C 17.578125 16.667969 17.59375 16.667969 17.609375 16.660156 C 17.625 16.652344 17.640625 16.644531 17.652344 16.636719 C 17.667969 16.625 17.679688 16.613281 17.691406 16.601562 C 17.738281 16.554688 17.769531 16.488281 17.769531 16.421875 C 17.769531 16.386719 17.761719 16.355469 17.746094 16.320312 C 17.734375 16.289062 17.714844 16.261719 17.691406 16.238281 C 17.679688 16.226562 17.667969 16.214844 17.652344 16.203125 Z M 17.652344 16.203125 " fill-opacity="1" fill-rule="nonzero"/><path fill="#ffffff" d="M 19.308594 5.683594 C 19.296875 5.652344 19.273438 5.621094 19.25 5.597656 C 19.15625 5.503906 18.984375 5.503906 18.886719 5.597656 C 18.863281 5.621094 18.84375 5.652344 18.832031 5.683594 C 18.816406 5.714844 18.8125 5.746094 18.8125 5.78125 C 18.8125 5.851562 18.839844 5.917969 18.886719 5.964844 C 18.933594 6.011719 19 6.039062 19.070312 6.039062 C 19.085938 6.039062 19.105469 6.039062 19.121094 6.035156 C 19.136719 6.03125 19.152344 6.027344 19.167969 6.019531 C 19.183594 6.011719 19.199219 6.003906 19.210938 5.996094 C 19.226562 5.988281 19.242188 5.976562 19.25 5.964844 C 19.300781 5.917969 19.328125 5.851562 19.328125 5.78125 C 19.328125 5.746094 19.320312 5.714844 19.308594 5.683594 Z M 19.308594 5.683594 " fill-opacity="1" fill-rule="nonzero"/><path fill="#ffffff" d="M 8.15625 21.753906 C 8.171875 21.753906 8.1875 21.753906 8.203125 21.746094 C 8.339844 21.722656 8.4375 21.589844 8.410156 21.449219 C 8.359375 21.148438 8.332031 20.847656 8.324219 20.542969 L 9.410156 20.542969 C 9.550781 20.542969 9.667969 20.425781 9.667969 20.285156 C 9.667969 20.140625 9.550781 20.027344 9.410156 20.027344 L 8.066406 20.027344 C 7.925781 20.027344 7.808594 20.140625 7.808594 20.285156 L 7.808594 20.460938 C 7.808594 20.820312 7.839844 21.183594 7.902344 21.535156 C 7.925781 21.664062 8.035156 21.753906 8.15625 21.753906 Z M 8.15625 21.753906 " fill-opacity="1" fill-rule="nonzero"/><path fill="#ffffff" d="M 12.21875 20.546875 L 12.996094 20.546875 C 13.136719 20.546875 13.253906 20.429688 13.253906 20.285156 C 13.253906 20.144531 13.136719 20.027344 12.996094 20.027344 L 12.21875 20.027344 C 12.078125 20.027344 11.960938 20.144531 11.960938 20.285156 C 11.960938 20.429688 12.074219 20.546875 12.21875 20.546875 Z M 12.21875 20.546875 " fill-opacity="1" fill-rule="nonzero"/><path fill="#ffffff" d="M 10.667969 20.546875 L 11.445312 20.546875 C 11.585938 20.546875 11.703125 20.429688 11.703125 20.285156 C 11.703125 20.144531 11.585938 20.027344 11.445312 20.027344 L 10.667969 20.027344 C 10.527344 20.027344 10.410156 20.144531 10.410156 20.285156 C 10.410156 20.429688 10.523438 20.546875 10.667969 20.546875 Z M 10.667969 20.546875 " fill-opacity="1" fill-rule="nonzero"/></svg>