<?xml version="1.0" encoding="utf-8"?>
<!-- Generator: Adobe Illustrator 27.0.0, SVG Export Plug-In . SVG Version: 6.00 Build 0)  -->
<svg version="1.1" id="Capa_1" xmlns="http://www.w3.org/2000/svg" xmlns:xlink="http://www.w3.org/1999/xlink" x="0px" y="0px"
	 viewBox="0 0 40 40" style="enable-background:new 0 0 40 40;" xml:space="preserve">
<style type="text/css">
	.st0{fill:#FFFFFF;}
</style>
<g>
	<g>
		<path class="st0" d="M33.3,22.1c0.1,0.5-0.1,0.9-0.6,1l-3.8,1l3.6,2.1c0.5,0.3,0.6,0.7,0.3,1.2c-0.3,0.5-0.7,0.6-1.2,0.3l-3.6-2.1
			l1,3.8c0.1,0.5-0.1,0.9-0.6,1c-0.1,0-0.2,0-0.2,0c-0.4,0-0.7-0.2-0.8-0.6L26,24.4l-5.2-3v6l4,3.9c0.4,0.4,0.4,0.8,0,1.2
			c-0.4,0.4-0.8,0.4-1.2,0l-2.8-2.8V34c0,0.5-0.3,0.8-0.8,0.8c-0.6,0-0.8-0.3-0.8-0.8v-4.2l-2.8,2.8c-0.4,0.4-0.8,0.4-1.2,0
			s-0.4-0.8,0-1.2l3.9-3.9v-6l-5.2,3l-1.5,5.4c-0.1,0.4-0.4,0.6-0.8,0.6c-0.1,0-0.1,0-0.2,0c-0.5-0.2-0.7-0.5-0.6-1l1-3.8l-3.6,2.1
			c-0.5,0.3-0.9,0.2-1.2-0.3c-0.3-0.5-0.2-0.9,0.3-1.2l3.6-2.1l-3.8-1c-0.5-0.2-0.7-0.5-0.6-1c0.2-0.5,0.5-0.7,1-0.6l5.4,1.5l5.2-3
			l-5.2-3l-5.4,1.5c-0.1,0-0.1,0-0.2,0c-0.5,0-0.8-0.2-0.8-0.7c-0.1-0.5,0.1-0.8,0.6-0.9l3.8-1l-3.6-2.1c-0.5-0.3-0.6-0.7-0.3-1.1
			s0.6-0.6,1.1-0.3l3.6,2.1l-1-3.8c-0.2-0.5,0-0.9,0.6-1c0.5-0.2,0.9,0.1,1,0.6l1.5,5.4l5.2,3v-6l-3.9-3.9c-0.4-0.4-0.4-0.8,0-1.2
			C15.6,7,16,7,16.4,7.4l2.8,2.8V6c0-0.5,0.3-0.8,0.8-0.8c0.5,0,0.8,0.3,0.8,0.8v4.2l2.8-2.8c0.4-0.4,0.8-0.4,1.2,0
			c0.4,0.4,0.4,0.8,0,1.2l-4,3.9v6l5.2-3l1.4-5.4c0.1-0.5,0.5-0.8,1-0.6c0.6,0.1,0.7,0.5,0.6,1l-1,3.8l3.6-2.1
			c0.5-0.3,0.9-0.2,1.1,0.3c0.3,0.5,0.2,0.8-0.3,1.1l-3.6,2.1l3.8,1c0.5,0.1,0.7,0.4,0.6,0.9c-0.1,0.5-0.4,0.7-0.8,0.7
			c-0.1,0-0.1,0-0.2,0L26.8,17l-5.2,3l5.2,3l5.4-1.5C32.8,21.4,33.1,21.6,33.3,22.1z"/>
	</g>
</g>
</svg>
