<svg xmlns="http://www.w3.org/2000/svg" xmlns:xlink="http://www.w3.org/1999/xlink" width="40" zoomAndPan="magnify" viewBox="0 0 30 30.000001" height="40" preserveAspectRatio="xMidYMid meet" version="1.0"><defs><clipPath id="ea89d845d0"><path d="M 3.386719 5.167969 L 26.613281 5.167969 L 26.613281 24.039062 L 3.386719 24.039062 Z M 3.386719 5.167969 " clip-rule="nonzero"/></clipPath></defs><g clip-path="url(#ea89d845d0)"><path fill="#ffffff" d="M 26.609375 10.160156 C 26.609375 9.765625 26.453125 9.414062 26.15625 9.148438 L 22.625 5.976562 C 22.1875 5.582031 21.632812 5.175781 20.855469 5.175781 C 20.074219 5.175781 19.519531 5.582031 19.082031 5.976562 L 15.554688 9.152344 C 15.257812 9.417969 15.101562 9.769531 15.101562 10.164062 L 15.105469 14.242188 L 12.761719 14.242188 C 13.1875 13.359375 13.480469 11.96875 13.148438 10.929688 C 12.917969 10.195312 12.402344 9.710938 11.664062 9.53125 C 11.570312 9.507812 11.46875 9.523438 11.386719 9.574219 C 11.304688 9.625 11.246094 9.707031 11.222656 9.800781 C 11.183594 9.976562 11.144531 10.140625 11.109375 10.292969 C 10.675781 12.214844 10.617188 12.460938 9.414062 13.246094 C 8.5625 13.804688 8.503906 13.875 7.976562 14.644531 C 7.921875 14.726562 7.859375 14.8125 7.792969 14.910156 C 7.582031 15.21875 7.304688 15.359375 6.90625 15.363281 L 6.878906 15.363281 L 6.878906 15.273438 C 6.878906 14.824219 6.507812 14.457031 6.058594 14.457031 L 4.207031 14.457031 C 3.753906 14.457031 3.386719 14.824219 3.386719 15.273438 L 3.386719 23.269531 C 3.386719 23.722656 3.753906 24.089844 4.207031 24.089844 L 6.058594 24.089844 C 6.507812 24.089844 6.878906 23.722656 6.878906 23.269531 L 6.878906 22.898438 C 7.039062 22.957031 7.203125 23.015625 7.371094 23.078125 C 8.195312 23.386719 9.132812 23.738281 10.519531 23.738281 L 15.335938 23.738281 C 15.542969 23.738281 15.738281 23.695312 15.914062 23.617188 C 16.089844 23.695312 16.277344 23.738281 16.472656 23.738281 L 25.25 23.734375 C 26.003906 23.734375 26.613281 23.121094 26.613281 22.371094 Z M 6.152344 23.269531 C 6.152344 23.320312 6.109375 23.363281 6.058594 23.363281 L 4.207031 23.363281 C 4.15625 23.363281 4.113281 23.320312 4.113281 23.269531 L 4.113281 15.273438 C 4.113281 15.222656 4.15625 15.179688 4.207031 15.179688 L 6.058594 15.179688 C 6.109375 15.179688 6.152344 15.222656 6.152344 15.273438 Z M 10.519531 23.011719 C 9.261719 23.011719 8.429688 22.699219 7.625 22.398438 C 7.382812 22.308594 7.136719 22.214844 6.878906 22.132812 L 6.878906 16.085938 L 6.914062 16.085938 C 7.546875 16.082031 8.042969 15.824219 8.390625 15.320312 C 8.457031 15.222656 8.519531 15.136719 8.574219 15.058594 C 9.0625 14.34375 9.0625 14.34375 9.8125 13.855469 C 11.261719 12.90625 11.367188 12.4375 11.820312 10.453125 C 11.824219 10.425781 11.832031 10.394531 11.839844 10.363281 C 12.136719 10.523438 12.34375 10.78125 12.457031 11.148438 C 12.800781 12.222656 12.261719 13.878906 11.839844 14.367188 C 11.746094 14.472656 11.722656 14.625 11.78125 14.753906 C 11.839844 14.882812 11.96875 14.96875 12.113281 14.96875 L 16.261719 14.96875 C 16.664062 14.96875 16.996094 15.296875 16.996094 15.699219 C 16.996094 16.105469 16.664062 16.433594 16.261719 16.433594 L 13.402344 16.433594 C 13.199219 16.433594 13.039062 16.597656 13.039062 16.796875 C 13.039062 16.996094 13.199219 17.160156 13.402344 17.160156 L 16.859375 17.160156 C 17.265625 17.160156 17.59375 17.488281 17.59375 17.894531 C 17.59375 18.296875 17.265625 18.625 16.859375 18.625 L 13.402344 18.625 C 13.199219 18.625 13.039062 18.789062 13.039062 18.988281 C 13.039062 19.1875 13.199219 19.351562 13.402344 19.351562 L 16.484375 19.351562 C 16.886719 19.351562 17.21875 19.679688 17.21875 20.085938 C 17.21875 20.488281 16.886719 20.816406 16.484375 20.816406 L 13.402344 20.816406 C 13.199219 20.816406 13.039062 20.980469 13.039062 21.179688 C 13.039062 21.382812 13.199219 21.542969 13.402344 21.542969 L 15.335938 21.542969 C 15.742188 21.542969 16.070312 21.875 16.070312 22.277344 C 16.070312 22.683594 15.742188 23.011719 15.335938 23.011719 Z M 25.25 23.007812 L 16.597656 23.011719 C 16.722656 22.796875 16.796875 22.542969 16.796875 22.277344 C 16.796875 22.007812 16.722656 21.757812 16.59375 21.539062 C 17.347656 21.484375 17.941406 20.851562 17.941406 20.085938 C 17.941406 19.730469 17.816406 19.402344 17.601562 19.148438 C 18.03125 18.894531 18.320312 18.425781 18.320312 17.894531 C 18.320312 17.296875 17.957031 16.78125 17.445312 16.554688 C 17.617188 16.316406 17.71875 16.019531 17.71875 15.699219 C 17.71875 14.894531 17.066406 14.242188 16.261719 14.242188 L 15.832031 14.242188 L 15.828125 10.164062 C 15.828125 9.972656 15.898438 9.820312 16.039062 9.691406 L 19.566406 6.515625 C 20.050781 6.082031 20.425781 5.902344 20.855469 5.902344 C 21.285156 5.902344 21.65625 6.082031 22.140625 6.515625 L 25.671875 9.6875 C 25.8125 9.816406 25.882812 9.972656 25.882812 10.160156 L 25.886719 22.371094 C 25.886719 22.722656 25.601562 23.007812 25.25 23.007812 Z M 23.035156 18.097656 C 23.085938 18.535156 22.96875 18.933594 22.695312 19.253906 C 22.371094 19.625 21.832031 19.878906 21.222656 19.949219 L 21.222656 20.410156 C 21.222656 20.609375 21.058594 20.773438 20.859375 20.773438 C 20.65625 20.773438 20.496094 20.609375 20.496094 20.410156 L 20.496094 19.941406 C 19.589844 19.816406 18.882812 19.246094 18.679688 18.425781 C 18.632812 18.230469 18.75 18.035156 18.945312 17.988281 C 19.140625 17.9375 19.335938 18.058594 19.382812 18.25 C 19.574219 19.003906 20.332031 19.257812 20.925781 19.242188 C 21.433594 19.230469 21.914062 19.046875 22.144531 18.777344 C 22.289062 18.613281 22.34375 18.417969 22.3125 18.183594 C 22.246094 17.625 21.78125 17.304688 20.804688 17.144531 C 19.25 16.890625 18.890625 16.101562 18.859375 15.488281 C 18.816406 14.632812 19.414062 13.917969 20.347656 13.707031 C 20.394531 13.695312 20.445312 13.6875 20.496094 13.679688 L 20.496094 13.207031 C 20.496094 13.003906 20.65625 12.84375 20.859375 12.84375 C 21.058594 12.84375 21.222656 13.003906 21.222656 13.207031 L 21.222656 13.675781 C 21.886719 13.773438 22.542969 14.160156 22.867188 14.9375 C 22.945312 15.125 22.859375 15.335938 22.675781 15.414062 C 22.488281 15.492188 22.277344 15.402344 22.199219 15.21875 C 21.882812 14.46875 21.121094 14.273438 20.507812 14.414062 C 20.042969 14.519531 19.554688 14.847656 19.585938 15.453125 C 19.59375 15.640625 19.621094 16.214844 20.921875 16.429688 C 21.402344 16.507812 22.871094 16.75 23.035156 18.097656 Z M 20.855469 10.042969 C 21.566406 10.042969 22.148438 9.464844 22.148438 8.75 C 22.148438 8.039062 21.566406 7.457031 20.855469 7.457031 C 20.140625 7.457031 19.5625 8.039062 19.5625 8.75 C 19.5625 9.464844 20.140625 10.042969 20.855469 10.042969 Z M 20.855469 8.183594 C 21.167969 8.183594 21.421875 8.4375 21.421875 8.75 C 21.421875 9.0625 21.167969 9.316406 20.855469 9.316406 C 20.542969 9.316406 20.289062 9.0625 20.289062 8.75 C 20.289062 8.4375 20.542969 8.183594 20.855469 8.183594 Z M 20.855469 8.183594 " fill-opacity="1" fill-rule="nonzero"/></g></svg>