<svg xmlns="http://www.w3.org/2000/svg" xmlns:xlink="http://www.w3.org/1999/xlink" width="40" zoomAndPan="magnify" viewBox="0 0 30 30.000001" height="40" preserveAspectRatio="xMidYMid meet" version="1.0"><defs><clipPath id="232044a8e8"><path d="M 3.089844 2.902344 L 26.316406 2.902344 L 26.316406 26 L 3.089844 26 Z M 3.089844 2.902344 " clip-rule="nonzero"/></clipPath></defs><g clip-path="url(#232044a8e8)"><path fill="#ffffff" d="M 15.617188 23.09375 C 15.5 22.722656 15.605469 22.535156 15.699219 22.425781 C 16.246094 21.765625 18.226562 21.777344 19.421875 21.871094 C 18.503906 22.644531 16.898438 23.804688 16.070312 23.589844 C 15.933594 23.550781 15.734375 23.460938 15.617188 23.09375 Z M 18.625 17.253906 C 18.992188 17.136719 19.179688 17.246094 19.289062 17.335938 C 19.949219 17.886719 19.9375 19.867188 19.839844 21.0625 C 19.066406 20.144531 17.910156 18.539062 18.125 17.710938 C 18.164062 17.570312 18.253906 17.375 18.625 17.253906 Z M 13.25 21.0625 C 13.167969 20.792969 13.242188 20.660156 13.304688 20.582031 C 13.675781 20.140625 15.027344 20.082031 16.078125 20.152344 C 15.265625 20.828125 14.136719 21.5625 13.574219 21.417969 C 13.476562 21.394531 13.335938 21.328125 13.25 21.0625 Z M 15.597656 16.507812 C 15.863281 16.421875 16 16.5 16.074219 16.5625 C 16.519531 16.933594 16.574219 18.28125 16.5 19.335938 C 15.828125 18.523438 15.09375 17.390625 15.238281 16.828125 C 15.265625 16.730469 15.332031 16.59375 15.597656 16.507812 Z M 8.378906 15.671875 C 8.507812 15.421875 8.65625 15.382812 8.757812 15.371094 C 9.335938 15.320312 10.328125 16.234375 11.019531 17.03125 C 9.96875 16.929688 8.648438 16.652344 8.355469 16.152344 C 8.304688 16.066406 8.253906 15.921875 8.378906 15.671875 Z M 25.761719 23.890625 C 24.132812 24.515625 20.914062 25.261719 14.851562 25.261719 C 8.785156 25.261719 5.570312 24.515625 3.9375 23.890625 C 3.757812 23.820312 3.644531 23.664062 3.640625 23.46875 C 3.632812 23.28125 3.726562 23.117188 3.894531 23.03125 L 5.632812 22.582031 C 5.726562 22.558594 5.796875 22.484375 5.820312 22.390625 C 5.839844 22.296875 5.808594 22.199219 5.738281 22.136719 C 5.714844 22.117188 3.542969 20.101562 5.839844 13.113281 C 7.085938 13.765625 9.023438 14.464844 11.898438 14.757812 C 11.789062 14.882812 11.730469 15.015625 11.699219 15.132812 C 11.519531 15.828125 12.109375 16.835938 12.660156 17.585938 L 11.765625 17.125 C 11.457031 16.730469 9.855469 14.761719 8.710938 14.859375 C 8.476562 14.878906 8.148438 14.996094 7.921875 15.433594 C 7.695312 15.875 7.792969 16.207031 7.910156 16.414062 C 8.492188 17.402344 11.027344 17.5625 11.53125 17.585938 L 12.421875 18.042969 C 11.496094 18.03125 10.332031 18.132812 9.871094 18.6875 C 9.71875 18.867188 9.570312 19.183594 9.71875 19.652344 C 9.871094 20.121094 10.175781 20.292969 10.402344 20.351562 C 10.492188 20.375 10.582031 20.386719 10.679688 20.386719 C 11.726562 20.386719 13.21875 19.128906 13.699219 18.699219 L 15.464844 19.609375 C 14.535156 19.597656 13.371094 19.699219 12.910156 20.253906 C 12.757812 20.433594 12.609375 20.75 12.761719 21.21875 C 12.910156 21.6875 13.214844 21.859375 13.445312 21.917969 C 13.53125 21.941406 13.625 21.949219 13.71875 21.949219 C 14.765625 21.949219 16.257812 20.695312 16.738281 20.265625 L 18.773438 21.3125 C 17.578125 21.269531 15.917969 21.355469 15.300781 22.09375 C 15.121094 22.308594 14.945312 22.6875 15.125 23.25 C 15.304688 23.8125 15.667969 24.015625 15.941406 24.085938 C 16.046875 24.117188 16.160156 24.128906 16.277344 24.128906 C 17.597656 24.128906 19.515625 22.492188 20.078125 21.984375 L 21.636719 22.789062 C 21.675781 22.808594 21.714844 22.820312 21.753906 22.820312 C 21.847656 22.820312 21.941406 22.769531 21.984375 22.679688 C 22.050781 22.550781 22 22.398438 21.875 22.332031 L 20.3125 21.527344 C 20.40625 20.707031 20.65625 17.804688 19.621094 16.941406 C 19.40625 16.761719 19.03125 16.582031 18.464844 16.761719 C 17.902344 16.945312 17.699219 17.304688 17.628906 17.578125 C 17.382812 18.507812 18.273438 19.90625 19.003906 20.851562 L 16.976562 19.808594 C 17.050781 19.109375 17.230469 16.855469 16.40625 16.167969 C 16.226562 16.015625 15.910156 15.867188 15.441406 16.015625 C 14.96875 16.164062 14.800781 16.46875 14.742188 16.699219 C 14.558594 17.394531 15.148438 18.402344 15.699219 19.152344 L 13.933594 18.242188 C 14.003906 17.617188 14.152344 15.761719 13.601562 14.878906 C 14.003906 14.894531 14.417969 14.902344 14.851562 14.902344 C 19.410156 14.902344 22.230469 13.96875 23.859375 13.113281 C 26.160156 20.101562 23.984375 22.117188 23.964844 22.136719 C 23.890625 22.199219 23.859375 22.296875 23.878906 22.390625 C 23.902344 22.484375 23.972656 22.558594 24.066406 22.582031 L 25.808594 23.03125 C 25.972656 23.117188 26.066406 23.28125 26.0625 23.46875 C 26.054688 23.664062 25.941406 23.820312 25.761719 23.890625 Z M 13.460938 17.769531 C 12.789062 16.957031 12.050781 15.824219 12.199219 15.261719 C 12.226562 15.164062 12.289062 15.027344 12.558594 14.941406 C 12.824219 14.855469 12.957031 14.933594 13.035156 14.996094 C 13.480469 15.367188 13.535156 16.71875 13.460938 17.769531 Z M 10.210938 19.496094 C 10.125 19.230469 10.199219 19.09375 10.265625 19.015625 C 10.636719 18.574219 11.984375 18.515625 13.039062 18.585938 C 12.222656 19.261719 11.09375 20 10.535156 19.851562 C 10.4375 19.828125 10.296875 19.761719 10.210938 19.496094 Z M 4.765625 11.066406 L 5.714844 9.039062 C 5.800781 8.855469 5.957031 8.714844 6.148438 8.648438 C 6.34375 8.585938 6.554688 8.597656 6.738281 8.695312 C 6.792969 8.722656 6.847656 8.75 6.910156 8.78125 C 8.25 9.441406 10.9375 10.449219 14.851562 10.449219 C 18.9375 10.449219 21.6875 9.351562 22.960938 8.695312 C 23.148438 8.597656 23.355469 8.582031 23.550781 8.652344 C 23.746094 8.714844 23.898438 8.855469 23.984375 9.039062 L 24.933594 11.066406 C 25.082031 11.386719 24.988281 11.769531 24.707031 11.980469 C 23.5 12.878906 20.617188 14.386719 14.851562 14.386719 C 9.082031 14.386719 6.199219 12.878906 4.992188 11.980469 C 4.710938 11.769531 4.617188 11.386719 4.765625 11.066406 Z M 14.851562 3.417969 C 18.132812 3.417969 21.464844 7.410156 22.277344 8.453125 C 20.902344 9.085938 18.402344 9.933594 14.851562 9.933594 C 11.300781 9.933594 8.796875 9.085938 7.421875 8.453125 C 8.238281 7.410156 11.566406 3.417969 14.851562 3.417969 Z M 26.007812 22.554688 C 25.992188 22.546875 25.976562 22.542969 25.960938 22.539062 L 24.59375 22.183594 C 25.183594 21.332031 26.285156 18.765625 24.320312 12.855469 C 24.59375 12.691406 24.824219 12.535156 25.015625 12.394531 C 25.492188 12.039062 25.65625 11.386719 25.402344 10.847656 L 24.453125 8.820312 C 24.304688 8.507812 24.046875 8.273438 23.71875 8.160156 C 23.398438 8.054688 23.058594 8.074219 22.753906 8.222656 C 22.027344 7.265625 18.511719 2.902344 14.851562 2.902344 C 11.1875 2.902344 7.671875 7.265625 6.945312 8.222656 C 6.644531 8.074219 6.300781 8.054688 5.980469 8.160156 C 5.65625 8.273438 5.394531 8.507812 5.246094 8.820312 L 4.296875 10.847656 C 4.046875 11.386719 4.207031 12.039062 4.683594 12.394531 C 4.875 12.535156 5.105469 12.691406 5.382812 12.855469 C 3.414062 18.765625 4.515625 21.332031 5.109375 22.183594 L 3.738281 22.539062 C 3.722656 22.542969 3.707031 22.546875 3.691406 22.554688 C 3.328125 22.726562 3.109375 23.082031 3.125 23.488281 C 3.136719 23.890625 3.378906 24.230469 3.753906 24.371094 C 5.425781 25.015625 8.707031 25.777344 14.851562 25.777344 C 20.992188 25.777344 24.273438 25.015625 25.945312 24.371094 C 26.320312 24.230469 26.5625 23.890625 26.578125 23.488281 C 26.589844 23.082031 26.371094 22.726562 26.007812 22.554688 " fill-opacity="1" fill-rule="nonzero"/></g><path fill="#ffffff" d="M 10.351562 7.65625 C 10.765625 7.65625 10.765625 7.011719 10.351562 7.011719 C 9.933594 7.011719 9.933594 7.65625 10.351562 7.65625 " fill-opacity="1" fill-rule="nonzero"/><path fill="#ffffff" d="M 12.085938 6.15625 C 12.5 6.15625 12.5 5.511719 12.085938 5.511719 C 11.667969 5.511719 11.667969 6.15625 12.085938 6.15625 " fill-opacity="1" fill-rule="nonzero"/><path fill="#ffffff" d="M 13.960938 5.03125 C 14.375 5.03125 14.375 4.386719 13.960938 4.386719 C 13.542969 4.386719 13.542969 5.03125 13.960938 5.03125 " fill-opacity="1" fill-rule="nonzero"/><path fill="#ffffff" d="M 14.101562 6.765625 C 14.515625 6.765625 14.515625 6.121094 14.101562 6.121094 C 13.683594 6.121094 13.683594 6.765625 14.101562 6.765625 " fill-opacity="1" fill-rule="nonzero"/><path fill="#ffffff" d="M 12.414062 7.84375 C 12.828125 7.84375 12.828125 7.199219 12.414062 7.199219 C 11.996094 7.199219 11.996094 7.84375 12.414062 7.84375 " fill-opacity="1" fill-rule="nonzero"/></svg>