<svg xmlns="http://www.w3.org/2000/svg" xmlns:xlink="http://www.w3.org/1999/xlink" width="40" zoomAndPan="magnify" viewBox="0 0 30 30.000001" height="40" preserveAspectRatio="xMidYMid meet" version="1.0"><defs><clipPath id="ace09c3806"><path d="M 3.609375 4.914062 L 26.109375 4.914062 L 26.109375 25.960938 L 3.609375 25.960938 Z M 3.609375 4.914062 " clip-rule="nonzero"/></clipPath></defs><g clip-path="url(#ace09c3806)"><path fill="#ffffff" d="M 17.339844 13.1875 C 16.847656 12.339844 15.972656 11.832031 14.996094 11.832031 C 14.015625 11.832031 13.140625 12.339844 12.652344 13.1875 L 7.527344 22.0625 C 7.035156 22.910156 7.035156 23.921875 7.527344 24.769531 C 8.015625 25.617188 8.890625 26.121094 9.871094 26.121094 L 20.121094 26.121094 C 21.097656 26.121094 21.972656 25.617188 22.464844 24.769531 C 22.953125 23.921875 22.953125 22.910156 22.464844 22.0625 Z M 21.828125 24.402344 C 21.472656 25.023438 20.832031 25.390625 20.121094 25.390625 L 9.871094 25.390625 C 9.15625 25.390625 8.515625 25.023438 8.160156 24.402344 C 7.804688 23.785156 7.804688 23.046875 8.160156 22.429688 L 13.285156 13.554688 C 13.640625 12.933594 14.28125 12.566406 14.996094 12.566406 C 15.707031 12.566406 16.347656 12.933594 16.703125 13.554688 L 21.828125 22.429688 C 22.1875 23.046875 22.1875 23.785156 21.828125 24.402344 Z M 14.996094 22.125 C 14.359375 22.125 13.84375 22.640625 13.84375 23.273438 C 13.84375 23.910156 14.359375 24.425781 14.996094 24.425781 C 15.628906 24.425781 16.144531 23.910156 16.144531 23.273438 C 16.144531 22.640625 15.628906 22.125 14.996094 22.125 Z M 14.996094 23.695312 C 14.761719 23.695312 14.574219 23.507812 14.574219 23.273438 C 14.574219 23.042969 14.761719 22.855469 14.996094 22.855469 C 15.226562 22.855469 15.414062 23.042969 15.414062 23.273438 C 15.414062 23.507812 15.226562 23.695312 14.996094 23.695312 Z M 14.996094 21.453125 C 15.523438 21.453125 15.953125 21.039062 15.972656 20.511719 L 16.128906 16.222656 C 16.136719 15.949219 16.042969 15.703125 15.855469 15.507812 C 15.664062 15.3125 15.421875 15.210938 15.148438 15.210938 L 14.839844 15.210938 C 14.566406 15.210938 14.324219 15.3125 14.136719 15.507812 C 13.945312 15.703125 13.851562 15.949219 13.863281 16.222656 L 14.015625 20.511719 C 14.035156 21.039062 14.464844 21.453125 14.996094 21.453125 Z M 14.664062 16.015625 C 14.714844 15.964844 14.765625 15.941406 14.839844 15.941406 L 15.148438 15.941406 C 15.222656 15.941406 15.277344 15.964844 15.328125 16.015625 C 15.378906 16.070312 15.398438 16.121094 15.394531 16.195312 L 15.242188 20.484375 C 15.238281 20.617188 15.128906 20.722656 14.996094 20.722656 C 14.859375 20.722656 14.753906 20.617188 14.746094 20.484375 L 14.59375 16.195312 C 14.589844 16.121094 14.609375 16.070312 14.664062 16.015625 Z M 26.289062 16.886719 C 26.203125 16.703125 26.027344 16.589844 25.824219 16.589844 L 25.230469 16.589844 L 25.230469 11.339844 C 25.230469 11.136719 25.066406 10.972656 24.867188 10.972656 L 22.804688 10.972656 C 22.601562 10.972656 22.4375 11.136719 22.4375 11.339844 L 22.4375 16.589844 L 21.84375 16.589844 C 21.644531 16.589844 21.464844 16.703125 21.382812 16.886719 C 21.296875 17.066406 21.324219 17.277344 21.457031 17.429688 L 23.445312 19.773438 C 23.542969 19.890625 23.683594 19.953125 23.835938 19.953125 C 23.984375 19.953125 24.128906 19.890625 24.222656 19.773438 C 24.226562 19.773438 24.226562 19.773438 24.226562 19.773438 L 26.214844 17.429688 C 26.34375 17.277344 26.375 17.066406 26.289062 16.886719 Z M 23.835938 19.101562 L 22.324219 17.320312 L 22.804688 17.320312 C 23.007812 17.320312 23.171875 17.15625 23.171875 16.957031 L 23.171875 11.703125 L 24.5 11.703125 L 24.5 16.957031 C 24.5 17.15625 24.664062 17.320312 24.867188 17.320312 L 25.347656 17.320312 Z M 8.609375 17.683594 C 8.523438 17.503906 8.347656 17.390625 8.144531 17.390625 L 7.550781 17.390625 L 7.550781 12.136719 C 7.550781 11.9375 7.386719 11.773438 7.183594 11.773438 L 5.125 11.773438 C 4.921875 11.773438 4.757812 11.9375 4.757812 12.136719 L 4.757812 17.390625 L 4.164062 17.390625 C 3.960938 17.390625 3.785156 17.503906 3.699219 17.683594 C 3.617188 17.867188 3.644531 18.078125 3.773438 18.230469 L 5.765625 20.574219 C 5.863281 20.6875 6.003906 20.753906 6.152344 20.753906 C 6.304688 20.753906 6.445312 20.6875 6.542969 20.574219 L 8.535156 18.230469 C 8.664062 18.078125 8.691406 17.867188 8.609375 17.683594 Z M 6.152344 19.902344 L 4.640625 18.121094 L 5.125 18.121094 C 5.324219 18.121094 5.488281 17.957031 5.488281 17.753906 L 5.488281 12.503906 L 6.820312 12.503906 L 6.820312 17.753906 C 6.820312 17.957031 6.984375 18.121094 7.183594 18.121094 L 7.667969 18.121094 Z M 10.898438 12.582031 C 10.992188 12.695312 11.136719 12.761719 11.285156 12.761719 C 11.4375 12.761719 11.578125 12.695312 11.675781 12.582031 L 13.664062 10.238281 C 13.796875 10.085938 13.824219 9.875 13.738281 9.691406 C 13.65625 9.511719 13.476562 9.398438 13.277344 9.398438 L 12.683594 9.398438 L 12.683594 5.28125 C 12.683594 5.078125 12.519531 4.914062 12.316406 4.914062 L 10.253906 4.914062 C 10.054688 4.914062 9.890625 5.078125 9.890625 5.28125 L 9.890625 9.398438 L 9.296875 9.398438 C 9.09375 9.398438 8.917969 9.511719 8.832031 9.691406 C 8.746094 9.875 8.777344 10.085938 8.90625 10.238281 Z M 10.253906 10.128906 C 10.457031 10.128906 10.621094 9.964844 10.621094 9.761719 L 10.621094 5.644531 L 11.949219 5.644531 L 11.949219 9.761719 C 11.949219 9.964844 12.113281 10.128906 12.316406 10.128906 L 12.796875 10.128906 L 11.285156 11.910156 L 9.773438 10.128906 Z M 19.347656 13.292969 C 19.445312 13.40625 19.585938 13.472656 19.738281 13.472656 C 19.886719 13.472656 20.027344 13.40625 20.125 13.292969 L 22.117188 10.949219 C 22.246094 10.792969 22.277344 10.585938 22.191406 10.402344 C 22.105469 10.21875 21.929688 10.105469 21.726562 10.105469 L 21.132812 10.105469 L 21.132812 5.988281 C 21.132812 5.789062 20.96875 5.625 20.769531 5.625 L 18.707031 5.625 C 18.503906 5.625 18.339844 5.789062 18.339844 5.988281 L 18.339844 10.105469 L 17.746094 10.105469 C 17.546875 10.105469 17.367188 10.21875 17.28125 10.402344 C 17.199219 10.585938 17.226562 10.792969 17.359375 10.949219 Z M 18.707031 10.839844 C 18.910156 10.839844 19.070312 10.675781 19.070312 10.472656 L 19.070312 6.355469 L 20.402344 6.355469 L 20.402344 10.472656 C 20.402344 10.675781 20.566406 10.839844 20.769531 10.839844 L 21.25 10.839844 L 19.738281 12.621094 L 18.226562 10.839844 Z M 18.707031 10.839844 " fill-opacity="1" fill-rule="nonzero"/></g></svg>