<svg xmlns="http://www.w3.org/2000/svg" xmlns:xlink="http://www.w3.org/1999/xlink" width="40" zoomAndPan="magnify" viewBox="0 0 30 30.000001" height="40" preserveAspectRatio="xMidYMid meet" version="1.0"><defs><clipPath id="928f0db772"><path d="M 11 2.902344 L 19 2.902344 L 19 10 L 11 10 Z M 11 2.902344 " clip-rule="nonzero"/></clipPath><clipPath id="6df99af478"><path d="M 4.277344 5 L 12 5 L 12 13 L 4.277344 13 Z M 4.277344 5 " clip-rule="nonzero"/></clipPath><clipPath id="fd954eac1f"><path d="M 7 10 L 23 10 L 23 26.128906 L 7 26.128906 Z M 7 10 " clip-rule="nonzero"/></clipPath></defs><g clip-path="url(#928f0db772)"><path fill="#ffffff" d="M 11.527344 6 L 13.277344 7.269531 L 12.609375 9.328125 C 12.554688 9.5 12.613281 9.6875 12.761719 9.792969 C 12.90625 9.898438 13.105469 9.898438 13.25 9.792969 L 15 8.519531 L 16.75 9.792969 C 16.820312 9.84375 16.90625 9.871094 16.992188 9.871094 C 17.078125 9.871094 17.164062 9.84375 17.238281 9.792969 C 17.382812 9.6875 17.445312 9.5 17.390625 9.328125 L 16.71875 7.269531 L 18.46875 6 C 18.617188 5.894531 18.675781 5.707031 18.621094 5.535156 C 18.566406 5.363281 18.40625 5.246094 18.226562 5.246094 L 16.0625 5.246094 L 15.394531 3.191406 C 15.339844 3.019531 15.179688 2.902344 15 2.902344 C 14.820312 2.902344 14.660156 3.019531 14.605469 3.191406 L 13.9375 5.246094 L 11.773438 5.246094 C 11.59375 5.246094 11.433594 5.363281 11.378906 5.535156 C 11.320312 5.707031 11.382812 5.894531 11.527344 6 Z M 14.238281 6.078125 C 14.417969 6.078125 14.578125 5.960938 14.632812 5.792969 L 15 4.664062 L 15.367188 5.792969 C 15.421875 5.960938 15.582031 6.078125 15.761719 6.078125 L 16.945312 6.078125 L 15.988281 6.777344 C 15.839844 6.882812 15.78125 7.070312 15.835938 7.242188 L 16.203125 8.367188 L 15.242188 7.671875 C 15.171875 7.617188 15.085938 7.589844 15 7.589844 C 14.914062 7.589844 14.828125 7.617188 14.753906 7.671875 L 13.796875 8.367188 L 14.164062 7.242188 C 14.21875 7.070312 14.15625 6.882812 14.011719 6.777344 L 13.050781 6.078125 Z M 14.238281 6.078125 " fill-opacity="1" fill-rule="nonzero"/></g><path fill="#ffffff" d="M 18.414062 8.175781 C 18.359375 8.34375 18.421875 8.535156 18.566406 8.640625 L 20.316406 9.910156 L 19.648438 11.96875 C 19.59375 12.140625 19.652344 12.328125 19.800781 12.433594 C 19.945312 12.539062 20.140625 12.539062 20.289062 12.433594 L 22.039062 11.160156 L 23.789062 12.433594 C 23.859375 12.484375 23.945312 12.511719 24.03125 12.511719 C 24.117188 12.511719 24.203125 12.484375 24.277344 12.433594 C 24.421875 12.328125 24.484375 12.140625 24.425781 11.96875 L 23.757812 9.910156 L 25.507812 8.640625 C 25.65625 8.535156 25.714844 8.34375 25.660156 8.175781 C 25.605469 8.003906 25.445312 7.886719 25.265625 7.886719 L 23.101562 7.886719 L 22.433594 5.828125 C 22.378906 5.660156 22.21875 5.542969 22.039062 5.542969 C 21.859375 5.542969 21.699219 5.660156 21.640625 5.828125 L 20.972656 7.886719 L 18.8125 7.886719 C 18.628906 7.886719 18.472656 8.003906 18.414062 8.175781 Z M 21.277344 8.71875 C 21.457031 8.71875 21.617188 8.601562 21.671875 8.429688 L 22.039062 7.304688 L 22.402344 8.429688 C 22.460938 8.601562 22.621094 8.71875 22.800781 8.71875 L 23.984375 8.71875 L 23.027344 9.414062 C 22.878906 9.519531 22.820312 9.707031 22.875 9.878906 L 23.242188 11.007812 L 22.28125 10.3125 C 22.210938 10.257812 22.125 10.230469 22.039062 10.230469 C 21.953125 10.230469 21.867188 10.257812 21.792969 10.3125 L 20.835938 11.007812 L 21.199219 9.878906 C 21.257812 9.707031 21.195312 9.519531 21.050781 9.414062 L 20.089844 8.71875 Z M 21.277344 8.71875 " fill-opacity="1" fill-rule="nonzero"/><g clip-path="url(#6df99af478)"><path fill="#ffffff" d="M 9.710938 12.433594 C 9.785156 12.484375 9.871094 12.511719 9.957031 12.511719 C 10.039062 12.511719 10.125 12.484375 10.199219 12.433594 C 10.34375 12.328125 10.40625 12.140625 10.351562 11.96875 L 9.683594 9.910156 L 11.433594 8.640625 C 11.578125 8.535156 11.640625 8.34375 11.582031 8.175781 C 11.527344 8.003906 11.367188 7.886719 11.1875 7.886719 L 9.023438 7.886719 L 8.355469 5.828125 C 8.300781 5.660156 8.140625 5.542969 7.960938 5.542969 C 7.78125 5.542969 7.621094 5.660156 7.566406 5.828125 L 6.898438 7.886719 L 4.734375 7.886719 C 4.554688 7.886719 4.394531 8.003906 4.339844 8.175781 C 4.28125 8.34375 4.34375 8.535156 4.488281 8.640625 L 6.238281 9.910156 L 5.570312 11.96875 C 5.515625 12.140625 5.578125 12.328125 5.722656 12.433594 C 5.867188 12.539062 6.066406 12.539062 6.210938 12.433594 L 7.960938 11.160156 Z M 6.757812 11.007812 L 7.125 9.878906 C 7.179688 9.707031 7.117188 9.519531 6.972656 9.414062 L 6.015625 8.71875 L 7.199219 8.71875 C 7.378906 8.71875 7.539062 8.601562 7.59375 8.429688 L 7.960938 7.304688 L 8.328125 8.429688 C 8.382812 8.601562 8.542969 8.71875 8.722656 8.71875 L 9.90625 8.71875 L 8.949219 9.414062 C 8.804688 9.519531 8.742188 9.707031 8.796875 9.878906 L 9.164062 11.007812 L 8.207031 10.3125 C 8.132812 10.257812 8.046875 10.230469 7.960938 10.230469 C 7.875 10.230469 7.789062 10.257812 7.714844 10.3125 Z M 6.757812 11.007812 " fill-opacity="1" fill-rule="nonzero"/></g><g clip-path="url(#fd954eac1f)"><path fill="#ffffff" d="M 21.164062 20.460938 C 21.0625 20.3125 20.953125 20.171875 20.84375 20.03125 L 20.066406 19.203125 C 19.933594 19.082031 19.800781 18.964844 19.660156 18.855469 C 19.222656 18.507812 18.746094 18.210938 18.242188 17.96875 C 18.546875 17.617188 18.792969 17.226562 18.976562 16.796875 C 19.203125 16.261719 19.316406 15.691406 19.316406 15.101562 C 19.316406 14.511719 19.203125 13.941406 18.976562 13.40625 C 18.753906 12.886719 18.441406 12.417969 18.042969 12.019531 C 17.640625 11.617188 17.175781 11.304688 16.65625 11.085938 C 16.117188 10.855469 15.546875 10.742188 14.957031 10.742188 C 14.371094 10.742188 13.796875 10.855469 13.261719 11.085938 C 12.742188 11.304688 12.277344 11.617188 11.875 12.019531 C 11.476562 12.417969 11.160156 12.886719 10.941406 13.40625 C 10.714844 13.941406 10.597656 14.511719 10.597656 15.101562 C 10.597656 15.691406 10.714844 16.261719 10.941406 16.796875 C 11.128906 17.238281 11.382812 17.640625 11.699219 17.996094 C 11.214844 18.234375 10.757812 18.519531 10.335938 18.855469 C 9.761719 19.316406 9.253906 19.855469 8.835938 20.460938 C 7.964844 21.714844 7.503906 23.191406 7.503906 24.726562 L 7.503906 24.738281 C 7.503906 25.5625 8.175781 26.230469 8.996094 26.230469 L 21 26.230469 C 21.824219 26.230469 22.496094 25.5625 22.496094 24.738281 L 22.496094 24.726562 C 22.496094 24.3125 22.460938 23.90625 22.394531 23.503906 L 22.222656 22.710938 C 22.132812 22.390625 22.019531 22.074219 21.890625 21.769531 L 21.472656 20.941406 C 21.375 20.777344 21.273438 20.617188 21.164062 20.460938 Z M 11.511719 15.101562 C 11.511719 14.179688 11.871094 13.316406 12.523438 12.664062 C 13.171875 12.015625 14.039062 11.65625 14.957031 11.65625 C 15.878906 11.65625 16.742188 12.015625 17.394531 12.664062 C 18.046875 13.316406 18.402344 14.179688 18.402344 15.101562 C 18.402344 16.023438 18.046875 16.886719 17.394531 17.539062 C 16.742188 18.1875 15.878906 18.546875 14.957031 18.546875 C 14.039062 18.546875 13.171875 18.1875 12.523438 17.539062 C 11.871094 16.886719 11.511719 16.023438 11.511719 15.101562 Z M 21.582031 24.738281 C 21.582031 25.054688 21.320312 25.316406 21 25.316406 L 8.996094 25.316406 C 8.679688 25.316406 8.417969 25.054688 8.417969 24.738281 L 8.417969 24.726562 C 8.417969 23.378906 8.824219 22.085938 9.585938 20.980469 C 9.957031 20.449219 10.398438 19.976562 10.90625 19.574219 C 11.375 19.199219 11.890625 18.894531 12.441406 18.660156 C 12.695312 18.84375 12.96875 18.996094 13.261719 19.117188 C 13.796875 19.347656 14.371094 19.460938 14.957031 19.460938 C 15.546875 19.460938 16.117188 19.347656 16.65625 19.117188 C 16.957031 18.992188 17.242188 18.832031 17.507812 18.640625 C 18.074219 18.875 18.609375 19.1875 19.089844 19.574219 C 19.597656 19.976562 20.042969 20.449219 20.410156 20.980469 C 21.175781 22.082031 21.582031 23.378906 21.582031 24.726562 Z M 21.582031 24.738281 " fill-opacity="1" fill-rule="nonzero"/></g><path fill="#ffffff" d="M 17.046875 20.558594 C 16.773438 20.285156 16.410156 20.132812 16.023438 20.132812 C 15.636719 20.132812 15.273438 20.28125 15 20.554688 C 14.726562 20.28125 14.363281 20.132812 13.976562 20.132812 C 13.589844 20.132812 13.222656 20.285156 12.949219 20.558594 C 12.675781 20.832031 12.523438 21.195312 12.523438 21.585938 C 12.523438 21.972656 12.675781 22.335938 12.949219 22.613281 L 14.710938 24.375 C 14.789062 24.449219 14.890625 24.492188 15 24.492188 C 15.105469 24.492188 15.210938 24.449219 15.285156 24.375 L 17.050781 22.613281 C 17.324219 22.335938 17.472656 21.972656 17.472656 21.585938 C 17.472656 21.195312 17.324219 20.832031 17.046875 20.558594 Z M 16.664062 21.585938 C 16.664062 21.757812 16.597656 21.917969 16.476562 22.039062 L 15 23.515625 L 13.523438 22.039062 C 13.402344 21.917969 13.335938 21.757812 13.335938 21.585938 C 13.335938 21.414062 13.402344 21.253906 13.523438 21.132812 C 13.644531 21.011719 13.804688 20.945312 13.976562 20.945312 C 14.148438 20.945312 14.308594 21.011719 14.429688 21.132812 L 14.714844 21.414062 C 14.789062 21.488281 14.894531 21.53125 15 21.53125 C 15.105469 21.53125 15.210938 21.488281 15.285156 21.414062 L 15.570312 21.132812 C 15.691406 21.011719 15.851562 20.945312 16.023438 20.945312 C 16.195312 20.945312 16.355469 21.011719 16.476562 21.132812 C 16.597656 21.253906 16.664062 21.414062 16.664062 21.585938 Z M 16.664062 21.585938 " fill-opacity="1" fill-rule="nonzero"/></svg>