<svg xmlns="http://www.w3.org/2000/svg" xmlns:xlink="http://www.w3.org/1999/xlink" width="40" zoomAndPan="magnify" viewBox="0 0 30 30.000001" height="40" preserveAspectRatio="xMidYMid meet" version="1.0"><defs><clipPath id="327d45849c"><path d="M 4 17 L 26.347656 17 L 26.347656 26.242188 L 4 26.242188 Z M 4 17 " clip-rule="nonzero"/></clipPath><clipPath id="e100ec2a16"><path d="M 3.847656 3.019531 L 21 3.019531 L 21 13 L 3.847656 13 Z M 3.847656 3.019531 " clip-rule="nonzero"/></clipPath></defs><path fill="#ffffff" d="M 7.058594 20.777344 C 6.902344 20.519531 6.765625 20.246094 6.652344 19.972656 C 6.4375 19.472656 7.199219 19.148438 7.410156 19.652344 C 7.511719 19.890625 7.632812 20.125 7.769531 20.355469 C 8.050781 20.828125 7.335938 21.242188 7.058594 20.777344 Z M 7.058594 20.777344 " fill-opacity="1" fill-rule="nonzero"/><path fill="#ffffff" d="M 13.238281 24.796875 C 11.101562 24.390625 9.207031 23.371094 7.910156 21.929688 C 7.542969 21.523438 8.160156 20.972656 8.523438 21.378906 C 9.703125 22.683594 11.433594 23.613281 13.394531 23.984375 C 13.921875 24.085938 13.785156 24.898438 13.238281 24.796875 Z M 13.238281 24.796875 " fill-opacity="1" fill-rule="nonzero"/><g clip-path="url(#327d45849c)"><path fill="#ffffff" d="M 26.066406 17.152344 L 4.644531 17.152344 C 4.097656 17.152344 4.097656 17.976562 4.644531 17.976562 L 5.058594 17.976562 C 5.320312 22.492188 9.839844 26.105469 15.359375 26.105469 C 20.878906 26.105469 25.398438 22.496094 25.660156 17.976562 L 26.066406 17.976562 C 26.613281 17.976562 26.613281 17.152344 26.066406 17.152344 Z M 15.359375 25.277344 C 10.300781 25.277344 6.152344 22.039062 5.886719 17.976562 L 24.832031 17.976562 C 24.566406 22.039062 20.417969 25.277344 15.359375 25.277344 Z M 15.359375 25.277344 " fill-opacity="1" fill-rule="nonzero"/></g><g clip-path="url(#e100ec2a16)"><path fill="#ffffff" d="M 20.183594 8.378906 C 19.648438 6.632812 19.628906 6.269531 19.09375 5.875 C 16.441406 3.910156 16.09375 3.492188 15.019531 3.492188 C 11.4375 3.355469 9.691406 3.40625 7.003906 3.488281 C 6.867188 3.222656 6.59375 3.035156 6.269531 3.035156 L 4.675781 3.035156 C 4.21875 3.035156 3.847656 3.40625 3.847656 3.863281 L 3.847656 8.964844 C 3.847656 9.421875 4.21875 9.792969 4.675781 9.792969 L 6.269531 9.792969 C 6.585938 9.792969 6.859375 9.613281 7 9.351562 L 7.898438 9.351562 C 8.226562 9.351562 8.261719 9.515625 8.84375 10.011719 C 10.089844 11.0625 11.203125 11.371094 12.28125 11.667969 C 12.515625 11.734375 12.746094 11.796875 12.976562 11.871094 C 13.207031 11.941406 13.433594 12.03125 13.695312 12.132812 C 14.277344 12.355469 15.003906 12.632812 16.183594 12.921875 C 16.667969 13.039062 17.324219 12.738281 17.230469 11.832031 C 17.394531 11.839844 17.582031 11.785156 17.71875 11.667969 C 19.597656 10.121094 20.566406 9.636719 20.183594 8.378906 Z M 4.675781 8.964844 L 4.675781 3.863281 L 6.269531 3.863281 L 6.269531 8.964844 Z M 16.378906 10.113281 C 16.015625 9.832031 15.398438 9.664062 14.878906 9.371094 C 14.609375 9.222656 13.871094 8.804688 13.859375 8.496094 C 13.859375 8.414062 13.890625 8.332031 13.945312 8.269531 L 14.929688 7.265625 C 14.953125 7.242188 14.980469 7.230469 15.007812 7.238281 C 15.328125 7.296875 15.894531 7.492188 16.453125 7.738281 C 17.011719 7.984375 17.324219 8.445312 17.476562 8.738281 C 16.902344 9.023438 16.5 9.53125 16.378906 10.113281 Z M 17.289062 10.953125 C 16.957031 10.308594 17.347656 9.644531 17.996094 9.414062 C 18.292969 9.304688 18.457031 8.972656 18.339844 8.660156 C 18.207031 8.300781 17.785156 7.421875 16.785156 6.984375 C 16.152344 6.703125 15.542969 6.496094 15.15625 6.425781 C 14.859375 6.371094 14.554688 6.46875 14.339844 6.6875 L 13.355469 7.695312 C 13.144531 7.914062 13.023438 8.214844 13.035156 8.523438 C 13.058594 9.257812 13.859375 9.753906 14.472656 10.09375 C 15 10.386719 15.757812 10.625 16 10.886719 C 16.253906 11.15625 16.394531 11.5625 16.421875 12.085938 L 16.378906 12.121094 C 15.246094 11.84375 14.550781 11.574219 13.992188 11.359375 C 13.710938 11.253906 13.464844 11.15625 13.222656 11.082031 C 12.980469 11.007812 12.742188 10.941406 12.5 10.875 C 11.460938 10.585938 10.480469 10.316406 9.375 9.378906 C 8.847656 8.933594 8.601562 8.527344 7.898438 8.527344 L 7.09375 8.527344 L 7.09375 4.3125 C 10.460938 4.214844 11.238281 4.195312 15 4.316406 C 15.773438 4.316406 15.929688 4.5625 18.601562 6.539062 C 18.910156 6.765625 18.90625 7.039062 19.390625 8.617188 C 19.582031 9.238281 19.1875 9.390625 17.289062 10.953125 Z M 17.289062 10.953125 " fill-opacity="1" fill-rule="nonzero"/></g><path fill="#ffffff" d="M 18.175781 13.363281 C 18.175781 13.589844 17.988281 13.777344 17.761719 13.777344 C 17.535156 13.777344 17.347656 13.589844 17.347656 13.363281 C 17.347656 13.132812 17.535156 12.949219 17.761719 12.949219 C 17.988281 12.949219 18.175781 13.132812 18.175781 13.363281 Z M 18.175781 13.363281 " fill-opacity="1" fill-rule="nonzero"/><path fill="#ffffff" d="M 16.675781 14.578125 C 16.675781 14.804688 16.492188 14.992188 16.265625 14.992188 C 16.035156 14.992188 15.851562 14.804688 15.851562 14.578125 C 15.851562 14.347656 16.035156 14.164062 16.265625 14.164062 C 16.492188 14.164062 16.675781 14.347656 16.675781 14.578125 Z M 16.675781 14.578125 " fill-opacity="1" fill-rule="nonzero"/><path fill="#ffffff" d="M 19.105469 15.015625 C 19.105469 15.246094 18.917969 15.429688 18.691406 15.429688 C 18.464844 15.429688 18.277344 15.246094 18.277344 15.015625 C 18.277344 14.789062 18.464844 14.601562 18.691406 14.601562 C 18.917969 14.601562 19.105469 14.789062 19.105469 15.015625 Z M 19.105469 15.015625 " fill-opacity="1" fill-rule="nonzero"/><path fill="#ffffff" d="M 17.761719 16.253906 C 17.761719 16.484375 17.578125 16.667969 17.347656 16.667969 C 17.121094 16.667969 16.933594 16.484375 16.933594 16.253906 C 16.933594 16.027344 17.121094 15.839844 17.347656 15.839844 C 17.578125 15.84375 17.761719 16.027344 17.761719 16.253906 Z M 17.761719 16.253906 " fill-opacity="1" fill-rule="nonzero"/></svg>