<svg xmlns="http://www.w3.org/2000/svg" xmlns:xlink="http://www.w3.org/1999/xlink" width="40" zoomAndPan="magnify" viewBox="0 0 30 30.000001" height="40" preserveAspectRatio="xMidYMid meet" version="1.0"><defs><clipPath id="5eaa435925"><path d="M 10 7.980469 L 18 7.980469 L 18 21.042969 L 10 21.042969 Z M 10 7.980469 " clip-rule="nonzero"/></clipPath><clipPath id="4b5805483b"><path d="M 3.386719 7.980469 L 11 7.980469 L 11 17 L 3.386719 17 Z M 3.386719 7.980469 " clip-rule="nonzero"/></clipPath><clipPath id="e1d39ec0a3"><path d="M 17 7.980469 L 24.433594 7.980469 L 24.433594 17 L 17 17 Z M 17 7.980469 " clip-rule="nonzero"/></clipPath></defs><g clip-path="url(#5eaa435925)"><path fill="#ffffff" d="M 14.636719 20.71875 L 17.070312 18.609375 C 17.515625 18.242188 17.558594 17.59375 17.191406 17.148438 C 16.828125 16.703125 16.136719 16.660156 15.691406 17.027344 L 14.960938 17.675781 L 14.960938 9.035156 C 14.960938 8.464844 14.472656 7.980469 13.90625 7.980469 C 13.335938 7.980469 12.851562 8.464844 12.851562 9.035156 L 12.851562 17.675781 L 12.121094 17.027344 C 11.675781 16.660156 10.984375 16.703125 10.621094 17.148438 C 10.253906 17.59375 10.292969 18.242188 10.742188 18.609375 L 13.175781 20.71875 C 13.335938 20.921875 13.621094 21.042969 13.90625 21.042969 C 14.191406 21.042969 14.472656 20.921875 14.636719 20.71875 Z M 14.636719 20.71875 " fill-opacity="1" fill-rule="evenodd"/></g><g clip-path="url(#4b5805483b)"><path fill="#ffffff" d="M 7.820312 15.769531 L 10.214844 13.660156 C 10.660156 13.253906 10.699219 12.605469 10.335938 12.15625 C 9.96875 11.753906 9.28125 11.671875 8.875 12.078125 L 8.105469 12.726562 L 8.105469 9.035156 C 8.105469 8.464844 7.617188 7.980469 7.046875 7.980469 C 6.480469 7.980469 5.992188 8.464844 5.992188 9.035156 L 5.992188 12.726562 L 5.261719 12.078125 C 4.816406 11.671875 4.167969 11.753906 3.761719 12.15625 C 3.398438 12.605469 3.4375 13.253906 3.882812 13.660156 L 6.320312 15.769531 C 6.480469 15.929688 6.765625 16.054688 7.046875 16.054688 C 7.332031 16.054688 7.617188 15.929688 7.820312 15.769531 Z M 7.820312 15.769531 " fill-opacity="1" fill-rule="evenodd"/></g><g clip-path="url(#e1d39ec0a3)"><path fill="#ffffff" d="M 21.492188 15.769531 L 23.925781 13.660156 C 24.375 13.253906 24.414062 12.605469 24.050781 12.15625 C 23.644531 11.753906 22.992188 11.671875 22.546875 12.078125 L 21.816406 12.726562 L 21.816406 9.035156 C 21.816406 8.464844 21.332031 7.980469 20.761719 7.980469 C 20.195312 7.980469 19.707031 8.464844 19.707031 9.035156 L 19.707031 12.726562 L 18.9375 12.078125 C 18.53125 11.671875 17.839844 11.753906 17.476562 12.15625 C 17.109375 12.605469 17.152344 13.253906 17.597656 13.660156 L 19.992188 15.769531 C 20.195312 15.929688 20.476562 16.054688 20.761719 16.054688 C 21.046875 16.054688 21.332031 15.929688 21.492188 15.769531 Z M 21.492188 15.769531 " fill-opacity="1" fill-rule="evenodd"/></g><path fill="#d9d9d9" d="M 16.746094 18.242188 C 16.828125 18.164062 16.867188 18.042969 16.785156 17.960938 C 16.707031 17.878906 16.582031 17.878906 16.503906 17.917969 L 15 19.21875 L 14.066406 20.027344 C 13.988281 20.109375 13.945312 20.230469 14.027344 20.3125 C 14.109375 20.433594 14.230469 20.433594 14.3125 20.355469 L 15.285156 19.542969 Z M 13.335938 11.710938 C 13.335938 11.832031 13.460938 11.914062 13.539062 11.914062 C 13.664062 11.914062 13.742188 11.832031 13.742188 11.710938 L 13.742188 9.035156 C 13.742188 8.914062 13.664062 8.832031 13.539062 8.832031 C 13.460938 8.832031 13.335938 8.914062 13.335938 9.035156 Z M 13.335938 11.710938 " fill-opacity="1" fill-rule="evenodd"/><path fill="#d9d9d9" d="M 22.710938 14.023438 C 22.792969 13.984375 22.832031 13.820312 22.75 13.742188 C 22.667969 13.660156 22.546875 13.660156 22.464844 13.742188 L 20.925781 15.078125 C 20.84375 15.160156 20.804688 15.28125 20.882812 15.363281 C 20.964844 15.445312 21.085938 15.445312 21.167969 15.402344 Z M 22.710938 14.023438 " fill-opacity="1" fill-rule="evenodd"/><path fill="#d9d9d9" d="M 11.753906 15.6875 C 11.753906 15.808594 11.835938 15.890625 11.957031 15.890625 C 12.078125 15.890625 12.160156 15.808594 12.160156 15.6875 L 12.160156 11.710938 C 12.160156 11.589844 12.078125 11.507812 11.957031 11.507812 C 11.835938 11.507812 11.753906 11.589844 11.753906 11.710938 Z M 11.753906 15.6875 " fill-opacity="1" fill-rule="evenodd"/><path fill="#d9d9d9" d="M 11.753906 11.0625 C 11.753906 11.183594 11.835938 11.265625 11.957031 11.265625 C 12.078125 11.265625 12.160156 11.183594 12.160156 11.0625 L 12.160156 10.089844 C 12.160156 9.96875 12.078125 9.84375 11.957031 9.84375 C 11.835938 9.84375 11.753906 9.96875 11.753906 10.089844 Z M 11.753906 11.0625 " fill-opacity="1" fill-rule="evenodd"/><path fill="#d9d9d9" d="M 16.054688 10.089844 C 16.054688 9.96875 15.976562 9.84375 15.851562 9.84375 C 15.730469 9.84375 15.648438 9.96875 15.648438 10.089844 L 15.648438 14.066406 C 15.648438 14.1875 15.730469 14.269531 15.851562 14.269531 C 15.976562 14.269531 16.054688 14.1875 16.054688 14.066406 Z M 16.054688 10.089844 " fill-opacity="1" fill-rule="evenodd"/><path fill="#d9d9d9" d="M 16.054688 14.714844 C 16.054688 14.59375 15.976562 14.46875 15.851562 14.46875 C 15.730469 14.46875 15.648438 14.59375 15.648438 14.714844 L 15.648438 15.6875 C 15.648438 15.808594 15.730469 15.890625 15.851562 15.890625 C 15.976562 15.890625 16.054688 15.808594 16.054688 15.6875 Z M 16.054688 14.714844 " fill-opacity="1" fill-rule="evenodd"/><path fill="#d9d9d9" d="M 8.996094 14.023438 C 9.078125 13.984375 9.078125 13.820312 8.996094 13.742188 C 8.914062 13.660156 8.792969 13.660156 8.710938 13.742188 L 7.171875 15.078125 C 7.089844 15.160156 7.089844 15.28125 7.128906 15.363281 C 7.210938 15.445312 7.332031 15.445312 7.453125 15.402344 Z M 8.996094 14.023438 " fill-opacity="1" fill-rule="evenodd"/></svg>