<svg xmlns="http://www.w3.org/2000/svg" xmlns:xlink="http://www.w3.org/1999/xlink" width="40" zoomAndPan="magnify" viewBox="0 0 30 30.000001" height="40" preserveAspectRatio="xMidYMid meet" version="1.0"><defs><clipPath id="60d7c7fa04"><path d="M 3.386719 2.902344 L 26.613281 2.902344 L 26.613281 26.128906 L 3.386719 26.128906 Z M 3.386719 2.902344 " clip-rule="nonzero"/></clipPath></defs><path fill="#ffffff" d="M 13.550781 21.746094 C 12.246094 21.746094 11.019531 21.257812 10.082031 20.347656 C 10.027344 20.292969 10 20.222656 10 20.15625 C 10 20.074219 10.027344 20.007812 10.082031 19.953125 L 16.707031 13.324219 C 16.777344 13.257812 16.855469 13.230469 16.9375 13.242188 C 17.035156 13.257812 17.101562 13.3125 17.144531 13.378906 C 18.09375 15.148438 18.53125 16.195312 18.53125 16.78125 C 18.53125 19.515625 16.300781 21.746094 13.550781 21.746094 Z M 9.007812 18.277344 C 8.980469 18.277344 8.953125 18.265625 8.9375 18.265625 C 8.84375 18.238281 8.761719 18.167969 8.746094 18.074219 C 8.625 17.652344 8.570312 17.21875 8.570312 16.78125 C 8.570312 15.691406 10.21875 12.847656 11.671875 10.347656 C 12.339844 9.203125 12.964844 8.113281 13.304688 7.433594 C 13.347656 7.339844 13.441406 7.269531 13.550781 7.269531 C 13.660156 7.269531 13.753906 7.339844 13.796875 7.433594 C 14.121094 8.113281 14.761719 9.203125 15.414062 10.347656 C 15.578125 10.617188 15.742188 10.902344 15.917969 11.1875 C 15.972656 11.296875 15.960938 11.433594 15.863281 11.515625 L 9.195312 18.195312 C 9.140625 18.25 9.074219 18.277344 9.007812 18.277344 Z M 9.007812 18.277344 " fill-opacity="1" fill-rule="evenodd"/><path fill="#ffffff" d="M 17.671875 19.9375 C 17.539062 19.9375 17.386719 19.925781 17.25 19.910156 C 17.15625 19.898438 17.0625 19.84375 17.035156 19.746094 C 16.992188 19.667969 17.007812 19.558594 17.0625 19.476562 C 17.660156 18.699219 17.988281 17.761719 17.988281 16.78125 C 17.988281 16.320312 17.539062 15.257812 16.667969 13.636719 C 16.613281 13.53125 16.625 13.40625 16.707031 13.324219 L 18.695312 11.339844 C 18.75 11.285156 18.832031 11.257812 18.925781 11.269531 C 19.007812 11.269531 19.074219 11.324219 19.117188 11.394531 C 20.464844 13.71875 21.429688 15.421875 21.429688 16.183594 C 21.429688 18.25 19.742188 19.9375 17.671875 19.9375 Z M 17.238281 13.558594 C 18.121094 15.21875 18.53125 16.222656 18.53125 16.78125 C 18.53125 17.71875 18.273438 18.605469 17.78125 19.394531 C 19.496094 19.339844 20.882812 17.925781 20.882812 16.183594 C 20.882812 15.558594 19.742188 13.558594 18.832031 11.980469 Z M 17.238281 13.558594 " fill-opacity="1" fill-rule="evenodd"/><g clip-path="url(#60d7c7fa04)"><path fill="#ffffff" d="M 14.992188 26.128906 C 8.597656 26.128906 3.386719 20.917969 3.386719 14.507812 C 3.386719 8.113281 8.597656 2.902344 14.992188 2.902344 C 21.402344 2.902344 26.613281 8.113281 26.613281 14.507812 C 26.613281 20.917969 21.402344 26.128906 14.992188 26.128906 Z M 14.992188 3.449219 C 8.898438 3.449219 3.929688 8.414062 3.929688 14.507812 C 3.929688 20.617188 8.898438 25.585938 14.992188 25.585938 C 21.101562 25.585938 26.070312 20.617188 26.070312 14.507812 C 26.070312 8.414062 21.101562 3.449219 14.992188 3.449219 Z M 14.992188 3.449219 " fill-opacity="1" fill-rule="evenodd"/></g><path fill="#ffffff" d="M 14.992188 23.707031 C 12.789062 23.707031 10.652344 22.917969 8.980469 21.460938 C 8.925781 21.421875 8.882812 21.351562 8.882812 21.273438 C 8.882812 21.203125 8.910156 21.121094 8.964844 21.066406 L 21.550781 8.480469 C 21.605469 8.425781 21.675781 8.398438 21.753906 8.398438 C 21.835938 8.398438 21.90625 8.441406 21.945312 8.496094 C 23.402344 10.167969 24.191406 12.304688 24.191406 14.507812 C 24.191406 19.585938 20.066406 23.707031 14.992188 23.707031 Z M 9.5625 21.246094 C 11.089844 22.484375 13.019531 23.164062 14.992188 23.164062 C 19.769531 23.164062 23.648438 19.285156 23.648438 14.507812 C 23.648438 12.535156 22.964844 10.605469 21.726562 9.082031 L 21.675781 9.136719 Z M 7.5625 19.71875 C 7.550781 19.71875 7.535156 19.71875 7.535156 19.71875 C 7.457031 19.707031 7.375 19.667969 7.332031 19.597656 C 6.324219 18.085938 5.796875 16.332031 5.796875 14.507812 C 5.796875 9.449219 9.933594 5.3125 14.992188 5.3125 C 16.816406 5.3125 18.570312 5.84375 20.082031 6.847656 C 20.148438 6.890625 20.191406 6.972656 20.203125 7.054688 C 20.203125 7.132812 20.175781 7.203125 20.121094 7.269531 L 7.753906 19.640625 C 7.699219 19.691406 7.632812 19.71875 7.5625 19.71875 Z M 14.992188 5.855469 C 10.230469 5.855469 6.339844 9.746094 6.339844 14.507812 C 6.339844 16.113281 6.773438 17.664062 7.605469 19.011719 L 19.496094 7.121094 C 18.148438 6.292969 16.597656 5.855469 14.992188 5.855469 Z M 14.992188 5.855469 " fill-opacity="1" fill-rule="evenodd"/></svg>