<svg xmlns="http://www.w3.org/2000/svg" xmlns:xlink="http://www.w3.org/1999/xlink" width="40" zoomAndPan="magnify" viewBox="0 0 30 30.000001" height="40" preserveAspectRatio="xMidYMid meet" version="1.0"><defs><clipPath id="d0ca81f7ef"><path d="M 4 14 L 16 14 L 16 25.839844 L 4 25.839844 Z M 4 14 " clip-rule="nonzero"/></clipPath><clipPath id="d86ca4b394"><path d="M 13 3.339844 L 26.324219 3.339844 L 26.324219 17 L 13 17 Z M 13 3.339844 " clip-rule="nonzero"/></clipPath><clipPath id="44239db13c"><path d="M 3.824219 3.339844 L 9 3.339844 L 9 9 L 3.824219 9 Z M 3.824219 3.339844 " clip-rule="nonzero"/></clipPath><clipPath id="6868cce8d6"><path d="M 21 20 L 26.324219 20 L 26.324219 25.839844 L 21 25.839844 Z M 21 20 " clip-rule="nonzero"/></clipPath></defs><g clip-path="url(#d0ca81f7ef)"><path fill="#ffffff" d="M 5.011719 22.664062 C 4.472656 23.230469 4.484375 24.136719 5.035156 24.691406 L 5.179688 24.835938 C 5.453125 25.109375 5.835938 25.257812 6.21875 25.257812 C 6.605469 25.253906 6.980469 25.09375 7.25 24.8125 L 14.628906 17.132812 C 14.867188 16.882812 14.863281 16.484375 14.621094 16.242188 L 13.296875 14.917969 C 13.175781 14.796875 13.003906 14.734375 12.839844 14.730469 C 12.671875 14.734375 12.507812 14.804688 12.390625 14.929688 Z M 6.203125 25.664062 C 5.714844 25.664062 5.238281 25.46875 4.894531 25.121094 L 4.746094 24.976562 C 4.042969 24.269531 4.027344 23.109375 4.714844 22.382812 L 12.09375 14.648438 C 12.289062 14.445312 12.558594 14.328125 12.835938 14.324219 C 13.121094 14.335938 13.386719 14.433594 13.585938 14.628906 L 14.910156 15.953125 C 15.308594 16.351562 15.3125 17.007812 14.925781 17.414062 L 7.539062 25.097656 C 7.199219 25.453125 6.714844 25.660156 6.222656 25.664062 C 6.214844 25.664062 6.210938 25.664062 6.203125 25.664062 " fill-opacity="1" fill-rule="nonzero"/></g><g clip-path="url(#d86ca4b394)"><path fill="#ffffff" d="M 14.78125 16.320312 C 14.695312 16.320312 14.613281 16.265625 14.585938 16.183594 C 14.550781 16.074219 14.609375 15.960938 14.714844 15.925781 C 24.058594 12.769531 25.769531 10.78125 25.769531 7.996094 C 25.769531 6.722656 25.375 5.683594 24.605469 4.910156 C 23.828125 4.136719 22.789062 3.746094 21.515625 3.746094 C 18.734375 3.746094 16.742188 5.453125 13.589844 14.800781 C 13.554688 14.90625 13.441406 14.964844 13.332031 14.929688 C 13.226562 14.890625 13.167969 14.773438 13.203125 14.667969 C 16.4375 5.089844 18.539062 3.339844 21.515625 3.339844 C 22.902344 3.339844 24.035156 3.769531 24.890625 4.621094 C 25.742188 5.476562 26.175781 6.613281 26.175781 7.996094 C 26.175781 10.972656 24.421875 13.078125 14.84375 16.308594 C 14.824219 16.316406 14.800781 16.320312 14.78125 16.320312 " fill-opacity="1" fill-rule="nonzero"/></g><path fill="#ffffff" d="M 14.457031 16 C 14.375 16 14.296875 15.945312 14.265625 15.863281 C 14.230469 15.757812 14.285156 15.640625 14.390625 15.605469 C 17.101562 14.644531 23.945312 9.597656 24.878906 6.460938 C 25.054688 5.878906 25.003906 5.398438 24.730469 5.039062 C 24.6875 4.988281 24.652344 4.945312 24.609375 4.902344 C 24.566406 4.863281 24.523438 4.828125 24.484375 4.792969 C 24.117188 4.511719 23.636719 4.460938 23.050781 4.636719 C 19.917969 5.574219 14.875 12.402344 13.914062 15.113281 C 13.886719 15.195312 13.808594 15.257812 13.71875 15.257812 C 13.605469 15.257812 13.515625 15.167969 13.515625 15.054688 L 13.515625 15.050781 C 13.515625 15.03125 13.519531 15.003906 13.527344 14.984375 C 14.535156 12.140625 19.632812 5.234375 22.933594 4.246094 C 23.652344 4.03125 24.253906 4.105469 24.722656 4.460938 C 24.792969 4.523438 24.84375 4.566406 24.894531 4.617188 C 24.949219 4.667969 24.992188 4.71875 25.035156 4.769531 C 25.410156 5.257812 25.484375 5.859375 25.269531 6.578125 C 24.285156 9.882812 17.375 14.980469 14.527344 15.988281 C 14.503906 15.996094 14.480469 16 14.457031 16 " fill-opacity="1" fill-rule="nonzero"/><path fill="#ffffff" d="M 14.089844 15.628906 C 14.035156 15.628906 13.984375 15.609375 13.945312 15.570312 C 13.867188 15.488281 13.867188 15.359375 13.945312 15.28125 L 24.605469 4.621094 C 24.683594 4.542969 24.816406 4.539062 24.894531 4.621094 C 24.972656 4.699219 24.976562 4.824219 24.894531 4.902344 L 14.230469 15.570312 C 14.191406 15.609375 14.140625 15.628906 14.089844 15.628906 " fill-opacity="1" fill-rule="nonzero"/><path fill="#ffffff" d="M 10.933594 14.714844 C 10.882812 14.714844 10.828125 14.699219 10.789062 14.65625 L 5.914062 9.78125 C 5.835938 9.703125 5.835938 9.574219 5.914062 9.496094 L 9.980469 5.429688 C 10.058594 5.351562 10.183594 5.351562 10.265625 5.429688 L 14.328125 9.496094 C 14.410156 9.574219 14.410156 9.703125 14.328125 9.78125 C 14.25 9.859375 14.121094 9.859375 14.042969 9.78125 L 10.121094 5.859375 L 6.34375 9.636719 L 11.078125 14.371094 C 11.15625 14.449219 11.15625 14.578125 11.078125 14.65625 C 11.039062 14.699219 10.984375 14.714844 10.933594 14.714844 " fill-opacity="1" fill-rule="nonzero"/><path fill="#ffffff" d="M 19.875 23.660156 C 19.824219 23.660156 19.769531 23.636719 19.734375 23.601562 L 14.855469 18.722656 C 14.777344 18.644531 14.777344 18.515625 14.855469 18.4375 C 14.933594 18.355469 15.0625 18.355469 15.144531 18.4375 L 19.875 23.167969 L 23.652344 19.390625 L 19.707031 15.445312 C 19.628906 15.367188 19.628906 15.238281 19.707031 15.160156 C 19.785156 15.082031 19.914062 15.082031 19.996094 15.160156 L 24.082031 19.25 C 24.164062 19.328125 24.164062 19.457031 24.082031 19.535156 L 20.019531 23.601562 C 19.980469 23.636719 19.929688 23.660156 19.875 23.660156 " fill-opacity="1" fill-rule="nonzero"/><g clip-path="url(#44239db13c)"><path fill="#ffffff" d="M 7.410156 8.488281 C 7.363281 8.488281 7.316406 8.472656 7.277344 8.4375 L 4.304688 5.828125 C 4.289062 5.8125 4.253906 5.789062 4.222656 5.75 C 3.96875 5.496094 3.824219 5.140625 3.824219 4.761719 C 3.824219 3.976562 4.460938 3.339844 5.246094 3.339844 C 5.625 3.339844 5.980469 3.488281 6.25 3.757812 C 6.273438 3.773438 6.300781 3.804688 6.316406 3.828125 L 8.921875 6.792969 C 8.996094 6.878906 8.988281 7.007812 8.902344 7.082031 C 8.820312 7.152344 8.691406 7.144531 8.617188 7.0625 L 5.976562 4.058594 C 5.769531 3.851562 5.515625 3.746094 5.246094 3.746094 C 4.683594 3.746094 4.230469 4.199219 4.230469 4.761719 C 4.230469 5.03125 4.335938 5.285156 4.527344 5.480469 C 4.527344 5.480469 4.570312 5.523438 4.574219 5.523438 L 7.546875 8.132812 C 7.628906 8.207031 7.636719 8.335938 7.5625 8.417969 C 7.523438 8.464844 7.46875 8.488281 7.410156 8.488281 " fill-opacity="1" fill-rule="nonzero"/></g><g clip-path="url(#6868cce8d6)"><path fill="#ffffff" d="M 24.753906 25.691406 C 24.375 25.691406 24.015625 25.542969 23.746094 25.273438 C 23.726562 25.257812 23.699219 25.226562 23.679688 25.199219 L 21.074219 22.238281 C 21.003906 22.152344 21.011719 22.023438 21.09375 21.949219 C 21.179688 21.875 21.308594 21.882812 21.382812 21.96875 L 24.019531 24.972656 C 24.226562 25.179688 24.484375 25.285156 24.753906 25.285156 C 25.3125 25.285156 25.769531 24.828125 25.769531 24.269531 C 25.769531 23.996094 25.664062 23.742188 25.46875 23.550781 C 25.46875 23.550781 25.425781 23.507812 25.425781 23.507812 L 22.453125 20.898438 C 22.367188 20.824219 22.359375 20.695312 22.433594 20.609375 C 22.507812 20.527344 22.636719 20.519531 22.71875 20.59375 L 25.691406 23.203125 C 25.707031 23.214844 25.742188 23.242188 25.773438 23.28125 C 26.027344 23.53125 26.175781 23.890625 26.175781 24.269531 C 26.175781 25.054688 25.535156 25.691406 24.753906 25.691406 " fill-opacity="1" fill-rule="nonzero"/></g><path fill="#ffffff" d="M 6.464844 22.5625 C 5.972656 22.5625 5.570312 22.960938 5.570312 23.457031 C 5.570312 23.949219 5.972656 24.351562 6.464844 24.351562 C 6.957031 24.351562 7.359375 23.949219 7.359375 23.457031 C 7.359375 22.960938 6.957031 22.5625 6.464844 22.5625 Z M 6.464844 22.96875 C 6.734375 22.96875 6.953125 23.1875 6.953125 23.457031 C 6.953125 23.726562 6.734375 23.945312 6.464844 23.945312 C 6.195312 23.945312 5.976562 23.726562 5.976562 23.457031 C 5.976562 23.1875 6.195312 22.96875 6.464844 22.96875 " fill-opacity="1" fill-rule="nonzero"/><path fill="#ffffff" d="M 13.40625 18.816406 C 13.355469 18.816406 13.300781 18.796875 13.261719 18.753906 L 10.796875 16.292969 C 10.71875 16.210938 10.71875 16.082031 10.796875 16.003906 C 10.878906 15.925781 11.007812 15.925781 11.085938 16.003906 L 13.550781 18.46875 C 13.628906 18.546875 13.628906 18.675781 13.550781 18.753906 C 13.507812 18.796875 13.457031 18.816406 13.40625 18.816406 " fill-opacity="1" fill-rule="nonzero"/><path fill="#ffffff" d="M 12.558594 11.058594 C 12.507812 11.058594 12.457031 11.042969 12.417969 11 L 9.980469 8.5625 C 9.898438 8.480469 9.898438 8.355469 9.980469 8.277344 C 10.058594 8.195312 10.183594 8.195312 10.265625 8.277344 L 12.703125 10.714844 C 12.78125 10.792969 12.78125 10.921875 12.703125 11 C 12.664062 11.042969 12.613281 11.058594 12.558594 11.058594 " fill-opacity="1" fill-rule="nonzero"/><path fill="#ffffff" d="M 21.09375 19.59375 C 21.042969 19.59375 20.992188 19.574219 20.953125 19.535156 L 18.515625 17.097656 C 18.433594 17.015625 18.433594 16.890625 18.515625 16.8125 C 18.59375 16.730469 18.71875 16.730469 18.800781 16.8125 L 21.238281 19.25 C 21.316406 19.328125 21.316406 19.457031 21.238281 19.535156 C 21.199219 19.574219 21.148438 19.59375 21.09375 19.59375 " fill-opacity="1" fill-rule="nonzero"/></svg>