<?xml version="1.0" encoding="utf-8"?>
<!-- Generator: Adobe Illustrator 27.0.0, SVG Export Plug-In . SVG Version: 6.00 Build 0)  -->
<svg version="1.1" id="Capa_1" xmlns="http://www.w3.org/2000/svg" xmlns:xlink="http://www.w3.org/1999/xlink" x="0px" y="0px"
	 viewBox="0 0 40 40" style="enable-background:new 0 0 40 40;" xml:space="preserve">
<style type="text/css">
	.st0{fill:#FFFFFF;}
	.st1{clip-path:url(#SVGID_00000109725715402993971130000001279669907939726249_);}
	.st2{clip-path:url(#SVGID_00000014633920306595373630000004419095051889551504_);}
</style>
<path class="st0" d="M12,28.7c-0.4,0-0.6-0.2-0.9-0.4c-0.5-0.4-0.6-0.6-0.7-1c0.3,0.3,0.5,0.5,0.7,0.8C11.4,28.4,11.7,28.5,12,28.7"
	/>
<path class="st0" d="M11.3,27.3c0.5,0.6,1,1.1,1.7,1.5C12.5,28.8,11.4,27.9,11.3,27.3"/>
<path class="st0" d="M10.8,28.7c-0.5-0.3-1-0.5-1.1-1.1c0.1,0.1,0.2,0.3,0.4,0.4c0.1,0.1,0.3,0.2,0.4,0.3
	C10.5,28.5,10.7,28.5,10.8,28.7"/>
<path class="st0" d="M32.6,20.3c0,0.1-0.1,0.2-0.1,0.2c-0.2,0.1-0.4,0.3-0.5,0.4c-0.2,0.2-0.4,0.4-0.7,0.6c-0.8,0.6-1.5,1.2-2.3,1.7
	c-0.3,0.2-0.6,0.4-0.9,0.5c-0.6,0.4-1.2,0.8-1.9,1.1c0-0.3,0.1-0.6,0.2-0.8c0.1-0.4,0.3-0.8,0.3-1.3c0-0.3-0.1-0.6-0.1-0.9
	c0.1,0,0.2,0.1,0.2,0.2c0.2,0.5,0.1,1-0.1,1.5c-0.1,0.3-0.2,0.6-0.3,1c0.3-0.2,0.6-0.4,0.9-0.5c0.1,0,0.1-0.1,0.1-0.2
	c0.1-0.5,0.3-1.1,0.4-1.6c0.1-0.3,0-0.7-0.1-1c0,0,0-0.1,0-0.2c0.1,0.1,0.2,0.2,0.2,0.2c0.2,0.4,0.2,0.8,0.1,1.3
	c-0.1,0.3-0.2,0.7-0.3,1c0,0.1,0,0.2-0.1,0.3c0.2-0.1,0.4-0.2,0.6-0.3c0.1-0.1,0.2-0.2,0.3-0.3c0.1-0.4,0.3-0.7,0.4-1.1
	c0.1-0.5,0.2-1,0.1-1.5c0-0.1,0-0.2,0-0.3c0.2,0.2,0.2,0.3,0.3,0.7c0,0.2,0,0.5-0.1,0.8c0,0.3-0.1,0.5-0.2,0.8
	c-0.1,0.2-0.2,0.5-0.3,0.7c0.4-0.1,0.6-0.3,0.8-0.6c0.2-0.4,0.4-0.8,0.5-1.2c0.2-0.6,0.3-1.2,0.1-1.9c0-0.1,0-0.1,0-0.2
	c0,0,0-0.1,0.1-0.1c0.2,0.6,0.3,1.1,0.1,1.7c-0.1,0.5-0.3,1-0.5,1.6c0.4-0.2,0.7-0.4,0.9-0.8c0.2-0.4,0.4-0.8,0.5-1.3
	c0.2-0.5,0.3-1.1,0.3-1.7c0-0.1,0-0.2,0.1-0.4c0,0.1,0.1,0.2,0.1,0.2c0.1,0.6-0.1,1.3-0.3,1.9c-0.2,0.4-0.3,0.8-0.5,1.3
	c0.2-0.2,0.4-0.3,0.6-0.5c0.1,0,0.1-0.1,0.2-0.2c0.3-0.5,0.5-1.1,0.8-1.6c0.2-0.6,0.3-1.1,0.2-1.7c0,0,0-0.1,0-0.2
	c0.2,0.2,0.2,0.5,0.2,0.7c0,0.3-0.1,0.7-0.2,1c-0.1,0.3-0.3,0.7-0.5,1c0,0.1-0.1,0.2-0.1,0.3C32,20.6,32.2,20.3,32.6,20.3L32.6,20.3
	"/>
<g>
	<defs>
		<rect id="SVGID_1_" x="32" y="12" width="3.5" height="5.3"/>
	</defs>
	<clipPath id="SVGID_00000042694675263831556930000014455667759172622515_">
		<use xlink:href="#SVGID_1_"  style="overflow:visible;"/>
	</clipPath>
	<g style="clip-path:url(#SVGID_00000042694675263831556930000014455667759172622515_);">
		<path class="st0" d="M33.9,12.2c0.1,0.3,0.1,0.6,0.4,0.8c0.1,0.1,0.1,0.3,0.2,0.5c0.4,1,0.6,2.1,0.4,3.1c0,0,0,0-0.1,0.1
			c0-0.1-0.1-0.2-0.1-0.2c0-0.2,0-0.4,0-0.6c-0.2,0.2-0.3,0.5-0.7,0.6c0.3-0.3,0.5-0.5,0.7-0.8c0-0.1,0-0.3,0-0.5
			c-0.3,0.4-0.6,0.7-1,0.9c0-0.1,0.1-0.1,0.1-0.2c0.2-0.2,0.4-0.4,0.6-0.6c0.2-0.2,0.2-0.4,0.1-0.7c-0.2,0.2-0.4,0.5-0.6,0.7
			c-0.2,0.2-0.4,0.4-0.7,0.5c0.1-0.1,0.2-0.2,0.4-0.3c0.2-0.2,0.4-0.5,0.6-0.7c0.2-0.3,0.2-0.6,0-0.9c-0.2,0.2-0.3,0.5-0.5,0.7
			c-0.2,0.2-0.4,0.5-0.7,0.6c0-0.1,0.1-0.1,0.1-0.2c0.2-0.3,0.5-0.6,0.7-0.9c0.2-0.3,0.3-0.7,0-1c-0.4,0.5-0.7,1-1.1,1.5
			c0,0,0,0-0.1,0c0-0.1,0-0.1,0.1-0.2c0.2-0.3,0.5-0.6,0.7-1c0.1-0.2,0.3-0.4,0.2-0.6C33.6,12.4,33.8,12.3,33.9,12.2"/>
	</g>
</g>
<path class="st0" d="M29,17.8c-0.4,0.5-1,0.3-1.2-0.3c-0.2-0.6-0.5-1.2-0.9-1.8c0.1,0,0.1,0,0.2,0.1c0.3,0.3,0.5,0.7,0.7,1.2
	c0.1,0.2,0.1,0.4,0.2,0.5c0.2,0.3,0.4,0.4,0.8,0.3C28.8,17.8,28.9,17.8,29,17.8C28.9,17.7,29,17.8,29,17.8"/>
<path class="st0" d="M32.6,20.3c0.1-0.1,0.1-0.3,0.2-0.4c0.6-0.9,0.9-1.9,0.8-3c0,0,0-0.1,0.1-0.1C34,17.7,33.5,19.4,32.6,20.3
	L32.6,20.3"/>
<path class="st0" d="M29.7,16.6c0.4-0.7,0.6-1.5,0.3-2.3c0.3,0.1,0.3,0.3,0.4,0.5c0.1,0.5,0,1.1-0.2,1.6c-0.1,0.1-0.2,0.2-0.3,0.3
	C29.8,16.6,29.8,16.6,29.7,16.6"/>
<path class="st0" d="M29.8,12.9c0.1-0.4,0.9-0.7,1.4-0.6C30.6,12.4,30.2,12.6,29.8,12.9"/>
<path class="st0" d="M28.6,11.2c0-0.2,0.2-0.3,0.3-0.3c0.4-0.2,0.8-0.2,1.2-0.1c-0.2,0.1-0.5,0.1-0.7,0.2
	C29.1,11,28.9,11.1,28.6,11.2"/>
<path class="st0" d="M28,10.5c0.1-0.1,0.1-0.1,0.2-0.2c0.2-0.2,0.9-0.3,1.4-0.1C29,10.3,28.5,10.3,28,10.5
	C28.1,10.6,28,10.5,28,10.5"/>
<path class="st0" d="M29.1,11.9c0.4-0.4,0.9-0.4,1.4-0.4c-0.2,0.2-0.4,0.1-0.7,0.2C29.6,11.8,29.4,11.9,29.1,11.9
	C29.2,12,29.1,11.9,29.1,11.9"/>
<path class="st0" d="M30.2,13.8c0.2-0.4,0.7-0.6,1.2-0.5c-0.2,0.1-0.4,0.2-0.6,0.3C30.5,13.6,30.4,13.8,30.2,13.8"/>
<path class="st0" d="M5.1,22.4c0.2-0.2,0.2-0.3,0.1-0.5C4.9,22,4.9,22,5.1,22.4z M5.8,21.6c0,0.3-0.2,0.5,0.1,0.7
	C6.1,22,6.1,21.9,6,21.7C6,21.6,5.9,21.6,5.8,21.6z M6.2,21.5c0,0.3,0,0.5,0.1,0.8c0.1-0.1,0.2-0.1,0.3-0.2c0.1-0.1,0.1-0.3,0.1-0.4
	C6.6,21.5,6.5,21.5,6.2,21.5z M9.6,23.4c0.1,0.1,0.2,0.1,0.2,0.1c0.2-0.3,0.3-0.5,0.2-0.8c0-0.2,0-0.4-0.2-0.6
	C9.9,22.6,9.8,23,9.6,23.4z M10.3,23.7c0.5-0.6,0.5-1-0.1-1.3c0.2,0.4,0,0.8-0.2,1.2C10.2,23.7,10.2,23.7,10.3,23.7z M10.9,23.9
	c0.2-0.3,0.3-0.6,0-0.9c-0.1,0.3-0.3,0.6-0.4,0.8c0.7,0.4,0.8,0.4,1.1,0.4c0-0.3-0.1-0.4-0.4-0.7C11.2,23.6,11.2,23.9,10.9,23.9z
	 M8.4,21.7c0,0.8,0,0.8-0.2,1c0-0.1,0-0.2,0-0.3c0-0.2,0.1-0.3,0-0.5c0-0.3-0.1-0.3-0.4-0.4c0,0.2,0,0.5,0,0.7c0,0-0.1,0.1-0.2,0.2
	c0-0.2,0.1-0.3,0.1-0.5c0-0.1-0.1-0.3-0.1-0.4c-0.1-0.1-0.1-0.3-0.3-0.2c0.1,0.3,0.1,0.6-0.1,0.9c0-0.1,0-0.1,0-0.2
	c0-0.2,0-0.4,0-0.5c0-0.1-0.1-0.2-0.2-0.2c0,0-0.1,0-0.2,0c0,0.3-0.1,0.6-0.1,0.9c0.6,0.2,1.2,0.4,1.8,0.6c0.2-0.3,0.3-0.7,0.2-1
	C8.7,21.8,8.6,21.6,8.4,21.7z M9.2,21.9c0.1,0.2,0.2,0.4,0.2,0.6c0,0.2-0.1,0.4-0.2,0.7c0.1,0,0.2,0,0.2,0.1c0.3-0.4,0.3-0.8,0-1.2
	C9.4,21.9,9.3,21.9,9.2,21.9c-0.1-0.1-0.2-0.1-0.3-0.1C9,22.2,8.8,22.6,8.7,23C8.8,23,8.9,23.1,9,23.1c0.2-0.4,0.2-0.8,0-1.2
	C9.1,22,9.2,21.9,9.2,21.9z M4.4,22.7c-0.1-0.4,0-0.6,0.2-0.8c0.3-0.3,0.8-0.5,1.2-0.6c0.3-0.1,0.7-0.1,1.1-0.2c0.3,0,0.6,0,0.8,0.1
	c0.7,0.2,1.4,0.3,2,0.6c0.5,0.2,1,0.5,1.3,1c0.1,0.1,0.3,0.3,0.4,0.4c0.1,0.2,0.2,0.4,0.4,0.6c0.1,0.2,0,0.4-0.1,0.5
	c-0.1,0.2-0.3,0.1-0.4,0.1c-0.4-0.2-0.8-0.3-1.2-0.5c-0.4-0.3-0.9-0.5-1.3-0.7c-0.5-0.2-1-0.4-1.5-0.5c-0.5-0.2-1-0.2-1.6-0.1
	C5.3,22.7,4.9,22.7,4.4,22.7"/>
<path class="st0" d="M16,28.6c1-0.2,1.9-0.6,2.9-0.8c0,0,0,0.1,0,0.1c-0.1,0.1-0.1,0.1-0.2,0.2c-0.3,0.1-0.7,0.2-1,0.3
	c-0.8,0.2-1.7,0.5-2.5,0.7c-0.3,0.1-0.7,0.2-1,0.2c-0.7,0-1.3,0.2-1.9,0.1c-0.2,0-0.3-0.1-0.5-0.1c-0.9-0.1-1.8-0.3-2.7-0.7
	c0-0.1,0-0.2,0.1-0.3c-0.2-0.2-0.4-0.4-0.5-0.7c0.1,0,0.2,0,0.2,0c0.2,0.2,0.4,0.5,0.6,0.7c0.2,0.2,0.4,0.3,0.6,0.4
	c0.5,0.1,1.1,0.2,1.6,0.3c0.4,0.1,0.7,0.1,1.1,0.1c0.7,0,1.3-0.1,2-0.2c0.1,0,0.1,0,0.2-0.1c-0.6-0.6-1.2-1.3-1.6-2
	c-0.1-0.2-0.2-0.4-0.3-0.6c0-0.1,0-0.2,0-0.3c0.6,1.1,1.3,2.1,2.3,2.9c0.2-0.1,0.5-0.1,0.7-0.2c-0.7-0.8-1.3-1.6-1.8-2.5
	c0,0,0-0.1,0-0.2C14.7,26.8,15.2,27.8,16,28.6"/>
<path class="st0" d="M6.4,23.4C6.1,24,6,24.7,5.8,25.3C5.6,25.7,5.7,26,6,26.2c0.2,0.1,0.4,0.3,0.6,0.4c0.2,0.1,0.3,0.3,0.3,0.4
	c-0.4-0.1-0.7-0.5-1-0.7c-0.3-0.3-0.5-0.6-0.8-1c-0.2-0.4-0.2-0.8-0.5-1.2c-0.1,0.2-0.1,0.3-0.1,0.4c-0.1-0.2-0.1-0.2,0-0.4
	c0.1-0.2,0.1-0.4,0.2-0.7c0.1-0.1,0.3-0.2,0.5-0.4c-0.1,0.2-0.1,0.3-0.1,0.4C4.8,23.7,4.9,24,5,24.2c0,0.1,0.1,0.3,0.2,0.5
	c0.2-0.5,0.3-1,0.7-1.5c0,0.2,0,0.2,0,0.3c-0.1,0.3-0.2,0.6-0.4,0.9c-0.2,0.4-0.1,0.7,0.2,1.1c0.3-0.7,0.3-1.5,0.7-2.1
	C6.3,23.4,6.3,23.4,6.4,23.4"/>
<path class="st0" d="M7.7,23.5c0.3-0.1,0.6,0,0.8,0.1c0.5,0.2,0.9,0.5,1.4,0.7c0.2,0.1,0.4,0.3,0.7,0.4c0.3,0.2,0.7,0.2,1.1,0.2
	c0.1,0,0.3-0.1,0.4-0.2c0.1,0.2,0,0.3-0.1,0.3c-0.2,0.1-0.4,0.1-0.6,0.1c-0.4,0-0.8-0.1-1.1-0.4c-0.5-0.3-1-0.6-1.5-0.9
	c-0.2-0.1-0.5-0.2-0.7-0.3C7.9,23.7,7.8,23.6,7.7,23.5"/>
<path class="st0" d="M10.9,22.3c0.3-0.1,0.4,0.1,0.6,0.2c0.5,0.3,0.9,0.7,1,1.4c-0.1-0.1-0.2-0.1-0.2-0.1
	C12,23.2,11.5,22.8,10.9,22.3C10.9,22.4,10.9,22.4,10.9,22.3"/>
<path class="st0" d="M13.9,28.6c-0.7-0.1-1.9-1.4-2-2.1C12.5,27.3,13,28.1,13.9,28.6"/>
<path class="st0" d="M12.3,14.4c-0.3,0.2-0.7,0.4-1,0.7c-0.3,0.3-0.6,0.6-0.9,0.9c0-0.1,0-0.2,0.1-0.3c0.2-0.4,0.6-0.7,0.9-0.9
	C11.7,14.6,12,14.5,12.3,14.4C12.3,14.3,12.3,14.4,12.3,14.4"/>
<path class="st0" d="M6.6,26.4c-0.2-0.3-0.1-1.3,0.1-2.2c0-0.2,0.1-0.3,0.3-0.4C6.7,24.7,6.6,25.6,6.6,26.4"/>
<path class="st0" d="M7.9,26.7c-0.5-0.6-0.6-2-0.2-2.4C7.6,25.1,7.7,25.9,7.9,26.7"/>
<path class="st0" d="M11.3,15.9c0-0.3,0.2-0.4,0.3-0.5c0.4-0.4,1-0.8,1.4-0.8c-0.3,0.2-0.6,0.4-0.9,0.6
	C11.9,15.3,11.6,15.6,11.3,15.9"/>
<path class="st0" d="M8.6,24.7c0,0,0.1,0.1,0.1,0.1c0.1,0.6,0.1,1.2,0.2,1.8c0,0,0,0-0.1,0C8.6,26.2,8.5,25,8.6,24.7"/>
<path class="st0" d="M9.4,16c0.4-0.6,1-1.1,1.7-1.4c0,0.2-0.2,0.2-0.4,0.4c-0.1,0.1-0.3,0.2-0.5,0.4c-0.1,0.1-0.3,0.3-0.4,0.4
	C9.7,15.8,9.6,16,9.4,16C9.5,16.1,9.4,16.1,9.4,16"/>
<path class="st0" d="M13.5,21.1c-0.7,0.2-1.1,0.9-1.8,1.3c0.1-0.2,0.1-0.2,0.2-0.3c0.3-0.3,0.7-0.7,1.1-1
	C13.1,21.1,13.3,21,13.5,21.1"/>
<path class="st0" d="M13.8,14.6c-0.6,0.4-1.2,0.7-1.7,1.3C12.1,15.4,12.9,14.8,13.8,14.6"/>
<path class="st0" d="M5.2,21.2c-0.1-0.5,0.2-0.9,0.5-1.3c0.1-0.2,0.3-0.4,0.6-0.4c-0.2,0.3-0.5,0.5-0.7,0.8
	C5.5,20.5,5.4,20.8,5.2,21.2"/>
<path class="st0" d="M11.5,20.2c-0.5,0.3-0.9,0.8-1.2,1.3c0-0.3,0.1-0.6,0.5-0.9C11,20.4,11.2,20.1,11.5,20.2"/>
<path class="st0" d="M12.5,20.7c-0.3,0.2-0.5,0.4-0.7,0.5c-0.2,0.2-0.4,0.4-0.6,0.5c0.1-0.4,0.4-0.5,0.7-0.8
	C11.9,20.8,12.1,20.6,12.5,20.7"/>
<path class="st0" d="M10.2,26.5c-0.4-0.2-0.8-1-0.7-1.5c0.2,0.2,0.2,0.5,0.3,0.8C10,26,10.1,26.3,10.2,26.5"/>
<path class="st0" d="M9.5,21.2c0-0.7,0.4-1.1,1-1.2c-0.2,0.2-0.5,0.3-0.6,0.5C9.7,20.7,9.6,21,9.5,21.2"/>
<path class="st0" d="M8.3,19.4c0.2,0.2,0,0.3-0.1,0.4C8.2,19.9,8.1,20,8,20.1c-0.1,0.1-0.1,0.2-0.2,0.3c-0.1,0.1,0,0.3-0.2,0.3
	C7.7,20.2,8,19.8,8.3,19.4"/>
<path class="st0" d="M9.5,19.6c-0.2,0.2-0.4,0.4-0.5,0.6c-0.1,0.2-0.2,0.4-0.4,0.7C8.6,20.3,9,19.7,9.5,19.6"/>
<path class="st0" d="M6.8,19.5c-0.3,0.4-0.5,0.9-0.7,1.4c0-0.1-0.1-0.1-0.1-0.2C6.1,20.2,6.4,19.7,6.8,19.5"/>
<path class="st0" d="M6.8,20.8c-0.1-0.5,0.3-1.2,0.8-1.4C7.3,19.9,6.9,20.3,6.8,20.8"/>
<g>
	<defs>
		<rect id="SVGID_00000013903173473672954230000002355144530865858705_" x="3.6" y="8.7" width="31.9" height="21.3"/>
	</defs>
	<clipPath id="SVGID_00000070830456576759962810000016729389745443116702_">
		<use xlink:href="#SVGID_00000013903173473672954230000002355144530865858705_"  style="overflow:visible;"/>
	</clipPath>
	<g style="clip-path:url(#SVGID_00000070830456576759962810000016729389745443116702_);">
		<path class="st0" d="M32,12.2c0.1,0.1,0.1,0.2,0.2,0.3c0.2-0.2,0.4-0.3,0.5-0.4c0.1-0.1,0.1-0.2,0-0.4C32.5,11.8,32.3,12,32,12.2z
			 M32.3,12.6c0.1,0.2,0.2,0.4,0.4,0.6c0.2-0.4,0.2-0.7,0.1-1.1C32.7,12.3,32.5,12.5,32.3,12.6z M31.9,12c0.3-0.2,0.6-0.4,0.9-0.6
			c-0.1-0.2-0.1-0.3-0.1-0.4c-0.2,0.1-0.3,0.2-0.5,0.3c-0.2,0.1-0.3,0.2-0.5,0.3C31.7,11.8,31.8,11.9,31.9,12z M27.9,14.8
			C27.9,14.8,27.9,14.7,27.9,14.8c0.1-0.3,0.3-0.4,0.5-0.6c0.2-0.2,0.4-0.5,0.6-0.8c0.1-0.2,0-0.3-0.1-0.4c-0.2,0.2-0.4,0.5-0.6,0.7
			c-0.2,0.2-0.4,0.5-0.7,0.5c0.2-0.2,0.4-0.4,0.6-0.7c0.1-0.2,0.3-0.3,0.4-0.5c0.1-0.2,0.2-0.5,0-0.8c-0.2,0.7-0.8,1-1.3,1.3
			c0-0.1,0-0.1,0.1-0.2c0.2-0.1,0.3-0.3,0.5-0.4c0.3-0.2,0.5-0.5,0.6-0.9c0.1-0.1,0-0.2-0.1-0.3c-0.4,0.7-0.8,1-1.3,1.1
			c0.2-0.2,0.5-0.4,0.7-0.6c0.2-0.2,0.4-0.5,0.5-0.8c-0.1-0.1-0.1-0.2-0.2-0.3c-0.5,0.6-1.4,1.3-1.9,1.4c0.1-0.1,0.2-0.1,0.3-0.2
			c0.4-0.3,0.8-0.6,1.1-0.9c0.3-0.3,0.3-0.4,0-0.8c-0.4,0.6-1.2,1.1-1.6,1.2c0.5-0.5,1.2-0.7,1.4-1.4c-0.1-0.1-0.2-0.2-0.3-0.3
			c-0.4,0.5-1.3,1.1-1.7,1.2c0.5-0.4,1.2-0.7,1.5-1.3c-0.1-0.1-0.3-0.2-0.4-0.3c-0.5,0.6-1.2,1.1-1.6,1.2c0.5-0.4,1.1-0.6,1.4-1.3
			c-0.1-0.1-0.2-0.1-0.3-0.1c-0.6,0.6-1.3,1-1.7,1c0.3-0.2,0.6-0.3,0.8-0.5c0.2-0.2,0.5-0.3,0.7-0.6c-0.2-0.1-0.3-0.1-0.4,0
			c-0.4,0.2-0.9,0.4-1.3,0.7c-0.1,0-0.1,0-0.2,0c0,0,0,0,0-0.1c0.5-0.2,0.9-0.5,1.4-0.8c-0.2-0.1-0.4-0.1-0.6,0
			c-0.1,0.1-0.3,0.1-0.4,0.2c-0.4,0.2-0.8,0.4-1.2,0.4c0.5-0.2,1-0.4,1.5-0.7c-1.6,0.1-3.1,0.4-4.7,0.7c0,0.1,0,0.1,0,0.1
			c0.1,0,0.2,0,0.3,0.1c1.1,0.2,2.2,0.4,3.3,1c1.4,0.7,2.5,1.7,3.3,3.1c0.3,0.5,0.6,1,0.9,1.5c0.2,0.4,0.5,0.8,0.7,1.2
			c0.1,0.2,0.2,0.3,0.4,0.4c0.3-0.4,0.5-1.1,0.4-1.8c-0.2,0.2-0.3,0.5-0.7,0.6c0.2-0.3,0.4-0.5,0.6-0.7c0.2-0.2,0.2-0.4,0-0.7
			c-0.5,0.7-0.8,0.9-1,0.9c0.1-0.1,0.1-0.2,0.2-0.2c0.2-0.3,0.5-0.5,0.7-0.8c0.3-0.4,0.3-0.4,0.1-0.9C28.9,14,28.4,14.4,27.9,14.8z
			 M12.2,18.3C12.2,18.2,12.2,18.2,12.2,18.3c0-0.2,0.1-0.4,0.1-0.5c0.1-0.3,0.3-0.6,0.2-0.9c0-0.3-0.1-0.4-0.5-0.3
			c0.2,0.6-0.1,1.1-0.4,1.6c0-0.1,0-0.1,0-0.2c0.1-0.2,0.2-0.4,0.2-0.6c0-0.2,0.1-0.4,0-0.7c0-0.2-0.2-0.3-0.3-0.2
			c0,0.6-0.1,1.1-0.4,1.6c0.1-0.5,0.3-1,0.2-1.6c-0.2,0-0.3,0-0.5,0.1c0.1,0.6-0.1,1-0.4,1.5c0-0.5,0.4-0.9,0.2-1.5
			c-0.1,0-0.2,0-0.3,0c0,0.5-0.1,1-0.4,1.5c0-0.5,0.3-0.9,0.1-1.4c-0.1,0-0.3,0-0.4,0c0.1,0.5-0.1,0.9-0.3,1.3
			c0-0.4,0.3-0.8,0.1-1.2c-0.1,0-0.1,0-0.1,0c-0.1,0-0.1,0-0.2,0.1c0,0.6-0.1,0.9-0.3,1.1c0-0.3,0.3-0.7,0.1-1
			c-0.1,0-0.2,0.1-0.3,0.1c0.1,0.5,0,0.8-0.2,1c-0.1-0.3,0.2-0.7-0.1-1c-0.1,0-0.2,0.1-0.2,0.1c0,0.2,0,0.4,0,0.6
			c0,0.2,0,0.4-0.2,0.6c0-0.2,0-0.3,0-0.4c0-0.1,0.1-0.2,0.1-0.4c0-0.3-0.1-0.4-0.4-0.3c0,0,0,0-0.1,0.1c0.2,0.3,0.1,0.7-0.2,1
			c0-0.1,0-0.2,0-0.3c0-0.2,0-0.3,0-0.5c0,0,0-0.1-0.1-0.1c-0.1,0-0.2,0.1-0.2,0.1c0,0.3,0,0.5-0.1,0.7c0,0-0.1,0.1-0.2,0.1
			c0-0.3,0.2-0.5,0-0.7c-0.4,0.2-0.1,0.7-0.5,0.9c-0.1-0.2,0.2-0.4,0-0.7C6.1,18,6,18.2,5.9,18.3c0,0.1-0.1,0.2-0.1,0.2
			c-0.3,0-0.3,0.2-0.4,0.4c0.2,0,0.4,0,0.6-0.1c1.1-0.3,2.3-0.2,3.4-0.1c0.2,0,0.4,0,0.5,0.1c0.7,0.2,1.4,0.3,2.1,0.5
			c0.8,0.3,1.6,0.6,2.4,1c0.8,0.4,1.5,0.8,2.2,1.4c0.5,0.5,0.9,1,1.4,1.5c0.1,0.1,0.2,0.2,0.2,0.2c0.7-0.5,1-1.6,0.7-2.5
			c-0.3,0.7-0.5,1.1-0.9,1.3c0-0.1,0.1-0.1,0.1-0.2c0.4-0.4,0.6-0.8,0.7-1.4c0.1-0.3,0.1-0.3-0.2-0.5c-0.1,0.7-0.5,1.1-0.9,1.6
			c0-0.1,0-0.1,0-0.2c0.2-0.2,0.3-0.5,0.5-0.7c0.3-0.5,0.5-1,0-1.5c-0.1,0.3-0.1,0.6-0.3,0.9c-0.1,0.3-0.3,0.5-0.6,0.7
			c0-0.1,0-0.1,0-0.1c0.4-0.4,0.6-0.9,0.7-1.5c0.1-0.4,0.1-0.4-0.3-0.7c-0.2,0.7-0.5,1.4-1,2.1c0-0.3,0.1-0.4,0.2-0.6
			c0.2-0.4,0.4-0.8,0.5-1.1c0.2-0.5,0.2-0.5-0.2-0.9c0,0,0,0,0,0c-0.2,1-0.5,1.6-0.9,1.9c0.1-0.2,0.2-0.3,0.2-0.5
			c0.1-0.3,0.3-0.6,0.4-0.9c0.1-0.7,0.1-0.7-0.5-1c0,0-0.1,0-0.1,0c0,0.3-0.1,0.6-0.1,0.8c0,0.4-0.2,0.8-0.5,1.2c0-0.1,0-0.1,0-0.2
			c0.4-0.5,0.4-1.2,0.4-1.8c0-0.2-0.1-0.3-0.2-0.4c-0.1,0-0.2-0.1-0.2-0.1c0,0.8-0.4,1.8-0.9,2.1c0.1-0.2,0.2-0.3,0.2-0.4
			c0.1-0.2,0.2-0.5,0.3-0.7c0.2-0.3,0.2-0.7,0.1-1.1c-0.1,0-0.3-0.1-0.5-0.2c0.1,0.8-0.3,1.4-0.7,2.1c0-0.2,0.1-0.3,0.1-0.4
			c0.2-0.3,0.3-0.7,0.4-1c0.1-0.4,0.1-0.8-0.6-0.8c0.2,0.5,0.1,1-0.2,1.5c-0.1,0.1-0.1,0.3-0.2,0.4c0,0-0.1,0.1-0.2,0.2
			c0.2-0.8,0.7-1.4,0.3-2.1c-0.2-0.1-0.4-0.1-0.6,0c0.1,0.7-0.1,1.2-0.5,1.7c0.2-0.6,0.6-1.1,0.3-1.8c-0.2,0-0.3-0.1-0.5,0
			C13,17.2,12.5,17.7,12.2,18.3z M21.6,17.2c0,0-0.1,0-0.1-0.1c0.1-0.2,0.3-0.4,0.4-0.6c0.4-0.6,0.6-1.1,0.7-1.8
			c0-0.4,0-0.7-0.4-0.8c0,0.5-0.2,0.9-0.4,1.3c-0.2,0.3-0.4,0.6-0.7,1c0,0-0.1,0.1-0.1,0.1c0.2-0.4,0.4-0.7,0.6-1
			c0.2-0.3,0.4-0.6,0.4-1c0.1-0.5,0-0.6-0.5-0.9c-0.1,0.9-0.6,1.6-1.1,2.3c0-0.1,0.1-0.2,0.1-0.4c0.2-0.3,0.3-0.5,0.5-0.8
			c0.1-0.2,0.2-0.5,0.3-0.8c0.1-0.5,0.1-0.5-0.5-0.7c-0.1,0.8-0.5,1.4-1,1.9c0-0.2,0.2-0.4,0.3-0.6c0.2-0.3,0.4-0.7,0.5-1
			c0.1-0.4,0.1-0.4-0.3-0.7c-0.1,0-0.1,0-0.2-0.1c0,0.4-0.2,0.8-0.4,1.1c-0.5,0.8-0.5,0.8-0.7,0.8c0.2-0.3,0.4-0.6,0.6-0.9
			c0.1-0.2,0.2-0.5,0.3-0.8c0.1-0.3,0-0.5-0.4-0.5c-0.1,0.6-0.6,1.4-1.1,1.8c0.1-0.2,0.2-0.2,0.2-0.3c0.2-0.3,0.4-0.6,0.6-1
			c0.2-0.4,0.1-0.6-0.3-0.7c0,0-0.1,0,0,0c-0.1,0.3-0.1,0.5-0.3,0.8c-0.2,0.4-0.5,0.7-0.8,1.1c0,0-0.1,0-0.2,0
			c0.3-0.3,0.5-0.6,0.7-0.9c0.2-0.3,0.4-0.6,0.3-0.9c0,0,0-0.1-0.1-0.1c-0.1,0-0.2,0-0.3,0c0,0-0.1,0-0.1,0
			c-0.3,0.9-0.8,1.8-1.2,1.9c0.2-0.3,0.5-0.6,0.6-0.9c0.2-0.3,0.4-0.7,0.3-1.1c-0.1,0-0.2,0-0.2,0c-0.2,0.3-0.3,0.7-0.5,0.9
			c-0.4,0.6-0.6,0.7-0.7,0.7c0.2-0.3,0.4-0.5,0.6-0.8c0.2-0.3,0.4-0.6,0.5-0.9c-0.2,0-0.4-0.1-0.6-0.1c-0.2,0.7-0.8,1.5-1.2,1.7
			c0-0.1,0.1-0.1,0.1-0.2c0.2-0.3,0.4-0.5,0.6-0.8c0.1-0.2,0.3-0.4,0.2-0.7c-0.2,0-0.4,0-0.6,0c-0.2,0.2-0.3,0.5-0.4,0.7
			c-0.2,0.2-0.3,0.4-0.5,0.6c-0.2,0.2-0.3,0.4-0.5,0.5c0.3-0.6,1-1.1,1.2-1.8c-0.2,0-0.4,0-0.5,0.2c-0.3,0.4-0.6,0.7-0.9,1
			c0,0-0.1,0-0.2,0.1c0.3-0.5,0.8-0.7,0.9-1.2c-0.3,0-0.3,0-0.5,0.2c-0.2,0.2-0.4,0.3-0.6,0.5c-0.1,0-0.1,0-0.3,0.1
			c0.2-0.2,0.3-0.2,0.4-0.4c-0.6,0.1-3.4,1.7-3.8,2.1c0.9-0.1,1.8-0.3,2.8-0.3c0.7,0,1.3,0,2,0.1c0.6,0.1,1.2,0.2,1.8,0.4
			c0.7,0.3,1.3,0.6,1.9,1c0.3,0.2,0.6,0.4,0.8,0.6c0.6,0.6,1.2,1.3,1.7,2.1c0.3,0.5,0.7,1.1,1,1.6c0.2,0.4,0.4,0.7,0.7,1
			c0.2,0,0.4-0.1,0.5-0.2c0.3-0.3,0.4-0.7,0.5-1.1c0.1-0.4,0.2-0.8,0.2-1.1c0-0.1,0-0.1,0-0.2c0-0.1,0-0.1,0-0.2
			c-0.5,0.9-0.7,1.2-1.1,1.4c0.1-0.2,0.2-0.3,0.3-0.4c0.2-0.3,0.5-0.7,0.7-1c0.2-0.4,0.2-0.8,0-1.3c-0.7,1.5-0.8,1.6-1.2,1.9
			c0.1-0.2,0.2-0.3,0.3-0.4c0.2-0.4,0.5-0.9,0.7-1.3c0.2-0.5,0.1-0.8-0.3-1.2c0,0.8-0.4,1.5-0.9,2c0.2-0.4,0.4-0.7,0.5-1.1
			c0.1-0.4,0.2-0.8,0.3-1.2c-0.2-0.2-0.3-0.4-0.5-0.6c-0.2,0.5-0.3,1-0.5,1.4C22.2,16.4,21.9,16.8,21.6,17.2z M15.7,11.3
			c0.4,0,0.9,0.1,1.3,0.1c1.9,0.2,3.5,1,5,2.1c0.6,0.5,1.2,1.1,1.7,1.7c0.4,0.4,0.6,0.9,0.6,1.5c0.1,0.6,0.2,1.2,0,1.8
			c-0.1,0.2-0.1,0.4-0.1,0.7c-0.1,0.4-0.2,0.9-0.5,1.2c-0.4,0.6-0.9,0.6-1.3,0c-0.2-0.3-0.3-0.6-0.4-0.9c-0.8-1.3-1.7-2.5-2.7-3.6
			c-0.6-0.3-1.2-0.7-1.8-1c-0.3-0.1-0.6-0.2-0.8-0.2c-1,0.2-1.7,0.7-2.4,1.4c-0.1-0.2,0-0.3,0.5-0.7c0.2-0.2,0.5-0.4,0.7-0.5
			c0.2-0.1,0.5-0.2,0.8-0.3c-0.4-0.1-0.7-0.1-1-0.1c-0.3,0-0.7,0-1.1,0c-1-0.1-2.1,0-3.1,0.1c-0.4,0.1-0.8,0.1-1.1,0.4
			c-0.3,0.3-0.6,0.5-0.9,0.8c-0.2,0.2-0.4,0.5-0.6,0.7c0,0-0.1,0-0.3,0.1c0.5-0.8,1.1-1.3,1.8-1.8c-0.5,0.1-0.9,0.2-1.2,0.5
			c-0.4,0.3-0.8,0.6-1.1,0.9c-0.5,0.4-0.9,0.9-1.3,1.3c0,0.1-0.1,0.1-0.1,0.2c0.4-0.2,0.6-0.3,0.9-0.4c1.8-0.6,3.7-0.9,5.6-0.8
			c0.5,0,1,0.1,1.5,0.2c0.8,0.2,1.5,0.5,2.2,1c0.8,0.6,1.6,1.3,2,2.2c0,0.1,0,0.1,0.1,0.2c0.5,0.7,0.6,1.4,0.5,2.2
			c-0.1,0.7-0.4,1.2-1,1.6c-0.2-0.1-0.4-0.2-0.5-0.4c-0.5-0.5-1-1.1-1.6-1.6c-0.4-0.4-0.8-0.8-1.3-1c-0.6-0.3-1.2-0.6-1.8-0.9
			c-0.3-0.1-0.6-0.2-0.8-0.3c-1-0.2-2-0.5-3-0.7c-0.4-0.1-0.9-0.2-1.3-0.1c-0.8,0.1-1.5,0.3-2.2,0.5c-0.8,0.2-1.4,0.7-1.5,1.6
			c0,0.1-0.1,0.2-0.1,0.3c-0.2,0.9-0.4,1.8-0.1,2.8c0.1,0.4,0.2,0.8,0.5,1.1c0.3,0.4,0.5,0.8,0.8,1.1c0.5,0.6,1,1.2,1.6,1.7
			c0.5,0.4,1,0.7,1.6,0.9c0.5,0.2,1.1,0.4,1.7,0.5c0.7,0.1,1.4,0.2,2.1,0.2c0.8,0,1.6,0,2.4-0.1c0.8-0.1,1.6-0.2,2.4-0.5
			c1.2-0.4,2.4-0.8,3.6-1.2c0.2-0.1,0.3-0.1,0.5-0.2c1.8-0.5,3.5-1.2,5.2-2c1.4-0.6,2.6-1.4,3.8-2.3c0.5-0.4,1-0.8,1.5-1.2
			c0.5-0.4,1.1-0.9,1.5-1.5c0.4-0.6,0.8-1.2,1.1-1.8c0.5-0.9,0.8-1.9,0.9-3c0-0.4,0-0.7,0-1.1c-0.1-0.7-0.1-1.4-0.6-2.1
			C34,12,33.6,11.5,33,11.1c0,0.2,0,0.3,0,0.5c0.1,0.5,0.1,1,0,1.5c0,0.2-0.1,0.4-0.3,0.5c-0.1-0.1-0.2-0.1-0.2-0.2
			c-0.1-0.2-0.3-0.4-0.4-0.5c-0.1-0.1-0.2-0.3-0.3-0.4c-0.3-0.7-0.8-1.2-1.4-1.7C29.7,10,28.9,9.5,28,10c-0.1,0-0.1,0.1-0.2,0.1
			c0,0-0.1,0-0.2-0.1c0.3-0.3,0.8-0.2,1.1-0.4c-0.1-0.2-0.2-0.2-0.4-0.2c-0.4-0.1-0.8,0.1-1.2,0.2c0-0.1,0-0.2,0.1-0.2
			c0.1-0.1,0.3-0.1,0.4-0.1c0.2,0,0.3,0,0.5-0.1c-0.8-0.2-1.9-0.2-2.2,0c0.1,0,0.1,0.1,0.2,0.1c0.5,0.2,0.9,0.5,1.3,0.9
			c0.4,0.5,0.8,1.1,1.2,1.6c0.5,0.8,0.9,1.6,0.9,2.6c0,0,0,0,0,0c0.1,0.8,0,1.6-0.2,2.4c0,0.2-0.1,0.3-0.2,0.4
			c-0.2,0.2-0.3,0.2-0.5,0.1c-0.1-0.1-0.2-0.1-0.2-0.2c-0.7-0.7-1.1-1.6-1.6-2.5c-0.3-0.6-0.7-1.2-1.2-1.7c-0.9-1-2-1.7-3.3-2
			c-0.5-0.1-1.1-0.3-1.6-0.4c-0.2,0.1-0.3,0.1-0.4,0.2c-0.2,0.1-0.5,0.1-0.7,0.2c-0.3,0.1-0.5,0.3-0.7,0.5c0,0-0.1,0-0.2,0
			c0.5-0.6,0.8-0.8,1.7-1c-1-0.2-1.7,0.2-2.5,0.8c0.2-0.4,0.7-0.7,1.3-0.9c-0.2-0.1-0.4-0.2-0.6-0.1C17.6,10.5,16.6,10.8,15.7,11.3z
			 M30.5,10.2c0.2,0.1,0.3,0.3,0.5,0.4c0.1,0.3,0.4,0.6,0.6,0.8c0.3-0.2,0.6-0.3,0.8-0.5c0.2-0.2,0.2-0.2,0-0.5
			c-0.2,0.1-0.3,0.2-0.5,0.3c-0.2,0.1-0.3,0.3-0.6,0.2c0.4-0.2,0.7-0.4,1-0.6c0,0,0-0.1,0-0.1c-0.1,0-0.2,0-0.3,0
			c-0.2,0.1-0.3,0.2-0.4,0.2c-0.2,0.1-0.4,0.1-0.5,0.1c0.3-0.2,0.6-0.3,0.9-0.5c-0.2-0.2-0.4-0.2-0.6-0.1
			C31,10.2,30.7,10.2,30.5,10.2c0.1-0.1,0.2-0.1,0.3-0.2c0.1-0.1,0.3-0.1,0.4-0.2c-0.2-0.2-0.5,0-0.8-0.1c0-0.1,0.1-0.1,0.1-0.2
			c-0.4-0.1-0.8-0.2-1.2-0.3C29.7,9.6,30.1,9.9,30.5,10.2C30.5,10.2,30.5,10.2,30.5,10.2z M12.8,30c-1-0.1-2-0.1-2.9-0.4
			c-1.6-0.4-3-1.1-4.1-2.3c-0.7-0.7-1.3-1.4-1.8-2.3c-0.3-0.6-0.5-1.2-0.5-1.8c0-0.7,0.2-1.4,0.3-2.2C4.1,20.3,4.5,19.6,5,19
			c0.1-0.1,0.2-0.2,0.2-0.3c0.7-1.2,1.5-2.2,2.6-3c0.7-0.6,1.5-1.1,2.2-1.7c0.9-0.7,1.9-1.2,2.8-1.7c1-0.5,1.9-1,2.9-1.4
			c0.8-0.3,1.6-0.6,2.5-0.9c1.1-0.3,2.2-0.5,3.3-0.7c0.6-0.1,1.3-0.2,1.9-0.3c0.5-0.1,0.9-0.1,1.4-0.1c0.4,0,0.8,0,1.2-0.1
			c0.8-0.1,1.5-0.1,2.3,0.1c0.1,0,0.3,0,0.4,0c0.4,0,0.7,0,1,0.2c0.8,0.3,1.5,0.6,2.3,0.9c0.3,0.1,0.5,0.3,0.7,0.5
			c0.5,0.4,0.9,0.8,1.3,1.2c0.5,0.4,0.7,1,0.9,1.6c0.1,0.3,0.1,0.6,0.2,0.9c0.1,0.8,0.2,1.7,0,2.5c0,0.1,0,0.1,0,0.2
			c-0.3,0.7-0.6,1.4-0.9,2c-0.4,0.9-0.9,1.7-1.5,2.4c-0.4,0.4-0.8,0.8-1.2,1.1c-0.8,0.6-1.6,1.2-2.5,1.8c-0.5,0.3-0.9,0.6-1.4,0.8
			c-1,0.4-1.9,0.9-2.8,1.4c-0.5,0.3-1.1,0.5-1.6,0.7c-0.8,0.3-1.7,0.7-2.5,1c-0.7,0.3-1.4,0.6-2.1,0.8c-1.3,0.5-2.6,0.8-3.9,1
			C14.1,30,13.4,30,12.8,30"/>
	</g>
</g>
<path class="st0" d="M19.6,20.5c0.3,0.2,0.4,0.5,0.4,0.9c0.1,0.9-0.3,1.7-0.9,2.3c0-0.1,0-0.2,0-0.2c0.1-0.1,0.1-0.2,0.2-0.3
	C19.9,22.4,20.1,21.5,19.6,20.5"/>
<path class="st0" d="M15.5,22c0.3,0.1,0.6,0.3,0.8,0.6c0.5,0.5,0.9,1.1,1.6,1.5c-0.2,0.1-0.3,0-0.5-0.1c-0.4-0.2-0.6-0.5-0.9-0.9
	c-0.3-0.3-0.5-0.6-0.9-0.9C15.5,22.2,15.5,22.2,15.5,22C15.4,22.1,15.4,22,15.5,22"/>
<path class="st0" d="M21.3,20.1c0.2,0,0.2,0.1,0.3,0.2c0.3,0.4,0.6,0.7,1.1,0.9c0.3,0.1,0.7,0.2,1,0c0,0,0.1,0,0.1,0c0,0,0,0,0.1,0
	c0,0-0.1,0.1-0.1,0.1c-0.5,0.3-1,0.2-1.5-0.1C21.9,20.9,21.5,20.6,21.3,20.1"/>
<path class="st0" d="M25,16.5c0.2,0.6,0.4,1.3,0.2,2c-0.1,0.4-0.3,0.7-0.4,1.1c0,0-0.1,0-0.1,0c0.1-0.3,0.3-0.7,0.4-1
	c0.1-0.3,0.2-0.7,0.1-1C25,17.2,24.9,16.9,25,16.5"/>
<path class="st0" d="M15,25.7c0.5,0.9,1,1.8,1.8,2.6c-0.2-0.1-0.2-0.1-0.3-0.1c-0.1-0.1-0.2-0.2-0.3-0.4c-0.4-0.5-0.7-1.1-1-1.6
	C15,26,15,25.9,15,25.7"/>
<path class="st0" d="M19.3,27.6c-0.3,0-0.5-0.1-0.7-0.3c-0.6-0.4-1-1.1-1.3-1.8c0.1,0,0.1,0.1,0.2,0.1c0.2,0.4,0.5,0.8,0.8,1.2
	c0.3,0.3,0.5,0.5,0.9,0.6C19.2,27.5,19.2,27.5,19.3,27.6"/>
<path class="st0" d="M13.3,15.9c0.1-0.4,0.4-0.6,0.6-0.8c0.4-0.3,0.8-0.6,1.4-0.7c-0.2,0.1-0.3,0.2-0.5,0.3
	c-0.2,0.1-0.4,0.2-0.6,0.4c-0.2,0.1-0.3,0.2-0.5,0.4C13.6,15.6,13.4,15.8,13.3,15.9"/>
<path class="st0" d="M15,16.2c0.4-0.7,1.3-1.3,2-1.2c-0.4,0.2-0.8,0.3-1.1,0.5C15.7,15.7,15.4,15.9,15,16.2"/>
<path class="st0" d="M19.5,11.8c0.2-0.5,1.2-1,2-1c-0.1,0.2-0.3,0.1-0.4,0.2c-0.1,0-0.3,0.1-0.4,0.1c-0.2,0.1-0.3,0.1-0.4,0.2
	c-0.1,0.1-0.3,0.2-0.4,0.2C19.8,11.6,19.7,11.7,19.5,11.8"/>
<path class="st0" d="M15.8,16.5c0.5-0.6,1.1-0.9,1.9-1c-0.3,0.2-0.7,0.3-1,0.5C16.4,16.1,16.2,16.4,15.8,16.5"/>
<path class="st0" d="M18.7,25.6c0.2,0.3,0.4,0.6,0.7,0.8c0.2,0.3,0.5,0.5,0.8,0.7c-0.1,0-0.2,0-0.2,0C19.4,26.8,18.9,26.4,18.7,25.6
	C18.6,25.7,18.7,25.7,18.7,25.6"/>
<path class="st0" d="M22.2,11.2c-0.2,0.1-0.4,0.1-0.6,0.2c-0.2,0.1-0.3,0.1-0.5,0.2c-0.2,0.1-0.3,0.2-0.5,0.3
	c-0.1,0.1-0.2,0.3-0.5,0.2C20.6,11.5,21.5,11.1,22.2,11.2"/>
<path class="st0" d="M16.2,25.8c0.2,0.3,0.4,0.6,0.6,0.9c0.2,0.3,0.4,0.6,0.6,0.9c-0.2-0.1-0.2-0.1-0.8-0.8
	C16.4,26.5,16.2,26.2,16.2,25.8C16.1,25.9,16.1,25.9,16.2,25.8"/>
<path class="st0" d="M21.6,26.8c-0.8,0-1.6-0.6-1.7-1.3c0.3,0.3,0.5,0.6,0.7,0.8C20.9,26.5,21.2,26.6,21.6,26.8"/>
<path class="st0" d="M23.1,11.7c-0.6,0.2-1.3,0.3-1.9,0.8c0-0.3,0.2-0.3,0.3-0.4C21.9,11.8,22.5,11.7,23.1,11.7"/>
<path class="st0" d="M16.8,16.9c0.2-0.4,1.1-0.8,1.6-0.8C17.8,16.3,17.3,16.6,16.8,16.9"/>
<path class="st0" d="M25.1,13.4c-0.6,0.1-1.1,0.3-1.6,0.7c0,0,0,0-0.1-0.1c0-0.1,0-0.1,0.1-0.2c0.2-0.1,0.4-0.2,0.6-0.3
	C24.4,13.4,24.7,13.4,25.1,13.4"/>
<path class="st0" d="M21.1,25.2c0.3,0.5,0.7,0.8,1.2,1.2c-0.1,0-0.2,0.1-0.2,0.1c-0.4-0.2-0.7-0.5-1-0.8
	C21.1,25.5,21,25.4,21.1,25.2"/>
<path class="st0" d="M19.6,16.9c-0.7,0.2-1.2,0.4-1.6,0.9c-0.1-0.3,0.1-0.4,0.2-0.5C18.7,17,19.2,16.8,19.6,16.9"/>
<path class="st0" d="M22.6,13.6c0.4-0.6,1.2-0.9,1.8-0.8c-0.3,0.1-0.6,0.2-0.9,0.3C23.2,13.2,23,13.4,22.6,13.6"/>
<path class="st0" d="M20.2,17.7c-0.2,0.1-0.4,0.1-0.5,0.2c-0.2,0.1-0.4,0.2-0.6,0.3c-0.2,0.1-0.3,0.2-0.5,0.4c0-0.2,0-0.2,0.1-0.2
	C19.1,17.9,19.6,17.7,20.2,17.7C20.1,17.6,20.2,17.6,20.2,17.7"/>
<path class="st0" d="M24,14.8c0.4-0.5,0.8-0.7,1.7-0.6c-0.3,0.1-0.6,0.1-0.8,0.2C24.6,14.5,24.3,14.7,24,14.8"/>
<path class="st0" d="M22.1,12.9c0.3-0.4,1.2-0.8,1.8-0.8c-0.4,0.1-0.7,0.2-0.9,0.4C22.6,12.6,22.4,12.8,22.1,12.9"/>
<path class="st0" d="M19.2,19.2c0.2-0.4,0.8-0.7,1.4-0.6c-0.2,0.1-0.5,0.2-0.7,0.3C19.7,18.9,19.5,19,19.2,19.2"/>
<path class="st0" d="M23.3,26c-0.4,0-0.8-0.3-1-0.8c0.3,0,0.3,0.3,0.5,0.4C22.9,25.7,23.1,25.8,23.3,26"/>
<path class="st0" d="M13,22.5c0.3-0.3,0.8-0.5,1.2-0.6c0,0,0.1,0,0.2,0.1C13.9,22.2,13.4,22.4,13,22.5"/>
<path class="st0" d="M26.2,14.9C26,15,25.7,15,25.5,15.1c-0.2,0.1-0.4,0.2-0.7,0.3C25.2,15,25.7,14.8,26.2,14.9"/>
<path class="st0" d="M23.2,24.9c0.2,0.1,0.3,0.2,0.5,0.4c0.2,0.1,0.3,0.2,0.6,0.3c-0.1,0-0.2,0-0.2,0C23.6,25.5,23.3,25.3,23.2,24.9
	C23.1,24.9,23.2,24.9,23.2,24.9"/>
<path class="st0" d="M14.6,22.7c-0.4,0.2-0.8,0.4-1.1,0.6C13.8,22.8,14.2,22.6,14.6,22.7"/>
<path class="st0" d="M25.4,16.1c0.3-0.2,0.7-0.4,1.1-0.3C26.4,15.9,26.2,16,26,16C25.8,16.1,25.7,16.2,25.4,16.1
	C25.5,16.2,25.5,16.2,25.4,16.1"/>
<path class="st0" d="M19.8,19.8c0.2-0.2,0.5-0.4,0.8-0.4C20.3,19.7,20,19.8,19.8,19.8"/>
<path class="st0" d="M25.6,17c0.3-0.1,0.6-0.2,0.9-0.3C26.2,17,26,17.1,25.6,17"/>
</svg>
