<svg xmlns="http://www.w3.org/2000/svg" xmlns:xlink="http://www.w3.org/1999/xlink" width="40" zoomAndPan="magnify" viewBox="0 0 30 30.000001" height="40" preserveAspectRatio="xMidYMid meet" version="1.0"><defs><clipPath id="5df77f6332"><path d="M 3.605469 2.902344 L 26.832031 2.902344 L 26.832031 26 L 3.605469 26 Z M 3.605469 2.902344 " clip-rule="nonzero"/></clipPath></defs><g clip-path="url(#5df77f6332)"><path fill="#ffffff" d="M 25.292969 11.65625 C 25.222656 11.273438 25.21875 10.886719 25.273438 10.5 C 25.324219 9.863281 25.378906 9.203125 25.050781 8.640625 C 24.722656 8.066406 24.117188 7.785156 23.535156 7.507812 C 23.175781 7.367188 22.851562 7.171875 22.558594 6.925781 C 22.308594 6.628906 22.117188 6.304688 21.972656 5.945312 C 21.699219 5.363281 21.414062 4.761719 20.84375 4.429688 C 20.28125 4.105469 19.621094 4.15625 18.980469 4.207031 C 18.59375 4.265625 18.210938 4.257812 17.824219 4.1875 C 17.472656 4.058594 17.148438 3.878906 16.855469 3.644531 C 16.347656 3.292969 15.769531 2.890625 15.09375 2.890625 C 14.417969 2.890625 13.835938 3.292969 13.328125 3.648438 C 13.035156 3.878906 12.710938 4.0625 12.359375 4.191406 C 11.972656 4.257812 11.585938 4.265625 11.199219 4.210938 C 10.5625 4.15625 9.902344 4.105469 9.339844 4.429688 C 8.769531 4.761719 8.484375 5.367188 8.210938 5.949219 C 8.066406 6.304688 7.871094 6.632812 7.625 6.925781 C 7.332031 7.171875 7.003906 7.367188 6.648438 7.507812 C 6.066406 7.785156 5.460938 8.066406 5.132812 8.640625 C 4.804688 9.203125 4.859375 9.863281 4.910156 10.5 C 4.964844 10.886719 4.960938 11.273438 4.890625 11.660156 C 4.761719 12.011719 4.582031 12.332031 4.347656 12.628906 C 3.992188 13.136719 3.59375 13.714844 3.59375 14.390625 C 3.59375 15.066406 3.992188 15.644531 4.347656 16.15625 C 4.582031 16.449219 4.761719 16.773438 4.890625 17.125 C 4.960938 17.507812 4.964844 17.894531 4.910156 18.28125 C 4.859375 18.917969 4.804688 19.578125 5.132812 20.140625 C 5.464844 20.710938 6.066406 20.996094 6.648438 21.273438 C 7.007812 21.414062 7.332031 21.609375 7.628906 21.855469 C 7.875 22.152344 8.070312 22.476562 8.210938 22.835938 C 8.484375 23.417969 8.769531 24.019531 9.34375 24.351562 C 9.90625 24.675781 10.5625 24.625 11.203125 24.574219 C 11.589844 24.515625 11.976562 24.523438 12.359375 24.59375 C 12.710938 24.722656 13.035156 24.902344 13.328125 25.136719 C 13.839844 25.488281 14.417969 25.890625 15.09375 25.890625 C 15.769531 25.890625 16.347656 25.488281 16.859375 25.136719 C 17.152344 24.902344 17.476562 24.722656 17.828125 24.59375 C 18.210938 24.523438 18.597656 24.515625 18.984375 24.574219 C 19.621094 24.625 20.28125 24.675781 20.84375 24.351562 C 21.414062 24.019531 21.699219 23.417969 21.976562 22.835938 C 22.117188 22.476562 22.3125 22.152344 22.558594 21.855469 C 22.855469 21.609375 23.179688 21.414062 23.539062 21.273438 C 24.121094 21 24.722656 20.714844 25.054688 20.140625 C 25.378906 19.578125 25.328125 18.917969 25.277344 18.28125 C 25.21875 17.894531 25.226562 17.507812 25.296875 17.125 C 25.425781 16.773438 25.605469 16.449219 25.839844 16.15625 C 26.191406 15.644531 26.59375 15.066406 26.59375 14.390625 C 26.59375 13.714844 26.191406 13.136719 25.839844 12.625 C 25.605469 12.332031 25.421875 12.007812 25.292969 11.65625 Z M 25.128906 15.664062 C 24.835938 16.039062 24.613281 16.449219 24.460938 16.902344 C 24.363281 17.382812 24.347656 17.863281 24.414062 18.351562 C 24.457031 18.878906 24.496094 19.378906 24.308594 19.710938 C 24.109375 20.050781 23.652344 20.265625 23.167969 20.492188 C 22.71875 20.675781 22.3125 20.925781 21.949219 21.246094 C 21.628906 21.609375 21.375 22.015625 21.195312 22.464844 C 20.964844 22.953125 20.75 23.410156 20.410156 23.605469 C 20.082031 23.796875 19.582031 23.753906 19.050781 23.714844 C 18.566406 23.644531 18.082031 23.660156 17.601562 23.757812 C 17.152344 23.910156 16.738281 24.132812 16.363281 24.425781 C 15.917969 24.738281 15.5 25.027344 15.09375 25.027344 C 14.6875 25.027344 14.265625 24.738281 13.820312 24.425781 C 13.445312 24.132812 13.03125 23.910156 12.582031 23.757812 C 12.339844 23.699219 12.097656 23.671875 11.847656 23.675781 C 11.609375 23.675781 11.367188 23.695312 11.132812 23.714844 C 10.601562 23.753906 10.101562 23.796875 9.773438 23.605469 C 9.433594 23.410156 9.21875 22.953125 8.988281 22.464844 C 8.808594 22.015625 8.554688 21.609375 8.234375 21.246094 C 7.871094 20.925781 7.464844 20.675781 7.015625 20.492188 C 6.53125 20.265625 6.074219 20.046875 5.875 19.710938 C 5.6875 19.378906 5.726562 18.878906 5.769531 18.351562 C 5.835938 17.863281 5.820312 17.382812 5.722656 16.902344 C 5.570312 16.449219 5.351562 16.039062 5.054688 15.664062 C 4.746094 15.21875 4.453125 14.796875 4.453125 14.390625 C 4.453125 13.984375 4.746094 13.5625 5.054688 13.117188 C 5.347656 12.742188 5.570312 12.332031 5.722656 11.878906 C 5.820312 11.398438 5.835938 10.914062 5.769531 10.429688 C 5.726562 9.902344 5.6875 9.402344 5.878906 9.070312 C 6.074219 8.730469 6.53125 8.515625 7.015625 8.289062 C 7.464844 8.105469 7.871094 7.855469 8.234375 7.535156 C 8.558594 7.171875 8.808594 6.765625 8.988281 6.316406 C 9.21875 5.828125 9.433594 5.371094 9.773438 5.175781 C 10.101562 4.984375 10.601562 5.023438 11.132812 5.066406 C 11.617188 5.136719 12.101562 5.121094 12.582031 5.023438 C 13.03125 4.871094 13.445312 4.648438 13.820312 4.355469 C 14.265625 4.042969 14.6875 3.75 15.09375 3.75 C 15.5 3.75 15.917969 4.042969 16.363281 4.355469 C 16.738281 4.648438 17.152344 4.871094 17.601562 5.023438 C 18.082031 5.121094 18.566406 5.136719 19.050781 5.066406 C 19.582031 5.023438 20.082031 4.984375 20.410156 5.175781 C 20.75 5.371094 20.964844 5.828125 21.195312 6.316406 C 21.375 6.765625 21.628906 7.171875 21.949219 7.535156 C 22.3125 7.855469 22.71875 8.105469 23.167969 8.289062 C 23.652344 8.515625 24.109375 8.730469 24.308594 9.070312 C 24.496094 9.402344 24.457031 9.902344 24.414062 10.429688 C 24.347656 10.914062 24.363281 11.398438 24.460938 11.878906 C 24.613281 12.332031 24.835938 12.742188 25.128906 13.117188 C 25.4375 13.5625 25.730469 13.984375 25.730469 14.390625 C 25.730469 14.796875 25.4375 15.21875 25.128906 15.664062 Z M 25.128906 15.664062 " fill-opacity="1" fill-rule="nonzero"/></g><path fill="#ffffff" d="M 15.09375 6.433594 C 14.570312 6.433594 14.050781 6.484375 13.539062 6.585938 C 13.027344 6.6875 12.53125 6.839844 12.046875 7.039062 C 11.5625 7.238281 11.105469 7.484375 10.671875 7.773438 C 10.238281 8.066406 9.835938 8.394531 9.464844 8.765625 C 9.097656 9.132812 8.765625 9.535156 8.476562 9.96875 C 8.183594 10.402344 7.941406 10.863281 7.742188 11.34375 C 7.539062 11.828125 7.390625 12.324219 7.289062 12.839844 C 7.1875 13.351562 7.132812 13.867188 7.132812 14.390625 C 7.132812 14.914062 7.1875 15.429688 7.289062 15.941406 C 7.390625 16.457031 7.539062 16.953125 7.742188 17.4375 C 7.941406 17.917969 8.183594 18.378906 8.476562 18.8125 C 8.765625 19.246094 9.097656 19.648438 9.464844 20.015625 C 9.835938 20.386719 10.238281 20.71875 10.671875 21.007812 C 11.105469 21.296875 11.5625 21.542969 12.046875 21.742188 C 12.53125 21.941406 13.027344 22.09375 13.539062 22.195312 C 14.050781 22.296875 14.570312 22.347656 15.09375 22.347656 C 15.613281 22.347656 16.132812 22.296875 16.644531 22.195312 C 17.15625 22.09375 17.65625 21.941406 18.136719 21.742188 C 18.621094 21.542969 19.078125 21.296875 19.511719 21.007812 C 19.949219 20.714844 20.347656 20.386719 20.71875 20.015625 C 21.089844 19.648438 21.417969 19.246094 21.707031 18.8125 C 22 18.375 22.242188 17.917969 22.445312 17.4375 C 22.644531 16.953125 22.792969 16.457031 22.898438 15.941406 C 23 15.429688 23.050781 14.914062 23.050781 14.390625 C 23.050781 13.867188 22.996094 13.351562 22.894531 12.839844 C 22.792969 12.328125 22.640625 11.828125 22.441406 11.347656 C 22.242188 10.863281 21.996094 10.40625 21.707031 9.972656 C 21.414062 9.539062 21.085938 9.136719 20.714844 8.765625 C 20.347656 8.398438 19.945312 8.066406 19.511719 7.777344 C 19.078125 7.488281 18.617188 7.242188 18.136719 7.042969 C 17.652344 6.839844 17.15625 6.691406 16.644531 6.585938 C 16.132812 6.484375 15.613281 6.433594 15.09375 6.433594 Z M 15.09375 21.488281 C 14.625 21.488281 14.164062 21.441406 13.707031 21.351562 C 13.25 21.261719 12.808594 21.125 12.375 20.945312 C 11.945312 20.769531 11.535156 20.550781 11.148438 20.292969 C 10.761719 20.03125 10.402344 19.738281 10.074219 19.410156 C 9.746094 19.078125 9.449219 18.71875 9.191406 18.332031 C 8.933594 17.945312 8.714844 17.535156 8.535156 17.105469 C 8.359375 16.675781 8.222656 16.230469 8.132812 15.773438 C 8.039062 15.316406 7.996094 14.855469 7.996094 14.390625 C 7.996094 13.925781 8.039062 13.464844 8.132812 13.007812 C 8.222656 12.550781 8.355469 12.105469 8.535156 11.675781 C 8.714844 11.246094 8.933594 10.835938 9.191406 10.449219 C 9.449219 10.0625 9.746094 9.703125 10.074219 9.371094 C 10.402344 9.042969 10.761719 8.75 11.148438 8.488281 C 11.535156 8.230469 11.945312 8.011719 12.375 7.835938 C 12.808594 7.65625 13.25 7.523438 13.707031 7.429688 C 14.164062 7.339844 14.625 7.292969 15.09375 7.292969 C 15.558594 7.292969 16.019531 7.339844 16.476562 7.429688 C 16.933594 7.519531 17.378906 7.65625 17.808594 7.835938 C 18.238281 8.011719 18.648438 8.230469 19.035156 8.488281 C 19.421875 8.75 19.78125 9.042969 20.109375 9.371094 C 20.4375 9.703125 20.734375 10.058594 20.992188 10.449219 C 21.25 10.835938 21.46875 11.246094 21.648438 11.675781 C 21.828125 12.105469 21.960938 12.550781 22.050781 13.007812 C 22.144531 13.464844 22.1875 13.925781 22.1875 14.390625 C 22.1875 14.855469 22.140625 15.316406 22.050781 15.773438 C 21.960938 16.230469 21.824219 16.675781 21.644531 17.105469 C 21.46875 17.535156 21.25 17.945312 20.988281 18.332031 C 20.730469 18.71875 20.4375 19.078125 20.109375 19.40625 C 19.777344 19.734375 19.421875 20.03125 19.03125 20.289062 C 18.644531 20.546875 18.238281 20.765625 17.804688 20.945312 C 17.375 21.125 16.933594 21.257812 16.476562 21.347656 C 16.019531 21.441406 15.558594 21.488281 15.09375 21.488281 Z M 15.09375 21.488281 " fill-opacity="1" fill-rule="nonzero"/><path fill="#ffffff" d="M 18.699219 10.71875 C 18.308594 10.714844 17.976562 10.855469 17.699219 11.132812 L 14.183594 14.648438 L 12.484375 12.949219 C 12.351562 12.816406 12.199219 12.710938 12.027344 12.640625 C 11.851562 12.566406 11.671875 12.53125 11.480469 12.527344 C 11.292969 12.527344 11.113281 12.5625 10.9375 12.636719 C 10.765625 12.707031 10.609375 12.808594 10.476562 12.945312 C 10.34375 13.078125 10.242188 13.230469 10.167969 13.40625 C 10.097656 13.578125 10.0625 13.761719 10.0625 13.949219 C 10.0625 14.136719 10.101562 14.320312 10.171875 14.492188 C 10.246094 14.664062 10.351562 14.820312 10.484375 14.949219 L 13.183594 17.648438 C 13.316406 17.78125 13.46875 17.882812 13.640625 17.957031 C 13.816406 18.027344 13.996094 18.0625 14.183594 18.0625 C 14.371094 18.0625 14.550781 18.027344 14.722656 17.957031 C 14.898438 17.882812 15.050781 17.78125 15.183594 17.648438 L 19.699219 13.132812 C 19.902344 12.929688 20.03125 12.6875 20.085938 12.40625 C 20.144531 12.128906 20.117188 11.855469 20.007812 11.589844 C 19.898438 11.328125 19.722656 11.113281 19.484375 10.957031 C 19.246094 10.796875 18.984375 10.71875 18.699219 10.71875 Z M 19.089844 12.523438 L 14.574219 17.039062 C 14.464844 17.144531 14.332031 17.199219 14.183594 17.199219 C 14.03125 17.199219 13.902344 17.144531 13.792969 17.039062 L 11.09375 14.339844 C 10.984375 14.234375 10.929688 14.101562 10.929688 13.949219 C 10.929688 13.796875 10.984375 13.667969 11.09375 13.558594 C 11.199219 13.449219 11.332031 13.394531 11.484375 13.394531 C 11.636719 13.394531 11.765625 13.449219 11.875 13.558594 L 13.878906 15.5625 C 13.960938 15.644531 14.0625 15.6875 14.183594 15.6875 C 14.300781 15.6875 14.402344 15.644531 14.488281 15.5625 L 18.308594 11.742188 C 18.417969 11.636719 18.546875 11.582031 18.699219 11.582031 C 18.851562 11.582031 18.980469 11.636719 19.089844 11.742188 C 19.199219 11.847656 19.253906 11.980469 19.253906 12.132812 C 19.253906 12.285156 19.199219 12.414062 19.089844 12.523438 Z M 19.089844 12.523438 " fill-opacity="1" fill-rule="nonzero"/></svg>