<svg xmlns="http://www.w3.org/2000/svg" xmlns:xlink="http://www.w3.org/1999/xlink" width="40" zoomAndPan="magnify" viewBox="0 0 30 30.000001" height="40" preserveAspectRatio="xMidYMid meet" version="1.0"><defs><clipPath id="afe3ad9284"><path d="M 2.667969 5 L 26.617188 5 L 26.617188 23.839844 L 2.667969 23.839844 Z M 2.667969 5 " clip-rule="nonzero"/></clipPath></defs><g clip-path="url(#afe3ad9284)"><path fill="#ffffff" d="M 15.042969 16.148438 C 16.515625 16.148438 17.710938 17.34375 17.710938 18.816406 C 17.710938 20.292969 16.515625 21.488281 15.042969 21.488281 C 13.566406 21.488281 12.371094 20.292969 12.371094 18.816406 C 12.375 17.34375 13.566406 16.148438 15.042969 16.148438 Z M 17.292969 18.816406 C 17.292969 17.574219 16.285156 16.566406 15.042969 16.566406 C 13.796875 16.566406 12.792969 17.574219 12.792969 18.816406 C 12.792969 20.0625 13.796875 21.070312 15.042969 21.070312 C 16.285156 21.070312 17.292969 20.0625 17.292969 18.816406 Z M 14.664062 13.601562 L 15.40625 13.601562 C 15.738281 13.601562 16.011719 13.875 16.011719 14.207031 L 16.011719 14.496094 C 16.011719 14.578125 16.058594 14.644531 16.136719 14.671875 C 16.199219 11.832031 18.519531 9.554688 21.367188 9.554688 C 24.257812 9.554688 26.601562 11.894531 26.601562 14.785156 C 26.601562 17.996094 23.730469 20.453125 20.550781 19.953125 C 20.296875 19.914062 20.054688 19.855469 19.820312 19.785156 C 19.769531 19.796875 19.714844 19.804688 19.660156 19.804688 L 19.367188 19.804688 C 19.28125 19.804688 19.210938 19.859375 19.1875 19.945312 L 19.007812 20.476562 C 18.9375 20.648438 18.855469 20.820312 18.757812 20.980469 C 18.601562 21.253906 19.171875 21.328125 19.171875 21.835938 C 19.171875 21.992188 19.113281 22.144531 18.996094 22.265625 L 18.46875 22.789062 C 18.234375 23.027344 17.847656 23.027344 17.613281 22.789062 C 17.195312 22.371094 17.390625 22.507812 16.679688 22.804688 C 16.507812 22.875 16.332031 22.9375 16.148438 22.984375 C 15.839844 23.066406 16.191406 23.519531 15.832031 23.882812 C 15.722656 23.992188 15.574219 24.058594 15.40625 24.058594 L 14.664062 24.058594 C 14.328125 24.058594 14.058594 23.785156 14.058594 23.453125 L 14.058594 23.164062 C 14.058594 23.078125 14.003906 23.007812 13.917969 22.984375 C 13.558594 22.886719 13.207031 22.742188 12.882812 22.554688 C 12.808594 22.511719 12.722656 22.523438 12.660156 22.585938 C 12.460938 22.78125 12.324219 22.964844 12.027344 22.964844 C 11.875 22.964844 11.71875 22.90625 11.601562 22.789062 L 11.074219 22.265625 C 10.839844 22.027344 10.839844 21.644531 11.074219 21.410156 L 11.289062 21.195312 C 11.34375 21.140625 11.351562 21.050781 11.308594 20.980469 C 11.214844 20.820312 11.132812 20.652344 11.0625 20.476562 L 11.058594 20.476562 C 10.988281 20.300781 10.929688 20.125 10.878906 19.941406 C 10.796875 19.636719 10.34375 19.988281 9.984375 19.628906 C 9.875 19.519531 9.804688 19.367188 9.804688 19.203125 L 9.804688 18.457031 C 9.804688 18.125 10.078125 17.851562 10.410156 17.851562 L 10.699219 17.851562 C 10.789062 17.851562 10.855469 17.800781 10.878906 17.714844 C 10.976562 17.351562 11.121094 17.003906 11.308594 16.679688 C 11.351562 16.605469 11.34375 16.515625 11.28125 16.453125 L 11.277344 16.457031 C 11.082031 16.257812 10.898438 16.121094 10.898438 15.824219 C 10.898438 15.667969 10.957031 15.515625 11.074219 15.394531 L 11.601562 14.871094 C 11.835938 14.632812 12.21875 14.632812 12.457031 14.871094 L 12.667969 15.082031 C 12.722656 15.136719 12.8125 15.144531 12.886719 15.105469 C 13.046875 15.011719 13.214844 14.929688 13.390625 14.855469 C 13.5625 14.785156 13.738281 14.726562 13.921875 14.675781 C 14.007812 14.652344 14.058594 14.582031 14.058594 14.496094 L 14.0625 14.496094 L 14.0625 14.207031 L 14.058594 14.207031 C 14.058594 13.875 14.328125 13.601562 14.664062 13.601562 Z M 16.554688 14.804688 C 16.773438 14.890625 16.984375 14.988281 17.1875 15.105469 C 17.261719 15.148438 17.347656 15.136719 17.410156 15.074219 L 17.414062 15.070312 C 17.25 12.769531 19.070312 10.820312 21.367188 10.820312 C 23.558594 10.820312 25.332031 12.597656 25.332031 14.785156 C 25.332031 17.433594 22.789062 19.328125 20.265625 18.59375 L 20.265625 19.203125 C 20.265625 19.292969 20.242188 19.382812 20.207031 19.460938 C 23.222656 20.210938 26.183594 17.929688 26.183594 14.785156 C 26.183594 12.128906 24.027344 9.972656 21.367188 9.972656 C 18.710938 9.972656 16.558594 12.113281 16.554688 14.804688 Z M 17.820312 14.734375 C 17.898438 14.707031 17.980469 14.691406 18.0625 14.695312 C 18.136719 14.542969 18.304688 14.578125 18.488281 14.578125 C 18.714844 14.578125 18.78125 14.886719 18.574219 14.976562 L 18.996094 15.398438 C 19.199219 15.601562 19.230469 15.921875 19.070312 16.15625 C 19.101562 16.25 19.066406 16.355469 18.980469 16.40625 L 18.742188 16.539062 C 18.726562 16.585938 18.734375 16.636719 18.761719 16.679688 C 18.855469 16.84375 18.9375 17.011719 19.007812 17.183594 C 19.058594 17.304688 19.101562 17.425781 19.140625 17.546875 C 19.28125 17.660156 19.429688 17.761719 19.585938 17.855469 C 19.609375 17.859375 19.867188 17.8125 20.085938 18.03125 C 20.113281 18.0625 20.140625 18.089844 20.160156 18.125 C 20.535156 18.261719 20.945312 18.335938 21.367188 18.335938 C 23.328125 18.335938 24.914062 16.746094 24.914062 14.789062 C 24.914062 12.828125 23.328125 11.238281 21.367188 11.238281 C 19.425781 11.238281 17.847656 12.796875 17.820312 14.734375 Z M 15.40625 14.019531 L 14.664062 14.019531 C 14.558594 14.019531 14.476562 14.101562 14.476562 14.207031 L 14.476562 14.496094 C 14.476562 14.769531 14.292969 15.007812 14.03125 15.078125 C 13.863281 15.121094 13.703125 15.179688 13.550781 15.242188 L 13.09375 15.464844 C 12.855469 15.605469 12.558594 15.5625 12.367188 15.371094 L 12.160156 15.167969 C 12.085938 15.09375 11.96875 15.09375 11.898438 15.167969 L 11.371094 15.691406 C 11.300781 15.765625 11.300781 15.882812 11.371094 15.957031 L 11.574219 16.160156 C 11.769531 16.355469 11.808594 16.652344 11.671875 16.890625 C 11.5 17.179688 11.371094 17.496094 11.285156 17.824219 C 11.214844 18.089844 10.976562 18.273438 10.699219 18.273438 L 10.410156 18.273438 C 10.308594 18.273438 10.222656 18.355469 10.222656 18.457031 L 10.222656 19.203125 C 10.222656 19.304688 10.308594 19.390625 10.410156 19.390625 C 10.648438 19.390625 10.867188 19.359375 11.066406 19.515625 C 11.171875 19.59375 11.25 19.703125 11.285156 19.839844 C 11.328125 20.003906 11.382812 20.164062 11.445312 20.316406 L 11.671875 20.773438 C 11.808594 21.007812 11.769531 21.308594 11.574219 21.5 L 11.371094 21.703125 C 11.300781 21.777344 11.300781 21.894531 11.371094 21.96875 L 11.898438 22.496094 C 11.96875 22.566406 12.085938 22.566406 12.160156 22.496094 L 12.367188 22.292969 C 12.550781 22.097656 12.855469 22.058594 13.09375 22.195312 C 13.390625 22.367188 13.699219 22.496094 14.03125 22.582031 C 14.292969 22.652344 14.476562 22.890625 14.476562 23.167969 L 14.476562 23.453125 C 14.476562 23.558594 14.5625 23.640625 14.664062 23.640625 L 15.40625 23.640625 C 15.511719 23.640625 15.59375 23.558594 15.59375 23.453125 C 15.59375 23.21875 15.5625 23 15.71875 22.796875 C 15.796875 22.695312 15.910156 22.617188 16.042969 22.582031 C 16.207031 22.539062 16.367188 22.484375 16.523438 22.421875 L 16.976562 22.195312 C 17.214844 22.058594 17.511719 22.097656 17.707031 22.292969 L 17.910156 22.496094 C 17.984375 22.566406 18.101562 22.566406 18.175781 22.496094 L 18.699219 21.96875 C 18.773438 21.894531 18.773438 21.777344 18.699219 21.703125 C 18.53125 21.535156 18.355469 21.402344 18.324219 21.152344 C 18.308594 21.023438 18.332031 20.890625 18.402344 20.773438 C 18.484375 20.625 18.558594 20.472656 18.625 20.316406 C 18.6875 20.164062 18.742188 20.003906 18.789062 19.839844 C 18.859375 19.570312 19.09375 19.390625 19.371094 19.390625 L 19.660156 19.390625 C 19.761719 19.390625 19.847656 19.304688 19.847656 19.203125 L 19.84375 18.449219 C 19.71875 18.394531 19.597656 18.335938 19.480469 18.273438 C 19.441406 18.261719 19.21875 18.3125 19.003906 18.148438 C 18.898438 18.070312 18.824219 17.957031 18.789062 17.824219 C 18.699219 17.496094 18.570312 17.183594 18.402344 16.890625 C 18.261719 16.652344 18.300781 16.355469 18.496094 16.160156 L 18.699219 15.957031 C 18.773438 15.882812 18.773438 15.765625 18.699219 15.691406 L 18.175781 15.167969 C 18.101562 15.09375 17.984375 15.09375 17.910156 15.167969 L 17.707031 15.371094 C 17.519531 15.5625 17.214844 15.605469 16.976562 15.464844 C 16.683594 15.296875 16.371094 15.167969 16.042969 15.078125 C 15.777344 15.007812 15.59375 14.769531 15.59375 14.496094 L 15.59375 14.207031 C 15.59375 14.101562 15.511719 14.019531 15.40625 14.019531 Z M 21.578125 13.832031 C 22.152344 13.957031 22.492188 14.566406 22.285156 15.128906 L 22.882812 15.511719 C 23.117188 15.660156 22.890625 16.011719 22.660156 15.863281 L 22.058594 15.476562 C 21.445312 16.089844 20.390625 15.652344 20.390625 14.785156 C 20.390625 14.320312 20.714844 13.929688 21.160156 13.832031 L 21.15625 12.582031 C 21.15625 12.308594 21.574219 12.308594 21.574219 12.582031 Z M 21.765625 14.390625 C 21.414062 14.039062 20.808594 14.289062 20.808594 14.785156 C 20.808594 15.28125 21.414062 15.53125 21.765625 15.183594 C 21.984375 14.960938 21.984375 14.609375 21.765625 14.390625 Z M 21.160156 11.667969 C 21.160156 11.390625 21.578125 11.390625 21.578125 11.667969 L 21.578125 11.90625 C 21.578125 12.183594 21.160156 12.183594 21.160156 11.90625 Z M 24.175781 16.167969 C 24.414062 16.304688 24.203125 16.664062 23.964844 16.527344 L 23.757812 16.40625 C 23.519531 16.269531 23.730469 15.910156 23.96875 16.046875 Z M 24.488281 14.578125 C 24.765625 14.578125 24.765625 14.996094 24.488281 14.996094 L 24.246094 14.996094 C 23.972656 14.996094 23.972656 14.578125 24.246094 14.578125 Z M 23.964844 13.046875 C 24.203125 12.910156 24.410156 13.269531 24.175781 13.40625 L 23.964844 13.527344 C 23.730469 13.664062 23.519531 13.304688 23.757812 13.164062 Z M 19.628906 12.191406 C 19.492188 11.953125 19.851562 11.742188 19.992188 11.980469 L 20.109375 12.1875 C 20.25 12.425781 19.886719 12.632812 19.75 12.398438 Z M 18.5625 13.40625 C 18.324219 13.269531 18.535156 12.910156 18.773438 13.046875 L 18.980469 13.167969 C 19.21875 13.304688 19.007812 13.664062 18.769531 13.527344 Z M 19.992188 17.59375 C 19.851562 17.828125 19.492188 17.621094 19.628906 17.382812 L 19.75 17.175781 C 19.886719 16.9375 20.246094 17.144531 20.109375 17.382812 Z M 21.578125 17.90625 C 21.578125 18.179688 21.160156 18.179688 21.160156 17.90625 L 21.160156 17.664062 C 21.160156 17.390625 21.578125 17.390625 21.578125 17.664062 Z M 23.109375 17.382812 C 23.246094 17.621094 22.886719 17.828125 22.75 17.59375 L 22.628906 17.382812 C 22.492188 17.148438 22.851562 16.9375 22.988281 17.175781 Z M 22.75 11.980469 C 22.886719 11.742188 23.246094 11.953125 23.109375 12.191406 L 22.988281 12.398438 C 22.851562 12.632812 22.492188 12.425781 22.628906 12.1875 Z M 9.710938 8.515625 L 11.902344 10.707031 L 15.402344 7.207031 L 14.707031 6.515625 C 14.597656 6.40625 14.636719 6.207031 14.816406 6.160156 L 18.925781 5.011719 C 19.082031 4.96875 19.226562 5.113281 19.179688 5.269531 L 18.027344 9.394531 C 17.984375 9.550781 17.789062 9.597656 17.679688 9.484375 L 17.679688 9.488281 L 16.988281 8.792969 L 12.050781 13.730469 C 11.96875 13.8125 11.835938 13.8125 11.753906 13.730469 L 9.566406 11.542969 L 4.339844 16.769531 C 4.257812 16.847656 4.125 16.847656 4.042969 16.769531 L 2.75 15.476562 C 2.671875 15.394531 2.671875 15.261719 2.75 15.179688 L 9.417969 8.515625 C 9.5 8.433594 9.632812 8.433594 9.710938 8.515625 Z M 11.753906 11.148438 L 9.566406 8.960938 L 3.195312 15.328125 L 4.191406 16.324219 L 9.417969 11.097656 C 9.5 11.015625 9.632812 11.015625 9.714844 11.097656 L 11.902344 13.289062 L 16.839844 8.351562 C 16.921875 8.269531 17.050781 8.269531 17.132812 8.351562 L 17.722656 8.941406 L 18.679688 5.515625 L 15.253906 6.472656 L 15.84375 7.058594 C 15.925781 7.140625 15.925781 7.273438 15.84375 7.355469 L 12.050781 11.148438 C 11.96875 11.230469 11.835938 11.230469 11.753906 11.148438 Z M 11.753906 11.148438 " fill-opacity="1" fill-rule="nonzero"/></g></svg>