<svg xmlns="http://www.w3.org/2000/svg" xmlns:xlink="http://www.w3.org/1999/xlink" width="40" zoomAndPan="magnify" viewBox="0 0 30 30.000001" height="40" preserveAspectRatio="xMidYMid meet" version="1.0"><defs><clipPath id="0616601a16"><path d="M 4.675781 4 L 24 4 L 24 26.003906 L 4.675781 26.003906 Z M 4.675781 4 " clip-rule="nonzero"/></clipPath></defs><g clip-path="url(#0616601a16)"><path fill="#ffffff" d="M 23.367188 14.28125 L 14.300781 14.28125 L 15.625 11.65625 C 15.722656 11.460938 15.644531 11.222656 15.453125 11.125 C 15.257812 11.027344 15.019531 11.105469 14.921875 11.300781 L 13.417969 14.28125 L 11.542969 14.28125 L 15.308594 5.496094 C 15.953125 4.097656 18.027344 5.050781 17.367188 6.457031 C 17.367188 6.457031 15.808594 9.539062 15.808594 9.539062 C 15.710938 9.730469 15.789062 9.96875 15.984375 10.066406 C 16.179688 10.167969 16.417969 10.085938 16.515625 9.894531 L 18.066406 6.816406 C 18.878906 5.292969 17.273438 3.492188 15.664062 4.144531 C 15.171875 4.332031 14.789062 4.703125 14.582031 5.183594 L 10.683594 14.28125 L 7.179688 14.28125 C 6.664062 14.292969 6.65625 15.0625 7.179688 15.074219 C 7.179688 15.070312 10.941406 15.074219 10.945312 15.074219 C 12.738281 15.074219 20.960938 15.074219 22.921875 15.074219 C 22.921875 15.074219 22.335938 19.734375 22.335938 19.734375 C 22.125 21.640625 20.488281 23.203125 18.582031 23.351562 C 18.511719 23.371094 18.4375 23.382812 18.382812 23.4375 C 18.277344 23.503906 18.238281 23.628906 18.222656 23.742188 C 18.222656 23.742188 18.222656 24.945312 18.222656 24.945312 C 18.222656 25.160156 18.046875 25.339844 17.828125 25.339844 C 17.828125 25.339844 10.742188 25.339844 10.742188 25.339844 C 10.527344 25.339844 10.347656 25.160156 10.347656 24.945312 C 10.351562 24.945312 10.347656 24.152344 10.351562 24.152344 C 10.351562 24.152344 16.644531 24.152344 16.644531 24.152344 C 17.164062 24.144531 17.164062 23.375 16.644531 23.363281 C 16.644531 23.363281 10.351562 23.363281 10.351562 23.363281 C 8.265625 23.363281 6.496094 21.804688 6.238281 19.734375 L 5.597656 14.628906 C 5.527344 14.121094 4.753906 14.207031 4.8125 14.726562 C 4.8125 14.726562 5.453125 19.832031 5.453125 19.832031 C 5.726562 22.027344 7.433594 23.742188 9.558594 24.085938 L 9.558594 24.945312 C 9.558594 25.597656 10.089844 26.128906 10.742188 26.128906 C 10.742188 26.128906 17.828125 26.128906 17.828125 26.128906 C 18.484375 26.128906 19.015625 25.597656 19.015625 24.945312 L 19.015625 24.082031 C 21.140625 23.765625 22.878906 21.976562 23.121094 19.832031 C 23.121094 19.832031 23.761719 14.726562 23.761719 14.726562 C 23.792969 14.5 23.597656 14.277344 23.367188 14.28125 Z M 23.367188 14.28125 " fill-opacity="1" fill-rule="nonzero"/></g><path fill="#ffffff" d="M 16.691406 6.15625 C 16.902344 5.679688 16.203125 5.355469 15.972656 5.820312 C 15.761719 6.292969 16.464844 6.621094 16.691406 6.15625 Z M 16.691406 6.15625 " fill-opacity="1" fill-rule="nonzero"/><path fill="#ffffff" d="M 20.785156 6.515625 L 21.335938 6.171875 C 21.769531 5.890625 21.359375 5.234375 20.914062 5.503906 C 20.914062 5.503906 19.585938 6.335938 19.585938 6.335938 C 19.382812 6.4375 19.320312 6.734375 19.464844 6.90625 C 19.464844 6.90625 20.289062 8.222656 20.289062 8.222656 C 20.566406 8.660156 21.226562 8.242188 20.957031 7.804688 C 20.957031 7.804688 20.640625 7.296875 20.640625 7.296875 C 25.222656 8.652344 22.394531 10.195312 17.601562 10.777344 C 17.085938 10.835938 17.167969 11.609375 17.683594 11.5625 C 20.625 11.246094 23.761719 10.339844 23.761719 8.75 C 23.761719 7.839844 22.714844 7.058594 20.785156 6.515625 Z M 20.785156 6.515625 " fill-opacity="1" fill-rule="nonzero"/><path fill="#ffffff" d="M 5.601562 8.75 C 5.601562 10.101562 7.8125 10.835938 9.390625 11.191406 L 8.859375 11.566406 C 8.542969 11.769531 8.714844 12.296875 9.085938 12.285156 C 9.164062 12.285156 9.242188 12.261719 9.3125 12.210938 C 9.363281 12.164062 10.761719 11.234375 10.714844 11.183594 C 10.789062 11.050781 10.796875 10.882812 10.703125 10.757812 C 10.703125 10.757812 9.796875 9.460938 9.796875 9.460938 C 9.671875 9.285156 9.425781 9.242188 9.246094 9.363281 C 9.066406 9.492188 9.023438 9.738281 9.148438 9.914062 L 9.496094 10.40625 C 7.367188 9.929688 6.390625 9.242188 6.390625 8.75 C 6.390625 8.089844 8.265625 7.003906 12.429688 6.667969 C 12.945312 6.621094 12.886719 5.851562 12.367188 5.882812 C 9.246094 6.132812 5.601562 7.035156 5.601562 8.75 Z M 5.601562 8.75 " fill-opacity="1" fill-rule="nonzero"/></svg>