<svg xmlns="http://www.w3.org/2000/svg" xmlns:xlink="http://www.w3.org/1999/xlink" width="40" zoomAndPan="magnify" viewBox="0 0 30 30.000001" height="40" preserveAspectRatio="xMidYMid meet" version="1.0"><defs><clipPath id="abd2f1db3a"><path d="M 3.75 4.953125 L 25 4.953125 L 25 26 L 3.75 26 Z M 3.75 4.953125 " clip-rule="nonzero"/></clipPath><clipPath id="04f8247f08"><path d="M 20 17 L 26.25 17 L 26.25 25 L 20 25 Z M 20 17 " clip-rule="nonzero"/></clipPath></defs><path fill="#ffffff" d="M 13.855469 21.652344 C 13.78125 21.652344 13.722656 21.566406 13.722656 21.460938 L 13.722656 20.613281 L 13.566406 20.582031 C 11.96875 20.242188 10.773438 18.996094 10.660156 17.554688 C 10.648438 17.390625 10.667969 17.316406 10.757812 17.21875 C 10.84375 17.128906 11.027344 17.121094 11.210938 17.121094 L 11.953125 17.121094 C 12.292969 17.121094 12.476562 17.234375 12.5 17.457031 C 12.585938 18.28125 13.441406 18.929688 14.449219 18.929688 C 14.835938 18.929688 15.207031 18.835938 15.527344 18.660156 C 15.78125 18.523438 15.945312 18.300781 15.988281 18.042969 C 16.050781 17.683594 15.84375 17.316406 15.476562 17.121094 L 12.273438 15.425781 C 12.234375 15.40625 12.199219 15.382812 12.164062 15.359375 C 11.40625 14.808594 10.996094 13.953125 11.066406 13.0625 C 11.136719 12.179688 11.671875 11.390625 12.503906 10.953125 C 12.835938 10.78125 13.191406 10.652344 13.566406 10.574219 L 13.722656 10.542969 L 13.722656 9.59375 C 13.722656 9.496094 13.78125 9.414062 13.855469 9.414062 L 15 9.414062 C 15.070312 9.414062 15.128906 9.492188 15.128906 9.59375 L 15.128906 10.535156 L 15.285156 10.566406 C 15.960938 10.707031 16.570312 11.015625 17.042969 11.460938 C 17.644531 12.027344 18.007812 12.789062 18.0625 13.605469 C 18.074219 13.773438 18.058594 13.835938 17.972656 13.929688 C 17.882812 14.023438 17.679688 14.035156 17.515625 14.035156 L 16.769531 14.035156 C 16.425781 14.035156 16.242188 13.917969 16.222656 13.6875 C 16.148438 12.828125 15.421875 12.226562 14.449219 12.226562 C 14.074219 12.226562 13.714844 12.3125 13.398438 12.480469 C 13.109375 12.632812 12.925781 12.894531 12.902344 13.195312 C 12.886719 13.382812 12.933594 13.5625 13.035156 13.71875 C 13.109375 13.832031 13.21875 13.925781 13.355469 14 L 16.375 15.597656 C 17.414062 16.148438 17.992188 17.242188 17.808594 18.316406 C 17.675781 19.09375 17.183594 19.769531 16.453125 20.167969 C 16.09375 20.367188 15.703125 20.507812 15.289062 20.589844 L 15.128906 20.621094 L 15.128906 21.460938 C 15.128906 21.566406 15.070312 21.652344 15 21.652344 L 13.855469 21.652344 " fill-opacity="1" fill-rule="nonzero"/><g clip-path="url(#abd2f1db3a)"><path fill="#ffffff" d="M 20.785156 22.21875 C 19.117188 23.824219 16.851562 24.816406 14.355469 24.816406 C 9.242188 24.816406 5.082031 20.65625 5.082031 15.542969 C 5.082031 10.429688 9.242188 6.269531 14.355469 6.269531 C 19.46875 6.269531 23.628906 10.429688 23.628906 15.542969 C 23.628906 15.863281 23.613281 16.175781 23.582031 16.488281 L 24.902344 16.488281 C 24.929688 16.175781 24.945312 15.859375 24.945312 15.542969 C 24.945312 9.703125 20.195312 4.953125 14.355469 4.953125 C 8.519531 4.953125 3.769531 9.703125 3.769531 15.542969 C 3.769531 21.378906 8.519531 26.128906 14.355469 26.128906 C 17.191406 26.128906 19.765625 25.011719 21.667969 23.191406 L 20.785156 22.21875 " fill-opacity="1" fill-rule="nonzero"/></g><g clip-path="url(#04f8247f08)"><path fill="#ffffff" d="M 24.953125 20.777344 L 24.953125 17.015625 L 21.460938 17.015625 L 21.460938 20.777344 L 20.1875 20.777344 L 23.207031 24.101562 L 26.222656 20.777344 L 24.953125 20.777344 " fill-opacity="1" fill-rule="nonzero"/></g></svg>