<svg xmlns="http://www.w3.org/2000/svg" xmlns:xlink="http://www.w3.org/1999/xlink" width="40" zoomAndPan="magnify" viewBox="0 0 30 30.000001" height="40" preserveAspectRatio="xMidYMid meet" version="1.0"><defs><clipPath id="7111b82a21"><path d="M 15 13 L 26.425781 13 L 26.425781 26.144531 L 15 26.144531 Z M 15 13 " clip-rule="nonzero"/></clipPath><clipPath id="1ef9e93dcb"><path d="M 15 16 L 26.425781 16 L 26.425781 20 L 15 20 Z M 15 16 " clip-rule="nonzero"/></clipPath><clipPath id="5ecea55f01"><path d="M 20 19 L 21 19 L 21 26.144531 L 20 26.144531 Z M 20 19 " clip-rule="nonzero"/></clipPath><clipPath id="062b74e9fa"><path d="M 15 21 L 26.425781 21 L 26.425781 25 L 15 25 Z M 15 21 " clip-rule="nonzero"/></clipPath><clipPath id="26c235fb9f"><path d="M 3.925781 4.371094 L 18 4.371094 L 18 23 L 3.925781 23 Z M 3.925781 4.371094 " clip-rule="nonzero"/></clipPath></defs><g clip-path="url(#7111b82a21)"><path fill="#ffffff" d="M 20.546875 26.121094 C 20.507812 26.121094 20.46875 26.113281 20.433594 26.097656 L 15.21875 23.628906 C 15.128906 23.585938 15.070312 23.496094 15.070312 23.394531 L 15.070312 16.941406 C 15.070312 16.847656 15.121094 16.761719 15.203125 16.714844 L 20.132812 13.941406 C 20.207031 13.898438 20.300781 13.898438 20.375 13.9375 L 25.878906 16.707031 C 25.964844 16.753906 26.019531 16.84375 26.019531 16.941406 L 26.019531 23.15625 C 26.019531 23.253906 25.964844 23.339844 25.878906 23.386719 L 20.664062 26.09375 C 20.628906 26.113281 20.585938 26.121094 20.546875 26.121094 Z M 15.589844 23.230469 L 20.539062 25.574219 L 25.503906 23 L 25.503906 17.097656 L 20.265625 14.460938 L 15.589844 17.089844 Z M 15.589844 23.230469 " fill-opacity="1" fill-rule="nonzero"/></g><g clip-path="url(#1ef9e93dcb)"><path fill="#ffffff" d="M 20.597656 19.964844 C 20.558594 19.964844 20.515625 19.957031 20.480469 19.9375 L 15.210938 17.167969 C 15.082031 17.101562 15.035156 16.945312 15.101562 16.820312 C 15.167969 16.691406 15.324219 16.644531 15.449219 16.710938 L 20.597656 19.414062 L 25.640625 16.710938 C 25.765625 16.644531 25.921875 16.691406 25.988281 16.816406 C 26.058594 16.945312 26.007812 17.101562 25.882812 17.167969 L 20.722656 19.933594 C 20.683594 19.957031 20.640625 19.964844 20.597656 19.964844 Z M 20.597656 19.964844 " fill-opacity="1" fill-rule="nonzero"/></g><g clip-path="url(#5ecea55f01)"><path fill="#ffffff" d="M 20.597656 26.121094 C 20.457031 26.121094 20.339844 26.003906 20.339844 25.863281 L 20.339844 19.707031 C 20.339844 19.5625 20.457031 19.449219 20.597656 19.449219 C 20.742188 19.449219 20.859375 19.5625 20.859375 19.707031 L 20.859375 25.863281 C 20.859375 26.003906 20.742188 26.121094 20.597656 26.121094 Z M 20.597656 26.121094 " fill-opacity="1" fill-rule="nonzero"/></g><path fill="#ffffff" d="M 17.964844 18.582031 C 17.875 18.582031 17.789062 18.535156 17.742188 18.453125 C 17.667969 18.332031 17.710938 18.171875 17.832031 18.101562 L 22.707031 15.242188 C 22.832031 15.171875 22.988281 15.210938 23.0625 15.335938 C 23.132812 15.460938 23.09375 15.617188 22.96875 15.691406 L 18.09375 18.546875 C 18.054688 18.570312 18.007812 18.582031 17.964844 18.582031 Z M 17.964844 18.582031 " fill-opacity="1" fill-rule="nonzero"/><path fill="#ffffff" d="M 22.378906 21.84375 C 22.355469 21.84375 22.335938 21.84375 22.316406 21.835938 C 22.203125 21.808594 22.121094 21.707031 22.117188 21.589844 L 22.058594 18.792969 C 22.054688 18.648438 22.167969 18.53125 22.3125 18.527344 C 22.453125 18.523438 22.574219 18.636719 22.574219 18.78125 L 22.613281 20.613281 L 23.164062 19.609375 C 23.203125 19.542969 23.265625 19.496094 23.34375 19.480469 C 23.417969 19.464844 23.496094 19.484375 23.554688 19.53125 L 24.117188 19.984375 L 24.117188 17.683594 C 24.117188 17.539062 24.230469 17.425781 24.375 17.425781 C 24.519531 17.425781 24.632812 17.539062 24.632812 17.683594 L 24.632812 20.523438 C 24.632812 20.621094 24.578125 20.714844 24.488281 20.757812 C 24.398438 20.800781 24.289062 20.789062 24.214844 20.726562 L 23.472656 20.128906 L 22.605469 21.710938 C 22.558594 21.792969 22.46875 21.84375 22.378906 21.84375 Z M 22.378906 21.84375 " fill-opacity="1" fill-rule="nonzero"/><g clip-path="url(#062b74e9fa)"><path fill="#ffffff" d="M 20.597656 24.296875 C 20.5625 24.296875 20.527344 24.289062 20.492188 24.273438 L 15.222656 21.878906 C 15.09375 21.820312 15.035156 21.667969 15.09375 21.535156 C 15.152344 21.40625 15.308594 21.347656 15.4375 21.40625 L 20.59375 23.75 L 25.644531 21.230469 C 25.773438 21.167969 25.929688 21.21875 25.992188 21.347656 C 26.058594 21.472656 26.003906 21.628906 25.875 21.695312 L 20.714844 24.269531 C 20.679688 24.285156 20.636719 24.296875 20.597656 24.296875 Z M 20.597656 24.296875 " fill-opacity="1" fill-rule="nonzero"/></g><path fill="#ffffff" d="M 20.546875 21.722656 C 20.507812 21.722656 20.46875 21.710938 20.433594 21.695312 L 15.214844 19.15625 C 15.089844 19.09375 15.035156 18.9375 15.097656 18.808594 C 15.160156 18.679688 15.316406 18.628906 15.441406 18.691406 L 20.660156 21.230469 C 20.789062 21.292969 20.839844 21.445312 20.777344 21.574219 C 20.734375 21.667969 20.640625 21.722656 20.546875 21.722656 Z M 20.546875 21.722656 " fill-opacity="1" fill-rule="nonzero"/><g clip-path="url(#26c235fb9f)"><path fill="#ffffff" d="M 15.328125 22.441406 L 4.191406 22.441406 C 4.046875 22.441406 3.933594 22.324219 3.933594 22.183594 L 3.933594 4.628906 C 3.933594 4.488281 4.046875 4.371094 4.191406 4.371094 L 17.121094 4.371094 C 17.261719 4.371094 17.378906 4.488281 17.378906 4.628906 L 17.378906 15.933594 C 17.378906 16.078125 17.261719 16.191406 17.121094 16.191406 C 16.976562 16.191406 16.859375 16.078125 16.859375 15.933594 L 16.859375 4.890625 L 4.449219 4.890625 L 4.449219 21.921875 L 15.328125 21.921875 C 15.472656 21.921875 15.589844 22.039062 15.589844 22.183594 C 15.589844 22.324219 15.472656 22.441406 15.328125 22.441406 Z M 15.328125 22.441406 " fill-opacity="1" fill-rule="nonzero"/></g><path fill="#ffffff" d="M 17.128906 20.058594 C 16.984375 20.058594 16.871094 19.941406 16.871094 19.796875 C 16.871094 19.65625 16.984375 19.539062 17.128906 19.539062 C 17.269531 19.539062 17.386719 19.65625 17.386719 19.796875 C 17.386719 19.941406 17.269531 20.058594 17.128906 20.058594 Z M 17.128906 20.058594 " fill-opacity="1" fill-rule="nonzero"/><path fill="#ffffff" d="M 15.328125 21.308594 L 5.324219 21.308594 C 5.179688 21.308594 5.0625 21.191406 5.0625 21.050781 L 5.0625 5.761719 C 5.0625 5.621094 5.179688 5.503906 5.324219 5.503906 L 15.988281 5.503906 C 16.128906 5.503906 16.246094 5.621094 16.246094 5.761719 L 16.246094 16.570312 C 16.246094 16.714844 16.128906 16.828125 15.988281 16.828125 C 15.84375 16.828125 15.726562 16.714844 15.726562 16.570312 L 15.726562 6.019531 L 5.582031 6.019531 L 5.582031 20.789062 L 15.328125 20.789062 C 15.472656 20.789062 15.589844 20.90625 15.589844 21.050781 C 15.589844 21.191406 15.472656 21.308594 15.328125 21.308594 Z M 15.328125 21.308594 " fill-opacity="1" fill-rule="nonzero"/><path fill="#ffffff" d="M 7.320312 11.515625 C 7.253906 11.515625 7.1875 11.488281 7.136719 11.4375 L 6.476562 10.777344 C 6.375 10.675781 6.375 10.511719 6.476562 10.410156 C 6.578125 10.3125 6.742188 10.3125 6.84375 10.410156 L 7.320312 10.890625 L 8.308594 9.902344 C 8.410156 9.800781 8.574219 9.800781 8.675781 9.902344 C 8.777344 10 8.777344 10.164062 8.675781 10.265625 L 7.503906 11.4375 C 7.453125 11.488281 7.386719 11.515625 7.320312 11.515625 Z M 7.320312 11.515625 " fill-opacity="1" fill-rule="nonzero"/><path fill="#ffffff" d="M 14.648438 10.929688 L 9.492188 10.929688 C 9.347656 10.929688 9.234375 10.8125 9.234375 10.667969 C 9.234375 10.527344 9.347656 10.410156 9.492188 10.410156 L 14.648438 10.410156 C 14.792969 10.410156 14.90625 10.527344 14.90625 10.667969 C 14.90625 10.8125 14.792969 10.929688 14.648438 10.929688 Z M 14.648438 10.929688 " fill-opacity="1" fill-rule="nonzero"/><path fill="#ffffff" d="M 7.320312 13.589844 C 7.253906 13.589844 7.1875 13.5625 7.136719 13.515625 L 6.476562 12.855469 C 6.375 12.753906 6.375 12.589844 6.476562 12.488281 C 6.578125 12.386719 6.742188 12.386719 6.84375 12.488281 L 7.320312 12.964844 L 8.308594 11.976562 C 8.410156 11.875 8.574219 11.875 8.675781 11.976562 C 8.777344 12.078125 8.777344 12.242188 8.675781 12.34375 L 7.503906 13.515625 C 7.457031 13.5625 7.390625 13.589844 7.320312 13.589844 Z M 7.320312 13.589844 " fill-opacity="1" fill-rule="nonzero"/><path fill="#ffffff" d="M 14.648438 13.003906 L 9.492188 13.003906 C 9.347656 13.003906 9.234375 12.886719 9.234375 12.746094 C 9.234375 12.601562 9.347656 12.488281 9.492188 12.488281 L 14.648438 12.488281 C 14.792969 12.488281 14.90625 12.601562 14.90625 12.746094 C 14.90625 12.886719 14.792969 13.003906 14.648438 13.003906 Z M 14.648438 13.003906 " fill-opacity="1" fill-rule="nonzero"/><path fill="#ffffff" d="M 7.320312 15.667969 C 7.253906 15.667969 7.1875 15.640625 7.136719 15.589844 L 6.476562 14.929688 C 6.375 14.828125 6.375 14.664062 6.476562 14.5625 C 6.578125 14.460938 6.742188 14.460938 6.84375 14.5625 L 7.320312 15.042969 L 8.308594 14.054688 C 8.410156 13.953125 8.574219 13.953125 8.675781 14.054688 C 8.777344 14.152344 8.777344 14.316406 8.675781 14.417969 L 7.503906 15.589844 C 7.457031 15.640625 7.390625 15.667969 7.320312 15.667969 Z M 7.320312 15.667969 " fill-opacity="1" fill-rule="nonzero"/><path fill="#ffffff" d="M 14.648438 15.082031 L 9.492188 15.082031 C 9.347656 15.082031 9.234375 14.964844 9.234375 14.820312 C 9.234375 14.679688 9.347656 14.5625 9.492188 14.5625 L 14.648438 14.5625 C 14.792969 14.5625 14.90625 14.679688 14.90625 14.820312 C 14.90625 14.964844 14.792969 15.082031 14.648438 15.082031 Z M 14.648438 15.082031 " fill-opacity="1" fill-rule="nonzero"/><path fill="#ffffff" d="M 7.320312 17.742188 C 7.253906 17.742188 7.1875 17.714844 7.136719 17.667969 L 6.476562 17.007812 C 6.375 16.90625 6.375 16.742188 6.476562 16.640625 C 6.578125 16.539062 6.742188 16.539062 6.84375 16.640625 L 7.320312 17.117188 L 8.308594 16.128906 C 8.410156 16.027344 8.574219 16.027344 8.675781 16.128906 C 8.777344 16.230469 8.777344 16.394531 8.675781 16.496094 L 7.503906 17.667969 C 7.457031 17.714844 7.390625 17.742188 7.320312 17.742188 Z M 7.320312 17.742188 " fill-opacity="1" fill-rule="nonzero"/><path fill="#ffffff" d="M 14.648438 17.15625 L 9.492188 17.15625 C 9.347656 17.15625 9.234375 17.039062 9.234375 16.898438 C 9.234375 16.753906 9.347656 16.640625 9.492188 16.640625 L 14.648438 16.640625 C 14.792969 16.640625 14.90625 16.753906 14.90625 16.898438 C 14.90625 17.039062 14.792969 17.15625 14.648438 17.15625 Z M 14.648438 17.15625 " fill-opacity="1" fill-rule="nonzero"/><path fill="#ffffff" d="M 7.320312 19.820312 C 7.253906 19.820312 7.1875 19.792969 7.136719 19.742188 L 6.476562 19.082031 C 6.375 18.980469 6.375 18.816406 6.476562 18.714844 C 6.578125 18.613281 6.742188 18.613281 6.84375 18.714844 L 7.320312 19.195312 L 8.308594 18.203125 C 8.410156 18.105469 8.574219 18.105469 8.675781 18.203125 C 8.777344 18.304688 8.777344 18.46875 8.675781 18.570312 L 7.503906 19.742188 C 7.453125 19.792969 7.386719 19.820312 7.320312 19.820312 Z M 7.320312 19.820312 " fill-opacity="1" fill-rule="nonzero"/><path fill="#ffffff" d="M 14.648438 19.234375 L 9.492188 19.234375 C 9.347656 19.234375 9.234375 19.117188 9.234375 18.972656 C 9.234375 18.832031 9.347656 18.714844 9.492188 18.714844 L 14.648438 18.714844 C 14.792969 18.714844 14.90625 18.832031 14.90625 18.972656 C 14.90625 19.117188 14.792969 19.234375 14.648438 19.234375 Z M 14.648438 19.234375 " fill-opacity="1" fill-rule="nonzero"/><path fill="#ffffff" d="M 13.039062 8.902344 L 8.292969 8.902344 C 8.148438 8.902344 8.035156 8.785156 8.035156 8.640625 L 8.035156 6.691406 C 8.035156 6.546875 8.148438 6.433594 8.292969 6.433594 L 13.039062 6.433594 C 13.179688 6.433594 13.296875 6.546875 13.296875 6.691406 L 13.296875 8.640625 C 13.296875 8.785156 13.179688 8.902344 13.039062 8.902344 Z M 8.550781 8.382812 L 12.777344 8.382812 L 12.777344 6.949219 L 8.550781 6.949219 Z M 8.550781 8.382812 " fill-opacity="1" fill-rule="nonzero"/></svg>