<svg xmlns="http://www.w3.org/2000/svg" xmlns:xlink="http://www.w3.org/1999/xlink" width="40" zoomAndPan="magnify" viewBox="0 0 30 30.000001" height="40" preserveAspectRatio="xMidYMid meet" version="1.0"><defs><clipPath id="226bb8c6bc"><path d="M 9 8 L 26 8 L 26 24.382812 L 9 24.382812 Z M 9 8 " clip-rule="nonzero"/></clipPath><clipPath id="87060b9dce"><path d="M 5 4.785156 L 26.363281 4.785156 L 26.363281 17 L 5 17 Z M 5 4.785156 " clip-rule="nonzero"/></clipPath><clipPath id="2e9400f20a"><path d="M 3.863281 18 L 6 18 L 6 23 L 3.863281 23 Z M 3.863281 18 " clip-rule="nonzero"/></clipPath></defs><g clip-path="url(#226bb8c6bc)"><path fill="#ffffff" d="M 17.222656 8.113281 C 12.773438 8.113281 9.152344 11.730469 9.152344 16.179688 C 9.152344 20.625 12.773438 24.242188 17.222656 24.242188 C 21.671875 24.242188 25.285156 20.625 25.285156 16.179688 C 25.285156 11.730469 21.667969 8.113281 17.222656 8.113281 Z M 10.316406 16.179688 C 10.316406 14.363281 11.023438 12.710938 12.179688 11.476562 C 12.222656 11.5 12.273438 11.535156 12.328125 11.574219 C 12.371094 11.621094 12.386719 11.953125 12.367188 12.296875 L 12.367188 12.3125 L 12.371094 12.328125 C 12.375 12.332031 12.660156 13.039062 12.386719 13.605469 C 12.089844 14.214844 12.148438 15.1875 12.300781 15.410156 C 12.433594 15.597656 13.097656 16.453125 13.195312 16.550781 C 13.265625 16.621094 13.492188 17.242188 13.511719 17.328125 C 13.535156 17.410156 13.960938 17.941406 14.417969 17.925781 C 14.683594 17.914062 14.988281 18.066406 15.191406 18.167969 C 15.296875 18.21875 15.367188 18.253906 15.417969 18.261719 C 15.433594 18.265625 15.464844 18.3125 15.488281 18.359375 C 15.554688 18.46875 15.652344 18.636719 15.898438 18.773438 C 15.960938 18.8125 16.03125 18.847656 16.097656 18.882812 C 16.335938 19.015625 16.664062 19.195312 16.6875 19.253906 C 16.683594 19.273438 16.636719 19.328125 16.597656 19.375 C 16.453125 19.539062 16.207031 19.820312 16.277344 20.195312 C 16.371094 20.71875 17.101562 21.335938 17.34375 21.492188 C 17.5 21.59375 17.421875 22.65625 17.335938 22.847656 C 17.3125 22.90625 17.300781 22.988281 17.300781 23.074219 C 17.273438 23.074219 17.246094 23.082031 17.222656 23.082031 C 13.414062 23.085938 10.316406 19.984375 10.316406 16.179688 Z M 18.703125 22.921875 C 18.753906 22.863281 18.796875 22.8125 18.808594 22.789062 C 18.820312 22.773438 18.886719 22.738281 18.933594 22.710938 C 19.046875 22.652344 19.171875 22.585938 19.222656 22.5 C 19.296875 22.378906 19.535156 22.132812 19.640625 22.082031 C 19.769531 22.015625 20.59375 21.269531 20.648438 21.148438 C 20.777344 20.847656 20.953125 20.507812 21.058594 20.425781 C 21.242188 20.277344 21.074219 20.007812 21.011719 19.90625 L 20.996094 19.886719 C 20.925781 19.769531 20.457031 19.71875 20.382812 19.734375 C 20.300781 19.730469 19.902344 19.511719 19.875 19.445312 C 19.875 19.308594 19.488281 18.9375 19.382812 18.9375 C 19.339844 18.9375 19.097656 18.882812 18.972656 18.730469 C 18.816406 18.542969 18.269531 18.417969 18.113281 18.417969 C 17.964844 18.417969 17.746094 18.386719 17.59375 18.316406 C 17.453125 18.253906 17.222656 18.34375 16.980469 18.449219 C 16.929688 18.472656 16.886719 18.488281 16.859375 18.496094 C 16.777344 18.519531 16.324219 18.425781 16.214844 18.378906 C 16.183594 18.351562 16.167969 18.167969 16.160156 18.078125 C 16.152344 17.960938 16.144531 17.890625 16.121094 17.851562 C 16.085938 17.792969 15.980469 17.757812 15.769531 17.703125 C 15.714844 17.691406 15.644531 17.675781 15.609375 17.664062 C 15.621094 17.628906 15.644531 17.574219 15.664062 17.535156 C 15.734375 17.363281 15.78125 17.25 15.742188 17.175781 C 15.726562 17.148438 15.703125 17.128906 15.667969 17.117188 C 15.5625 17.09375 15.421875 17.199219 15.273438 17.3125 C 15.207031 17.359375 15.105469 17.433594 15.078125 17.4375 C 14.984375 17.4375 14.808594 17.363281 14.589844 17.230469 C 14.464844 17.15625 14.609375 16.75 14.679688 16.554688 C 14.714844 16.457031 14.738281 16.386719 14.742188 16.34375 C 14.75 16.300781 14.976562 16.234375 15.304688 16.234375 C 15.398438 16.234375 15.523438 16.214844 15.644531 16.195312 C 15.75 16.175781 15.863281 16.160156 15.933594 16.160156 C 15.980469 16.160156 16.066406 16.285156 16.121094 16.363281 C 16.210938 16.492188 16.277344 16.589844 16.371094 16.574219 C 16.5 16.546875 16.492188 16.378906 16.484375 16.257812 C 16.484375 16.21875 16.480469 16.175781 16.484375 16.15625 C 16.496094 16.078125 16.664062 15.792969 16.804688 15.710938 C 16.972656 15.609375 17.195312 15.289062 17.136719 15.132812 C 17.140625 15.0625 17.429688 14.867188 17.527344 14.800781 C 17.570312 14.773438 17.609375 14.746094 17.632812 14.726562 C 17.664062 14.703125 17.699219 14.683594 17.734375 14.667969 C 17.839844 14.609375 17.964844 14.542969 17.964844 14.371094 C 17.964844 14.269531 18.285156 14.222656 18.472656 14.191406 C 18.519531 14.1875 18.558594 14.179688 18.601562 14.175781 C 18.722656 14.152344 18.792969 14.121094 18.820312 14.066406 C 18.859375 13.996094 18.824219 13.921875 18.789062 13.832031 C 18.777344 13.808594 18.765625 13.78125 18.753906 13.753906 C 18.695312 13.59375 18.730469 13.484375 18.871094 13.386719 C 18.933594 13.339844 19.054688 13.324219 19.183594 13.3125 C 19.3125 13.296875 19.457031 13.277344 19.589844 13.222656 C 19.6875 13.183594 19.738281 13.136719 19.753906 13.078125 C 19.773438 12.996094 19.722656 12.925781 19.675781 12.859375 C 19.65625 12.835938 19.632812 12.808594 19.621094 12.785156 C 19.550781 12.644531 19.429688 12.542969 19.347656 12.472656 C 19.300781 12.4375 19.257812 12.242188 19.230469 12.125 C 19.210938 12.046875 19.199219 11.980469 19.183594 11.933594 C 19.164062 11.890625 19.132812 11.859375 19.085938 11.84375 C 18.976562 11.804688 18.808594 11.859375 18.710938 11.910156 C 18.707031 11.886719 18.699219 11.847656 18.695312 11.820312 C 18.683594 11.746094 18.671875 11.679688 18.632812 11.640625 C 18.605469 11.613281 18.550781 11.5625 18.484375 11.5 C 18.382812 11.40625 18.257812 11.292969 18.175781 11.210938 C 18.125 11.160156 18.078125 11.152344 18.042969 11.160156 C 17.925781 11.175781 17.828125 11.316406 17.742188 11.464844 C 17.730469 11.480469 17.722656 11.5 17.714844 11.511719 C 17.5625 11.734375 17.542969 11.898438 17.652344 11.980469 C 17.65625 11.984375 17.667969 12.023438 17.640625 12.097656 C 17.597656 12.210938 17.515625 12.292969 17.46875 12.292969 C 17.332031 12.28125 17.296875 12.464844 17.261719 12.644531 C 17.25 12.710938 17.230469 12.816406 17.207031 12.855469 C 17.171875 12.824219 17.136719 12.71875 17.140625 12.410156 L 17.140625 12.371094 C 17.140625 12.332031 17.128906 12.296875 17.105469 12.277344 C 17.0625 12.238281 17.003906 12.246094 16.953125 12.25 C 16.886719 12.257812 16.855469 12.253906 16.839844 12.230469 C 16.765625 12.109375 16.394531 11.964844 16.25 11.914062 C 16.242188 11.714844 16.242188 11.503906 16.246094 11.480469 C 16.289062 11.417969 16.871094 11.023438 17.003906 10.980469 C 17.1875 10.917969 17.644531 10.609375 17.738281 10.542969 C 17.820312 10.488281 17.832031 10.425781 17.824219 10.382812 C 17.804688 10.238281 17.542969 10.132812 17.429688 10.09375 C 17.339844 9.894531 17.207031 9.894531 17.042969 9.898438 C 16.960938 9.898438 16.867188 9.898438 16.75 9.882812 C 16.320312 9.808594 15.949219 9.792969 15.660156 9.835938 C 15.453125 9.863281 15.207031 9.8125 15.003906 9.769531 C 14.921875 9.753906 14.855469 9.738281 14.789062 9.730469 C 15.546875 9.445312 16.367188 9.28125 17.222656 9.28125 C 18.171875 9.28125 19.082031 9.476562 19.90625 9.824219 C 19.925781 9.890625 19.949219 9.957031 19.972656 10.015625 C 20.066406 10.214844 20.21875 10.566406 20.21875 10.824219 C 20.21875 11.085938 20.25 11.359375 20.21875 11.441406 C 20.191406 11.523438 20.742188 12.140625 20.863281 12.15625 C 20.984375 12.171875 21.0625 12.09375 21.136719 11.972656 C 21.214844 11.851562 21.320312 11.710938 21.535156 11.542969 C 21.703125 11.410156 22.085938 11.441406 22.242188 11.457031 C 22.472656 11.707031 22.6875 11.96875 22.886719 12.246094 C 22.851562 12.273438 22.820312 12.304688 22.796875 12.328125 C 22.699219 12.425781 22.417969 12.707031 22.449219 12.921875 C 22.484375 13.136719 22.714844 13.402344 22.996094 13.550781 C 23.277344 13.703125 23.308594 13.984375 23.308594 14.035156 C 23.308594 14.082031 23.710938 14.332031 23.710938 14.332031 C 23.710938 14.332031 23.542969 14.660156 23.460938 14.660156 C 23.378906 14.660156 23.308594 14.992188 23.308594 15.125 C 23.308594 15.257812 23.476562 15.488281 23.652344 15.628906 C 23.796875 15.742188 24.015625 15.5 24.082031 15.417969 C 24.105469 15.621094 24.113281 15.828125 24.121094 16.03125 C 23.945312 16.035156 23.664062 16.160156 23.574219 16.238281 C 23.457031 16.339844 23.210938 17.148438 23.09375 17.234375 C 22.976562 17.316406 22.746094 18.425781 22.730469 18.542969 C 22.710938 18.652344 23.035156 19.511719 23.238281 19.574219 C 22.285156 21.246094 20.648438 22.492188 18.703125 22.921875 Z M 18.703125 22.921875 " fill-opacity="1" fill-rule="nonzero"/></g><g clip-path="url(#87060b9dce)"><path fill="#ffffff" d="M 25.554688 6.480469 C 25.234375 6.480469 24.976562 6.742188 24.976562 7.058594 L 24.976562 7.828125 C 22.863281 5.871094 20.140625 4.785156 17.246094 4.785156 C 14.199219 4.785156 11.335938 5.972656 9.183594 8.125 C 7.078125 10.230469 5.894531 13.03125 5.847656 16.003906 C 5.839844 16.328125 6.097656 16.589844 6.414062 16.59375 C 6.417969 16.59375 6.421875 16.59375 6.425781 16.59375 C 6.742188 16.59375 7 16.339844 7.003906 16.023438 C 7.046875 13.347656 8.109375 10.835938 10.003906 8.945312 C 11.9375 7.011719 14.507812 5.945312 17.242188 5.945312 C 19.8125 5.945312 22.230469 6.898438 24.121094 8.613281 L 23.417969 8.613281 C 23.097656 8.613281 22.839844 8.875 22.839844 9.195312 C 22.839844 9.511719 23.097656 9.773438 23.417969 9.773438 L 25.554688 9.773438 C 25.875 9.773438 26.132812 9.511719 26.132812 9.195312 L 26.132812 7.058594 C 26.136719 6.738281 25.875 6.480469 25.554688 6.480469 Z M 25.554688 6.480469 " fill-opacity="1" fill-rule="nonzero"/></g><g clip-path="url(#2e9400f20a)"><path fill="#ffffff" d="M 5.808594 19.785156 L 3.988281 18.957031 C 3.929688 18.929688 3.863281 18.972656 3.863281 19.039062 L 3.863281 21.578125 C 3.863281 21.613281 3.882812 21.644531 3.917969 21.660156 L 5.734375 22.488281 C 5.792969 22.519531 5.863281 22.472656 5.863281 22.40625 L 5.863281 19.867188 C 5.863281 19.832031 5.839844 19.800781 5.808594 19.785156 Z M 5.808594 19.785156 " fill-opacity="1" fill-rule="nonzero"/></g><path fill="#ffffff" d="M 7.976562 18.164062 L 6.296875 17.398438 C 6.273438 17.386719 6.246094 17.386719 6.222656 17.398438 L 4.550781 18.164062 C 4.480469 18.195312 4.480469 18.296875 4.550781 18.328125 L 6.222656 19.09375 C 6.246094 19.105469 6.273438 19.105469 6.296875 19.09375 L 7.972656 18.328125 C 8.046875 18.296875 8.046875 18.195312 7.976562 18.164062 Z M 7.976562 18.164062 " fill-opacity="1" fill-rule="nonzero"/><path fill="#ffffff" d="M 8.53125 18.953125 L 6.714844 19.785156 C 6.679688 19.796875 6.660156 19.832031 6.660156 19.867188 L 6.660156 22.40625 C 6.660156 22.472656 6.726562 22.515625 6.785156 22.488281 L 8.605469 21.65625 C 8.636719 21.644531 8.660156 21.609375 8.660156 21.574219 L 8.660156 19.035156 C 8.660156 18.972656 8.59375 18.929688 8.53125 18.953125 Z M 8.53125 18.953125 " fill-opacity="1" fill-rule="nonzero"/></svg>