<svg xmlns="http://www.w3.org/2000/svg" xmlns:xlink="http://www.w3.org/1999/xlink" width="40" zoomAndPan="magnify" viewBox="0 0 30 30.000001" height="40" preserveAspectRatio="xMidYMid meet" version="1.0"><defs><clipPath id="90a1bd34b7"><path d="M 4.507812 6 L 25.554688 6 L 25.554688 23 L 4.507812 23 Z M 4.507812 6 " clip-rule="nonzero"/></clipPath></defs><g clip-path="url(#90a1bd34b7)"><path fill="#ffffff" d="M 16.242188 21.21875 C 16.121094 21.4375 16.019531 21.648438 15.894531 21.839844 C 15.773438 22.078125 15.617188 22.289062 15.425781 22.476562 C 15.171875 22.648438 14.898438 22.78125 14.609375 22.875 C 14.445312 22.976562 14.285156 22.972656 14.121094 22.871094 C 14.105469 22.859375 14.085938 22.855469 14.0625 22.855469 C 13.703125 22.914062 13.34375 22.902344 12.988281 22.816406 C 12.726562 22.777344 12.472656 22.722656 12.21875 22.652344 C 11.734375 22.496094 11.261719 22.3125 10.777344 22.144531 C 10.253906 21.984375 9.75 21.78125 9.261719 21.53125 C 8.753906 21.25 8.265625 20.925781 7.738281 20.691406 C 7.167969 20.441406 6.703125 20.03125 6.152344 19.753906 C 5.859375 19.585938 5.585938 19.386719 5.332031 19.160156 C 5.082031 18.917969 4.910156 18.628906 4.828125 18.289062 C 4.679688 17.867188 4.578125 17.433594 4.515625 16.992188 C 4.496094 16.738281 4.546875 16.492188 4.65625 16.261719 C 4.824219 15.875 5.046875 15.515625 5.25 15.144531 C 5.484375 14.71875 5.703125 14.285156 5.964844 13.875 C 6.320312 13.261719 6.710938 12.671875 7.128906 12.097656 C 7.242188 11.933594 7.328125 11.757812 7.394531 11.570312 C 7.445312 11.453125 7.4375 11.34375 7.375 11.234375 C 7.261719 11.007812 7.324219 10.726562 7.152344 10.515625 C 7.136719 10.476562 7.132812 10.433594 7.148438 10.390625 C 7.226562 9.945312 7.339844 9.503906 7.484375 9.074219 C 7.746094 8.410156 8.207031 7.941406 8.867188 7.667969 C 9.535156 7.398438 10.222656 7.203125 10.929688 7.078125 C 11.203125 7.042969 11.480469 7.03125 11.753906 7.050781 C 12.261719 7.023438 12.769531 7.046875 13.273438 7.117188 C 13.4375 7.136719 13.585938 7.09375 13.714844 6.984375 C 14.09375 6.722656 14.503906 6.53125 14.945312 6.410156 C 15.394531 6.292969 15.84375 6.171875 16.296875 6.074219 C 16.457031 6.042969 16.613281 6.039062 16.773438 6.0625 C 17.097656 6.101562 17.417969 6.160156 17.742188 6.214844 C 18.011719 6.257812 18.289062 6.28125 18.554688 6.34375 C 18.875 6.417969 19.1875 6.511719 19.496094 6.628906 C 19.941406 6.773438 20.367188 6.957031 20.777344 7.183594 C 20.933594 7.25 21.089844 7.304688 21.253906 7.351562 C 21.597656 7.515625 21.933594 7.691406 22.269531 7.871094 C 22.34375 7.914062 22.410156 7.964844 22.472656 8.023438 C 22.667969 8.199219 22.875 8.363281 23.09375 8.507812 C 23.632812 8.839844 24.089844 9.257812 24.464844 9.765625 C 24.617188 9.964844 24.761719 10.175781 24.890625 10.394531 C 25.171875 10.804688 25.359375 11.257812 25.445312 11.753906 C 25.476562 11.953125 25.484375 12.148438 25.46875 12.351562 C 25.464844 12.59375 25.425781 12.832031 25.351562 13.066406 C 25.234375 13.351562 25.082031 13.613281 24.890625 13.859375 C 24.699219 14.160156 24.445312 14.394531 24.128906 14.558594 C 24.089844 14.578125 24.058594 14.605469 24.042969 14.648438 C 23.933594 14.898438 23.832031 15.152344 23.726562 15.402344 C 23.554688 15.832031 23.382812 16.261719 23.210938 16.691406 C 23.191406 16.742188 23.175781 16.792969 23.164062 16.84375 C 23.042969 17.238281 22.878906 17.613281 22.667969 17.96875 C 22.609375 18.078125 22.578125 18.203125 22.53125 18.320312 C 22.355469 18.738281 22.179688 19.15625 21.996094 19.570312 C 21.917969 19.734375 21.832031 19.890625 21.738281 20.042969 C 21.464844 20.496094 21.28125 21 20.910156 21.390625 C 20.839844 21.484375 20.753906 21.558594 20.652344 21.617188 C 20.414062 21.726562 20.160156 21.808594 19.917969 21.902344 C 19.792969 21.949219 19.671875 21.953125 19.546875 21.90625 C 19.414062 21.882812 19.28125 21.878906 19.144531 21.894531 C 18.570312 21.894531 18.011719 21.804688 17.46875 21.617188 C 17.070312 21.472656 16.664062 21.355469 16.242188 21.21875 Z M 14.375 21.492188 C 14.332031 21.488281 14.289062 21.496094 14.25 21.507812 C 13.933594 21.664062 13.605469 21.691406 13.265625 21.59375 C 13 21.53125 12.730469 21.488281 12.460938 21.464844 C 12.195312 21.476562 11.9375 21.445312 11.6875 21.371094 C 11.429688 21.265625 11.167969 21.179688 10.902344 21.109375 C 10.265625 20.9375 9.660156 20.691406 9.085938 20.367188 C 8.917969 20.277344 8.746094 20.1875 8.578125 20.097656 C 8.25 19.949219 7.9375 19.773438 7.632812 19.582031 C 6.800781 19.019531 6.007812 18.40625 5.25 17.742188 C 5.226562 17.726562 5.199219 17.710938 5.175781 17.699219 C 5.253906 17.972656 5.367188 18.230469 5.503906 18.480469 C 5.640625 18.714844 5.832031 18.894531 6.070312 19.023438 C 6.464844 19.25 6.847656 19.492188 7.234375 19.734375 C 7.414062 19.84375 7.578125 19.984375 7.765625 20.082031 C 8.34375 20.386719 8.941406 20.664062 9.511719 20.984375 C 10.183594 21.320312 10.871094 21.613281 11.582031 21.859375 C 11.816406 21.949219 12.082031 21.964844 12.308594 22.070312 C 13 22.386719 13.738281 22.265625 14.457031 22.320312 C 14.476562 22.320312 14.496094 22.316406 14.515625 22.304688 C 14.890625 22.222656 15.171875 22.011719 15.351562 21.671875 C 15.613281 21.132812 15.996094 20.648438 16.140625 20.050781 C 16.1875 19.878906 16.25 19.714844 16.328125 19.554688 C 16.550781 19.085938 16.78125 18.625 17.003906 18.160156 C 17.09375 17.910156 17.199219 17.667969 17.328125 17.4375 C 17.597656 17.011719 17.796875 16.558594 17.929688 16.074219 C 17.980469 15.949219 18.050781 15.835938 18.140625 15.738281 C 18.3125 15.566406 18.507812 15.433594 18.730469 15.335938 C 19.066406 15.175781 19.324219 14.929688 19.496094 14.597656 C 19.683594 14.175781 19.78125 13.734375 19.796875 13.273438 C 19.839844 12.515625 19.652344 11.824219 19.238281 11.191406 C 19.03125 10.855469 18.796875 10.542969 18.539062 10.25 C 18.28125 10 18.007812 9.765625 17.714844 9.554688 C 17.648438 9.511719 17.578125 9.480469 17.503906 9.453125 C 17.660156 9.632812 17.816406 9.8125 17.972656 9.992188 C 18.222656 10.292969 18.484375 10.582031 18.714844 10.898438 C 19.113281 11.441406 19.285156 12.054688 19.234375 12.726562 C 19.226562 13.1875 19.085938 13.601562 18.8125 13.972656 C 18.539062 14.296875 18.199219 14.523438 17.796875 14.65625 C 17.675781 14.691406 17.601562 14.769531 17.578125 14.894531 C 17.542969 15.136719 17.484375 15.371094 17.410156 15.605469 C 17.210938 16.074219 17.046875 16.550781 16.914062 17.042969 C 16.867188 17.230469 16.800781 17.40625 16.710938 17.574219 C 16.488281 18.019531 16.242188 18.453125 16.011719 18.890625 C 15.90625 19.097656 15.816406 19.316406 15.71875 19.527344 C 15.625 19.738281 15.546875 19.953125 15.4375 20.15625 C 15.339844 20.332031 15.234375 20.503906 15.121094 20.667969 C 15.027344 20.820312 14.921875 20.964844 14.808594 21.101562 C 14.667969 21.242188 14.519531 21.375 14.363281 21.5 Z M 5.089844 16.792969 C 5.324219 17.023438 5.53125 17.25 5.765625 17.445312 C 6.179688 17.785156 6.632812 18.089844 7.039062 18.441406 C 7.582031 18.882812 8.167969 19.257812 8.792969 19.570312 C 9.035156 19.699219 9.292969 19.796875 9.535156 19.929688 C 9.957031 20.179688 10.402344 20.367188 10.871094 20.496094 C 11.003906 20.527344 11.128906 20.589844 11.261719 20.628906 C 11.597656 20.75 11.945312 20.835938 12.304688 20.886719 C 12.707031 20.890625 13.101562 20.945312 13.492188 21.050781 C 13.6875 21.113281 13.871094 21.082031 14.039062 20.960938 C 14.25 20.832031 14.425781 20.667969 14.574219 20.464844 C 14.847656 20.027344 15.078125 19.558594 15.3125 19.097656 C 15.644531 18.4375 15.964844 17.769531 16.289062 17.101562 C 16.316406 17.035156 16.335938 16.964844 16.351562 16.894531 C 16.394531 16.722656 16.445312 16.554688 16.507812 16.386719 C 16.730469 15.929688 16.925781 15.460938 17.097656 14.984375 C 17.199219 14.640625 17.398438 14.367188 17.699219 14.164062 C 18.25 13.820312 18.558594 13.328125 18.628906 12.683594 C 18.691406 12.113281 18.539062 11.609375 18.175781 11.167969 C 18.089844 11.0625 18.007812 10.949219 17.917969 10.847656 C 17.65625 10.542969 17.472656 10.175781 17.136719 9.941406 C 16.96875 9.828125 16.808594 9.714844 16.644531 9.597656 C 16.339844 9.386719 16.039062 9.179688 15.738281 8.960938 C 15.566406 8.804688 15.378906 8.667969 15.179688 8.550781 C 14.597656 8.292969 14.011719 8.0625 13.414062 7.847656 C 13.09375 7.734375 12.765625 7.660156 12.425781 7.625 C 12.058594 7.589844 11.6875 7.59375 11.316406 7.632812 C 10.539062 7.710938 9.761719 7.816406 9.070312 8.234375 C 9.007812 8.273438 8.933594 8.292969 8.867188 8.324219 C 8.777344 8.359375 8.695312 8.402344 8.617188 8.457031 C 8.121094 8.875 7.8125 9.40625 7.695312 10.042969 C 7.695312 10.113281 7.707031 10.183594 7.734375 10.25 C 7.761719 10.375 7.839844 10.515625 7.804688 10.617188 C 7.734375 10.898438 7.777344 11.160156 7.9375 11.402344 C 7.980469 11.5 7.980469 11.597656 7.9375 11.695312 C 7.664062 12.171875 7.371094 12.636719 7.085938 13.109375 C 6.816406 13.523438 6.566406 13.949219 6.339844 14.390625 C 6.105469 14.890625 5.816406 15.359375 5.484375 15.800781 C 5.25 16.089844 5.117188 16.421875 5.089844 16.792969 Z M 14.429688 7.304688 C 14.574219 7.351562 14.675781 7.382812 14.777344 7.410156 C 15.125 7.484375 15.46875 7.585938 15.804688 7.710938 C 16.503906 8.050781 17.160156 8.453125 17.78125 8.921875 C 18 9.074219 18.199219 9.246094 18.417969 9.394531 C 18.765625 9.640625 19.066406 9.9375 19.308594 10.285156 C 19.710938 10.898438 20.027344 11.550781 20.261719 12.246094 C 20.289062 12.316406 20.304688 12.386719 20.308594 12.460938 C 20.378906 13.035156 20.347656 13.605469 20.214844 14.167969 C 20.082031 14.613281 19.839844 14.988281 19.484375 15.289062 C 19.1875 15.566406 18.84375 15.765625 18.457031 15.890625 C 18.449219 15.988281 18.433594 16.089844 18.410156 16.1875 C 18.269531 16.742188 18.070312 17.273438 17.816406 17.785156 C 17.632812 18.144531 17.472656 18.507812 17.328125 18.882812 C 17.207031 19.160156 17.078125 19.433594 16.933594 19.746094 C 17.179688 19.820312 17.429688 19.867188 17.6875 19.890625 C 18.09375 19.886719 18.488281 19.941406 18.878906 20.0625 C 19.074219 20.125 19.257812 20.097656 19.429688 19.976562 C 19.644531 19.839844 19.828125 19.664062 19.980469 19.457031 C 20.261719 18.996094 20.496094 18.507812 20.738281 18.027344 C 20.964844 17.582031 21.175781 17.132812 21.386719 16.679688 C 21.539062 16.363281 21.761719 16.074219 21.777344 15.695312 C 21.796875 15.601562 21.828125 15.515625 21.878906 15.433594 C 22.160156 14.910156 22.386719 14.363281 22.558594 13.792969 C 22.613281 13.640625 22.699219 13.507812 22.820312 13.402344 C 22.929688 13.304688 23.050781 13.214844 23.171875 13.132812 C 23.410156 12.96875 23.605469 12.761719 23.753906 12.515625 C 23.90625 12.269531 24 12.003906 24.035156 11.714844 C 24.074219 11.429688 24.050781 11.148438 23.972656 10.871094 C 23.890625 10.59375 23.753906 10.34375 23.570312 10.125 C 23.300781 9.765625 22.988281 9.453125 22.636719 9.179688 C 22.203125 8.878906 21.804688 8.53125 21.386719 8.214844 C 21.253906 8.113281 21.078125 8.066406 20.941406 7.96875 C 20.265625 7.5 19.523438 7.171875 18.71875 6.988281 C 18.328125 6.890625 17.9375 6.800781 17.539062 6.738281 C 17.121094 6.640625 16.703125 6.621094 16.277344 6.679688 C 15.925781 6.753906 15.582031 6.871094 15.226562 6.921875 C 14.917969 6.964844 14.652344 7.09375 14.429688 7.304688 Z M 16.542969 20.703125 C 16.769531 20.789062 16.984375 20.882812 17.203125 20.957031 C 17.351562 21.003906 17.515625 21.007812 17.660156 21.0625 C 18.027344 21.214844 18.40625 21.296875 18.804688 21.304688 C 19.035156 21.339844 19.265625 21.335938 19.496094 21.292969 C 19.539062 21.28125 19.578125 21.28125 19.621094 21.296875 C 19.816406 21.367188 19.996094 21.339844 20.160156 21.21875 C 20.457031 21.074219 20.675781 20.855469 20.816406 20.558594 C 20.921875 20.351562 21.042969 20.152344 21.152344 19.945312 C 21.257812 19.75 21.367188 19.554688 21.453125 19.351562 C 21.597656 19.027344 21.71875 18.6875 21.859375 18.363281 C 22.03125 17.972656 22.21875 17.59375 22.390625 17.207031 C 22.636719 16.636719 22.867188 16.054688 23.121094 15.484375 C 23.238281 15.257812 23.324219 15.019531 23.375 14.769531 C 23.40625 14.644531 23.46875 14.535156 23.558594 14.445312 C 23.847656 14.121094 24.140625 13.800781 24.449219 13.496094 C 24.636719 13.316406 24.75 13.09375 24.789062 12.832031 C 24.832031 12.5625 24.84375 12.289062 24.875 12.015625 C 24.914062 11.777344 24.867188 11.554688 24.734375 11.351562 C 24.703125 11.285156 24.679688 11.214844 24.660156 11.140625 C 24.636719 11.09375 24.613281 11.050781 24.582031 11.007812 L 24.515625 11.03125 C 24.566406 11.199219 24.617188 11.359375 24.660156 11.527344 C 24.6875 11.609375 24.699219 11.691406 24.695312 11.777344 C 24.632812 12.167969 24.496094 12.535156 24.285156 12.871094 C 24.011719 13.25 23.652344 13.515625 23.203125 13.664062 C 23.070312 13.699219 22.992188 13.785156 22.972656 13.925781 C 22.933594 14.15625 22.878906 14.382812 22.808594 14.605469 C 22.652344 15.085938 22.484375 15.5625 22.316406 16.042969 C 22.261719 16.226562 22.195312 16.402344 22.113281 16.574219 C 21.886719 17.019531 21.644531 17.449219 21.414062 17.890625 C 21.296875 18.082031 21.207031 18.285156 21.136719 18.496094 C 20.980469 19.085938 20.589844 19.535156 20.273438 20.03125 C 20.191406 20.15625 20.027344 20.230469 19.921875 20.34375 C 19.753906 20.515625 19.546875 20.613281 19.308594 20.640625 C 19.019531 20.683594 18.742188 20.65625 18.46875 20.554688 C 18.367188 20.523438 18.265625 20.503906 18.160156 20.5 C 17.699219 20.511719 17.253906 20.445312 16.820312 20.304688 C 16.78125 20.296875 16.738281 20.292969 16.699219 20.300781 Z M 16.542969 20.703125 " fill-opacity="1" fill-rule="nonzero"/></g><path fill="#ffffff" d="M 8.824219 10.300781 C 8.878906 10.175781 8.945312 10.058594 9.03125 9.953125 C 9.355469 9.625 9.730469 9.378906 10.164062 9.210938 C 10.289062 9.148438 10.410156 9.15625 10.523438 9.234375 C 10.664062 9.339844 10.652344 9.5 10.484375 9.546875 C 10.046875 9.6875 9.695312 9.945312 9.425781 10.324219 C 9.378906 10.394531 9.320312 10.457031 9.25 10.503906 C 9.171875 10.542969 9.050781 10.585938 8.992188 10.550781 C 8.917969 10.511719 8.882812 10.394531 8.824219 10.300781 Z M 8.824219 10.300781 " fill-opacity="1" fill-rule="nonzero"/><path fill="#ffffff" d="M 12.472656 19.0625 C 12.300781 19.039062 12.230469 18.976562 12.261719 18.863281 C 12.289062 18.773438 12.339844 18.691406 12.40625 18.625 C 12.671875 18.371094 12.945312 18.121094 13.21875 17.875 C 13.257812 17.839844 13.304688 17.816406 13.355469 17.796875 C 13.550781 17.699219 13.664062 17.707031 13.746094 17.832031 C 13.8125 17.933594 13.769531 18.050781 13.621094 18.179688 C 13.375 18.394531 13.140625 18.621094 12.886719 18.824219 C 12.753906 18.917969 12.617188 18.996094 12.472656 19.0625 Z M 12.472656 19.0625 " fill-opacity="1" fill-rule="nonzero"/><path fill="#ffffff" d="M 13.234375 19.160156 C 13.1875 19.421875 13.035156 19.574219 12.773438 19.617188 C 12.714844 19.621094 12.667969 19.601562 12.636719 19.550781 C 12.605469 19.503906 12.605469 19.453125 12.632812 19.402344 C 12.734375 19.253906 12.855469 19.125 12.992188 19.015625 C 13.101562 18.933594 13.230469 19.027344 13.234375 19.160156 Z M 13.234375 19.160156 " fill-opacity="1" fill-rule="nonzero"/><path fill="#ffffff" d="M 15.964844 12.820312 C 15.992188 12.859375 16.066406 12.921875 16.082031 12.996094 C 16.101562 13.113281 15.878906 13.292969 15.746094 13.261719 C 15.667969 13.234375 15.617188 13.179688 15.59375 13.101562 C 15.566406 12.972656 15.761719 12.8125 15.964844 12.820312 Z M 15.964844 12.820312 " fill-opacity="1" fill-rule="nonzero"/><path fill="#ffffff" d="M 9.0625 11.277344 C 8.945312 11.253906 8.925781 11.148438 8.929688 11.039062 C 8.933594 10.878906 9.050781 10.746094 9.171875 10.765625 C 9.304688 10.785156 9.332031 10.882812 9.328125 11 C 9.332031 11.078125 9.308594 11.140625 9.253906 11.195312 C 9.203125 11.25 9.140625 11.277344 9.0625 11.277344 Z M 9.0625 11.277344 " fill-opacity="1" fill-rule="nonzero"/><path fill="#ffffff" d="M 19.300781 18.792969 C 19.238281 18.726562 19.164062 18.679688 19.15625 18.628906 C 19.144531 18.542969 19.160156 18.464844 19.207031 18.390625 C 19.363281 18.191406 19.535156 18.007812 19.707031 17.824219 C 19.78125 17.742188 19.871094 17.679688 19.984375 17.757812 C 20.089844 17.835938 20.109375 17.933594 20.042969 18.046875 C 19.945312 18.261719 19.796875 18.4375 19.59375 18.566406 C 19.503906 18.632812 19.417969 18.703125 19.300781 18.792969 Z M 19.300781 18.792969 " fill-opacity="1" fill-rule="nonzero"/><path fill="#ffffff" d="M 20.285156 16.777344 C 20.460938 16.804688 20.503906 16.890625 20.503906 17.011719 C 20.503906 17.132812 20.464844 17.222656 20.332031 17.234375 C 20.269531 17.230469 20.21875 17.203125 20.179688 17.15625 C 20.140625 17.109375 20.125 17.054688 20.132812 16.992188 C 20.167969 16.910156 20.21875 16.839844 20.285156 16.777344 Z M 20.285156 16.777344 " fill-opacity="1" fill-rule="nonzero"/><path fill="#ffffff" d="M 20.859375 9.058594 C 20.816406 9.089844 20.75 9.164062 20.671875 9.179688 C 20.554688 9.199219 20.410156 9.019531 20.449219 8.898438 C 20.484375 8.824219 20.542969 8.78125 20.621094 8.765625 C 20.738281 8.753906 20.867188 8.902344 20.859375 9.058594 Z M 20.859375 9.058594 " fill-opacity="1" fill-rule="nonzero"/><path fill="#ffffff" d="M 21.175781 9.628906 C 21.085938 9.519531 21 9.457031 20.988281 9.386719 C 20.976562 9.332031 20.988281 9.28125 21.023438 9.234375 C 21.058594 9.191406 21.105469 9.167969 21.164062 9.167969 C 21.269531 9.152344 21.398438 9.257812 21.371094 9.351562 C 21.320312 9.453125 21.253906 9.546875 21.175781 9.628906 Z M 21.175781 9.628906 " fill-opacity="1" fill-rule="nonzero"/><path fill="#ffffff" d="M 14.363281 21.5 C 14.621094 21.515625 14.6875 21.59375 14.628906 21.8125 C 14.601562 21.917969 14.542969 21.988281 14.433594 21.96875 C 14.378906 21.964844 14.332031 21.9375 14.296875 21.894531 C 14.265625 21.847656 14.253906 21.800781 14.261719 21.746094 C 14.289062 21.65625 14.324219 21.570312 14.375 21.492188 Z M 14.363281 21.5 " fill-opacity="1" fill-rule="nonzero"/><path fill="#ffffff" d="M 20.042969 20.640625 C 20.050781 20.855469 19.960938 20.984375 19.851562 20.976562 C 19.792969 20.980469 19.746094 20.957031 19.707031 20.917969 C 19.671875 20.875 19.65625 20.824219 19.660156 20.769531 C 19.65625 20.621094 19.761719 20.484375 19.875 20.515625 C 19.941406 20.542969 19.996094 20.585938 20.042969 20.640625 Z M 20.042969 20.640625 " fill-opacity="1" fill-rule="nonzero"/></svg>