<svg xmlns="http://www.w3.org/2000/svg" xmlns:xlink="http://www.w3.org/1999/xlink" width="40" zoomAndPan="magnify" viewBox="0 0 30 30.000001" height="40" preserveAspectRatio="xMidYMid meet" version="1.0"><defs><clipPath id="ec36298f6e"><path d="M 4.070312 11.402344 L 25.84375 11.402344 L 25.84375 17.625 L 4.070312 17.625 Z M 4.070312 11.402344 " clip-rule="nonzero"/></clipPath></defs><g clip-path="url(#ec36298f6e)"><path fill="#ffffff" d="M 21.488281 14.484375 C 21.371094 14.5625 21.25 14.640625 21.128906 14.714844 L 20.804688 14.394531 L 20.128906 13.652344 C 19.96875 13.480469 19.699219 13.46875 19.527344 13.625 L 19.519531 13.632812 C 19.347656 13.789062 19.335938 14.058594 19.492188 14.230469 L 20.339844 15.160156 C 20.324219 15.167969 20.304688 15.179688 20.285156 15.1875 C 20.035156 15.316406 19.789062 15.433594 19.550781 15.539062 L 18.601562 14.496094 C 18.136719 13.988281 18.175781 13.199219 18.683594 12.734375 L 18.710938 12.707031 C 19.21875 12.246094 20.011719 12.28125 20.472656 12.789062 L 21.117188 13.496094 C 21.121094 13.496094 21.511719 13.941406 21.789062 14.277344 C 21.6875 14.347656 21.585938 14.414062 21.488281 14.484375 Z M 25.921875 12.894531 L 25.917969 12.871094 C 25.886719 12.632812 25.683594 12.453125 25.445312 12.453125 C 24.726562 12.453125 24.324219 11.945312 24.148438 11.640625 C 24.066406 11.496094 23.90625 11.402344 23.734375 11.402344 C 23.679688 11.402344 23.621094 11.414062 23.566406 11.433594 L 23.542969 11.441406 C 23.410156 11.492188 23.308594 11.597656 23.257812 11.730469 C 23.210938 11.867188 23.226562 12.011719 23.296875 12.136719 C 23.417969 12.339844 23.558594 12.53125 23.71875 12.695312 C 23.722656 12.695312 23.722656 12.699219 23.726562 12.703125 C 23.324219 13.078125 22.914062 13.425781 22.503906 13.746094 L 21.566406 12.679688 L 21.125 12.195312 C 20.332031 11.328125 18.984375 11.265625 18.117188 12.054688 L 18.085938 12.082031 C 17.21875 12.875 17.15625 14.222656 17.949219 15.089844 L 18.691406 15.90625 C 18.589844 15.941406 18.488281 15.976562 18.386719 16.011719 C 18.148438 16.09375 17.921875 16.164062 17.707031 16.226562 C 17.605469 16.257812 17.511719 16.28125 17.425781 16.304688 C 17.308594 16.335938 17.195312 16.363281 17.089844 16.386719 C 17.050781 16.398438 17.027344 16.402344 17.027344 16.402344 C 17.007812 16.40625 16.984375 16.414062 16.964844 16.417969 C 16.953125 16.417969 16.941406 16.421875 16.929688 16.425781 C 16.914062 16.429688 16.898438 16.433594 16.882812 16.4375 C 16.882812 16.4375 16.875 16.4375 16.867188 16.4375 C 16.480469 16.519531 16.183594 16.5625 15.984375 16.582031 L 15.984375 16.585938 C 15.984375 16.585938 15.980469 16.585938 15.976562 16.585938 C 15.734375 16.609375 15.492188 16.625 15.25 16.632812 C 15.226562 16.632812 15.199219 16.636719 15.175781 16.636719 C 15.09375 16.636719 15.015625 16.640625 14.933594 16.640625 C 14.789062 16.640625 14.640625 16.636719 14.496094 16.628906 C 11.804688 16.515625 9.5625 15.335938 8.152344 14.371094 C 7.296875 13.78125 6.632812 13.195312 6.199219 12.773438 C 6.226562 12.746094 6.253906 12.722656 6.277344 12.695312 C 6.4375 12.53125 6.578125 12.34375 6.695312 12.140625 C 6.769531 12.015625 6.78125 11.867188 6.734375 11.734375 C 6.6875 11.597656 6.582031 11.492188 6.449219 11.441406 L 6.429688 11.433594 C 6.375 11.414062 6.320312 11.402344 6.261719 11.402344 C 6.089844 11.402344 5.929688 11.496094 5.84375 11.644531 C 5.761719 11.78125 5.671875 11.902344 5.566406 12.011719 C 5.285156 12.304688 4.945312 12.453125 4.554688 12.453125 C 4.316406 12.457031 4.109375 12.636719 4.078125 12.871094 L 4.074219 12.894531 C 4.054688 13.035156 4.097656 13.171875 4.1875 13.277344 C 4.277344 13.382812 4.410156 13.441406 4.542969 13.441406 L 4.550781 13.441406 C 4.824219 13.441406 5.085938 13.398438 5.335938 13.308594 C 5.738281 13.71875 6.511719 14.4375 7.574219 15.171875 C 8.539062 15.832031 9.542969 16.371094 10.5625 16.773438 C 11.84375 17.277344 13.152344 17.558594 14.449219 17.617188 C 14.609375 17.621094 14.777344 17.625 14.9375 17.625 C 16.453125 17.625 17.953125 17.320312 19.429688 16.710938 C 19.710938 16.59375 19.992188 16.46875 20.273438 16.328125 C 20.527344 16.203125 20.777344 16.070312 21.03125 15.925781 C 21.300781 15.769531 21.574219 15.605469 21.847656 15.429688 C 22.765625 14.832031 23.671875 14.113281 24.5625 13.273438 C 24.839844 13.386719 25.136719 13.441406 25.445312 13.441406 L 25.449219 13.441406 C 25.585938 13.441406 25.71875 13.382812 25.808594 13.277344 C 25.898438 13.171875 25.941406 13.035156 25.921875 12.894531 " fill-opacity="1" fill-rule="nonzero"/></g></svg>