<svg xmlns="http://www.w3.org/2000/svg" xmlns:xlink="http://www.w3.org/1999/xlink" width="40" zoomAndPan="magnify" viewBox="0 0 30 30.000001" height="40" preserveAspectRatio="xMidYMid meet" version="1.0"><defs><clipPath id="6b5a7d53e0"><path d="M 4.769531 6.332031 L 25 6.332031 L 25 23 L 4.769531 23 Z M 4.769531 6.332031 " clip-rule="nonzero"/></clipPath></defs><g clip-path="url(#6b5a7d53e0)"><path fill="#ffffff" d="M 16.550781 17.242188 C 16.171875 17.644531 18.109375 17.875 17.671875 16.597656 C 17.238281 15.3125 14.492188 15.503906 13.980469 17.027344 C 13.632812 18.066406 14.644531 18.632812 15.410156 19.039062 C 16.011719 19.359375 17.464844 20.421875 16.234375 20.960938 C 15.613281 21.230469 14.6875 20.71875 15.175781 19.976562 C 15.292969 19.800781 13.953125 19.558594 13.9375 20.675781 C 13.917969 22.324219 17.1875 22.464844 17.910156 20.546875 C 18.300781 19.507812 17.5 18.804688 16.535156 18.4375 C 14.972656 17.851562 14.902344 16.992188 15.300781 16.515625 C 16 15.683594 17.25 16.5 16.550781 17.242188 Z M 24.726562 18.359375 C 24.113281 19.484375 23.332031 18.542969 22.910156 17.878906 C 22.894531 18.109375 22.882812 20.628906 22.941406 20.785156 C 22.957031 20.835938 22.992188 20.878906 23.066406 20.910156 C 23.785156 21.207031 23.988281 21.539062 23.851562 21.871094 C 23.507812 22.695312 19.367188 22.695312 19.023438 21.871094 C 18.882812 21.527344 19.097656 21.214844 19.808594 20.90625 C 19.980469 20.835938 19.964844 20.652344 19.964844 20.421875 L 19.964844 17.878906 C 19.511719 18.65625 19.066406 19.074219 18.515625 18.761719 C 18.25 18.613281 18.066406 18.296875 17.980469 17.925781 C 17.859375 18.027344 17.710938 18.109375 17.539062 18.164062 C 19.914062 19.648438 18.316406 22.675781 15.617188 22.640625 C 14.625 22.625 13.957031 22.238281 13.585938 21.726562 C 13.609375 21.820312 13.636719 21.914062 13.660156 22.003906 C 13.726562 22.242188 13.523438 22.46875 13.285156 22.4375 C 11.339844 22.25 9.542969 22.132812 7.589844 22.441406 C 7.3125 22.488281 7.109375 22.195312 7.226562 21.949219 C 8.515625 19.375 9.371094 15.058594 9.175781 12.191406 L 5.136719 11.300781 C 4.773438 11.222656 4.769531 10.6875 5.160156 10.621094 C 5.507812 10.554688 11.3125 9.382812 13.015625 6.65625 C 13.21875 6.332031 13.734375 6.53125 13.644531 6.921875 C 12.898438 10.515625 12.609375 16.175781 13.289062 20.273438 C 13.40625 19.78125 13.753906 19.359375 14.308594 19.199219 C 12.152344 17.757812 13.511719 15.210938 15.832031 15.074219 C 17.144531 14.996094 17.949219 15.566406 18.269531 16.242188 C 18.480469 15.960938 18.792969 15.769531 19.21875 15.769531 L 23.65625 15.769531 C 24.9375 15.769531 25.222656 17.457031 24.726562 18.359375 Z M 20.070312 21.546875 C 19.808594 21.65625 19.636719 21.546875 19.660156 21.605469 C 19.769531 21.863281 23.105469 21.863281 23.214844 21.605469 C 23.238281 21.542969 22.214844 21.824219 22.214844 20.421875 L 22.214844 17.988281 C 22.214844 16.894531 23.035156 16.691406 23.59375 17.683594 C 23.914062 18.25 24.03125 18.300781 24.167969 17.925781 C 24.355469 17.429688 24.277344 16.460938 23.65625 16.460938 L 19.21875 16.460938 C 18.441406 16.460938 18.527344 17.976562 18.855469 18.164062 C 19.105469 18.304688 19.433594 16.878906 20.167969 17.058594 C 20.539062 17.152344 20.65625 17.574219 20.65625 17.988281 L 20.65625 20.421875 C 20.65625 20.921875 20.582031 21.328125 20.070312 21.546875 Z M 10.460938 21.5625 C 11.269531 21.578125 12.066406 21.632812 12.871094 21.707031 C 11.960938 17.875 12.121094 11.953125 12.738281 8.042969 C 11.105469 9.5625 8.414062 10.488281 6.746094 10.949219 L 9.574219 11.570312 C 9.714844 11.601562 9.828125 11.726562 9.84375 11.878906 C 10.113281 14.941406 9.261719 18.984375 8.113281 21.675781 C 8.910156 21.582031 9.6875 21.550781 10.460938 21.5625 Z M 10.460938 21.5625 " fill-opacity="1" fill-rule="nonzero"/></g></svg>