<svg xmlns="http://www.w3.org/2000/svg" xmlns:xlink="http://www.w3.org/1999/xlink" width="40" zoomAndPan="magnify" viewBox="0 0 30 30.000001" height="40" preserveAspectRatio="xMidYMid meet" version="1.0"><defs><clipPath id="ef1978aa26"><path d="M 3.386719 3 L 26.613281 3 L 26.613281 26.21875 L 3.386719 26.21875 Z M 3.386719 3 " clip-rule="nonzero"/></clipPath></defs><path fill="#ffffff" d="M 13.660156 8.890625 C 13.71875 8.972656 13.835938 8.988281 13.914062 8.929688 C 14.097656 8.789062 14.488281 8.558594 15.023438 8.558594 C 15.25 8.558594 15.699219 8.605469 16.128906 8.929688 C 16.160156 8.953125 16.199219 8.964844 16.238281 8.964844 C 16.292969 8.964844 16.347656 8.941406 16.382812 8.890625 C 16.445312 8.8125 16.429688 8.695312 16.347656 8.636719 C 15.835938 8.25 15.296875 8.191406 15.023438 8.191406 C 14.378906 8.191406 13.914062 8.46875 13.695312 8.636719 C 13.613281 8.695312 13.597656 8.8125 13.660156 8.890625 Z M 13.660156 8.890625 " fill-opacity="1" fill-rule="nonzero"/><path fill="#ffffff" d="M 14.007812 6.894531 C 14.046875 6.894531 14.085938 6.882812 14.117188 6.859375 C 14.269531 6.746094 14.585938 6.554688 15.023438 6.554688 C 15.210938 6.554688 15.574219 6.59375 15.925781 6.859375 C 16.007812 6.917969 16.121094 6.902344 16.183594 6.820312 C 16.242188 6.742188 16.226562 6.625 16.144531 6.566406 C 15.710938 6.238281 15.253906 6.1875 15.023438 6.1875 C 14.480469 6.1875 14.085938 6.425781 13.898438 6.566406 C 13.816406 6.625 13.800781 6.742188 13.863281 6.820312 C 13.898438 6.867188 13.953125 6.894531 14.007812 6.894531 Z M 14.007812 6.894531 " fill-opacity="1" fill-rule="nonzero"/><path fill="#ffffff" d="M 14.210938 5.230469 C 14.25 5.230469 14.289062 5.21875 14.320312 5.195312 C 14.4375 5.105469 14.683594 4.960938 15.023438 4.960938 C 15.167969 4.960938 15.453125 4.988281 15.722656 5.195312 C 15.804688 5.253906 15.917969 5.238281 15.980469 5.15625 C 16.039062 5.078125 16.023438 4.960938 15.941406 4.902344 C 15.585938 4.632812 15.214844 4.59375 15.023438 4.59375 C 14.578125 4.59375 14.253906 4.785156 14.101562 4.902344 C 14.019531 4.960938 14.003906 5.078125 14.066406 5.15625 C 14.101562 5.207031 14.15625 5.230469 14.210938 5.230469 Z M 14.210938 5.230469 " fill-opacity="1" fill-rule="nonzero"/><path fill="#ffffff" d="M 7.578125 8.890625 C 7.636719 8.972656 7.753906 8.988281 7.832031 8.929688 C 8.015625 8.789062 8.40625 8.558594 8.941406 8.558594 C 9.167969 8.558594 9.617188 8.605469 10.046875 8.929688 C 10.078125 8.953125 10.117188 8.964844 10.15625 8.964844 C 10.210938 8.964844 10.265625 8.941406 10.300781 8.890625 C 10.363281 8.8125 10.347656 8.695312 10.265625 8.636719 C 9.753906 8.25 9.214844 8.191406 8.941406 8.191406 C 8.296875 8.191406 7.832031 8.46875 7.613281 8.636719 C 7.53125 8.695312 7.515625 8.8125 7.578125 8.890625 Z M 7.578125 8.890625 " fill-opacity="1" fill-rule="nonzero"/><path fill="#ffffff" d="M 7.925781 6.894531 C 7.964844 6.894531 8.003906 6.882812 8.035156 6.859375 C 8.1875 6.746094 8.503906 6.554688 8.9375 6.554688 C 9.125 6.554688 9.492188 6.59375 9.84375 6.859375 C 9.921875 6.917969 10.039062 6.902344 10.097656 6.820312 C 10.160156 6.742188 10.144531 6.625 10.0625 6.566406 C 9.628906 6.238281 9.171875 6.1875 8.9375 6.1875 C 8.394531 6.1875 8.003906 6.425781 7.816406 6.566406 C 7.734375 6.625 7.71875 6.742188 7.78125 6.820312 C 7.816406 6.867188 7.871094 6.894531 7.925781 6.894531 Z M 7.925781 6.894531 " fill-opacity="1" fill-rule="nonzero"/><path fill="#ffffff" d="M 8.128906 5.230469 C 8.167969 5.230469 8.207031 5.21875 8.238281 5.195312 C 8.355469 5.105469 8.601562 4.960938 8.941406 4.960938 C 9.085938 4.960938 9.371094 4.988281 9.640625 5.195312 C 9.722656 5.253906 9.835938 5.238281 9.898438 5.15625 C 9.957031 5.078125 9.941406 4.960938 9.859375 4.902344 C 9.503906 4.632812 9.128906 4.59375 8.941406 4.59375 C 8.492188 4.59375 8.171875 4.785156 8.019531 4.902344 C 7.9375 4.960938 7.921875 5.078125 7.980469 5.15625 C 8.019531 5.207031 8.074219 5.230469 8.128906 5.230469 Z M 8.128906 5.230469 " fill-opacity="1" fill-rule="nonzero"/><g clip-path="url(#ef1978aa26)"><path fill="#ffffff" d="M 26.136719 19.1875 C 26.535156 18.664062 26.660156 18 26.476562 17.367188 L 25.222656 12.953125 C 25.582031 12.816406 25.898438 12.582031 26.136719 12.265625 C 26.535156 11.738281 26.660156 11.074219 26.476562 10.441406 L 25.121094 5.667969 C 24.867188 4.78125 24.050781 4.164062 23.136719 4.164062 L 22.789062 4.164062 C 22.496094 3.65625 22.097656 3.257812 21.558594 3.105469 C 21.390625 3.058594 21.046875 2.996094 20.648438 3.105469 C 20.113281 3.257812 19.710938 3.65625 19.417969 4.164062 L 16.707031 4.164062 C 16.414062 3.65625 16.015625 3.257812 15.476562 3.105469 C 15.082031 2.996094 14.738281 3.058594 14.566406 3.105469 C 14.03125 3.257812 13.628906 3.65625 13.335938 4.164062 L 10.625 4.164062 C 10.332031 3.65625 9.929688 3.257812 9.394531 3.105469 C 9 2.996094 8.65625 3.058594 8.484375 3.105469 C 7.949219 3.257812 7.546875 3.65625 7.253906 4.164062 L 6.914062 4.164062 C 5.996094 4.164062 5.179688 4.78125 4.925781 5.667969 L 3.570312 10.441406 C 3.390625 11.074219 3.511719 11.738281 3.910156 12.265625 C 4.148438 12.582031 4.464844 12.816406 4.824219 12.953125 L 3.570312 17.367188 C 3.390625 18 3.511719 18.664062 3.910156 19.1875 C 4.101562 19.445312 4.34375 19.644531 4.617188 19.785156 L 3.570312 23.476562 C 3.390625 24.109375 3.511719 24.773438 3.910156 25.296875 C 4.304688 25.820312 4.902344 26.117188 5.554688 26.117188 L 24.492188 26.117188 C 25.144531 26.117188 25.742188 25.820312 26.136719 25.296875 C 26.535156 24.773438 26.660156 24.109375 26.476562 23.476562 L 25.429688 19.785156 C 25.703125 19.644531 25.945312 19.445312 26.136719 19.1875 Z M 20.75 3.460938 C 21.058594 3.371094 21.328125 3.421875 21.460938 3.460938 C 22.710938 3.808594 23.15625 5.980469 23.152344 7.355469 C 23.148438 8.164062 23.140625 9.847656 22.03125 10.453125 C 21.476562 10.757812 20.730469 10.757812 20.179688 10.453125 C 19.070312 9.847656 19.0625 8.164062 19.058594 7.355469 C 19.050781 5.980469 19.496094 3.808594 20.75 3.460938 Z M 14.664062 3.460938 C 14.746094 3.4375 14.871094 3.410156 15.023438 3.410156 C 15.132812 3.410156 15.25 3.421875 15.378906 3.460938 C 16.628906 3.808594 17.074219 5.980469 17.070312 7.355469 C 17.066406 8.164062 17.058594 9.847656 15.949219 10.453125 C 15.394531 10.757812 14.648438 10.757812 14.097656 10.453125 C 12.988281 9.847656 12.980469 8.164062 12.976562 7.355469 C 12.96875 5.980469 13.414062 3.808594 14.664062 3.460938 Z M 8.582031 3.460938 C 8.660156 3.4375 8.789062 3.410156 8.941406 3.410156 C 9.046875 3.410156 9.167969 3.421875 9.296875 3.460938 C 10.546875 3.808594 10.992188 5.980469 10.988281 7.355469 C 10.984375 8.164062 10.976562 9.847656 9.863281 10.453125 C 9.3125 10.757812 8.566406 10.757812 8.015625 10.453125 C 6.902344 9.847656 6.894531 8.164062 6.890625 7.355469 C 6.886719 5.980469 7.332031 3.808594 8.582031 3.460938 Z M 5.277344 5.769531 C 5.484375 5.039062 6.15625 4.53125 6.914062 4.53125 L 7.070312 4.53125 C 6.65625 5.460938 6.523438 6.617188 6.527344 7.355469 C 6.53125 8.234375 6.539062 10.0625 7.835938 10.773438 C 8.167969 10.957031 8.554688 11.046875 8.9375 11.046875 C 9.324219 11.046875 9.710938 10.957031 10.042969 10.773438 C 11.339844 10.0625 11.347656 8.234375 11.351562 7.355469 C 11.355469 6.617188 11.222656 5.460938 10.808594 4.53125 L 13.152344 4.53125 C 12.738281 5.460938 12.605469 6.617188 12.609375 7.355469 C 12.613281 8.234375 12.621094 10.0625 13.921875 10.773438 C 14.25 10.957031 14.636719 11.046875 15.023438 11.046875 C 15.40625 11.046875 15.792969 10.957031 16.125 10.773438 C 17.421875 10.0625 17.429688 8.234375 17.433594 7.355469 C 17.4375 6.617188 17.304688 5.460938 16.890625 4.53125 L 19.234375 4.53125 C 18.820312 5.460938 18.6875 6.617188 18.691406 7.355469 C 18.695312 8.234375 18.703125 10.0625 20.003906 10.773438 C 20.332031 10.957031 20.71875 11.046875 21.105469 11.046875 C 21.488281 11.046875 21.875 10.957031 22.207031 10.773438 C 23.503906 10.0625 23.511719 8.234375 23.515625 7.355469 C 23.519531 6.617188 23.386719 5.460938 22.976562 4.53125 L 23.132812 4.53125 C 23.890625 4.53125 24.5625 5.039062 24.769531 5.769531 L 26.082031 10.390625 C 25.832031 11.054688 25.199219 11.496094 24.492188 11.496094 L 5.554688 11.496094 C 4.847656 11.496094 4.214844 11.054688 3.964844 10.390625 Z M 4.203125 12.042969 C 3.964844 11.726562 3.84375 11.351562 3.855469 10.96875 C 4.234375 11.519531 4.867188 11.863281 5.554688 11.863281 L 24.492188 11.863281 C 25.183594 11.863281 25.8125 11.519531 26.191406 10.96875 C 26.203125 11.351562 26.082031 11.726562 25.847656 12.042969 C 25.523438 12.472656 25.027344 12.71875 24.492188 12.71875 L 5.554688 12.71875 C 5.019531 12.71875 4.527344 12.472656 4.203125 12.042969 Z M 22.515625 17.164062 C 22.253906 17.449219 21.898438 17.605469 21.511719 17.605469 C 20.753906 17.605469 20.140625 16.988281 20.140625 16.226562 L 20.140625 13.085938 L 22.625 13.085938 L 22.875 16.113281 C 22.910156 16.503906 22.78125 16.875 22.515625 17.164062 Z M 19.773438 13.085938 L 19.773438 16.160156 C 19.773438 16.957031 19.128906 17.605469 18.332031 17.605469 C 17.539062 17.605469 16.894531 16.957031 16.894531 16.160156 L 16.894531 13.085938 Z M 16.527344 13.085938 L 16.527344 16.226562 C 16.527344 16.988281 15.914062 17.605469 15.15625 17.605469 C 14.769531 17.605469 14.414062 17.449219 14.152344 17.164062 C 13.886719 16.875 13.757812 16.503906 13.789062 16.113281 L 14.042969 13.085938 Z M 8.503906 15.65625 C 9.109375 15.65625 9.300781 14.125 9.324219 13.105469 C 9.472656 13.089844 9.617188 13.085938 9.75 13.085938 C 9.882812 13.085938 10.027344 13.089844 10.179688 13.105469 C 10.199219 14.125 10.390625 15.65625 10.996094 15.65625 C 11.59375 15.65625 11.753906 14.195312 11.796875 13.523438 C 12.535156 13.847656 13.171875 14.375 13.359375 15.15625 C 13.398438 15.316406 13.507812 15.890625 13.269531 16.433594 C 12.757812 17.605469 11.019531 17.605469 9.75 17.605469 C 8.480469 17.605469 6.742188 17.605469 6.230469 16.433594 C 5.992188 15.890625 6.101562 15.316406 6.140625 15.15625 C 6.328125 14.375 6.964844 13.847656 7.703125 13.523438 C 7.746094 14.195312 7.90625 15.65625 8.503906 15.65625 Z M 8.0625 13.378906 C 8.359375 13.277344 8.664062 13.203125 8.957031 13.152344 C 8.925781 14.457031 8.65625 15.226562 8.503906 15.289062 C 8.390625 15.238281 8.121094 14.636719 8.0625 13.378906 Z M 10.546875 13.152344 C 10.835938 13.203125 11.140625 13.277344 11.441406 13.378906 C 11.378906 14.636719 11.109375 15.238281 10.996094 15.289062 C 10.847656 15.226562 10.578125 14.457031 10.546875 13.152344 Z M 11.710938 13.085938 L 13.675781 13.085938 L 13.546875 14.601562 C 13.195312 13.867188 12.484375 13.378906 11.710938 13.085938 Z M 5.175781 13.050781 C 5.300781 13.074219 5.425781 13.085938 5.554688 13.085938 L 7.789062 13.085938 C 6.863281 13.4375 6.027344 14.066406 5.785156 15.070312 C 5.738281 15.261719 5.609375 15.933594 5.894531 16.582031 C 6.503906 17.972656 8.378906 17.972656 9.75 17.972656 C 11.054688 17.972656 12.816406 17.972656 13.507812 16.773438 C 13.585938 17.007812 13.710938 17.226562 13.882812 17.410156 C 14.210938 17.769531 14.675781 17.972656 15.15625 17.972656 C 15.847656 17.972656 16.445312 17.566406 16.726562 16.980469 C 17.023438 17.566406 17.632812 17.972656 18.332031 17.972656 C 19.035156 17.972656 19.644531 17.566406 19.941406 16.980469 C 20.222656 17.566406 20.820312 17.972656 21.511719 17.972656 C 21.992188 17.972656 22.457031 17.769531 22.785156 17.410156 C 23.117188 17.054688 23.28125 16.570312 23.242188 16.082031 L 22.992188 13.085938 L 24.492188 13.085938 C 24.621094 13.085938 24.746094 13.074219 24.871094 13.050781 L 26.082031 17.316406 C 25.832031 17.976562 25.199219 18.421875 24.492188 18.421875 L 5.554688 18.421875 C 4.847656 18.421875 4.214844 17.976562 3.964844 17.316406 Z M 25.84375 25.078125 C 25.523438 25.507812 25.027344 25.753906 24.492188 25.753906 L 5.554688 25.753906 C 5.019531 25.753906 4.527344 25.507812 4.203125 25.078125 C 3.964844 24.761719 3.84375 24.386719 3.855469 24.003906 C 4.234375 24.550781 4.867188 24.894531 5.554688 24.894531 L 24.492188 24.894531 C 25.183594 24.894531 25.8125 24.550781 26.191406 24.003906 C 26.203125 24.386719 26.082031 24.761719 25.84375 25.078125 Z M 26.082031 23.425781 C 25.832031 24.089844 25.199219 24.53125 24.492188 24.53125 L 5.554688 24.53125 C 4.847656 24.53125 4.214844 24.089844 3.964844 23.425781 L 4.960938 19.921875 C 5.148438 19.980469 5.351562 20.007812 5.554688 20.007812 L 7.011719 20.007812 C 6.976562 20.066406 6.949219 20.125 6.929688 20.1875 L 6.804688 20.214844 C 6.417969 20.304688 6.09375 20.5625 5.921875 20.917969 C 5.882812 20.992188 5.855469 21.066406 5.835938 21.140625 C 5.09375 21.777344 4.722656 22.632812 4.992188 23.105469 C 5.15625 23.402344 5.589844 23.570312 6.121094 23.570312 C 6.339844 23.570312 6.574219 23.539062 6.820312 23.480469 C 6.914062 23.519531 7.015625 23.539062 7.117188 23.539062 L 7.515625 23.539062 C 7.605469 23.625 7.730469 23.675781 7.863281 23.675781 L 8.394531 23.675781 C 8.527344 23.675781 8.648438 23.625 8.742188 23.539062 L 9.140625 23.539062 C 9.242188 23.539062 9.34375 23.519531 9.4375 23.480469 C 9.679688 23.539062 9.917969 23.570312 10.136719 23.570312 C 10.667969 23.570312 11.097656 23.402344 11.265625 23.105469 C 11.53125 22.632812 11.164062 21.777344 10.421875 21.140625 C 10.402344 21.066406 10.371094 20.992188 10.335938 20.917969 C 10.160156 20.5625 9.839844 20.304688 9.453125 20.214844 L 9.324219 20.1875 C 9.308594 20.125 9.28125 20.066406 9.246094 20.007812 L 13.902344 20.007812 C 13.871094 20.066406 13.84375 20.125 13.824219 20.1875 L 13.699219 20.214844 C 13.3125 20.304688 12.988281 20.5625 12.8125 20.917969 C 12.777344 20.992188 12.75 21.066406 12.726562 21.140625 C 11.988281 21.777344 11.617188 22.632812 11.882812 23.105469 C 12.050781 23.402344 12.480469 23.570312 13.011719 23.570312 C 13.234375 23.570312 13.46875 23.539062 13.710938 23.480469 C 13.804688 23.519531 13.90625 23.539062 14.011719 23.539062 L 14.410156 23.539062 C 14.5 23.625 14.621094 23.675781 14.753906 23.675781 L 15.289062 23.675781 C 15.421875 23.675781 15.542969 23.625 15.632812 23.539062 L 16.03125 23.539062 C 16.136719 23.539062 16.238281 23.519531 16.332031 23.480469 C 16.574219 23.539062 16.8125 23.570312 17.03125 23.570312 C 17.5625 23.570312 17.992188 23.402344 18.160156 23.105469 C 18.425781 22.632812 18.054688 21.777344 17.316406 21.140625 C 17.292969 21.066406 17.265625 20.992188 17.230469 20.917969 C 17.054688 20.5625 16.734375 20.304688 16.34375 20.214844 L 16.21875 20.1875 C 16.199219 20.125 16.175781 20.066406 16.140625 20.007812 L 20.800781 20.007812 C 20.765625 20.066406 20.738281 20.125 20.722656 20.1875 L 20.59375 20.214844 C 20.207031 20.304688 19.886719 20.5625 19.710938 20.917969 C 19.675781 20.992188 19.648438 21.066406 19.625 21.140625 C 18.886719 21.777344 18.515625 22.632812 18.78125 23.105469 C 18.949219 23.402344 19.378906 23.570312 19.910156 23.570312 C 20.128906 23.570312 20.367188 23.539062 20.609375 23.480469 C 20.703125 23.519531 20.804688 23.539062 20.910156 23.539062 L 21.308594 23.539062 C 21.398438 23.625 21.519531 23.675781 21.652344 23.675781 L 22.1875 23.675781 C 22.320312 23.675781 22.441406 23.625 22.53125 23.539062 L 22.929688 23.539062 C 23.035156 23.539062 23.132812 23.519531 23.230469 23.480469 C 23.472656 23.539062 23.707031 23.570312 23.925781 23.570312 C 24.457031 23.570312 24.890625 23.402344 25.054688 23.105469 C 25.324219 22.632812 24.953125 21.777344 24.210938 21.140625 C 24.191406 21.066406 24.164062 20.992188 24.128906 20.917969 C 23.953125 20.5625 23.628906 20.304688 23.242188 20.214844 L 23.117188 20.1875 C 23.097656 20.125 23.070312 20.066406 23.035156 20.007812 L 24.492188 20.007812 C 24.699219 20.007812 24.898438 19.980469 25.085938 19.921875 Z M 10.019531 21.898438 L 9.554688 22.90625 C 9.480469 23.066406 9.316406 23.171875 9.140625 23.171875 L 8.910156 23.171875 L 9.371094 20.574219 C 9.648438 20.636719 9.882812 20.820312 10.007812 21.078125 C 10.136719 21.339844 10.140625 21.636719 10.019531 21.898438 Z M 10.351562 22.054688 C 10.40625 21.933594 10.441406 21.8125 10.457031 21.683594 C 10.933594 22.207031 11.0625 22.722656 10.945312 22.925781 C 10.835938 23.128906 10.394531 23.257812 9.816406 23.179688 C 9.84375 23.140625 9.867188 23.101562 9.886719 23.058594 Z M 8.988281 20.46875 L 8.535156 23.191406 C 8.523438 23.257812 8.464844 23.308594 8.394531 23.308594 L 7.863281 23.308594 C 7.792969 23.308594 7.734375 23.257812 7.722656 23.191406 L 7.269531 20.46875 C 7.25 20.355469 7.285156 20.238281 7.359375 20.148438 C 7.433594 20.058594 7.542969 20.007812 7.660156 20.007812 L 8.597656 20.007812 C 8.714844 20.007812 8.824219 20.058594 8.898438 20.148438 C 8.972656 20.238281 9.003906 20.355469 8.988281 20.46875 Z M 7.347656 23.171875 L 7.117188 23.171875 C 6.941406 23.171875 6.777344 23.066406 6.703125 22.90625 L 6.238281 21.898438 C 6.117188 21.636719 6.121094 21.339844 6.25 21.078125 C 6.375 20.820312 6.609375 20.636719 6.886719 20.574219 Z M 6.4375 23.179688 C 5.863281 23.257812 5.421875 23.128906 5.308594 22.925781 C 5.195312 22.722656 5.324219 22.207031 5.796875 21.683594 C 5.816406 21.8125 5.851562 21.933594 5.90625 22.054688 L 6.367188 23.058594 C 6.386719 23.101562 6.414062 23.140625 6.4375 23.179688 Z M 16.910156 21.898438 L 16.449219 22.90625 C 16.375 23.066406 16.210938 23.171875 16.03125 23.171875 L 15.800781 23.171875 L 16.261719 20.574219 C 16.542969 20.636719 16.773438 20.820312 16.902344 21.078125 C 17.027344 21.339844 17.03125 21.636719 16.910156 21.898438 Z M 17.246094 22.054688 C 17.296875 21.933594 17.335938 21.8125 17.351562 21.683594 C 17.828125 22.207031 17.953125 22.722656 17.839844 22.925781 C 17.726562 23.128906 17.285156 23.257812 16.710938 23.179688 C 16.738281 23.140625 16.761719 23.101562 16.78125 23.058594 Z M 15.878906 20.46875 L 15.429688 23.191406 C 15.417969 23.257812 15.359375 23.308594 15.289062 23.308594 L 14.753906 23.308594 C 14.6875 23.308594 14.628906 23.257812 14.617188 23.191406 L 14.164062 20.46875 C 14.144531 20.355469 14.175781 20.238281 14.253906 20.148438 C 14.328125 20.058594 14.4375 20.007812 14.550781 20.007812 L 15.492188 20.007812 C 15.605469 20.007812 15.714844 20.058594 15.792969 20.148438 C 15.867188 20.238281 15.898438 20.355469 15.878906 20.46875 Z M 14.242188 23.171875 L 14.011719 23.171875 C 13.832031 23.171875 13.667969 23.066406 13.59375 22.90625 L 13.132812 21.898438 C 13.011719 21.636719 13.015625 21.339844 13.140625 21.078125 C 13.269531 20.820312 13.5 20.636719 13.78125 20.574219 Z M 13.332031 23.179688 C 12.757812 23.257812 12.316406 23.128906 12.203125 22.925781 C 12.089844 22.722656 12.214844 22.207031 12.691406 21.683594 C 12.710938 21.8125 12.746094 21.933594 12.800781 22.054688 L 13.261719 23.058594 C 13.28125 23.101562 13.304688 23.140625 13.332031 23.179688 Z M 23.808594 21.898438 L 23.347656 22.90625 C 23.269531 23.066406 23.109375 23.171875 22.929688 23.171875 L 22.699219 23.171875 L 23.160156 20.574219 C 23.4375 20.636719 23.671875 20.820312 23.796875 21.078125 C 23.925781 21.339844 23.929688 21.636719 23.808594 21.898438 Z M 24.140625 22.054688 C 24.195312 21.933594 24.230469 21.8125 24.25 21.683594 C 24.726562 22.207031 24.851562 22.722656 24.738281 22.925781 C 24.625 23.128906 24.183594 23.257812 23.609375 23.179688 C 23.636719 23.140625 23.660156 23.101562 23.679688 23.058594 Z M 22.777344 20.46875 L 22.324219 23.191406 C 22.3125 23.257812 22.253906 23.308594 22.1875 23.308594 L 21.652344 23.308594 C 21.582031 23.308594 21.523438 23.257812 21.511719 23.191406 L 21.0625 20.46875 C 21.042969 20.355469 21.074219 20.238281 21.148438 20.148438 C 21.222656 20.058594 21.332031 20.007812 21.449219 20.007812 L 22.390625 20.007812 C 22.503906 20.007812 22.613281 20.058594 22.6875 20.148438 C 22.765625 20.238281 22.796875 20.355469 22.777344 20.46875 Z M 21.140625 23.171875 L 20.910156 23.171875 C 20.730469 23.171875 20.566406 23.066406 20.492188 22.90625 L 20.027344 21.898438 C 19.910156 21.636719 19.914062 21.339844 20.039062 21.078125 C 20.164062 20.820312 20.398438 20.636719 20.675781 20.574219 Z M 20.230469 23.179688 C 19.65625 23.257812 19.214844 23.128906 19.101562 22.925781 C 18.984375 22.722656 19.113281 22.207031 19.589844 21.683594 C 19.605469 21.8125 19.640625 21.933594 19.695312 22.054688 L 20.160156 23.058594 C 20.179688 23.101562 20.203125 23.140625 20.230469 23.179688 Z M 24.492188 19.640625 L 5.554688 19.640625 C 5.019531 19.640625 4.527344 19.394531 4.203125 18.96875 C 3.964844 18.652344 3.84375 18.277344 3.855469 17.894531 C 4.234375 18.441406 4.867188 18.785156 5.554688 18.785156 L 24.492188 18.785156 C 25.183594 18.785156 25.8125 18.441406 26.191406 17.894531 C 26.203125 18.277344 26.082031 18.652344 25.847656 18.96875 C 25.523438 19.394531 25.027344 19.640625 24.492188 19.640625 Z M 24.492188 19.640625 " fill-opacity="1" fill-rule="nonzero"/></g><path fill="#ffffff" d="M 19.742188 8.890625 C 19.777344 8.941406 19.832031 8.964844 19.886719 8.964844 C 19.925781 8.964844 19.964844 8.953125 19.996094 8.929688 C 20.425781 8.605469 20.875 8.558594 21.105469 8.558594 C 21.640625 8.558594 22.027344 8.789062 22.210938 8.929688 C 22.292969 8.988281 22.40625 8.972656 22.46875 8.890625 C 22.527344 8.8125 22.511719 8.695312 22.429688 8.636719 C 22.210938 8.46875 21.746094 8.191406 21.105469 8.191406 C 20.828125 8.191406 20.289062 8.25 19.777344 8.636719 C 19.695312 8.695312 19.679688 8.8125 19.742188 8.890625 Z M 19.742188 8.890625 " fill-opacity="1" fill-rule="nonzero"/><path fill="#ffffff" d="M 20.199219 6.859375 C 20.550781 6.59375 20.917969 6.554688 21.105469 6.554688 C 21.539062 6.554688 21.859375 6.746094 22.007812 6.859375 C 22.039062 6.882812 22.078125 6.894531 22.117188 6.894531 C 22.171875 6.894531 22.226562 6.867188 22.265625 6.820312 C 22.324219 6.742188 22.308594 6.625 22.226562 6.566406 C 22.042969 6.425781 21.648438 6.1875 21.105469 6.1875 C 20.871094 6.1875 20.414062 6.238281 19.980469 6.566406 C 19.898438 6.625 19.882812 6.742188 19.945312 6.820312 C 20.003906 6.902344 20.121094 6.917969 20.199219 6.859375 Z M 20.199219 6.859375 " fill-opacity="1" fill-rule="nonzero"/><path fill="#ffffff" d="M 20.402344 5.195312 C 20.675781 4.988281 20.957031 4.960938 21.105469 4.960938 C 21.441406 4.960938 21.6875 5.105469 21.804688 5.195312 C 21.839844 5.21875 21.875 5.230469 21.914062 5.230469 C 21.96875 5.230469 22.027344 5.207031 22.0625 5.15625 C 22.121094 5.078125 22.105469 4.960938 22.027344 4.902344 C 21.871094 4.785156 21.550781 4.59375 21.105469 4.59375 C 20.914062 4.59375 20.539062 4.632812 20.183594 4.902344 C 20.101562 4.960938 20.085938 5.078125 20.148438 5.15625 C 20.207031 5.238281 20.324219 5.253906 20.402344 5.195312 Z M 20.402344 5.195312 " fill-opacity="1" fill-rule="nonzero"/><path fill="#ffffff" d="M 19.253906 15.46875 C 18.898438 15.203125 18.523438 15.160156 18.332031 15.160156 C 17.886719 15.160156 17.566406 15.355469 17.414062 15.46875 C 17.332031 15.53125 17.316406 15.644531 17.375 15.726562 C 17.414062 15.773438 17.46875 15.800781 17.523438 15.800781 C 17.5625 15.800781 17.601562 15.789062 17.632812 15.761719 C 17.75 15.675781 17.996094 15.527344 18.332031 15.527344 C 18.480469 15.527344 18.761719 15.558594 19.035156 15.761719 C 19.113281 15.824219 19.230469 15.808594 19.289062 15.726562 C 19.351562 15.644531 19.335938 15.53125 19.253906 15.46875 Z M 19.253906 15.46875 " fill-opacity="1" fill-rule="nonzero"/><path fill="#ffffff" d="M 19.253906 14.042969 C 18.898438 13.777344 18.523438 13.738281 18.332031 13.738281 C 17.886719 13.738281 17.566406 13.929688 17.414062 14.042969 C 17.332031 14.105469 17.316406 14.21875 17.375 14.300781 C 17.414062 14.347656 17.46875 14.375 17.523438 14.375 C 17.5625 14.375 17.601562 14.363281 17.632812 14.335938 C 17.75 14.25 17.996094 14.101562 18.332031 14.101562 C 18.480469 14.101562 18.761719 14.132812 19.035156 14.335938 C 19.113281 14.398438 19.230469 14.382812 19.289062 14.300781 C 19.351562 14.21875 19.335938 14.105469 19.253906 14.042969 Z M 19.253906 14.042969 " fill-opacity="1" fill-rule="nonzero"/><path fill="#ffffff" d="M 14.378906 15.800781 C 14.417969 15.800781 14.457031 15.789062 14.492188 15.761719 C 14.605469 15.675781 14.851562 15.527344 15.191406 15.527344 C 15.335938 15.527344 15.621094 15.558594 15.890625 15.761719 C 15.972656 15.824219 16.085938 15.808594 16.148438 15.726562 C 16.210938 15.644531 16.191406 15.53125 16.113281 15.46875 C 15.757812 15.203125 15.382812 15.160156 15.191406 15.160156 C 14.746094 15.160156 14.421875 15.355469 14.269531 15.46875 C 14.1875 15.53125 14.171875 15.644531 14.234375 15.726562 C 14.269531 15.773438 14.324219 15.800781 14.378906 15.800781 Z M 14.378906 15.800781 " fill-opacity="1" fill-rule="nonzero"/><path fill="#ffffff" d="M 14.378906 14.375 C 14.417969 14.375 14.457031 14.363281 14.492188 14.335938 C 14.605469 14.25 14.851562 14.101562 15.191406 14.101562 C 15.335938 14.101562 15.621094 14.132812 15.890625 14.335938 C 15.972656 14.398438 16.085938 14.382812 16.148438 14.300781 C 16.210938 14.21875 16.191406 14.105469 16.113281 14.042969 C 15.757812 13.777344 15.382812 13.738281 15.191406 13.738281 C 14.746094 13.738281 14.421875 13.929688 14.269531 14.042969 C 14.1875 14.105469 14.171875 14.21875 14.234375 14.300781 C 14.269531 14.347656 14.324219 14.375 14.378906 14.375 Z M 14.378906 14.375 " fill-opacity="1" fill-rule="nonzero"/><path fill="#ffffff" d="M 22.398438 15.46875 C 22.042969 15.203125 21.667969 15.160156 21.476562 15.160156 C 21.03125 15.160156 20.707031 15.355469 20.554688 15.46875 C 20.472656 15.53125 20.457031 15.644531 20.519531 15.726562 C 20.554688 15.773438 20.609375 15.800781 20.664062 15.800781 C 20.703125 15.800781 20.742188 15.789062 20.777344 15.761719 C 20.890625 15.675781 21.136719 15.527344 21.476562 15.527344 C 21.621094 15.527344 21.90625 15.558594 22.175781 15.761719 C 22.257812 15.824219 22.371094 15.808594 22.433594 15.726562 C 22.496094 15.644531 22.476562 15.53125 22.398438 15.46875 Z M 22.398438 15.46875 " fill-opacity="1" fill-rule="nonzero"/><path fill="#ffffff" d="M 20.664062 14.375 C 20.703125 14.375 20.742188 14.363281 20.777344 14.335938 C 20.890625 14.25 21.136719 14.101562 21.476562 14.101562 C 21.621094 14.101562 21.90625 14.132812 22.175781 14.335938 C 22.257812 14.398438 22.371094 14.382812 22.433594 14.300781 C 22.496094 14.21875 22.476562 14.105469 22.398438 14.042969 C 22.042969 13.777344 21.667969 13.738281 21.476562 13.738281 C 21.03125 13.738281 20.707031 13.929688 20.554688 14.042969 C 20.472656 14.105469 20.457031 14.21875 20.519531 14.300781 C 20.554688 14.347656 20.609375 14.375 20.664062 14.375 Z M 20.664062 14.375 " fill-opacity="1" fill-rule="nonzero"/></svg>