<?xml version="1.0" encoding="utf-8"?>
<!-- Generator: Adobe Illustrator 27.0.0, SVG Export Plug-In . SVG Version: 6.00 Build 0)  -->
<svg version="1.1" id="Capa_1" xmlns="http://www.w3.org/2000/svg" xmlns:xlink="http://www.w3.org/1999/xlink" x="0px" y="0px"
	 viewBox="0 0 40 40" style="enable-background:new 0 0 40 40;" xml:space="preserve">
<style type="text/css">
	.st0{fill:#FFFFFF;}
	.st1{clip-path:url(#SVGID_00000155122514744720025550000007185406333560640699_);}
	.st2{clip-path:url(#SVGID_00000180350468556534347840000001402221002134870931_);}
</style>
<path class="st0" d="M14.2,19.4c-1-0.7-2.1-1-2.2-1.1c-0.1,0-0.2,0-0.3,0c-0.1,0.1-0.1,0.2-0.1,0.3v2.5c0,0.2,0.1,0.3,0.2,0.3
	c0.7,0.2,1.4,0.5,2,1c0.3,0.1,0.5,0,0.5-0.3v-2.5C14.3,19.5,14.3,19.4,14.2,19.4z M13.7,21.5c-0.5-0.3-0.9-0.5-1.4-0.7v-1.8
	c0.5,0.2,1,0.4,1.4,0.7V21.5z"/>
<path class="st0" d="M11.8,12.1c0.1,0,0.3,0.1,0.4,0.1c0.4,0,0.4-0.5,0.1-0.6c-0.1,0-0.2-0.1-0.3-0.1c-0.2,0-0.3,0-0.4,0.2
	C11.6,11.9,11.6,12.1,11.8,12.1z"/>
<path class="st0" d="M14,12.9c2,0.9,3.5,2.5,3.5,2.5c0.1,0.1,0.3,0.1,0.4,0c0.1-0.1,0.1-0.1,0.1-0.2c0-0.1,0-0.2-0.1-0.2
	c-0.1-0.1-1.6-1.7-3.7-2.7c-0.2-0.1-0.3,0-0.4,0.2C13.8,12.7,13.8,12.8,14,12.9z"/>
<path class="st0" d="M11.8,14.5c3.2,0.7,5.7,3.3,5.7,3.3c0.1,0.1,0.1,0.1,0.2,0.1c0.1,0,0.2,0,0.2-0.1c0.1-0.2,0.1-0.3,0-0.5
	c-0.1-0.1-2.6-2.7-6-3.5c-0.2,0-0.3,0-0.4,0.2C11.5,14.3,11.6,14.4,11.8,14.5z"/>
<path class="st0" d="M12,16.2c-0.2,0-0.3,0-0.4,0.2c0,0.2,0,0.3,0.2,0.4c3.2,0.7,5.7,3.3,5.7,3.3c0.1,0.1,0.3,0.1,0.4,0
	c0.1-0.1,0.1-0.1,0.1-0.2c0-0.1,0-0.2-0.1-0.2C17.9,19.5,15.4,17,12,16.2z"/>
<path class="st0" d="M15.7,20.2c-0.2-0.1-0.3-0.1-0.4,0.1c-0.1,0.2-0.1,0.3,0.1,0.4c1.1,0.6,2.1,1.7,2.2,1.7c0.1,0.1,0.3,0.2,0.4,0
	c0.1-0.1,0.1-0.1,0.1-0.2c0-0.1,0-0.2-0.1-0.2C18,22,16.9,20.8,15.7,20.2z"/>
<path class="st0" d="M15.7,22.5c-0.2-0.1-0.3-0.1-0.4,0.1c-0.1,0.2-0.1,0.3,0.1,0.4c1.1,0.6,2.1,1.7,2.2,1.7c0.1,0.1,0.3,0.2,0.4,0
	c0.1-0.1,0.1-0.1,0.1-0.2c0-0.1,0-0.2-0.1-0.2C18,24.3,16.9,23.2,15.7,22.5z"/>
<g>
	<defs>
		<rect id="SVGID_1_" x="5.2" y="8" width="30" height="26.4"/>
	</defs>
	<clipPath id="SVGID_00000149379674464241576750000017429292394194018735_">
		<use xlink:href="#SVGID_1_"  style="overflow:visible;"/>
	</clipPath>
	<g style="clip-path:url(#SVGID_00000149379674464241576750000017429292394194018735_);">
		<path class="st0" d="M34.6,14.6c-0.5-0.3-1-0.5-1.6-0.7c-0.2-0.1-0.3,0-0.4,0.2c-0.1,0.2,0,0.3,0.2,0.4c0.4,0.2,0.9,0.3,1.3,0.6
			v16.2c-5.2-2.3-10.1-1.5-13.9,0V15.1c0.2-0.1,0.6-0.3,1.2-0.5c0.1,0,0.2-0.1,0.2-0.2c0-0.1,0-0.2,0-0.2c0-0.1-0.1-0.1-0.2-0.2
			c-0.1,0-0.2,0-0.2,0c-0.5,0.2-0.9,0.3-1.1,0.4c-2.1-3.3-5.5-5.9-11.5-6.4c-0.1,0-0.2,0-0.2,0.1C8.3,8.2,8.3,8.3,8.3,8.4v5.1
			c-0.5,0.1-1.9,0.5-2.9,1.1c-0.1,0.1-0.2,0.2-0.2,0.3v19.6c0,0.1,0,0.2,0.1,0.3c0.1,0.1,0.2,0.1,0.3,0.1c7.9-2.2,13.2-0.3,14.4,0
			c1.2-0.3,6.6-2.2,14.4,0c0.3,0,0.4-0.1,0.4-0.3V14.8C34.8,14.7,34.7,14.6,34.6,14.6z M5.8,15c0.8-0.4,1.6-0.7,2.5-0.9v11.2
			c0,0.2,0.1,0.3,0.3,0.3c5.4,0.5,8.4,2.6,10.6,5.5c-3.9-1.4-8.2-2-13.4,0.2V15z M19.6,34c-4-1.1-8-1.4-13.8,0v-0.7
			c6.2-2.7,12.8-0.4,13.8,0V34z M19.6,32.7c-3.7-1.3-8.9-2-13.8,0V32c5-2.4,10.3-1.5,13.8,0V32.7z M19.6,30.7
			c-0.4-0.6-3.3-5.1-10.7-5.7V8.7c5.4,0.5,8.9,3.2,10.7,6.2V30.7z M34.2,34.1c-4.8-1.4-10.7-1-13.9,0v-0.7c0.9-0.4,7.7-2.7,13.9,0
			V34.1z M34.2,32.7c-4.9-2-10.2-1.3-13.9,0V32c1.1-0.5,7.5-3.1,13.9,0V32.7z"/>
	</g>
</g>
<g>
	<defs>
		<rect id="SVGID_00000009577068359535199350000015200501247958879154_" x="20" y="4.4" width="14.7" height="15.6"/>
	</defs>
	<clipPath id="SVGID_00000016036089724398010050000011262005456453073810_">
		<use xlink:href="#SVGID_00000009577068359535199350000015200501247958879154_"  style="overflow:visible;"/>
	</clipPath>
	<g style="clip-path:url(#SVGID_00000016036089724398010050000011262005456453073810_);">
		<path class="st0" d="M34.3,10c-0.1-1.8-1.8-3.2-3.6-3c-1.4-2.6-5.2-2.6-6.6,0c-3.9-0.4-4.9,5.5-1.2,6.4c0.2,0,0.4,0.1,0.5,0.3
			c0.1,0.2,0.2,0.4,0.2,0.6v4.2c0,0.2,0,0.4,0.1,0.5c0.1,0.2,0.2,0.3,0.3,0.5c0.1,0.1,0.3,0.2,0.4,0.3c0.2,0.1,0.3,0.1,0.5,0.1h4.9
			c0.2,0,0.4,0,0.5-0.1c0.2-0.1,0.3-0.2,0.4-0.3c0.1-0.1,0.2-0.3,0.3-0.5c0.1-0.2,0.1-0.3,0.1-0.5v-4.2c0-0.2,0.1-0.4,0.2-0.6
			s0.3-0.3,0.5-0.3C33.3,13,34.4,11.5,34.3,10z M29.8,19.2h-4.9c-0.6,0-0.8-0.5-0.8-1c0.5,0.1,1.4,0.3,3.2,0.3
			c1.7,0,2.7-0.1,3.1-0.1c0,0.2-0.1,0.4-0.2,0.5C30.2,19.1,30,19.1,29.8,19.2z M31.7,12.8c0,0-0.9,0.2-2.2,0.1c-0.4,0-0.4,0.6,0,0.6
			c0.4,0,0.8,0,1.2,0c-0.1,0.2-0.2,0.5-0.2,0.7v3.5c-0.2,0-0.5,0-1,0.1v-2.2c0-0.2-0.1-0.3-0.3-0.3c-0.2,0-0.3,0.1-0.3,0.3v2.2
			c-0.3,0-0.7,0-1.1,0v-2.2c0-0.2-0.1-0.3-0.3-0.3c-0.2,0-0.3,0.1-0.3,0.3v2.2c-0.4,0-0.8,0-1.1,0v-2.2c0-0.2-0.1-0.3-0.3-0.3
			c-0.2,0-0.3,0.1-0.3,0.3v2.1c-0.4,0-0.8-0.1-1.1-0.2v-3.3c0-0.4-0.1-0.7-0.4-1c-0.2-0.3-0.5-0.5-0.9-0.5c-1.3-0.3-1.8-1.5-1.8-2.5
			c0-0.3,0.1-0.7,0.2-1c0.1-0.3,0.3-0.6,0.6-0.8c0.2-0.2,0.5-0.4,0.9-0.6c0.3-0.1,0.7-0.2,1-0.2c-0.1,0.3-0.1,0.5-0.1,0.8
			c0,0.4,0.6,0.4,0.6,0c0-0.3,0-0.6,0.1-0.9c1.1-2.3,4.6-2.3,5.7,0c0.1,0.3,0.2,0.6,0.1,0.9c0,0.4,0.6,0.4,0.6,0
			c0-0.3,0-0.5-0.1-0.8c1.4-0.1,2.7,1,2.8,2.4C33.7,11.2,32.8,12.5,31.7,12.8z"/>
	</g>
</g>
<path class="st0" d="M29.7,24.9c0.6,0.1,1.2-0.1,1.6-0.5l1-0.9c0.1-0.1,0.1-0.1,0.1-0.2s0-0.2-0.1-0.2S32.3,23,32.2,23
	s-0.2,0-0.2,0.1L31,24c-0.8,0.7-1.5,0-2.4,0.6l-0.4-0.3c0.3-0.3,0.5-0.7,0.5-1.1c0-0.4,0.2-0.7,0.5-1l1.1-1c0.2-0.1,0.2-0.3,0-0.4
	c-0.1-0.2-0.3-0.2-0.4,0l-1.1,1c-0.9,0.8-0.4,1.6-1.1,2.2l-3.9-3c-0.1-0.1-0.2-0.1-0.3,0c-0.1,0-0.2,0.1-0.2,0.2
	c-0.5,2.3,0.4,4,2.4,4.4l-2.3,1.7c-0.8,0.7,0.1,1.9,1,1.3l2.6-1.9c0.3-0.2,0-0.8-0.4-0.5L24,28c-0.1,0.1-0.2,0.1-0.2,0
	c-0.1-0.1-0.1-0.2,0-0.2l2.8-2.1c0.3,0,0.6,0.1,0.9,0.2l3.6,2.7c0.2,0.1,0.4,0.2,0.6,0.1c0.2,0,0.4-0.1,0.5-0.3
	c0.1-0.2,0.2-0.4,0.2-0.6c0-0.2-0.1-0.4-0.3-0.5L29.1,25C29.3,24.9,29.5,24.9,29.7,24.9z M31.6,27.7c0.1,0.1,0.1,0.1,0,0.2
	c-0.1,0.1-0.1,0.1-0.2,0l-3.6-2.7c-0.3-0.2-0.7-0.3-1.1-0.4c-1.8,0-3.3-0.9-3-3.3L31.6,27.7z"/>
<path class="st0" d="M29.2,23.8c0.1,0.2,0.3,0.2,0.4,0l1.6-1.4c0.2-0.1,0.2-0.3,0-0.4c-0.1-0.2-0.3-0.2-0.4,0l-1.6,1.4
	c-0.1,0.1-0.1,0.1-0.1,0.2C29.1,23.6,29.1,23.7,29.2,23.8z"/>
</svg>
