<svg xmlns="http://www.w3.org/2000/svg" xmlns:xlink="http://www.w3.org/1999/xlink" width="40" zoomAndPan="magnify" viewBox="0 0 30 30.000001" height="40" preserveAspectRatio="xMidYMid meet" version="1.0"><defs><clipPath id="1742628050"><path d="M 4.183594 13 L 25.957031 13 L 25.957031 23.765625 L 4.183594 23.765625 Z M 4.183594 13 " clip-rule="nonzero"/></clipPath><clipPath id="9de75d98ce"><path d="M 12 5.617188 L 15 5.617188 L 15 12 L 12 12 Z M 12 5.617188 " clip-rule="nonzero"/></clipPath><clipPath id="c268099a51"><path d="M 15 5.617188 L 18 5.617188 L 18 12 L 15 12 Z M 15 5.617188 " clip-rule="nonzero"/></clipPath><clipPath id="f1608ec166"><path d="M 18 5.617188 L 21 5.617188 L 21 12 L 18 12 Z M 18 5.617188 " clip-rule="nonzero"/></clipPath></defs><g clip-path="url(#1742628050)"><path fill="#ffffff" d="M 25.585938 19.542969 C 25.285156 17.96875 23.933594 16.386719 21.875 15.207031 C 19.851562 14.046875 17.34375 13.382812 14.996094 13.382812 C 12.644531 13.382812 10.140625 14.046875 8.117188 15.207031 C 6.058594 16.386719 4.707031 17.96875 4.40625 19.542969 C 4.183594 20.734375 4.351562 21.679688 4.917969 22.359375 C 5.480469 23.039062 6.398438 23.398438 7.566406 23.398438 L 18.175781 23.398438 C 18.269531 23.398438 18.347656 23.367188 18.410156 23.300781 C 18.476562 23.238281 18.511719 23.15625 18.511719 23.066406 C 18.511719 22.972656 18.476562 22.894531 18.410156 22.828125 C 18.347656 22.765625 18.269531 22.730469 18.175781 22.730469 L 7.566406 22.730469 C 6.347656 22.730469 5.730469 22.296875 5.429688 21.933594 C 5 21.414062 4.878906 20.652344 5.0625 19.667969 C 5.421875 17.769531 7.519531 15.984375 10.210938 14.953125 C 10.019531 15.121094 9.835938 15.292969 9.65625 15.46875 C 9.109375 16.007812 8.648438 16.613281 8.277344 17.289062 C 8.214844 17.40625 8.179688 17.53125 8.167969 17.664062 C 8.15625 17.792969 8.171875 17.921875 8.210938 18.050781 C 8.253906 18.175781 8.316406 18.289062 8.398438 18.390625 C 8.484375 18.492188 8.585938 18.574219 8.703125 18.636719 C 8.820312 18.695312 8.945312 18.734375 9.078125 18.746094 C 9.210938 18.757812 9.339844 18.742188 9.464844 18.703125 C 9.59375 18.664062 9.707031 18.601562 9.808594 18.515625 C 9.910156 18.433594 9.992188 18.332031 10.054688 18.214844 C 10.328125 17.730469 10.660156 17.292969 11.054688 16.898438 C 11.125 16.828125 11.199219 16.761719 11.273438 16.691406 C 11.34375 16.628906 11.378906 16.550781 11.382812 16.457031 C 11.386719 16.367188 11.359375 16.285156 11.296875 16.21875 C 11.234375 16.148438 11.15625 16.113281 11.0625 16.109375 C 10.972656 16.105469 10.890625 16.136719 10.824219 16.199219 C 10.742188 16.273438 10.664062 16.347656 10.589844 16.421875 C 10.140625 16.863281 9.765625 17.355469 9.460938 17.902344 C 9.398438 18.023438 9.300781 18.082031 9.164062 18.082031 C 9.109375 18.082031 9.058594 18.070312 9.011719 18.042969 C 8.929688 18.003906 8.875 17.9375 8.847656 17.847656 C 8.820312 17.761719 8.828125 17.675781 8.871094 17.59375 C 9.207031 16.984375 9.625 16.433594 10.121094 15.945312 C 10.710938 15.371094 11.347656 14.855469 12.035156 14.398438 C 12.660156 14.253906 13.296875 14.152344 13.9375 14.097656 C 13.222656 14.453125 12.539062 14.863281 11.890625 15.332031 C 11.816406 15.382812 11.769531 15.457031 11.757812 15.546875 C 11.742188 15.640625 11.761719 15.722656 11.816406 15.796875 C 11.871094 15.871094 11.941406 15.914062 12.035156 15.929688 C 12.125 15.945312 12.207031 15.925781 12.28125 15.871094 C 13.332031 15.117188 14.464844 14.515625 15.679688 14.070312 C 15.898438 14.082031 16.113281 14.101562 16.332031 14.125 C 15.808594 14.433594 15.316406 14.789062 14.855469 15.1875 C 14.296875 15.683594 13.800781 16.234375 13.371094 16.847656 C 13.296875 16.957031 13.25 17.074219 13.222656 17.207031 C 13.199219 17.335938 13.199219 17.464844 13.222656 17.59375 C 13.25 17.722656 13.300781 17.84375 13.371094 17.953125 C 13.445312 18.0625 13.539062 18.152344 13.648438 18.226562 C 13.757812 18.300781 13.875 18.351562 14.003906 18.378906 C 14.132812 18.40625 14.261719 18.40625 14.394531 18.382812 C 14.523438 18.355469 14.640625 18.308594 14.753906 18.238281 C 14.863281 18.164062 14.957031 18.074219 15.03125 17.964844 C 15.363281 17.5 15.746094 17.078125 16.175781 16.695312 C 16.710938 16.226562 17.386719 15.789062 18.179688 15.394531 C 18.265625 15.355469 18.320312 15.289062 18.351562 15.203125 C 18.378906 15.113281 18.375 15.027344 18.332031 14.945312 C 18.292969 14.863281 18.226562 14.808594 18.140625 14.777344 C 18.050781 14.75 17.964844 14.753906 17.882812 14.796875 C 17.039062 15.21875 16.316406 15.6875 15.734375 16.195312 C 15.261719 16.613281 14.84375 17.078125 14.476562 17.589844 C 14.410156 17.6875 14.320312 17.738281 14.199219 17.738281 C 14.066406 17.738281 13.96875 17.679688 13.90625 17.5625 C 13.84375 17.445312 13.851562 17.328125 13.925781 17.21875 C 14.320312 16.65625 14.777344 16.144531 15.296875 15.691406 C 15.878906 15.179688 16.59375 14.707031 17.414062 14.285156 C 18.519531 14.492188 19.578125 14.832031 20.597656 15.296875 C 20.449219 15.394531 20.300781 15.496094 20.152344 15.601562 C 19.546875 16.042969 19.003906 16.546875 18.519531 17.117188 C 18.4375 17.21875 18.375 17.335938 18.335938 17.460938 C 18.296875 17.589844 18.285156 17.71875 18.300781 17.851562 C 18.3125 17.984375 18.351562 18.109375 18.414062 18.222656 C 18.476562 18.339844 18.558594 18.441406 18.664062 18.527344 C 18.765625 18.609375 18.878906 18.671875 19.007812 18.710938 C 19.132812 18.746094 19.265625 18.761719 19.394531 18.746094 C 19.527344 18.734375 19.652344 18.695312 19.769531 18.632812 C 19.886719 18.570312 19.988281 18.488281 20.070312 18.382812 C 20.445312 17.949219 20.863281 17.5625 21.328125 17.226562 C 21.730469 16.933594 22.15625 16.683594 22.613281 16.480469 C 23.851562 17.40625 24.710938 18.515625 24.929688 19.667969 C 25.113281 20.652344 24.992188 21.414062 24.5625 21.933594 C 24.257812 22.296875 23.644531 22.730469 22.421875 22.730469 L 19.511719 22.730469 C 19.417969 22.730469 19.339844 22.765625 19.277344 22.828125 C 19.210938 22.894531 19.175781 22.972656 19.175781 23.066406 C 19.175781 23.15625 19.210938 23.238281 19.277344 23.300781 C 19.339844 23.367188 19.417969 23.398438 19.511719 23.398438 L 22.421875 23.398438 C 23.59375 23.398438 24.511719 23.039062 25.074219 22.359375 C 25.636719 21.679688 25.808594 20.734375 25.585938 19.542969 Z M 20.933594 16.683594 C 20.425781 17.054688 19.964844 17.480469 19.554688 17.960938 C 19.488281 18.042969 19.402344 18.082031 19.296875 18.082031 C 19.214844 18.082031 19.144531 18.058594 19.085938 18.007812 C 19.015625 17.949219 18.972656 17.875 18.964844 17.78125 C 18.957031 17.691406 18.980469 17.609375 19.039062 17.539062 C 19.484375 17.015625 19.988281 16.546875 20.542969 16.144531 C 20.789062 15.964844 21.039062 15.800781 21.300781 15.652344 C 21.535156 15.777344 21.757812 15.90625 21.976562 16.046875 C 21.613281 16.230469 21.265625 16.445312 20.933594 16.683594 Z M 20.933594 16.683594 " fill-opacity="1" fill-rule="nonzero"/></g><g clip-path="url(#9de75d98ce)"><path fill="#ffffff" d="M 13.160156 8.910156 C 13.496094 9.230469 13.757812 9.480469 13.757812 10.003906 C 13.757812 10.527344 13.496094 10.78125 13.160156 11.097656 C 13.09375 11.160156 13.058594 11.238281 13.054688 11.332031 C 13.054688 11.425781 13.085938 11.503906 13.148438 11.570312 C 13.210938 11.640625 13.289062 11.671875 13.382812 11.675781 C 13.476562 11.675781 13.554688 11.644531 13.621094 11.582031 C 13.980469 11.238281 14.425781 10.816406 14.425781 10.003906 C 14.425781 9.195312 13.980469 8.769531 13.621094 8.425781 C 13.289062 8.109375 13.023438 7.859375 13.023438 7.332031 C 13.023438 6.808594 13.289062 6.558594 13.621094 6.238281 C 13.6875 6.175781 13.722656 6.097656 13.726562 6.007812 C 13.726562 5.914062 13.695312 5.835938 13.632812 5.769531 C 13.570312 5.699219 13.492188 5.667969 13.398438 5.664062 C 13.308594 5.660156 13.226562 5.691406 13.160156 5.757812 C 12.804688 6.097656 12.355469 6.523438 12.355469 7.332031 C 12.355469 8.144531 12.804688 8.570312 13.160156 8.910156 Z M 13.160156 8.910156 " fill-opacity="1" fill-rule="nonzero"/></g><g clip-path="url(#c268099a51)"><path fill="#ffffff" d="M 16.1875 8.910156 C 16.523438 9.230469 16.785156 9.480469 16.785156 10.003906 C 16.785156 10.527344 16.523438 10.78125 16.1875 11.097656 C 16.121094 11.160156 16.085938 11.238281 16.082031 11.332031 C 16.082031 11.425781 16.113281 11.503906 16.175781 11.570312 C 16.238281 11.640625 16.316406 11.671875 16.410156 11.675781 C 16.503906 11.675781 16.582031 11.644531 16.648438 11.582031 C 17.007812 11.238281 17.453125 10.816406 17.453125 10.003906 C 17.453125 9.195312 17.007812 8.769531 16.648438 8.425781 C 16.316406 8.109375 16.050781 7.859375 16.050781 7.332031 C 16.050781 6.808594 16.316406 6.558594 16.648438 6.238281 C 16.714844 6.175781 16.75 6.097656 16.753906 6.007812 C 16.753906 5.914062 16.722656 5.835938 16.660156 5.765625 C 16.597656 5.699219 16.519531 5.667969 16.425781 5.664062 C 16.335938 5.660156 16.253906 5.691406 16.1875 5.757812 C 15.832031 6.097656 15.382812 6.523438 15.382812 7.332031 C 15.382812 8.144531 15.832031 8.570312 16.1875 8.910156 Z M 16.1875 8.910156 " fill-opacity="1" fill-rule="nonzero"/></g><g clip-path="url(#f1608ec166)"><path fill="#ffffff" d="M 19.214844 8.910156 C 19.550781 9.230469 19.8125 9.480469 19.8125 10.003906 C 19.8125 10.527344 19.550781 10.78125 19.214844 11.097656 C 19.148438 11.160156 19.117188 11.238281 19.113281 11.332031 C 19.113281 11.421875 19.144531 11.5 19.207031 11.566406 C 19.269531 11.632812 19.347656 11.667969 19.4375 11.671875 C 19.53125 11.675781 19.609375 11.644531 19.675781 11.582031 C 20.035156 11.238281 20.480469 10.816406 20.480469 10.003906 C 20.480469 9.195312 20.035156 8.769531 19.675781 8.425781 C 19.34375 8.109375 19.078125 7.859375 19.078125 7.332031 C 19.078125 6.808594 19.34375 6.558594 19.675781 6.238281 C 19.742188 6.175781 19.777344 6.097656 19.78125 6.007812 C 19.78125 5.914062 19.75 5.835938 19.6875 5.765625 C 19.625 5.699219 19.546875 5.667969 19.453125 5.664062 C 19.363281 5.660156 19.28125 5.691406 19.214844 5.757812 C 18.855469 6.097656 18.410156 6.523438 18.410156 7.332031 C 18.410156 8.144531 18.855469 8.570312 19.214844 8.910156 Z M 19.214844 8.910156 " fill-opacity="1" fill-rule="nonzero"/></g></svg>