<svg xmlns="http://www.w3.org/2000/svg" xmlns:xlink="http://www.w3.org/1999/xlink" width="40" zoomAndPan="magnify" viewBox="0 0 30 30.000001" height="40" preserveAspectRatio="xMidYMid meet" version="1.0"><defs><clipPath id="f6e1b3f682"><path d="M 6 11 L 26 11 L 26 26.039062 L 6 26.039062 Z M 6 11 " clip-rule="nonzero"/></clipPath></defs><path fill="#ffffff" d="M 17.054688 10.023438 L 15.183594 9.125 C 15.132812 9.097656 15.066406 9.097656 15.011719 9.125 L 9.703125 11.675781 C 9.632812 11.710938 9.589844 11.777344 9.589844 11.855469 C 9.589844 11.929688 9.632812 12 9.703125 12.035156 L 11.570312 12.933594 C 11.597656 12.945312 11.628906 12.953125 11.65625 12.953125 C 11.6875 12.953125 11.714844 12.945312 11.742188 12.933594 L 17.054688 10.382812 C 17.121094 10.347656 17.164062 10.28125 17.164062 10.203125 C 17.164062 10.125 17.121094 10.058594 17.054688 10.023438 Z M 17.054688 10.023438 " fill-opacity="1" fill-rule="nonzero"/><path fill="#ffffff" d="M 8.792969 12.777344 C 8.734375 12.8125 8.699219 12.875 8.699219 12.945312 L 8.699219 18.835938 C 8.699219 18.914062 8.742188 18.984375 8.8125 19.015625 L 14.328125 21.671875 C 14.355469 21.6875 14.386719 21.691406 14.414062 21.691406 C 14.453125 21.691406 14.488281 21.679688 14.519531 21.660156 C 14.578125 21.625 14.613281 21.5625 14.613281 21.492188 L 14.613281 15.601562 C 14.613281 15.523438 14.570312 15.453125 14.5 15.421875 L 8.984375 12.765625 C 8.921875 12.734375 8.851562 12.738281 8.792969 12.777344 Z M 10.109375 15.574219 C 10.191406 15.40625 10.359375 15.300781 10.542969 15.300781 C 10.617188 15.300781 10.6875 15.316406 10.753906 15.347656 L 12.789062 16.324219 C 12.902344 16.382812 12.992188 16.480469 13.035156 16.601562 C 13.078125 16.722656 13.070312 16.855469 13.011719 16.972656 C 12.902344 17.203125 12.605469 17.3125 12.367188 17.195312 L 10.335938 16.21875 C 10.21875 16.164062 10.132812 16.066406 10.089844 15.945312 C 10.046875 15.820312 10.054688 15.691406 10.109375 15.574219 Z M 10.109375 15.574219 " fill-opacity="1" fill-rule="nonzero"/><path fill="#ffffff" d="M 15.582031 15.601562 L 15.582031 21.492188 C 15.582031 21.5625 15.617188 21.625 15.671875 21.660156 C 15.707031 21.679688 15.742188 21.691406 15.78125 21.691406 C 15.808594 21.691406 15.839844 21.6875 15.867188 21.671875 L 21.382812 19.015625 C 21.453125 18.984375 21.496094 18.914062 21.496094 18.835938 L 21.496094 12.949219 C 21.496094 12.878906 21.460938 12.816406 21.402344 12.78125 C 21.34375 12.742188 21.273438 12.738281 21.210938 12.769531 L 15.691406 15.421875 C 15.625 15.453125 15.582031 15.523438 15.582031 15.601562 Z M 15.582031 15.601562 " fill-opacity="1" fill-rule="nonzero"/><path fill="#ffffff" d="M 20.492188 11.679688 L 18.628906 10.78125 C 18.574219 10.757812 18.507812 10.757812 18.457031 10.78125 L 13.144531 13.332031 C 13.074219 13.367188 13.03125 13.4375 13.03125 13.511719 C 13.03125 13.589844 13.074219 13.65625 13.144531 13.691406 L 15.011719 14.589844 C 15.039062 14.601562 15.066406 14.609375 15.097656 14.609375 C 15.125 14.609375 15.15625 14.601562 15.183594 14.589844 L 20.492188 12.039062 C 20.5625 12.003906 20.605469 11.9375 20.605469 11.859375 C 20.605469 11.785156 20.5625 11.714844 20.492188 11.679688 Z M 20.492188 11.679688 " fill-opacity="1" fill-rule="nonzero"/><path fill="#ffffff" d="M 5.777344 19.828125 C 5.839844 19.828125 5.902344 19.816406 5.960938 19.792969 C 6.214844 19.6875 6.339844 19.398438 6.238281 19.144531 C 4.65625 15.222656 5.8125 10.800781 9.109375 8.144531 C 12.535156 5.386719 17.300781 5.386719 20.703125 7.855469 L 19.765625 8.609375 C 19.609375 8.734375 19.546875 8.941406 19.601562 9.136719 C 19.660156 9.328125 19.824219 9.46875 20.023438 9.488281 L 22.890625 9.796875 C 22.910156 9.800781 22.925781 9.800781 22.945312 9.800781 C 23.195312 9.800781 23.410156 9.613281 23.4375 9.359375 L 23.746094 6.492188 C 23.769531 6.292969 23.667969 6.101562 23.492188 6.003906 C 23.316406 5.90625 23.097656 5.925781 22.941406 6.054688 L 21.503906 7.210938 C 17.734375 4.328125 12.339844 4.269531 8.484375 7.375 C 4.847656 10.304688 3.574219 15.183594 5.316406 19.515625 C 5.394531 19.710938 5.582031 19.828125 5.777344 19.828125 Z M 5.777344 19.828125 " fill-opacity="1" fill-rule="nonzero"/><g clip-path="url(#f6e1b3f682)"><path fill="#ffffff" d="M 24.839844 11.546875 C 24.734375 11.292969 24.445312 11.171875 24.191406 11.277344 C 23.9375 11.382812 23.816406 11.671875 23.921875 11.925781 C 25.535156 15.8125 24.371094 20.375 21.089844 23.019531 C 17.664062 25.777344 12.894531 25.777344 9.492188 23.308594 L 10.429688 22.554688 C 10.585938 22.429688 10.648438 22.222656 10.59375 22.027344 C 10.535156 21.835938 10.371094 21.695312 10.171875 21.675781 L 7.304688 21.367188 C 7.171875 21.351562 7.042969 21.390625 6.941406 21.472656 C 6.839844 21.554688 6.773438 21.675781 6.757812 21.804688 L 6.449219 24.671875 C 6.429688 24.871094 6.527344 25.0625 6.707031 25.160156 C 6.78125 25.199219 6.863281 25.222656 6.941406 25.222656 C 7.054688 25.222656 7.164062 25.183594 7.253906 25.109375 L 8.695312 23.953125 C 10.5625 25.382812 12.828125 26.117188 15.109375 26.117188 C 17.429688 26.117188 19.765625 25.355469 21.710938 23.792969 C 25.335938 20.871094 26.621094 15.835938 24.839844 11.546875 Z M 24.839844 11.546875 " fill-opacity="1" fill-rule="nonzero"/></g></svg>