<svg xmlns="http://www.w3.org/2000/svg" xmlns:xlink="http://www.w3.org/1999/xlink" width="40" zoomAndPan="magnify" viewBox="0 0 30 30.000001" height="40" preserveAspectRatio="xMidYMid meet" version="1.0"><defs><clipPath id="573e3ff398"><path d="M 9 3.265625 L 14 3.265625 L 14 12 L 9 12 Z M 9 3.265625 " clip-rule="nonzero"/></clipPath><clipPath id="6d2355fcf3"><path d="M 15 3.265625 L 20 3.265625 L 20 12 L 15 12 Z M 15 3.265625 " clip-rule="nonzero"/></clipPath><clipPath id="c11da2cf43"><path d="M 9 18 L 14 18 L 14 26.492188 L 9 26.492188 Z M 9 18 " clip-rule="nonzero"/></clipPath><clipPath id="01b7818565"><path d="M 15 18 L 20 18 L 20 26.492188 L 15 26.492188 Z M 15 18 " clip-rule="nonzero"/></clipPath></defs><path fill="#ffffff" d="M 14.851562 12.671875 C 11.792969 12.671875 8.722656 12.132812 5.597656 11.054688 C 5.449219 11 5.382812 10.851562 5.421875 10.714844 C 5.476562 10.566406 5.625 10.5 5.757812 10.554688 C 11.914062 12.671875 17.828125 12.671875 23.867188 10.554688 C 24 10.5 24.160156 10.566406 24.203125 10.714844 C 24.257812 10.851562 24.175781 11 24.039062 11.054688 C 20.96875 12.132812 17.925781 12.671875 14.851562 12.671875 Z M 14.851562 12.671875 " fill-opacity="1" fill-rule="evenodd"/><path fill="#ffffff" d="M 23.960938 18.878906 C 23.917969 18.878906 23.890625 18.878906 23.867188 18.867188 C 17.828125 16.753906 11.914062 16.753906 5.757812 18.867188 C 5.625 18.921875 5.476562 18.839844 5.421875 18.707031 C 5.382812 18.570312 5.449219 18.410156 5.597656 18.367188 C 11.847656 16.199219 17.882812 16.199219 24.039062 18.367188 C 24.175781 18.410156 24.257812 18.570312 24.203125 18.707031 C 24.175781 18.8125 24.066406 18.878906 23.960938 18.878906 Z M 23.960938 18.878906 " fill-opacity="1" fill-rule="evenodd"/><path fill="#ffffff" d="M 23.960938 14.40625 C 23.621094 14.40625 23.3125 14.285156 23.015625 14.164062 C 22.761719 14.058594 22.519531 13.949219 22.289062 13.949219 C 22.074219 13.949219 21.816406 14.058594 21.5625 14.164062 C 21.265625 14.285156 20.96875 14.40625 20.632812 14.40625 C 20.308594 14.40625 20 14.285156 19.703125 14.164062 C 19.445312 14.058594 19.191406 13.949219 18.976562 13.949219 C 18.746094 13.949219 18.503906 14.058594 18.246094 14.164062 C 17.949219 14.285156 17.640625 14.40625 17.316406 14.40625 C 16.980469 14.40625 16.671875 14.285156 16.375 14.164062 C 16.117188 14.058594 15.875 13.949219 15.648438 13.949219 C 15.429688 13.949219 15.175781 14.058594 14.917969 14.164062 C 14.625 14.285156 14.328125 14.40625 13.988281 14.40625 C 13.652344 14.40625 13.355469 14.285156 13.058594 14.164062 C 12.789062 14.058594 12.546875 13.949219 12.332031 13.949219 C 12.105469 13.949219 11.859375 14.058594 11.605469 14.164062 C 11.308594 14.285156 11 14.40625 10.664062 14.40625 C 10.339844 14.40625 10.027344 14.285156 9.734375 14.164062 C 9.476562 14.058594 9.234375 13.949219 9.003906 13.949219 C 8.777344 13.949219 8.535156 14.058594 8.277344 14.164062 C 7.980469 14.285156 7.671875 14.40625 7.347656 14.40625 C 7.011719 14.40625 6.714844 14.285156 6.417969 14.164062 C 6.148438 14.058594 5.90625 13.949219 5.691406 13.949219 C 5.542969 13.949219 5.421875 13.828125 5.421875 13.679688 C 5.421875 13.53125 5.542969 13.410156 5.691406 13.410156 C 6.015625 13.410156 6.324219 13.546875 6.621094 13.667969 C 6.875 13.773438 7.117188 13.867188 7.347656 13.867188 C 7.5625 13.867188 7.820312 13.773438 8.074219 13.667969 C 8.371094 13.546875 8.683594 13.410156 9.003906 13.410156 C 9.34375 13.410156 9.636719 13.546875 9.933594 13.667969 C 10.203125 13.773438 10.445312 13.867188 10.664062 13.867188 C 10.890625 13.867188 11.132812 13.773438 11.390625 13.667969 C 11.699219 13.546875 11.996094 13.410156 12.332031 13.410156 C 12.65625 13.410156 12.964844 13.546875 13.261719 13.667969 C 13.519531 13.773438 13.761719 13.867188 13.988281 13.867188 C 14.21875 13.867188 14.460938 13.773438 14.71875 13.667969 C 15.015625 13.546875 15.324219 13.410156 15.648438 13.410156 C 15.984375 13.410156 16.292969 13.546875 16.578125 13.667969 C 16.847656 13.773438 17.089844 13.867188 17.316406 13.867188 C 17.535156 13.867188 17.777344 13.773438 18.046875 13.667969 C 18.339844 13.546875 18.636719 13.410156 18.976562 13.410156 C 19.296875 13.410156 19.609375 13.546875 19.90625 13.667969 C 20.160156 13.773438 20.417969 13.867188 20.632812 13.867188 C 20.859375 13.867188 21.101562 13.773438 21.359375 13.667969 C 21.65625 13.546875 21.964844 13.410156 22.289062 13.410156 C 22.625 13.410156 22.9375 13.546875 23.230469 13.667969 C 23.488281 13.773438 23.730469 13.867188 23.960938 13.867188 C 24.109375 13.867188 24.230469 13.992188 24.230469 14.136719 C 24.230469 14.285156 24.109375 14.40625 23.960938 14.40625 Z M 23.960938 14.40625 " fill-opacity="1" fill-rule="evenodd"/><path fill="#ffffff" d="M 23.960938 15.996094 C 23.621094 15.996094 23.3125 15.875 23.015625 15.753906 C 22.761719 15.648438 22.519531 15.539062 22.289062 15.539062 C 22.074219 15.539062 21.816406 15.648438 21.5625 15.753906 C 21.265625 15.875 20.96875 15.996094 20.632812 15.996094 C 20.308594 15.996094 20 15.875 19.703125 15.753906 C 19.445312 15.648438 19.191406 15.539062 18.976562 15.539062 C 18.746094 15.539062 18.503906 15.648438 18.246094 15.753906 C 17.949219 15.875 17.640625 15.996094 17.316406 15.996094 C 16.980469 15.996094 16.671875 15.875 16.375 15.753906 C 16.117188 15.648438 15.875 15.539062 15.648438 15.539062 C 15.429688 15.539062 15.175781 15.648438 14.917969 15.753906 C 14.625 15.875 14.328125 15.996094 13.988281 15.996094 C 13.652344 15.996094 13.355469 15.875 13.058594 15.753906 C 12.789062 15.648438 12.546875 15.539062 12.332031 15.539062 C 12.105469 15.539062 11.859375 15.648438 11.605469 15.753906 C 11.308594 15.875 11 15.996094 10.664062 15.996094 C 10.339844 15.996094 10.027344 15.875 9.734375 15.753906 C 9.476562 15.648438 9.234375 15.539062 9.003906 15.539062 C 8.777344 15.539062 8.535156 15.648438 8.277344 15.753906 C 7.980469 15.875 7.671875 15.996094 7.347656 15.996094 C 7.011719 15.996094 6.714844 15.875 6.417969 15.753906 C 6.148438 15.648438 5.90625 15.539062 5.691406 15.539062 C 5.542969 15.539062 5.421875 15.417969 5.421875 15.269531 C 5.421875 15.121094 5.542969 15.015625 5.691406 15.015625 C 6.015625 15.015625 6.324219 15.136719 6.621094 15.257812 C 6.875 15.363281 7.117188 15.457031 7.347656 15.457031 C 7.5625 15.457031 7.820312 15.363281 8.074219 15.257812 C 8.371094 15.136719 8.683594 15.015625 9.003906 15.015625 C 9.34375 15.015625 9.636719 15.136719 9.933594 15.257812 C 10.203125 15.363281 10.445312 15.457031 10.664062 15.457031 C 10.890625 15.457031 11.132812 15.363281 11.390625 15.257812 C 11.699219 15.136719 11.996094 15.015625 12.332031 15.015625 C 12.65625 15.015625 12.964844 15.136719 13.261719 15.257812 C 13.519531 15.363281 13.761719 15.457031 13.988281 15.457031 C 14.21875 15.457031 14.460938 15.363281 14.71875 15.257812 C 15.015625 15.136719 15.324219 15.015625 15.648438 15.015625 C 15.984375 15.015625 16.292969 15.136719 16.578125 15.257812 C 16.847656 15.363281 17.089844 15.457031 17.316406 15.457031 C 17.535156 15.457031 17.777344 15.363281 18.046875 15.257812 C 18.339844 15.136719 18.636719 15.015625 18.976562 15.015625 C 19.296875 15.015625 19.609375 15.136719 19.90625 15.257812 C 20.160156 15.363281 20.417969 15.457031 20.632812 15.457031 C 20.859375 15.457031 21.101562 15.363281 21.359375 15.257812 C 21.65625 15.136719 21.964844 15.015625 22.289062 15.015625 C 22.625 15.015625 22.9375 15.136719 23.230469 15.257812 C 23.488281 15.363281 23.730469 15.457031 23.960938 15.457031 C 24.109375 15.457031 24.230469 15.578125 24.230469 15.726562 C 24.230469 15.875 24.109375 15.996094 23.960938 15.996094 Z M 23.960938 15.996094 " fill-opacity="1" fill-rule="evenodd"/><g clip-path="url(#573e3ff398)"><path fill="#ffffff" d="M 12.398438 11.011719 L 11.347656 11.011719 C 11.199219 11.011719 11.078125 10.890625 11.078125 10.742188 L 11.078125 5.703125 L 10.164062 5.703125 C 10.054688 5.703125 9.960938 5.652344 9.921875 5.542969 C 9.882812 5.449219 9.894531 5.339844 9.960938 5.261719 L 11.671875 3.386719 C 11.78125 3.265625 11.96875 3.265625 12.0625 3.386719 L 13.773438 5.261719 C 13.839844 5.339844 13.867188 5.449219 13.816406 5.542969 C 13.773438 5.652344 13.679688 5.703125 13.574219 5.703125 L 12.65625 5.703125 L 12.65625 10.742188 C 12.667969 10.890625 12.546875 11.011719 12.398438 11.011719 Z M 11.617188 10.472656 L 12.128906 10.472656 L 12.128906 5.433594 C 12.128906 5.285156 12.253906 5.164062 12.398438 5.164062 L 12.980469 5.164062 L 11.875 3.953125 L 10.769531 5.164062 L 11.347656 5.164062 C 11.496094 5.164062 11.617188 5.285156 11.617188 5.433594 Z M 11.617188 10.472656 " fill-opacity="1" fill-rule="evenodd"/></g><g clip-path="url(#6d2355fcf3)"><path fill="#ffffff" d="M 18.289062 11.011719 L 17.238281 11.011719 C 17.089844 11.011719 16.96875 10.890625 16.96875 10.742188 L 16.96875 5.703125 L 16.050781 5.703125 C 15.945312 5.703125 15.847656 5.652344 15.808594 5.542969 C 15.769531 5.449219 15.78125 5.339844 15.847656 5.261719 L 17.558594 3.386719 C 17.613281 3.320312 17.679688 3.292969 17.761719 3.292969 C 17.828125 3.292969 17.910156 3.320312 17.964844 3.386719 L 19.660156 5.261719 C 19.730469 5.339844 19.757812 5.449219 19.714844 5.542969 C 19.660156 5.636719 19.566406 5.703125 19.460938 5.703125 L 18.558594 5.703125 L 18.558594 10.742188 C 18.558594 10.890625 18.4375 11.011719 18.289062 11.011719 Z M 17.507812 10.472656 L 18.019531 10.472656 L 18.019531 5.433594 C 18.019531 5.285156 18.140625 5.164062 18.289062 5.164062 L 18.867188 5.164062 L 17.761719 3.964844 L 16.65625 5.164062 L 17.238281 5.164062 C 17.386719 5.164062 17.507812 5.285156 17.507812 5.433594 Z M 17.507812 10.472656 " fill-opacity="1" fill-rule="evenodd"/></g><g clip-path="url(#c11da2cf43)"><path fill="#ffffff" d="M 11.875 26.128906 C 11.792969 26.128906 11.726562 26.089844 11.671875 26.035156 L 9.976562 24.160156 C 9.894531 24.082031 9.882812 23.972656 9.921875 23.867188 C 9.960938 23.769531 10.054688 23.71875 10.164062 23.71875 L 11.078125 23.71875 L 11.078125 18.679688 C 11.078125 18.53125 11.199219 18.410156 11.347656 18.410156 L 12.398438 18.410156 C 12.546875 18.410156 12.667969 18.53125 12.667969 18.679688 L 12.667969 23.703125 L 13.585938 23.703125 C 13.679688 23.703125 13.789062 23.769531 13.828125 23.867188 C 13.867188 23.960938 13.855469 24.082031 13.773438 24.160156 L 12.078125 26.035156 C 12.023438 26.089844 11.941406 26.128906 11.875 26.128906 Z M 10.769531 24.242188 L 11.875 25.457031 L 12.980469 24.242188 L 12.398438 24.242188 C 12.253906 24.242188 12.128906 24.121094 12.128906 23.972656 L 12.128906 18.949219 L 11.617188 18.949219 L 11.617188 23.972656 C 11.617188 24.121094 11.496094 24.242188 11.347656 24.242188 Z M 10.769531 24.242188 " fill-opacity="1" fill-rule="evenodd"/></g><g clip-path="url(#01b7818565)"><path fill="#ffffff" d="M 17.761719 26.128906 C 17.679688 26.128906 17.613281 26.089844 17.558594 26.035156 L 15.847656 24.160156 C 15.78125 24.082031 15.769531 23.972656 15.808594 23.867188 C 15.847656 23.769531 15.945312 23.71875 16.050781 23.71875 L 16.96875 23.71875 L 16.96875 18.679688 C 16.96875 18.53125 17.089844 18.410156 17.238281 18.410156 L 18.289062 18.410156 C 18.4375 18.410156 18.558594 18.53125 18.558594 18.679688 L 18.558594 23.703125 L 19.460938 23.703125 C 19.566406 23.703125 19.675781 23.769531 19.714844 23.867188 C 19.757812 23.960938 19.730469 24.082031 19.660156 24.160156 L 17.964844 26.035156 C 17.910156 26.089844 17.828125 26.128906 17.761719 26.128906 Z M 16.65625 24.242188 L 17.761719 25.457031 L 18.867188 24.242188 L 18.289062 24.242188 C 18.140625 24.242188 18.019531 24.121094 18.019531 23.972656 L 18.019531 18.949219 L 17.507812 18.949219 L 17.507812 23.972656 C 17.507812 24.121094 17.386719 24.242188 17.238281 24.242188 Z M 16.65625 24.242188 " fill-opacity="1" fill-rule="evenodd"/></g></svg>