<svg xmlns="http://www.w3.org/2000/svg" xmlns:xlink="http://www.w3.org/1999/xlink" width="40" zoomAndPan="magnify" viewBox="0 0 30 30.000001" height="40" preserveAspectRatio="xMidYMid meet" version="1.0"><defs><clipPath id="1e9ab32532"><path d="M 0.800781 0.683594 L 21.332031 0.683594 L 21.332031 16.082031 L 0.800781 16.082031 Z M 0.800781 0.683594 " clip-rule="nonzero"/></clipPath><clipPath id="b500a19639"><path d="M 17.488281 1.054688 L 23.730469 1.054688 L 23.730469 7.898438 L 17.488281 7.898438 Z M 17.488281 1.054688 " clip-rule="nonzero"/></clipPath><clipPath id="749e3fab4f"><rect x="0" width="24" y="0" height="17"/></clipPath></defs><g transform="matrix(1, 0, 0, 1, 3, 6)"><g clip-path="url(#749e3fab4f)"><g clip-path="url(#1e9ab32532)"><path fill="#ffffff" d="M 20.917969 13.074219 C 19.703125 10.070312 16.5 7.726562 11.660156 7.628906 C 11.238281 7.613281 10.796875 7.613281 10.371094 7.628906 C 9.632812 7.652344 8.898438 7.726562 8.171875 7.855469 C 7.699219 7.933594 7.230469 8.046875 6.769531 8.183594 C 4.894531 8.730469 3.179688 9.839844 2.066406 11.390625 C 1.683594 11.917969 1.367188 12.476562 1.109375 13.074219 C 1.035156 13.25 0.980469 13.433594 0.949219 13.625 C 0.917969 13.8125 0.910156 14.003906 0.929688 14.199219 C 0.945312 14.390625 0.984375 14.578125 1.046875 14.757812 C 1.113281 14.941406 1.195312 15.113281 1.300781 15.273438 C 1.410156 15.433594 1.53125 15.582031 1.675781 15.710938 C 1.816406 15.839844 1.972656 15.953125 2.140625 16.042969 C 2.3125 16.136719 2.488281 16.203125 2.675781 16.25 C 2.863281 16.300781 3.054688 16.324219 3.246094 16.324219 L 18.78125 16.324219 C 20.4375 16.339844 21.589844 14.585938 20.917969 13.074219 Z M 13.851562 8.0625 C 14.058594 8.097656 14.265625 8.140625 14.46875 8.1875 C 13.863281 9.085938 13.449219 9.96875 13.09375 10.804688 C 12.964844 9.910156 13.144531 8.976562 13.632812 8.023438 C 13.707031 8.035156 13.777344 8.046875 13.851562 8.0625 Z M 10.625 7.828125 C 10.894531 7.824219 11.167969 7.820312 11.4375 7.828125 C 10.730469 8.75 10.207031 9.851562 9.800781 10.804688 C 9.660156 9.847656 9.875 8.851562 10.4375 7.832031 C 10.5 7.832031 10.5625 7.828125 10.625 7.828125 Z M 7.9375 8.109375 C 7.3125 9.007812 6.871094 9.945312 6.503906 10.804688 C 6.390625 10.019531 6.515625 9.203125 6.878906 8.367188 C 7.230469 8.261719 7.574219 8.179688 7.9375 8.109375 Z M 20.898438 14.183594 C 20.875 14.449219 20.804688 14.699219 20.6875 14.9375 C 20.570312 15.175781 20.414062 15.386719 20.21875 15.566406 C 20.023438 15.742188 19.800781 15.882812 19.554688 15.976562 C 19.304688 16.074219 19.050781 16.121094 18.785156 16.117188 L 3.246094 16.117188 C 3.070312 16.117188 2.898438 16.097656 2.726562 16.054688 C 2.554688 16.011719 2.394531 15.949219 2.238281 15.863281 C 2.082031 15.78125 1.941406 15.679688 1.8125 15.558594 C 1.683594 15.441406 1.570312 15.308594 1.472656 15.160156 C 1.375 15.015625 1.300781 14.859375 1.242188 14.691406 C 1.183594 14.527344 1.148438 14.355469 1.132812 14.179688 C 1.117188 14.003906 1.125 13.832031 1.152344 13.65625 C 1.179688 13.484375 1.230469 13.316406 1.296875 13.152344 C 1.546875 12.570312 1.859375 12.023438 2.230469 11.511719 C 3.292969 10.058594 4.761719 9.03125 6.628906 8.4375 C 6.246094 9.378906 6.160156 10.304688 6.367188 11.1875 C 6.378906 11.234375 6.410156 11.261719 6.460938 11.265625 C 6.511719 11.269531 6.546875 11.246094 6.5625 11.199219 C 6.882812 10.386719 7.554688 8.933594 8.234375 8.046875 C 8.882812 7.9375 9.539062 7.871094 10.199219 7.84375 C 9.597656 8.976562 9.414062 10.128906 9.664062 11.1875 C 9.675781 11.238281 9.707031 11.261719 9.757812 11.265625 C 9.808594 11.269531 9.839844 11.25 9.859375 11.199219 C 10.207031 10.308594 10.953125 8.71875 11.695312 7.839844 C 12.273438 7.859375 12.847656 7.910156 13.417969 7.992188 C 12.871094 9.089844 12.714844 10.164062 12.957031 11.1875 C 12.96875 11.238281 13 11.261719 13.050781 11.265625 C 13.101562 11.269531 13.136719 11.25 13.15625 11.199219 C 13.441406 10.457031 14.070312 9.109375 14.683594 8.238281 C 18.230469 9.128906 19.921875 11.28125 20.730469 13.15625 C 20.871094 13.484375 20.929688 13.828125 20.898438 14.183594 Z M 6.394531 4.671875 C 6.289062 4.308594 6.332031 3.910156 6.464844 3.566406 L 6.515625 3.441406 C 6.535156 3.402344 6.554688 3.363281 6.574219 3.320312 C 6.617188 3.242188 6.660156 3.164062 6.710938 3.089844 C 6.625 3.582031 6.527344 4.09375 6.703125 4.574219 C 6.734375 4.648438 6.761719 4.722656 6.800781 4.796875 C 6.875 4.949219 6.960938 5.101562 7.03125 5.265625 C 7.320312 5.867188 7.222656 6.558594 6.90625 7.121094 C 6.988281 6.335938 7.007812 5.886719 6.609375 5.179688 C 6.523438 5.015625 6.449219 4.847656 6.394531 4.671875 Z M 10.335938 2.265625 C 10.230469 1.902344 10.273438 1.503906 10.40625 1.164062 L 10.457031 1.039062 C 10.476562 0.996094 10.496094 0.957031 10.515625 0.917969 C 10.558594 0.835938 10.601562 0.757812 10.652344 0.683594 C 10.566406 1.175781 10.46875 1.6875 10.644531 2.167969 C 10.675781 2.242188 10.703125 2.316406 10.742188 2.390625 C 10.8125 2.542969 10.898438 2.695312 10.972656 2.859375 C 11.261719 3.460938 11.164062 4.152344 10.847656 4.714844 C 10.929688 3.929688 10.949219 3.480469 10.550781 2.773438 C 10.464844 2.609375 10.390625 2.441406 10.335938 2.265625 Z M 14.261719 4.539062 C 14.15625 4.175781 14.199219 3.777344 14.332031 3.433594 L 14.382812 3.308594 C 14.402344 3.269531 14.421875 3.226562 14.441406 3.1875 C 14.484375 3.109375 14.527344 3.03125 14.578125 2.957031 C 14.492188 3.449219 14.394531 3.960938 14.570312 4.441406 C 14.601562 4.515625 14.628906 4.589844 14.667969 4.664062 C 14.742188 4.816406 14.828125 4.96875 14.898438 5.132812 C 15.1875 5.734375 15.089844 6.425781 14.773438 6.988281 C 14.855469 6.203125 14.875 5.753906 14.476562 5.046875 C 14.390625 4.882812 14.320312 4.714844 14.261719 4.539062 Z M 14.261719 4.539062 " fill-opacity="1" fill-rule="nonzero"/></g><g clip-path="url(#b500a19639)"><path fill="#ffffff" d="M 23.566406 4.90625 C 23.601562 5.027344 23.554688 5.105469 23.433594 5.136719 L 22.574219 5.367188 L 23.398438 5.84375 C 23.511719 5.90625 23.535156 5.992188 23.46875 6.105469 C 23.40625 6.21875 23.316406 6.238281 23.207031 6.171875 L 22.386719 5.699219 L 22.613281 6.558594 C 22.648438 6.679688 22.601562 6.757812 22.480469 6.792969 C 22.464844 6.796875 22.449219 6.796875 22.429688 6.800781 C 22.332031 6.796875 22.273438 6.75 22.246094 6.65625 L 21.917969 5.429688 L 20.742188 4.75 L 20.742188 6.109375 L 21.640625 7.007812 C 21.730469 7.097656 21.730469 7.1875 21.640625 7.277344 C 21.550781 7.367188 21.460938 7.367188 21.371094 7.277344 L 20.742188 6.648438 L 20.742188 7.597656 C 20.742188 7.722656 20.679688 7.785156 20.550781 7.785156 C 20.425781 7.785156 20.359375 7.722656 20.359375 7.597656 L 20.359375 6.648438 L 19.730469 7.277344 C 19.640625 7.371094 19.550781 7.371094 19.460938 7.277344 C 19.371094 7.1875 19.371094 7.097656 19.460938 7.007812 L 20.359375 6.109375 L 20.359375 4.75 L 19.183594 5.429688 L 18.855469 6.65625 C 18.832031 6.75 18.769531 6.796875 18.671875 6.796875 C 18.65625 6.796875 18.636719 6.796875 18.621094 6.792969 C 18.5 6.757812 18.453125 6.679688 18.488281 6.558594 L 18.71875 5.699219 L 17.898438 6.171875 C 17.785156 6.238281 17.699219 6.21875 17.632812 6.105469 C 17.570312 5.992188 17.59375 5.90625 17.707031 5.84375 L 18.527344 5.371094 L 17.667969 5.140625 C 17.542969 5.105469 17.5 5.027344 17.53125 4.90625 C 17.566406 4.78125 17.644531 4.738281 17.765625 4.769531 L 18.996094 5.097656 L 20.171875 4.421875 L 18.996094 3.742188 L 17.765625 4.070312 C 17.75 4.074219 17.734375 4.078125 17.71875 4.078125 C 17.605469 4.078125 17.542969 4.023438 17.527344 3.910156 C 17.511719 3.800781 17.558594 3.730469 17.667969 3.703125 L 18.527344 3.472656 L 17.707031 2.996094 C 17.597656 2.933594 17.578125 2.847656 17.640625 2.738281 C 17.703125 2.632812 17.789062 2.605469 17.898438 2.667969 L 18.71875 3.140625 L 18.488281 2.28125 C 18.449219 2.15625 18.492188 2.074219 18.621094 2.042969 C 18.746094 2.007812 18.824219 2.054688 18.855469 2.183594 L 19.183594 3.410156 L 20.359375 4.089844 L 20.359375 2.730469 L 19.460938 1.832031 C 19.371094 1.742188 19.371094 1.652344 19.460938 1.5625 C 19.550781 1.472656 19.640625 1.472656 19.730469 1.5625 L 20.359375 2.191406 L 20.359375 1.246094 C 20.359375 1.117188 20.425781 1.054688 20.550781 1.054688 C 20.679688 1.054688 20.742188 1.117188 20.742188 1.246094 L 20.742188 2.191406 L 21.371094 1.5625 C 21.460938 1.472656 21.550781 1.472656 21.640625 1.5625 C 21.730469 1.652344 21.730469 1.742188 21.640625 1.832031 L 20.742188 2.730469 L 20.742188 4.089844 L 21.917969 3.410156 L 22.246094 2.183594 C 22.277344 2.054688 22.355469 2.007812 22.484375 2.042969 C 22.609375 2.074219 22.65625 2.15625 22.613281 2.28125 L 22.386719 3.140625 L 23.207031 2.667969 C 23.316406 2.605469 23.402344 2.628906 23.464844 2.738281 C 23.527344 2.847656 23.503906 2.933594 23.398438 2.996094 L 22.574219 3.472656 L 23.433594 3.703125 C 23.542969 3.730469 23.589844 3.800781 23.574219 3.910156 C 23.5625 4.023438 23.496094 4.078125 23.386719 4.078125 C 23.371094 4.078125 23.351562 4.074219 23.335938 4.070312 L 22.105469 3.742188 L 20.933594 4.421875 L 22.105469 5.097656 L 23.335938 4.769531 C 23.457031 4.738281 23.535156 4.785156 23.566406 4.90625 Z M 23.566406 4.90625 " fill-opacity="1" fill-rule="nonzero"/></g></g></g></svg>