<svg xmlns="http://www.w3.org/2000/svg" xmlns:xlink="http://www.w3.org/1999/xlink" width="40" zoomAndPan="magnify" viewBox="0 0 30 30.000001" height="40" preserveAspectRatio="xMidYMid meet" version="1.0"><defs><clipPath id="cd622e79b3"><path d="M 3.71875 5.449219 L 26.21875 5.449219 L 26.21875 23.59375 L 3.71875 23.59375 Z M 3.71875 5.449219 " clip-rule="nonzero"/></clipPath></defs><g clip-path="url(#cd622e79b3)"><path fill="#ffffff" d="M 18.457031 5.449219 C 15.070312 5.449219 12.183594 7.621094 11.109375 10.644531 L 9.089844 8.621094 C 9.011719 8.542969 8.902344 8.523438 8.804688 8.558594 C 5.773438 9.675781 3.742188 12.597656 3.742188 15.824219 C 3.742188 20.097656 7.21875 23.570312 11.488281 23.570312 C 13.746094 23.570312 15.851562 22.582031 17.296875 20.945312 C 17.675781 21.003906 18.0625 21.035156 18.453125 21.035156 C 22.75 21.035156 26.246094 17.539062 26.246094 13.242188 C 26.25 8.945312 22.757812 5.449219 18.457031 5.449219 Z M 18.070312 18.363281 C 17.335938 18.609375 16.570312 18.734375 15.789062 18.734375 C 11.8125 18.734375 8.578125 15.5 8.578125 11.527344 C 8.578125 10.746094 8.707031 9.976562 8.949219 9.242188 Z M 11.488281 23.03125 C 7.515625 23.03125 4.28125 19.796875 4.28125 15.824219 C 4.28125 13.054688 5.890625 10.527344 8.351562 9.332031 C 8.136719 10.042969 8.035156 10.777344 8.035156 11.527344 C 8.035156 15.800781 11.511719 19.273438 15.78125 19.273438 C 16.53125 19.273438 17.265625 19.167969 17.976562 18.960938 C 16.789062 21.421875 14.261719 23.03125 11.488281 23.03125 Z M 18.457031 20.496094 C 18.203125 20.496094 17.949219 20.480469 17.703125 20.453125 C 18.136719 19.871094 18.5 19.21875 18.761719 18.511719 C 18.796875 18.414062 18.773438 18.300781 18.695312 18.230469 L 11.539062 11.070312 C 12.46875 8.128906 15.214844 5.992188 18.457031 5.992188 C 22.457031 5.992188 25.710938 9.242188 25.710938 13.242188 C 25.710938 17.242188 22.457031 20.496094 18.457031 20.496094 Z M 18.457031 20.496094 " fill-opacity="1" fill-rule="nonzero"/></g><path fill="#ffffff" d="M 14.3125 9.082031 C 14.242188 9.082031 14.171875 9.054688 14.117188 8.996094 C 14.011719 8.886719 14.019531 8.714844 14.128906 8.613281 C 15.304688 7.511719 16.847656 6.90625 18.457031 6.90625 C 18.605469 6.90625 18.730469 7.027344 18.730469 7.175781 C 18.730469 7.324219 18.605469 7.445312 18.457031 7.445312 C 16.984375 7.445312 15.578125 8 14.503906 9.003906 C 14.449219 9.054688 14.382812 9.082031 14.3125 9.082031 Z M 15.371094 20.652344 C 15.488281 20.558594 15.503906 20.386719 15.410156 20.269531 C 15.3125 20.152344 15.144531 20.140625 15.027344 20.234375 C 14.019531 21.0625 12.746094 21.519531 11.441406 21.519531 C 11.292969 21.519531 11.167969 21.640625 11.167969 21.789062 C 11.167969 21.9375 11.292969 22.058594 11.441406 22.058594 C 12.871094 22.058594 14.269531 21.558594 15.371094 20.652344 Z M 23.605469 14.863281 C 23.328125 14.863281 23.097656 15.09375 23.097656 15.375 C 23.097656 15.652344 23.328125 15.882812 23.605469 15.882812 C 23.886719 15.882812 24.117188 15.652344 24.117188 15.375 C 24.117188 15.09375 23.886719 14.863281 23.605469 14.863281 Z M 22.074219 16.980469 C 21.796875 16.980469 21.566406 17.210938 21.566406 17.492188 C 21.566406 17.769531 21.796875 18 22.074219 18 C 22.355469 18 22.585938 17.769531 22.585938 17.492188 C 22.585938 17.210938 22.355469 16.980469 22.074219 16.980469 Z M 21.4375 14.847656 C 21.15625 14.847656 20.925781 15.078125 20.925781 15.355469 C 20.925781 15.636719 21.15625 15.863281 21.4375 15.863281 C 21.714844 15.863281 21.945312 15.636719 21.945312 15.355469 C 21.945312 15.078125 21.71875 14.847656 21.4375 14.847656 Z M 6.480469 15.433594 C 6.199219 15.433594 5.972656 15.660156 5.972656 15.941406 C 5.972656 16.21875 6.199219 16.449219 6.480469 16.449219 C 6.757812 16.449219 6.988281 16.21875 6.988281 15.941406 C 6.988281 15.660156 6.765625 15.433594 6.480469 15.433594 Z M 14.691406 16.609375 C 14.414062 16.609375 14.183594 16.835938 14.183594 17.117188 C 14.183594 17.394531 14.414062 17.625 14.691406 17.625 C 14.972656 17.625 15.203125 17.394531 15.203125 17.117188 C 15.203125 16.832031 14.972656 16.609375 14.691406 16.609375 Z M 6.1875 17.195312 C 5.910156 17.195312 5.679688 17.421875 5.679688 17.703125 C 5.679688 17.980469 5.910156 18.210938 6.1875 18.210938 C 6.46875 18.210938 6.695312 17.980469 6.695312 17.703125 C 6.695312 17.421875 6.472656 17.195312 6.1875 17.195312 Z M 6.1875 17.195312 " fill-opacity="1" fill-rule="nonzero"/></svg>