<?xml version="1.0" encoding="utf-8"?>
<!-- Generator: Adobe Illustrator 27.0.0, SVG Export Plug-In . SVG Version: 6.00 Build 0)  -->
<svg version="1.1" id="Capa_1" xmlns="http://www.w3.org/2000/svg" xmlns:xlink="http://www.w3.org/1999/xlink" x="0px" y="0px"
	 viewBox="0 0 40 40" style="enable-background:new 0 0 40 40;" xml:space="preserve">
<style type="text/css">
	.st0{clip-path:url(#SVGID_00000059989637154149909040000013213838966018475912_);}
	.st1{fill:#FFFFFF;}
	.st2{clip-path:url(#SVGID_00000062897738395170631860000004283475670950549927_);}
	.st3{clip-path:url(#SVGID_00000143613046230930068340000010075514151750303106_);}
	.st4{clip-path:url(#SVGID_00000039833247239873799400000012105559631740853646_);}
	.st5{clip-path:url(#SVGID_00000101063933846990832680000014589860196599060359_);}
	.st6{clip-path:url(#SVGID_00000111193689915616773500000015843327457160856729_);}
	.st7{clip-path:url(#SVGID_00000060022489688566821450000004992321817792844728_);}
	.st8{clip-path:url(#SVGID_00000126300420130989616200000000200838949076913848_);}
	.st9{clip-path:url(#SVGID_00000035504912383778694470000002554384588674862229_);}
	.st10{clip-path:url(#SVGID_00000019654641079954897870000010001391016651463054_);}
	.st11{clip-path:url(#SVGID_00000091699782123013956420000016475076828315714971_);}
</style>
<g>
	<defs>
		<rect id="SVGID_1_" x="4.8" y="6.7" width="5.8" height="8"/>
	</defs>
	<clipPath id="SVGID_00000160890089095151873760000010341291627769706376_">
		<use xlink:href="#SVGID_1_"  style="overflow:visible;"/>
	</clipPath>
	<g style="clip-path:url(#SVGID_00000160890089095151873760000010341291627769706376_);">
		<path class="st1" d="M9.3,14.4c-1.2-0.2-2.1-0.3-2.9-1.2c-0.5-0.6-0.8-1.4-0.9-2.2C5.3,9.2,7.1,8.2,8.6,7.8c0,0,0-0.1,0-0.1
			c-2.1,0.2-3.8,1.9-3.3,4.1c0.4,1.8,2.2,3.1,4.1,2.8C9.4,14.6,9.4,14.5,9.3,14.4z"/>
	</g>
</g>
<g>
	<defs>
		<rect id="SVGID_00000140729254435309518000000007129490146577128857_" x="4.8" y="4" width="31" height="31.8"/>
	</defs>
	<clipPath id="SVGID_00000079482178191629499090000006284153418753984437_">
		<use xlink:href="#SVGID_00000140729254435309518000000007129490146577128857_"  style="overflow:visible;"/>
	</clipPath>
	<g style="clip-path:url(#SVGID_00000079482178191629499090000006284153418753984437_);">
		<path class="st1" d="M24.9,33.8c0.4-1.7-0.8-3.1-2.4-3.4c-0.1-0.8-0.2-1.6-0.2-2.4c0-0.8-0.4-1.7-0.3-2.6c0.7-0.2,1.3-0.6,1.9-1
			c0.9-0.8,2.2-2,2.2-3.3c0.6,0,1.3,0.1,1.9,0.2c0.4,0,0.8,0.1,1.3,0.1c0.1,0,0.6-0.1,0.7,0l0,0c0,0,0,0,0.1,0
			c0.2,0.5,0.7,1,1.2,1.3c-0.1,0-0.1-0.1-0.2-0.1c0,0,0,0,0,0c0.4,0.3,0.9,0.6,1.5,0.7c0.9,0.1,2.1-0.6,2.4-1.4
			c0.7-1.6-0.2-3.5-1.9-3.8c-1-0.5-2.3,0.3-2.9,1.3c0,0,0,0,0,0c-1.3-0.2-2.6-0.3-3.8-0.4c-0.1-0.8-0.6-1.5-1-2.2
			c-0.5-0.7-1.4-1.8-2.4-2.1c0.1-0.6,0.2-1.2,0.2-1.7c0-1.3,0.6-2.6,0.6-3.9c0,0,0-0.1,0-0.1c1,0,1.7-0.5,2.1-1.6
			c0.5-1.4-0.4-2.6-1.6-3c-0.3-0.5-1.6-0.2-2-0.1c-0.9,0.3-1.4,1.1-1.5,2.1C20.4,8,21.9,9.3,23.4,9c0,0,0,0,0,0c-0.3,1-0.3,2-0.5,3
			c-0.2,1-0.1,2.2-0.5,3.1c-0.2,0.1-0.4,0.2-0.7,0.1c-0.3,0-0.7-0.1-0.9-0.3c-0.1-0.1-0.1-0.2-0.1-0.2c0.4-1.1,0.3-2.2,0.7-3.3
			c0.1-0.4,0.1-0.9,0.2-1.3c0.1-0.5,0.3-0.9,0.2-1.4c0-0.1-0.1-0.1-0.1,0c-0.3,0.9-0.3,1.9-0.7,2.8c-0.3,0.8-0.3,1.7-0.5,2.6
			c0,0,0,0-0.1,0c0,0,0,0-0.1,0c0,0,0,0,0,0c-1.2-0.1-2.8,0.6-3.6,1.4c-0.6-0.5-1.4-1-2.1-1.5c-0.7-0.5-1.5-1.4-2.4-1.7
			c0.2-0.4,0.3-0.9,0.2-1.5c0-1.9-1.8-3.2-3.6-3.2c0,0,0,0,0,0c1.7,0.3,3.2,1.2,3.3,3.1c0,0.5-0.1,1-0.3,1.5c-0.2,0.6-0.6,1-1.1,1.2
			c0,0-0.1-0.1-0.1-0.1c-0.1-0.1-0.2,0.1,0,0.1c0,0,0,0,0,0c0,0,0,0,0,0c0,0,0,0,0,0.1c-0.4,0.2-0.9,0.4-1.3,0.6
			c-0.1,0-0.1,0.2,0,0.2c0.6-0.1,1.1-0.2,1.5-0.5c0.2,0.2,0.5,0.3,0.6,0.4c0.5,0.4,1,0.8,1.5,1.2c0.7,0.6,1.4,1.1,2.1,1.7
			c-0.5,1.2-0.8,2.4-0.5,3.7c-0.9,0.4-2,0.7-2.9,1.1c-0.4,0.2-0.8,0.4-1.3,0.6c-0.5,0.3-1.3,0.4-1.8,0.8c-0.1-0.2-0.1-0.2-0.3-0.4
			c-0.4-0.2-1-0.2-1.4-0.1c-1.1,0.2-1.9,1.3-1.7,2.4c0.2,1.1,1,1.7,2.1,1.8c1.3,0.1,2-0.8,2.3-1.9c1.9-0.9,4-1.3,5.9-2.3
			c1,1.5,2.7,2.6,4.4,2.7c0,0,0,0,0.1,0c0,0,0,0,0.1,0c0.1,0.4,0.1,1,0.1,1.4c0,0.4,0.1,0.9,0.2,1.4c0.1,0.6,0,1.2,0,1.7
			c0,0.2,0,0.5,0.1,0.7c-1.2,0.6-1.9,2-1.6,3.3c0.2,0.6,0.6,1.1,1.1,1.5c0.6,0.5,1.3,0.5,2.1,0.4C23.3,36.1,24.5,35.3,24.9,33.8z
			 M23.2,8.8c-0.3,0-0.6,0-0.9-0.2c-0.6-0.2-1-0.8-1.2-1.3c-0.2-0.5-0.2-1.1,0-1.6c0.2-0.7,1.3-1.3,2.2-1.4c0,0,0,0,0,0
			C24.2,4.7,25,5,25.4,6c0.2,0.4,0.1,1,0,1.4C25,8.4,24.2,8.7,23.2,8.8z M32.9,18.3c1.3,0.5,2,1.7,1.6,3.1c-0.3,0.8-1,1.1-1.7,1.4
			c-0.4,0.1-0.8,0.1-1.1,0c0.1,0,0.1-0.1,0-0.1c-1-0.6-1.7-1.4-1.6-2.6C30.2,18.8,31.8,18,32.9,18.3z M27.8,19.3
			c0.5,0,1.1,0.1,1.6,0.2c0.1,0,0.3,0,0.4,0c-0.2,0.5-0.2,1.1,0,1.7c-0.1-0.1-0.3,0-0.5,0c-0.5,0-0.9-0.1-1.4-0.1
			c-0.8,0-1.6-0.2-2.4-0.2c-0.2-0.2-0.3-0.3-0.4-0.5C25,20.2,25,19.9,25,19.7c0-0.2,0.1-0.3,0.3-0.4c0,0,0.1-0.1,0.1-0.1
			c0,0,0,0,0,0C26.2,19.2,27,19.3,27.8,19.3z M15.2,17C15.2,17,15.2,17,15.2,17C15.2,17,15.2,17,15.2,17c-0.6-0.6-1.3-1-1.9-1.4
			c-0.8-0.6-1.5-1.3-2.2-1.8c0.5-0.3,0.9-0.8,1.1-1.3c0.3,0.2,1.1,0.8,1.1,0.9c0.3,0.2,0.6,0.5,0.9,0.7c0.9,0.6,1.8,1.2,2.6,1.9
			c0,0,0,0,0.1,0c0,0.3-0.2,0.7-0.4,1c-0.2,0.2-0.7,0.5-1,0.4c0,0,0,0,0,0C15.4,17.3,15.3,17.2,15.2,17z M5.5,25.4
			c-0.5-1.6,1.7-2.8,3-2c0,0,0,0,0,0c0,0-0.1,0-0.1,0c0,0-0.1,0-0.1,0c0,0-0.1,0-0.1,0l0,0c0,0,0,0.1,0,0.1c-0.2,0.3-0.1,0.7,0,0.9
			c0.1,0.3,0.5,0.8,0.9,0.8c0,0,0.1,0.1,0.1,0c0.1,0,0.1-0.1,0.2-0.1C8.8,27.2,6.1,27.3,5.5,25.4z M12.2,23.9
			c-0.9,0.3-1.9,0.6-2.8,1c-0.1,0-0.1,0-0.1,0.1c-0.1,0-0.2,0.1-0.3,0.1c-0.1,0-0.1,0-0.2-0.1c-0.2-0.1-0.3-0.3-0.4-0.5
			c-0.3-0.4-0.2-0.7,0-1c0,0,0,0,0,0c1.3-0.5,2.5-1.2,3.8-1.5c0.5-0.1,1-0.4,1.4-0.6c0.3-0.1,0.6-0.2,0.9-0.3
			c0.1,0.3,0.2,0.7,0.4,1.1c0.1,0.2,0.2,0.4,0.3,0.6C14.2,23.1,13.2,23.6,12.2,23.9z M19.8,25.4c-0.6-0.2-1.2-0.3-1.7-0.6
			c-0.8-0.4-1.5-1.2-2.1-1.8c-0.8-1-1.3-2.3-1.2-3.7c0.1-0.7,0.3-1.3,0.4-1.9c0.1,0,0.1,0.1,0.2,0.1c0,0,0,0,0,0
			c0.2,0.3,0.7,0.1,1-0.1c0.4-0.3,1-1,0.7-1.5c0,0,0-0.1,0-0.1c-0.1-0.1-0.1-0.1-0.2-0.1c1.1-0.8,2.2-1.2,3.5-1.4
			c0,0.1-0.1,0.2-0.1,0.4c0,0,0,0,0,0.1c0,0,0,0.1,0,0.2c0.1,0.1,0.1,0.3,0.2,0.4c0.2,0.2,0.5,0.2,0.8,0.3c0.3,0.1,0.9,0.1,1.1-0.2
			c0.1,0,0.1,0,0.2-0.1c0.1-0.1,0.1-0.3,0.2-0.4c0.9,0.5,1.6,1.3,2.1,2.1c0.3,0.4,0.5,0.9,0.7,1.3c0.1,0.3,0.1,0.5,0.2,0.7
			c-0.1,0-0.3,0-0.4,0c-0.1,0-0.1,0-0.1,0.1c-0.5,0.2-0.6,0.7-0.5,1.2c0,0.2,0.2,0.6,0.4,0.8c0,0.1,0,0.1,0.1,0.1c0.2,0,0.3,0,0.5,0
			c-0.4,1.3-1.5,2.4-2.5,3.2C22.3,25.2,21.1,25.3,19.8,25.4z M20.5,29.5c0-0.6,0-1.4-0.2-2c-0.1-0.4,0-1.3-0.2-1.8
			c0.5,0.1,1.1,0,1.6-0.1c-0.1,0.5,0.1,1.3,0.2,1.7c0.2,1.2,0.1,2.4,0.4,3.6c0,0,0,0,0,0c-0.3,0.7-1.2,0.7-1.7,0.3
			C20.6,30.6,20.5,30,20.5,29.5z M19.6,35c-1.4-1.4-0.6-2.9,0.6-4c0,0,0,0,0,0c0,0.1,0,0.2,0.1,0.2c0,0,0,0,0,0
			c0.1,0.1,0.2,0.1,0.3,0.2c0.3,0.1,0.5,0.3,0.8,0.2c0.4,0,0.9-0.3,1-0.8c0.1,0,0.1-0.1,0.1-0.2c0-0.1,0-0.2-0.1-0.3
			c0.3,0.2,0.7,0.3,1,0.5c1.1,0.7,1.3,1.8,0.9,2.9c-0.1,0.4-0.4,0.8-0.7,1.1c-0.4,0.5-0.9,0.6-1.4,0.7C21.3,35.8,20.5,35.9,19.6,35z
			"/>
	</g>
</g>
<path class="st1" d="M33,18.2c-0.1,0-0.1,0.1,0,0.1c0.2,0.1,0.3,0.2,0.3,0.4c0,0.2,0,0.3,0,0.5c0,0,0.1,0.1,0.1,0
	C33.6,18.9,33.5,18.1,33,18.2z"/>
<path class="st1" d="M34,19.2c0-0.1,0-0.5-0.2-0.5c0,0,0,0-0.1,0c0,0.1,0,0.1,0,0.2c0,0.1,0,0.3,0,0.4c0,0.2-0.2,0.4-0.2,0.6
	c0,0,0.1,0.1,0.1,0.1C33.9,19.8,33.9,19.4,34,19.2z"/>
<path class="st1" d="M34.4,19.3C34.4,19.2,34.3,19.3,34.4,19.3c0,0.3-0.1,0.5-0.3,0.7c-0.2,0.2-0.4,0.3-0.6,0.5c0,0,0,0.1,0,0.1
	C34.2,20.5,34.7,19.8,34.4,19.3z"/>
<g>
	<defs>
		<rect id="SVGID_00000134955749323304509020000006113181064037148321_" x="33.3" y="18.7" width="2.5" height="2.7"/>
	</defs>
	<clipPath id="SVGID_00000147905336936741195760000000948137387041544579_">
		<use xlink:href="#SVGID_00000134955749323304509020000006113181064037148321_"  style="overflow:visible;"/>
	</clipPath>
	<g style="clip-path:url(#SVGID_00000147905336936741195760000000948137387041544579_);">
		<path class="st1" d="M34.7,20C34.7,20,34.6,20,34.7,20c-0.2,0.3-0.3,0.5-0.5,0.7c-0.2,0.2-0.4,0.2-0.6,0.4c-0.1,0,0,0.1,0,0.1
			C34.1,21.3,34.9,20.6,34.7,20z"/>
	</g>
</g>
<path class="st1" d="M34.6,20.9C34.6,20.9,34.6,20.9,34.6,20.9c-0.3,0.2-0.4,0.4-0.6,0.5c-0.2,0.1-0.5,0.2-0.7,0.2
	c-0.1,0-0.1,0.1,0,0.1C33.8,22,34.7,21.6,34.6,20.9z"/>
<path class="st1" d="M34.4,22C34.4,21.9,34.3,21.9,34.4,22c-0.3,0-0.5,0.1-0.8,0.2c-0.2,0-0.5-0.2-0.7-0.1c0,0-0.1,0-0.1,0.1
	c0.1,0.2,0.5,0.3,0.7,0.3C33.9,22.4,34.2,22.3,34.4,22z"/>
<path class="st1" d="M33.6,22.6c-0.2,0-0.5,0-0.8-0.1c-0.1,0-0.2-0.1-0.3-0.2c-0.1-0.1-0.2-0.2-0.3-0.2c0,0-0.1,0-0.1,0.1
	c0,0.3,0.4,0.4,0.7,0.5c0.3,0.1,0.6,0.1,0.9-0.1C33.7,22.7,33.7,22.6,33.6,22.6z"/>
<path class="st1" d="M32.8,22.9c-0.2,0-0.5-0.1-0.7-0.2c-0.2-0.1-0.4-0.3-0.6-0.5c-0.1-0.1-0.1,0-0.1,0.1c0.2,0.6,0.8,0.9,1.4,0.8
	C32.8,23,32.8,22.9,32.8,22.9z"/>
<path class="st1" d="M29.9,21.2c-0.1-0.1-0.2-0.2-0.2-0.3c-0.1-0.1-0.1-0.3-0.1-0.4c0-0.1-0.1,0-0.1,0
	C29.3,20.8,29.5,21.2,29.9,21.2C29.8,21.3,29.9,21.3,29.9,21.2z"/>
<path class="st1" d="M29.4,21.2c0-0.1-0.1-0.3-0.2-0.4c-0.1-0.1-0.1-0.3-0.1-0.4c0-0.1-0.1,0-0.1,0C28.8,20.7,29,21.2,29.4,21.2
	C29.3,21.3,29.4,21.3,29.4,21.2z"/>
<path class="st1" d="M28.7,21.2c0-0.1-0.1-0.2-0.2-0.3c-0.1-0.1-0.1-0.3-0.1-0.4c0-0.1-0.1-0.1-0.1,0c-0.1,0.2-0.1,0.3,0,0.5
	C28.4,21.1,28.5,21.2,28.7,21.2C28.7,21.3,28.7,21.2,28.7,21.2z"/>
<path class="st1" d="M28.1,21.2c0-0.1-0.1-0.3-0.1-0.4c-0.1-0.2-0.2-0.3-0.3-0.5c0-0.1-0.1,0-0.1,0c0,0.2,0.1,0.4,0.2,0.6
	C27.8,21.1,27.9,21.3,28.1,21.2C28.1,21.3,28.1,21.3,28.1,21.2z"/>
<path class="st1" d="M27.4,21.2c0-0.1-0.1-0.3-0.2-0.4c-0.1-0.2-0.1-0.4-0.1-0.5c0-0.1-0.1-0.1-0.1,0C26.9,20.5,26.9,21.2,27.4,21.2
	C27.3,21.3,27.3,21.2,27.4,21.2z"/>
<path class="st1" d="M26.6,21.1c0-0.1-0.1-0.2-0.1-0.3c0-0.1,0-0.3,0-0.4c0-0.1-0.1-0.1-0.1,0C26.2,20.6,26.2,21.1,26.6,21.1
	C26.6,21.2,26.6,21.2,26.6,21.1z"/>
<path class="st1" d="M25.9,21.1c0-0.1-0.1-0.3-0.1-0.4c0-0.1-0.1-0.3-0.1-0.4c0-0.1-0.1-0.1-0.1,0c0,0.2,0,0.3,0,0.5
	C25.6,21,25.7,21.1,25.9,21.1C25.8,21.2,25.9,21.1,25.9,21.1z"/>
<path class="st1" d="M22.7,5.1c-0.3-0.4-0.9-0.3-1.2-0.1c-0.1,0,0,0.1,0.1,0.1C21.7,5,21.9,5,22.1,5C22.3,5,22.4,5.1,22.7,5.1
	C22.7,5.2,22.7,5.1,22.7,5.1z"/>
<path class="st1" d="M23.2,4.9c-0.1-0.4-0.7-0.7-1.1-0.5c-0.1,0,0,0.1,0,0.1c0.2,0,0.4,0,0.6,0.1C22.9,4.8,23,4.9,23.2,4.9
	C23.2,5,23.2,5,23.2,4.9z"/>
<path class="st1" d="M24,5.2c0-0.6-0.7-1-1.2-1c0,0-0.1,0.1,0,0.1c0.2,0.1,0.5,0.1,0.7,0.3c0.2,0.2,0.3,0.4,0.4,0.6
	C23.9,5.3,24,5.3,24,5.2z"/>
<path class="st1" d="M24.7,5.1c0-0.3-0.3-0.5-0.5-0.6c-0.1,0-0.1,0.1-0.1,0.1c0.2,0.1,0.3,0.2,0.3,0.4c0,0.2-0.1,0.4-0.2,0.6
	c0,0.1,0.1,0.1,0.1,0.1C24.6,5.6,24.7,5.3,24.7,5.1z"/>
<path class="st1" d="M24.9,5c-0.1,0-0.1,0-0.1,0.1c0.1,0.2,0.2,0.4,0.1,0.6c-0.1,0.2-0.3,0.3-0.4,0.5c0,0.1,0,0.2,0.1,0.2
	C25.2,6.2,25.5,5.4,24.9,5z"/>
<path class="st1" d="M25.5,6.5c0.2-0.3,0.1-0.6,0-0.8c0-0.1-0.2,0-0.2,0.1c0.1,0.2,0,0.4-0.1,0.6c-0.1,0.2-0.4,0.3-0.5,0.5
	c0,0,0,0.1,0,0.1C25.1,7,25.3,6.8,25.5,6.5z"/>
<path class="st1" d="M25.6,6.8c0-0.1-0.1-0.1-0.1,0C25.4,7,25.3,7.2,25,7.4c-0.2,0.1-0.4,0.1-0.6,0.1c-0.1,0-0.1,0.1,0,0.2
	C25,7.9,25.8,7.4,25.6,6.8z"/>
<path class="st1" d="M25.2,7.8C25.3,7.8,25.2,7.7,25.2,7.8C25,7.9,24.7,8,24.5,8.1C24.3,8.1,24,8,23.8,8c-0.1,0-0.1,0.1-0.1,0.1
	c0.2,0.2,0.5,0.2,0.7,0.2C24.8,8.3,25.1,8.1,25.2,7.8z"/>
<path class="st1" d="M24.4,8.6c-0.2,0-0.5,0-0.7-0.1c-0.2,0-0.3-0.1-0.5-0.2c-0.1,0-0.1,0.1-0.1,0.1c0.3,0.3,0.9,0.4,1.3,0.2
	C24.5,8.7,24.5,8.6,24.4,8.6z"/>
<path class="st1" d="M23.4,9.1C23.5,9,23.4,9,23.3,9c-0.2,0.1-0.3,0.3-0.5,0.4c-0.1,0.1-0.3,0.1-0.5,0.2c-0.1,0-0.1,0.1,0,0.1
	C22.8,9.8,23.3,9.5,23.4,9.1z"/>
<path class="st1" d="M23,10.4C23,10.4,23,10.3,23,10.4c0.2-0.2,0.4-0.5,0.2-0.8c0,0-0.1,0-0.1,0c-0.2,0.3-0.2,0.5-0.5,0.7
	c-0.2,0.1-0.4,0.1-0.5,0.2c0,0-0.1,0.1,0,0.1c0.2,0.1,0.4,0,0.6-0.1c-0.1,0.1-0.1,0.2-0.2,0.2c-0.2,0.2-0.4,0.3-0.6,0.4
	c0,0,0,0.1,0,0.1C22.5,11.3,23.1,10.8,23,10.4z"/>
<path class="st1" d="M22.9,11c0-0.1-0.1-0.1-0.1,0c-0.1,0.1-0.1,0.3-0.2,0.4c-0.2,0.2-0.4,0.2-0.6,0.3c0,0,0,0.1,0,0.1
	C22.5,12,23,11.5,22.9,11z"/>
<path class="st1" d="M22.9,11.8c0-0.1-0.1-0.1-0.1,0c-0.1,0.2-0.2,0.3-0.3,0.4c-0.2,0.1-0.3,0.1-0.5,0.2c-0.1,0-0.1,0.1,0,0.2
	C22.3,12.6,22.9,12.3,22.9,11.8z"/>
<path class="st1" d="M22.8,12.6c0-0.1-0.1-0.2-0.2-0.1c-0.1,0.1-0.3,0.3-0.4,0.4c-0.2,0.1-0.3,0.1-0.5,0.2c0,0,0,0.1,0,0.1
	C22.2,13.4,22.7,13,22.8,12.6z"/>
<path class="st1" d="M22.7,13.3c0-0.1-0.1-0.1-0.1,0c-0.1,0.1-0.2,0.3-0.3,0.3c-0.2,0.1-0.3,0.1-0.5,0.1c-0.1,0-0.1,0.1,0,0.2
	C22.1,14.1,22.8,13.7,22.7,13.3z"/>
<path class="st1" d="M22.6,14.2C22.6,14.1,22.6,14.1,22.6,14.2c-0.2,0-0.3,0.2-0.4,0.2c-0.1,0.1-0.3,0.1-0.4,0.2
	c-0.1,0-0.1,0.2,0,0.2C22.1,14.8,22.7,14.5,22.6,14.2z"/>
<path class="st1" d="M22.5,15c0-0.1-0.1-0.1-0.1,0c-0.1,0.2-0.3,0.2-0.4,0.2c0,0,0,0.1,0,0.1c0.1,0.1,0.2,0,0.3,0
	C22.4,15.2,22.5,15.1,22.5,15z"/>
<path class="st1" d="M7.2,8.5c-0.4,0-1,0.2-1.2,0.6c0,0,0,0.1,0.1,0.1C6.2,9.2,6.4,9,6.5,8.9C6.8,8.8,7,8.7,7.2,8.7
	C7.3,8.6,7.3,8.6,7.2,8.5z"/>
<path class="st1" d="M8.3,8.4C8,8,7.4,8.1,7,8.4c0,0,0,0.1,0,0.1c0.2-0.1,0.4-0.2,0.6-0.1c0.2,0,0.3,0.1,0.5,0.2
	C8.3,8.5,8.3,8.4,8.3,8.4z"/>
<path class="st1" d="M9.3,8.5C9.2,8.3,9,8.1,8.7,8C8.5,7.9,8.2,7.9,8,7.9c-0.1,0-0.1,0.1,0,0.1c0.2,0,0.5,0,0.7,0.1
	C8.9,8.3,9,8.5,9.3,8.5C9.2,8.6,9.3,8.6,9.3,8.5z"/>
<path class="st1" d="M10,8.9c0.2-0.6-0.5-1.2-1-1.2c-0.1,0-0.1,0.1-0.1,0.1C9.1,7.9,9.3,8,9.5,8.2C9.7,8.4,9.7,8.7,9.8,9
	C9.8,9,9.9,9,10,8.9z"/>
<path class="st1" d="M10.1,8.1C10,8.1,10,8.1,10.1,8.1c0.2,0.3,0.4,0.5,0.4,0.8c0.1,0.3,0,0.5,0,0.8c0,0.1,0.1,0.1,0.1,0
	C11.1,9.1,10.7,8.2,10.1,8.1z"/>
<path class="st1" d="M11.5,9.4c0-0.3-0.1-0.6-0.4-0.8c0,0-0.1,0-0.1,0.1c0.1,0.3,0.2,0.5,0.1,0.9c-0.1,0.2-0.3,0.5-0.3,0.8
	c0,0,0.1,0.1,0.1,0.1C11.4,10.3,11.5,9.8,11.5,9.4z"/>
<path class="st1" d="M11.9,9.5C11.9,9.5,11.8,9.5,11.9,9.5c-0.1,0.3-0.2,0.6-0.3,0.9c-0.2,0.3-0.4,0.5-0.6,0.7c0,0.1,0,0.1,0.1,0.1
	C11.7,11.1,12.1,10.2,11.9,9.5z"/>
<path class="st1" d="M12.3,10.4c0-0.1-0.1-0.1-0.1,0c-0.1,0.3-0.2,0.6-0.4,0.9c-0.2,0.3-0.5,0.4-0.8,0.6c-0.1,0,0,0.2,0.1,0.2
	C11.8,12,12.4,11.1,12.3,10.4z"/>
<path class="st1" d="M12.3,11.6C12.3,11.5,12.2,11.5,12.3,11.6c-0.3,0.2-0.4,0.5-0.7,0.7c-0.2,0.2-0.5,0.2-0.8,0.4
	c-0.1,0,0,0.2,0,0.2C11.5,12.8,12.2,12.2,12.3,11.6z"/>
<path class="st1" d="M12,12.7c-0.6,0.4-1.2,0.4-1.9,0.3c-0.1,0-0.1,0.1,0,0.1c0.7,0.4,1.5,0.2,2-0.3C12.2,12.8,12.1,12.7,12,12.7z"
	/>
<path class="st1" d="M11.3,13.4c-0.3,0.2-0.7,0.3-1,0.3c-0.3,0-0.6-0.2-0.8-0.2c-0.1,0-0.1,0.1-0.1,0.1c0.2,0.3,0.7,0.4,1,0.4
	C10.7,13.9,11.1,13.7,11.3,13.4C11.4,13.4,11.3,13.3,11.3,13.4z"/>
<path class="st1" d="M10,14c-0.3,0-0.5,0-0.8,0c-0.2-0.1-0.4-0.2-0.7-0.3c-0.1,0-0.2,0-0.1,0.1c0.3,0.5,1.2,0.6,1.7,0.3
	C10.1,14.1,10.1,14,10,14z"/>
<path class="st1" d="M12.4,12.2c-0.1-0.1-0.2,0-0.2,0.1c0.1,0.2,0.2,0.4,0.2,0.6c0,0.3-0.1,0.5,0,0.7c0,0.1,0.1,0.1,0.1,0
	C12.9,13.3,12.7,12.5,12.4,12.2z"/>
<path class="st1" d="M13.4,13.3c0-0.3-0.2-0.5-0.4-0.6c-0.1-0.1-0.2,0-0.1,0.1c0.1,0.2,0.2,0.3,0.3,0.6c0,0.2-0.1,0.4,0,0.6
	c0,0,0,0,0.1,0C13.5,13.9,13.5,13.6,13.4,13.3z"/>
<path class="st1" d="M14,14c0-0.3-0.2-0.5-0.4-0.6c-0.1,0-0.1,0-0.1,0.1c0.1,0.1,0.2,0.3,0.3,0.5c0,0.2-0.1,0.4,0,0.5
	c0,0,0.1,0.1,0.1,0C14.1,14.5,14.1,14.2,14,14z"/>
<path class="st1" d="M14.7,14.5c0-0.2-0.2-0.4-0.4-0.5c-0.1-0.1-0.2,0.1-0.1,0.1c0.1,0.2,0.3,0.4,0.2,0.6c0,0.1-0.1,0.2,0,0.3
	c0,0.1,0.1,0.1,0.2,0C14.8,15,14.8,14.7,14.7,14.5z"/>
<path class="st1" d="M15.4,15c0-0.2-0.1-0.3-0.2-0.5c-0.1-0.1-0.2,0-0.1,0.1c0,0.2,0.1,0.3,0.1,0.5c0,0.1,0,0.3,0,0.4
	c0,0.1,0.1,0.1,0.1,0.1C15.4,15.4,15.4,15.2,15.4,15z"/>
<path class="st1" d="M16,15.6c0-0.2,0-0.4-0.2-0.5c-0.1-0.1-0.2,0-0.2,0.1c0.1,0.1,0.1,0.2,0.1,0.4c0,0.1-0.1,0.2-0.2,0.4
	c0,0.1,0,0.1,0.1,0.1C15.9,16,16,15.8,16,15.6z"/>
<path class="st1" d="M16.6,15.7c-0.1-0.1-0.1,0-0.1,0.1c0,0.1,0,0.2,0,0.3c0,0.1-0.1,0.2-0.1,0.2c0,0.1,0,0.2,0.1,0.1
	C16.7,16.4,16.8,15.9,16.6,15.7z"/>
<path class="st1" d="M24.3,16.7c-0.3-0.4-0.9-0.7-1.5-0.7c-0.1,0-0.1,0.1,0,0.1c0.2,0.1,0.5,0.1,0.7,0.2
	C23.7,16.5,24,16.7,24.3,16.7C24.3,16.8,24.3,16.8,24.3,16.7z"/>
<path class="st1" d="M25.1,17.8c-0.4-0.7-1.4-1-2.1-1.1c-0.1,0-0.1,0.1,0,0.1c0.4,0.1,0.8,0.2,1.1,0.4
	C24.4,17.4,24.6,17.7,25.1,17.8C25.1,17.9,25.1,17.8,25.1,17.8z"/>
<path class="st1" d="M25.3,18.7c-0.3-0.6-1.1-0.9-1.7-1.1c-0.1,0-0.1,0.1,0,0.1c0.3,0.1,0.6,0.2,0.9,0.4c0.3,0.2,0.5,0.4,0.7,0.6
	C25.3,18.9,25.4,18.8,25.3,18.7z"/>
<path class="st1" d="M24.8,19.2c-0.1-0.2-0.3-0.4-0.6-0.4c-0.1,0-0.1,0.1,0,0.1c0.1,0,0.2,0.1,0.3,0.1
	C24.6,19.1,24.6,19.2,24.8,19.2C24.7,19.3,24.8,19.2,24.8,19.2z"/>
<path class="st1" d="M24.6,20.4C24.5,20.4,24.5,20.4,24.6,20.4c0,0.4,0,0.7,0,1c0,0.3-0.2,0.6-0.2,0.9c0,0.1,0.1,0.1,0.1,0.1
	C24.9,22,25,21,24.6,20.4z"/>
<path class="st1" d="M24.1,21.1c0-0.1-0.2-0.1-0.2,0c0,0.9-0.2,1.5-0.6,2.3c0,0.1,0.1,0.1,0.1,0.1C24,22.9,24.2,21.9,24.1,21.1z"/>
<path class="st1" d="M23.2,23.9c-0.2,0.1-0.3,0.1-0.5,0.2c0.4-0.6,0.6-1.3,0.6-2c0-0.1-0.1-0.1-0.2,0c0,0.4-0.1,0.9-0.3,1.3
	c-0.1,0.3-0.4,0.6-0.6,0.9c-0.2,0-0.3,0.1-0.5,0.1c0.2-0.2,0.3-0.4,0.4-0.6c0.1,0,0.3-0.1,0.4-0.1c0.1,0,0-0.1,0-0.1
	c-0.1,0-0.2,0.1-0.3,0.1c0.1-0.2,0.2-0.5,0.2-0.7c0-0.1-0.1-0.1-0.1,0c0,0.1-0.1,0.2-0.1,0.3c0,0,0,0-0.1,0c-0.3,0-0.7,0-1,0
	c-0.4,0-0.7-0.2-1.1-0.1c0,0-0.1,0.1,0,0.1c0.2,0.2,0.6,0.2,0.9,0.2c0.2,0,0.3,0,0.5,0c-0.1,0.1-0.2,0.3-0.2,0.4c-0.2,0-0.4,0-0.6,0
	c0,0,0-0.1,0.1-0.1c0-0.1-0.1-0.2-0.1-0.1c0,0.1-0.1,0.1-0.1,0.2c-0.2,0-0.3,0-0.5,0c-0.1,0-0.1,0.1,0,0.2c0.1,0,0.2,0,0.3,0.1
	c-0.1,0.1-0.3,0.3-0.5,0.4c0,0,0,0,0,0c-0.2,0-0.3-0.1-0.5-0.1c0.1-0.1,0.2-0.2,0.3-0.2c0.1-0.1,0-0.2-0.1-0.1
	c-0.2,0.1-0.4,0.2-0.6,0.3c-0.2,0-0.3-0.1-0.5-0.2c-0.1,0-0.1,0.1-0.1,0.1c0.1,0.1,0.2,0.1,0.2,0.1c-0.2,0-0.3,0.1-0.5,0.1
	c-0.1,0-0.1,0.1,0,0.1c0.2,0.1,0.5,0,0.8-0.1c0.1,0.1,0.3,0.1,0.4,0.2c-0.1,0-0.2,0.1-0.3,0.2c0,0,0,0.1,0,0.1c0.2,0,0.5,0,0.7-0.2
	c0.2,0,0.3,0.1,0.5,0.1c0,0-0.1,0.1-0.1,0.1c-0.1,0,0,0.1,0.1,0.1c0.1-0.1,0.3-0.1,0.4-0.2c0.2,0,0.4,0,0.6,0c0,0-0.1,0.1-0.1,0.1
	c-0.1,0.1,0,0.2,0.1,0.1c0.1-0.1,0.3-0.2,0.4-0.3c0.2,0,0.4-0.1,0.6-0.1c0,0,0,0,0,0c0,0.1,0,0.2,0.1,0.1c0.1-0.1,0.2-0.2,0.3-0.2
	c0.3-0.1,0.5-0.2,0.8-0.3C23.3,24,23.2,23.8,23.2,23.9z M20.5,24.3c-0.2,0-0.3,0-0.5-0.1c0.2-0.1,0.3-0.3,0.4-0.4c0.2,0,0.4,0,0.6,0
	C20.9,24,20.7,24.1,20.5,24.3z M21.6,23.2C21.6,23.2,21.6,23.2,21.6,23.2c0.2,0,0.4-0.1,0.6-0.1c-0.1,0.1-0.1,0.3-0.2,0.4
	c-0.2,0-0.4,0-0.5,0.1C21.5,23.5,21.5,23.4,21.6,23.2z M20.9,24.3c0.2-0.2,0.3-0.3,0.4-0.5c0.2,0,0.4,0,0.5-0.1
	c-0.1,0.2-0.3,0.4-0.4,0.6C21.2,24.3,21.1,24.3,20.9,24.3z"/>
<path class="st1" d="M18.2,23.6c-0.2,0-0.4,0.1-0.6,0.1c-0.2,0-0.3,0-0.5,0c-0.1,0-0.1,0.1,0,0.1c0.3,0.2,0.8,0.1,1.1,0
	C18.4,23.8,18.3,23.6,18.2,23.6z"/>
<path class="st1" d="M21.5,22.5c-0.2,0-0.5-0.1-0.7,0c-0.1,0,0,0.1,0,0.1c0.2,0,0.4,0,0.6,0C21.6,22.7,21.6,22.5,21.5,22.5z"/>
<path class="st1" d="M21.9,25.4c0-0.1-0.1-0.1-0.1,0c-0.1,0.2-0.1,0.3-0.2,0.5c-0.1,0.2-0.3,0.3-0.3,0.5c0,0,0,0.1,0.1,0.1
	C21.6,26.4,21.9,25.8,21.9,25.4z"/>
<path class="st1" d="M22,26.1c0-0.1-0.1-0.1-0.1,0c-0.1,0.2-0.2,0.4-0.4,0.6c-0.1,0.1-0.3,0.2-0.3,0.4c0,0.1,0,0.1,0.1,0.1
	C21.7,27,21.9,26.4,22,26.1z"/>
<path class="st1" d="M21.7,27.5c0.1-0.2,0.1-0.4,0.1-0.6c0-0.1-0.1-0.1-0.2,0c0,0.2-0.1,0.4-0.2,0.6c-0.1,0.1-0.2,0.2-0.2,0.4
	c0,0,0,0.1,0.1,0.1C21.5,27.9,21.6,27.7,21.7,27.5z"/>
<path class="st1" d="M21.9,27.7c0-0.1-0.1-0.1-0.1,0c-0.1,0.2-0.1,0.3-0.2,0.5c-0.1,0.1-0.2,0.2-0.3,0.4c0,0.1,0,0.1,0.1,0.1
	C21.7,28.6,21.9,28,21.9,27.7z"/>
<path class="st1" d="M21.7,29.3c0.2-0.2,0.3-0.5,0.3-0.7c0-0.1-0.1-0.1-0.2,0c-0.1,0.2-0.2,0.4-0.3,0.6c-0.1,0.1-0.3,0.2-0.3,0.4
	c0,0,0,0.1,0.1,0.1C21.4,29.6,21.6,29.4,21.7,29.3z"/>
<path class="st1" d="M21.8,29.9c0.2-0.2,0.3-0.4,0.3-0.6c0-0.1-0.1-0.1-0.1-0.1c-0.2,0.2-0.3,0.4-0.4,0.5c-0.1,0.1-0.3,0.3-0.1,0.3
	C21.6,30.1,21.7,30,21.8,29.9z"/>
<path class="st1" d="M22.2,30c0.1-0.1-0.1-0.2-0.2-0.1c-0.1,0.1-0.1,0.2-0.2,0.3c-0.1,0.1-0.2,0.2-0.2,0.3c0,0.1,0,0.1,0.1,0.1
	C21.9,30.5,22.1,30.2,22.2,30z"/>
<path class="st1" d="M21.9,31c0.1-0.1,0.2-0.2,0.2-0.2c0.1-0.1,0-0.2-0.1-0.1c-0.1,0.1-0.2,0.1-0.2,0.2c-0.1,0.1-0.1,0.1-0.2,0.2
	c0,0.1,0.1,0.2,0.1,0.1C21.8,31.1,21.9,31,21.9,31z"/>
<path class="st1" d="M23.5,31.9c0.2-0.4-0.3-1.2-0.8-1.1c0,0,0,0.1,0,0.1c0.2,0.1,0.3,0.2,0.5,0.3c0.1,0.2,0.1,0.4,0.2,0.7
	C23.4,32,23.5,32,23.5,31.9z"/>
<path class="st1" d="M23.6,31.1C23.6,31.1,23.5,31.1,23.6,31.1c0.1,0.2,0.2,0.4,0.2,0.7c0,0.2-0.1,0.5-0.1,0.7
	c0,0.1,0.1,0.1,0.1,0.1C24.2,32.1,24.1,31.4,23.6,31.1z"/>
<path class="st1" d="M24.4,32c0-0.1-0.1-0.1-0.1,0c-0.1,0.3-0.2,0.5-0.3,0.7c-0.1,0.2-0.3,0.3-0.5,0.5c-0.1,0.1,0,0.2,0.1,0.1
	C24.1,33.2,24.5,32.5,24.4,32z"/>
<path class="st1" d="M24.5,33c0-0.1-0.1-0.1-0.1,0c-0.1,0.2-0.3,0.4-0.5,0.6c-0.2,0.2-0.5,0.3-0.7,0.5c-0.1,0,0,0.2,0.1,0.1
	C23.8,34.1,24.5,33.6,24.5,33z"/>
<g>
	<defs>
		<rect id="SVGID_00000027586371783528928260000005473286546011837325_" x="22.7" y="33.3" width="2.7" height="2.5"/>
	</defs>
	<clipPath id="SVGID_00000165925006424370596080000015037125991833768846_">
		<use xlink:href="#SVGID_00000027586371783528928260000005473286546011837325_"  style="overflow:visible;"/>
	</clipPath>
	<g style="clip-path:url(#SVGID_00000165925006424370596080000015037125991833768846_);">
		<path class="st1" d="M24.6,33.8c0-0.1-0.1-0.2-0.1-0.1c-0.3,0.2-0.5,0.5-0.8,0.6c-0.2,0.1-0.5,0.2-0.8,0.2c-0.1,0-0.1,0.1,0,0.2
			C23.6,34.9,24.4,34.4,24.6,33.8z"/>
	</g>
</g>
<g>
	<defs>
		<rect id="SVGID_00000116211526384905246180000012085643324684092078_" x="21.3" y="34.7" width="4" height="1.1"/>
	</defs>
	<clipPath id="SVGID_00000041253815284846382120000004129110433972083114_">
		<use xlink:href="#SVGID_00000116211526384905246180000012085643324684092078_"  style="overflow:visible;"/>
	</clipPath>
	<g style="clip-path:url(#SVGID_00000041253815284846382120000004129110433972083114_);">
		<path class="st1" d="M24.2,34.8C24.2,34.8,24.2,34.7,24.2,34.8c-0.3,0.1-0.6,0.2-0.9,0.3c-0.3,0-0.6-0.1-0.9-0.1c0,0-0.1,0,0,0.1
			C22.8,35.5,23.8,35.4,24.2,34.8z"/>
	</g>
</g>
<g>
	<defs>
		<rect id="SVGID_00000166674164746465292110000003281727339582247845_" x="21.3" y="34.7" width="2.7" height="1.1"/>
	</defs>
	<clipPath id="SVGID_00000065069434463661973580000013485627588142670990_">
		<use xlink:href="#SVGID_00000166674164746465292110000003281727339582247845_"  style="overflow:visible;"/>
	</clipPath>
	<g style="clip-path:url(#SVGID_00000065069434463661973580000013485627588142670990_);">
		<path class="st1" d="M23.4,35.5c-0.3,0-0.5,0.1-0.8,0c-0.3,0-0.6-0.2-0.9-0.3c-0.1,0-0.2,0.1-0.1,0.1c0.4,0.5,1.3,0.6,1.8,0.3
			C23.5,35.6,23.4,35.5,23.4,35.5z"/>
	</g>
</g>
<g>
	<defs>
		<rect id="SVGID_00000156570488217943873470000000793665595722566069_" x="20" y="34.7" width="2.7" height="1.1"/>
	</defs>
	<clipPath id="SVGID_00000130620834224826230050000001558048435239312782_">
		<use xlink:href="#SVGID_00000156570488217943873470000000793665595722566069_"  style="overflow:visible;"/>
	</clipPath>
	<g style="clip-path:url(#SVGID_00000130620834224826230050000001558048435239312782_);">
		<path class="st1" d="M22.2,36c-0.2,0-0.5-0.1-0.7-0.2c-0.3-0.1-0.5-0.3-0.7-0.5c-0.1,0-0.1,0-0.1,0.1C21,35.8,21.6,36.1,22.2,36
			C22.2,36.1,22.3,36,22.2,36z"/>
	</g>
</g>
<g>
	<defs>
		<rect id="SVGID_00000088124189727841408550000001483604176725793160_" x="18.7" y="34.7" width="2.7" height="1.1"/>
	</defs>
	<clipPath id="SVGID_00000002380807843909893230000008091719232735721652_">
		<use xlink:href="#SVGID_00000088124189727841408550000001483604176725793160_"  style="overflow:visible;"/>
	</clipPath>
	<g style="clip-path:url(#SVGID_00000002380807843909893230000008091719232735721652_);">
		<path class="st1" d="M20.7,35.9c-0.2-0.2-0.4-0.4-0.7-0.6c-0.1,0-0.1,0-0.1,0.1c0.2,0.3,0.4,0.5,0.7,0.7
			C20.7,36.1,20.8,36,20.7,35.9z"/>
	</g>
</g>
<path class="st1" d="M15.5,22.8C15.5,22.8,15.5,22.8,15.5,22.8c-0.2-0.2-0.4-0.1-0.6-0.2c-0.2,0-0.4-0.1-0.6-0.1
	c-0.1,0-0.1,0.1,0,0.1c0.2,0.1,0.4,0.2,0.6,0.2c0.1,0,0.1,0,0.2,0c-0.2,0-0.4,0.1-0.7,0.1c-0.3,0-0.5-0.2-0.8-0.2c0,0-0.1,0-0.1,0.1
	c0.1,0.2,0.4,0.3,0.6,0.3c-0.2,0.1-0.4,0.1-0.7,0.1c-0.3,0-0.5-0.1-0.8-0.1c0,0-0.1,0.1-0.1,0.1c0.2,0.2,0.5,0.3,0.8,0.3
	c0.3,0,0.7,0,0.9-0.3c0,0,0-0.1,0-0.1c0.3,0,0.6,0,0.8-0.2c0,0,0-0.1,0-0.1C15.2,22.9,15.4,22.9,15.5,22.8z"/>
<path class="st1" d="M13.1,23.8c0.1,0,0-0.1-0.1-0.1c-0.2,0-0.4,0.1-0.6,0c-0.1,0-0.3-0.1-0.4-0.2c-0.1,0-0.1-0.1-0.2-0.1
	c0,0,0,0,0,0.1c0,0.2,0.2,0.3,0.4,0.4c-0.2,0-0.5,0-0.7,0c-0.2-0.1-0.3-0.2-0.5-0.2c0,0-0.1,0-0.1,0.1c0.1,0.2,0.4,0.4,0.6,0.4
	c0.3,0.1,0.5,0,0.8-0.1c0.1,0,0.1-0.1,0-0.1c0,0,0,0,0.1,0C12.7,24,12.9,24,13.1,23.8z"/>
<path class="st1" d="M11.4,24.3c-0.2,0-0.5,0-0.7-0.1c-0.2-0.1-0.4-0.3-0.6-0.3c0,0,0,0,0,0.1c0,0.2,0.4,0.4,0.6,0.5
	c0.2,0.1,0.5,0.1,0.8,0C11.5,24.4,11.4,24.3,11.4,24.3z"/>
<path class="st1" d="M10.4,24.7c-0.2,0-0.4,0-0.5-0.1c-0.2-0.1-0.3-0.2-0.5-0.3c0,0-0.1,0-0.1,0.1c0,0.2,0.3,0.3,0.5,0.4
	C10,24.8,10.2,24.8,10.4,24.7C10.5,24.8,10.5,24.7,10.4,24.7z"/>
<path class="st1" d="M9,24.9c0,0-0.1-0.1-0.1-0.1c0,0-0.1,0-0.1,0C8.9,24.9,8.9,24.9,9,24.9C9,25,9.1,24.9,9,24.9z"/>
<path class="st1" d="M8.8,25.4c0-0.1-0.2-0.1-0.2,0c0,0.2,0,0.3,0,0.5c0,0.2-0.2,0.4-0.2,0.5c0,0.1,0,0.1,0.1,0.1
	C8.8,26.4,8.9,25.8,8.8,25.4z"/>
<path class="st1" d="M8.2,25.7c0-0.1-0.1-0.1-0.1,0c0,0.2-0.1,0.5-0.2,0.7c-0.1,0.2-0.3,0.3-0.4,0.4c0,0.1,0,0.1,0.1,0.1
	C8.1,26.7,8.3,26.1,8.2,25.7z"/>
<path class="st1" d="M7.6,26c0-0.1-0.1-0.1-0.1-0.1c-0.1,0.2-0.3,0.4-0.5,0.5c-0.2,0.1-0.4,0.1-0.5,0.2c0,0,0,0.1,0,0.1
	c0.2,0.1,0.5,0,0.6-0.2C7.4,26.4,7.5,26.2,7.6,26z"/>
<path class="st1" d="M7,26c-0.2,0.1-0.4,0.2-0.6,0.2c-0.2,0-0.3,0-0.5,0c0,0-0.1,0.1,0,0.1c0.1,0.2,0.4,0.2,0.6,0.2
	c0.2,0,0.4-0.1,0.6-0.3C7.1,26.1,7,26,7,26z"/>
<g>
	<defs>
		<rect id="SVGID_00000058587017288740809200000007158775056361455766_" x="4.8" y="25.3" width="1.8" height="1.3"/>
	</defs>
	<clipPath id="SVGID_00000140713047737743971050000007135471675753154716_">
		<use xlink:href="#SVGID_00000058587017288740809200000007158775056361455766_"  style="overflow:visible;"/>
	</clipPath>
	<g style="clip-path:url(#SVGID_00000140713047737743971050000007135471675753154716_);">
		<path class="st1" d="M6.2,25.8c-0.2,0-0.3,0-0.4,0c-0.2,0-0.3-0.1-0.5-0.2c0,0-0.1,0-0.1,0.1C5.4,26,5.9,26.1,6.3,26
			C6.4,26,6.3,25.8,6.2,25.8z"/>
	</g>
</g>
<g>
	<defs>
		<rect id="SVGID_00000169520552115702318640000013752285068973154196_" x="4.8" y="24" width="1.8" height="2.7"/>
	</defs>
	<clipPath id="SVGID_00000125579315411898303390000001859447189397387664_">
		<use xlink:href="#SVGID_00000169520552115702318640000013752285068973154196_"  style="overflow:visible;"/>
	</clipPath>
	<g style="clip-path:url(#SVGID_00000125579315411898303390000001859447189397387664_);">
		<path class="st1" d="M5.7,25.3c-0.1,0-0.3-0.1-0.4-0.2C5.2,25.1,5.1,25,5,24.9c-0.1,0-0.1,0-0.1,0.1c0.1,0.3,0.4,0.4,0.7,0.4
			C5.7,25.4,5.7,25.3,5.7,25.3z"/>
	</g>
</g>
<g>
	<defs>
		<rect id="SVGID_00000155846289392754990440000004083255699634102150_" x="4.8" y="24" width="1.8" height="1.3"/>
	</defs>
	<clipPath id="SVGID_00000060029765456110927850000014040192960227646342_">
		<use xlink:href="#SVGID_00000155846289392754990440000004083255699634102150_"  style="overflow:visible;"/>
	</clipPath>
	<g style="clip-path:url(#SVGID_00000060029765456110927850000014040192960227646342_);">
		<path class="st1" d="M5.4,24.6c-0.1,0-0.1-0.1-0.2-0.1c0,0-0.1,0-0.1,0c0,0,0,0.1,0,0.1c0,0.1,0.1,0.1,0.1,0.1c0,0,0,0,0,0
			C5.3,24.8,5.5,24.7,5.4,24.6z"/>
	</g>
</g>
</svg>
