<svg xmlns="http://www.w3.org/2000/svg" xmlns:xlink="http://www.w3.org/1999/xlink" width="40" zoomAndPan="magnify" viewBox="0 0 30 30.000001" height="40" preserveAspectRatio="xMidYMid meet" version="1.0"><defs><clipPath id="1f5d7c95c7"><path d="M 3.976562 14 L 25.75 14 L 25.75 23.335938 L 3.976562 23.335938 Z M 3.976562 14 " clip-rule="nonzero"/></clipPath><clipPath id="dce98a71b4"><path d="M 11 8.820312 L 19 8.820312 L 19 20 L 11 20 Z M 11 8.820312 " clip-rule="nonzero"/></clipPath></defs><g clip-path="url(#1f5d7c95c7)"><path fill="#ffffff" d="M 20.292969 14.6875 C 20.144531 14.652344 19.996094 14.746094 19.960938 14.894531 C 19.929688 15.042969 20.023438 15.191406 20.171875 15.222656 C 23.394531 15.949219 25.476562 17.328125 25.476562 18.742188 C 25.476562 20.941406 20.679688 22.800781 15.003906 22.800781 C 9.324219 22.800781 4.527344 20.941406 4.527344 18.742188 C 4.527344 17.328125 6.609375 15.949219 9.832031 15.222656 C 9.980469 15.191406 10.074219 15.042969 10.042969 14.894531 C 10.007812 14.746094 9.863281 14.652344 9.710938 14.6875 C 6.121094 15.496094 3.976562 17.011719 3.976562 18.742188 C 3.976562 21.324219 8.820312 23.351562 15.003906 23.351562 C 21.183594 23.351562 26.027344 21.324219 26.027344 18.742188 C 26.027344 17.011719 23.882812 15.496094 20.292969 14.6875 " fill-opacity="1" fill-rule="nonzero"/></g><path fill="#ffffff" d="M 9.894531 16.679688 C 10.03125 16.613281 10.085938 16.449219 10.019531 16.3125 C 9.953125 16.175781 9.789062 16.117188 9.652344 16.183594 C 8.527344 16.730469 7.933594 17.421875 7.933594 18.179688 C 7.933594 19.867188 11.039062 21.191406 15.003906 21.191406 C 18.964844 21.191406 22.070312 19.867188 22.070312 18.179688 C 22.070312 17.421875 21.476562 16.730469 20.351562 16.183594 C 20.214844 16.117188 20.050781 16.175781 19.984375 16.3125 C 19.917969 16.449219 19.972656 16.613281 20.109375 16.679688 C 21.019531 17.121094 21.519531 17.652344 21.519531 18.179688 C 21.519531 19.367188 18.898438 20.640625 15.003906 20.640625 C 11.105469 20.640625 8.484375 19.367188 8.484375 18.179688 C 8.484375 17.652344 8.984375 17.121094 9.894531 16.679688 " fill-opacity="1" fill-rule="nonzero"/><path fill="#ffffff" d="M 15.019531 18.21875 C 15.171875 18.21875 15.296875 18.097656 15.296875 17.945312 C 15.296875 17.792969 15.171875 17.667969 15.019531 17.667969 C 13.828125 17.667969 13.234375 16.710938 13.082031 16.203125 C 12.792969 15.214844 13.511719 14.105469 13.519531 14.09375 C 13.601562 13.96875 13.566406 13.796875 13.441406 13.714844 C 13.3125 13.628906 13.140625 13.664062 13.058594 13.792969 C 13.023438 13.84375 12.191406 15.121094 12.554688 16.359375 C 12.746094 17.003906 13.503906 18.21875 15.019531 18.21875 " fill-opacity="1" fill-rule="nonzero"/><g clip-path="url(#dce98a71b4)"><path fill="#ffffff" d="M 15 9.53125 C 15.742188 10.292969 18.394531 13.199219 18.394531 15.675781 C 18.394531 17.542969 16.871094 19.066406 15.003906 19.066406 C 13.132812 19.066406 11.609375 17.542969 11.609375 15.675781 C 11.609375 13.171875 14.257812 10.289062 15 9.53125 Z M 15.003906 19.617188 C 17.175781 19.617188 18.945312 17.847656 18.945312 15.675781 C 18.945312 12.578125 15.347656 9.089844 15.191406 8.941406 C 15.085938 8.839844 14.917969 8.839844 14.8125 8.941406 C 14.660156 9.085938 11.058594 12.542969 11.058594 15.675781 C 11.058594 17.847656 12.828125 19.617188 15.003906 19.617188 " fill-opacity="1" fill-rule="nonzero"/></g><path fill="#ffffff" d="M 13.925781 12.992188 C 14.0625 12.992188 14.175781 12.882812 14.175781 12.742188 C 14.175781 12.605469 14.0625 12.492188 13.925781 12.492188 C 13.785156 12.492188 13.675781 12.605469 13.675781 12.742188 C 13.675781 12.882812 13.785156 12.992188 13.925781 12.992188 " fill-opacity="1" fill-rule="nonzero"/></svg>