<svg xmlns="http://www.w3.org/2000/svg" xmlns:xlink="http://www.w3.org/1999/xlink" width="40" zoomAndPan="magnify" viewBox="0 0 30 30.000001" height="40" preserveAspectRatio="xMidYMid meet" version="1.0"><defs><clipPath id="870aaac985"><path d="M 21 6.628906 L 24 6.628906 L 24 9 L 21 9 Z M 21 6.628906 " clip-rule="nonzero"/></clipPath><clipPath id="43ebcc50fc"><path d="M 4.117188 10 L 6 10 L 6 12 L 4.117188 12 Z M 4.117188 10 " clip-rule="nonzero"/></clipPath><clipPath id="5422f3cc6c"><path d="M 16 20 L 18 20 L 18 22.59375 L 16 22.59375 Z M 16 20 " clip-rule="nonzero"/></clipPath><clipPath id="d68f13e29f"><path d="M 23 11 L 26.617188 11 L 26.617188 15 L 23 15 Z M 23 11 " clip-rule="nonzero"/></clipPath></defs><path fill="#ffffff" d="M 17.070312 13.21875 L 16.328125 13.371094 L 16.167969 13.484375 L 16.03125 13.605469 L 15.917969 13.730469 L 15.832031 13.867188 L 15.769531 14.011719 L 15.730469 14.160156 L 15.71875 14.320312 L 15.730469 14.488281 L 15.769531 14.664062 C 15.789062 14.726562 15.8125 14.785156 15.839844 14.839844 C 15.910156 14.976562 15.957031 15.050781 15.980469 15.070312 C 16.050781 15.164062 16.136719 15.246094 16.238281 15.316406 C 16.492188 15.484375 16.75 15.539062 17.007812 15.484375 L 17.074219 15.464844 C 17.121094 15.453125 17.167969 15.433594 17.210938 15.410156 C 17.257812 15.386719 17.300781 15.359375 17.347656 15.324219 C 17.433594 15.257812 17.523438 15.175781 17.609375 15.070312 C 17.703125 14.957031 17.777344 14.839844 17.832031 14.726562 C 17.863281 14.667969 17.886719 14.609375 17.902344 14.554688 C 17.941406 14.410156 17.957031 14.324219 17.953125 14.296875 C 17.957031 14.253906 17.953125 14.210938 17.949219 14.164062 L 17.933594 14.101562 C 17.921875 14.058594 17.90625 14.011719 17.886719 13.96875 C 17.847656 13.878906 17.789062 13.792969 17.710938 13.703125 C 17.652344 13.625 17.539062 13.519531 17.375 13.390625 C 17.277344 13.324219 17.175781 13.265625 17.070312 13.21875 " fill-opacity="1" fill-rule="nonzero"/><path fill="#ffffff" d="M 23.296875 16.375 L 23.253906 16.375 C 23.125 16.382812 23.007812 16.417969 22.90625 16.484375 C 22.792969 16.550781 22.726562 16.597656 22.710938 16.621094 C 22.671875 16.660156 22.632812 16.699219 22.597656 16.746094 C 22.515625 16.863281 22.46875 16.941406 22.457031 16.972656 C 22.433594 17.023438 22.414062 17.074219 22.402344 17.121094 C 22.371094 17.242188 22.359375 17.316406 22.363281 17.335938 C 22.359375 17.382812 22.363281 17.429688 22.367188 17.476562 C 22.386719 17.578125 22.40625 17.648438 22.425781 17.6875 C 22.449219 17.738281 22.472656 17.789062 22.5 17.832031 C 22.554688 17.921875 22.621094 18 22.703125 18.0625 C 22.824219 18.152344 22.941406 18.207031 23.050781 18.226562 C 23.1875 18.257812 23.328125 18.269531 23.472656 18.265625 C 23.546875 18.261719 23.605469 18.257812 23.652344 18.253906 C 23.78125 18.230469 23.855469 18.214844 23.875 18.203125 C 24.007812 18.160156 24.117188 18.09375 24.199219 18 C 24.425781 17.78125 24.53125 17.511719 24.519531 17.203125 C 24.511719 17.167969 24.503906 17.128906 24.484375 17.085938 L 24.457031 17.023438 C 24.414062 16.941406 24.351562 16.847656 24.269531 16.75 L 23.625 16.417969 C 23.527344 16.390625 23.417969 16.378906 23.296875 16.375 " fill-opacity="1" fill-rule="nonzero"/><path fill="#ffffff" d="M 21.847656 14.050781 L 21.792969 14.078125 C 21.691406 14.148438 21.636719 14.25 21.625 14.390625 L 21.621094 14.460938 C 21.625 14.53125 21.628906 14.566406 21.632812 14.574219 C 21.644531 14.636719 21.671875 14.691406 21.707031 14.742188 C 21.742188 14.796875 21.789062 14.839844 21.839844 14.875 C 21.859375 14.882812 21.875 14.894531 21.894531 14.898438 L 21.921875 14.910156 C 21.941406 14.914062 21.957031 14.917969 21.976562 14.921875 C 22.074219 14.929688 22.199219 14.894531 22.34375 14.820312 C 22.410156 14.777344 22.453125 14.75 22.460938 14.738281 C 22.488281 14.71875 22.511719 14.699219 22.53125 14.675781 C 22.578125 14.632812 22.617188 14.585938 22.648438 14.53125 C 22.660156 14.503906 22.664062 14.472656 22.664062 14.445312 L 22.65625 14.398438 C 22.648438 14.367188 22.632812 14.339844 22.609375 14.308594 C 22.566406 14.246094 22.492188 14.183594 22.394531 14.117188 L 21.847656 14.050781 " fill-opacity="1" fill-rule="nonzero"/><path fill="#ffffff" d="M 17.855469 17.78125 L 17.796875 17.785156 C 17.683594 17.800781 17.589844 17.859375 17.519531 17.960938 C 17.496094 17.996094 17.472656 18.035156 17.453125 18.078125 L 17.433594 18.152344 L 17.417969 18.222656 C 17.414062 18.269531 17.414062 18.3125 17.417969 18.355469 L 17.425781 18.421875 C 17.4375 18.460938 17.449219 18.5 17.46875 18.539062 L 17.503906 18.59375 C 17.539062 18.640625 17.558594 18.664062 17.5625 18.664062 C 17.578125 18.675781 17.597656 18.683594 17.617188 18.695312 L 17.648438 18.707031 C 17.671875 18.71875 17.699219 18.726562 17.726562 18.730469 C 17.804688 18.746094 17.855469 18.753906 17.878906 18.753906 C 17.902344 18.753906 17.925781 18.753906 17.949219 18.753906 C 18.042969 18.746094 18.121094 18.714844 18.179688 18.65625 L 18.222656 18.605469 L 18.253906 18.546875 L 18.273438 18.488281 L 18.28125 18.421875 L 18.28125 18.355469 L 18.269531 18.28125 L 18.246094 18.199219 C 18.226562 18.148438 18.199219 18.089844 18.164062 18.027344 L 17.890625 17.785156 L 17.855469 17.78125 " fill-opacity="1" fill-rule="nonzero"/><path fill="#ffffff" d="M 10.511719 15.960938 L 10.429688 15.964844 C 10.214844 15.980469 9.992188 16.066406 9.757812 16.21875 C 9.589844 16.339844 9.449219 16.480469 9.34375 16.644531 C 9.117188 17.015625 9.042969 17.398438 9.125 17.792969 C 9.160156 17.972656 9.230469 18.140625 9.328125 18.296875 C 9.378906 18.375 9.433594 18.449219 9.5 18.523438 C 9.527344 18.566406 9.636719 18.664062 9.820312 18.816406 C 10.234375 19.121094 10.664062 19.253906 11.113281 19.21875 C 11.363281 19.203125 11.621094 19.152344 11.886719 19.0625 C 12.117188 18.980469 12.246094 18.929688 12.265625 18.90625 C 12.335938 18.863281 12.398438 18.820312 12.453125 18.765625 C 12.75 18.480469 12.859375 18.09375 12.785156 17.605469 C 12.789062 17.5625 12.746094 17.449219 12.660156 17.261719 C 12.621094 17.191406 12.578125 17.121094 12.523438 17.054688 C 12.324219 16.84375 12.121094 16.660156 11.921875 16.511719 C 11.71875 16.363281 11.515625 16.246094 11.308594 16.160156 L 11.152344 16.097656 L 10.921875 16.054688 C 10.863281 16.027344 10.804688 16.003906 10.742188 15.988281 C 10.699219 15.972656 10.621094 15.964844 10.511719 15.960938 " fill-opacity="1" fill-rule="nonzero"/><path fill="#ffffff" d="M 19.800781 9.3125 L 19.753906 9.316406 C 19.601562 9.328125 19.453125 9.402344 19.3125 9.535156 L 19.273438 9.574219 C 19.25 9.597656 19.230469 9.621094 19.214844 9.644531 C 19.199219 9.667969 19.1875 9.691406 19.179688 9.714844 C 19.167969 9.742188 19.164062 9.800781 19.167969 9.890625 C 19.183594 10.085938 19.261719 10.257812 19.394531 10.40625 C 19.507812 10.53125 19.664062 10.585938 19.863281 10.578125 C 20.015625 10.578125 20.21875 10.492188 20.464844 10.3125 C 20.542969 10.253906 20.609375 10.191406 20.664062 10.121094 C 20.691406 10.066406 20.703125 10.035156 20.703125 10.023438 C 20.707031 10 20.710938 9.976562 20.710938 9.957031 C 20.710938 9.933594 20.707031 9.910156 20.703125 9.886719 L 20.679688 9.800781 C 20.675781 9.792969 20.667969 9.777344 20.652344 9.757812 C 20.605469 9.699219 20.507812 9.601562 20.351562 9.464844 L 19.800781 9.3125 " fill-opacity="1" fill-rule="nonzero"/><g clip-path="url(#870aaac985)"><path fill="#ffffff" d="M 22.53125 6.625 L 22.460938 6.632812 C 22.371094 6.640625 22.285156 6.675781 22.203125 6.734375 C 22.164062 6.765625 22.125 6.796875 22.085938 6.839844 C 22.0625 6.859375 22.011719 6.925781 21.9375 7.039062 C 21.890625 7.128906 21.855469 7.234375 21.835938 7.355469 C 21.808594 7.589844 21.804688 7.75 21.824219 7.835938 C 21.875 8.089844 21.976562 8.28125 22.136719 8.40625 C 22.367188 8.621094 22.605469 8.71875 22.839844 8.703125 C 22.957031 8.6875 23.097656 8.636719 23.257812 8.546875 C 23.285156 8.53125 23.367188 8.480469 23.5 8.394531 C 23.617188 8.308594 23.679688 8.253906 23.6875 8.234375 C 23.710938 8.214844 23.753906 8.15625 23.808594 8.050781 C 23.828125 8.007812 23.84375 7.964844 23.855469 7.917969 C 23.859375 7.769531 23.855469 7.683594 23.84375 7.65625 C 23.847656 7.625 23.824219 7.542969 23.773438 7.402344 C 23.75 7.347656 23.722656 7.296875 23.691406 7.242188 C 23.570312 7.050781 23.472656 6.929688 23.40625 6.882812 C 23.316406 6.808594 23.222656 6.753906 23.117188 6.71875 L 23.039062 6.699219 L 22.53125 6.625 " fill-opacity="1" fill-rule="nonzero"/></g><path fill="#ffffff" d="M 14.65625 18.238281 L 14.632812 18.246094 C 14.523438 18.28125 14.441406 18.347656 14.382812 18.441406 C 14.363281 18.472656 14.355469 18.515625 14.351562 18.5625 C 14.351562 18.605469 14.363281 18.648438 14.390625 18.691406 C 14.402344 18.714844 14.417969 18.738281 14.433594 18.757812 L 14.457031 18.785156 C 14.492188 18.816406 14.539062 18.84375 14.589844 18.859375 C 14.71875 18.902344 14.84375 18.90625 14.972656 18.871094 C 14.996094 18.867188 15.015625 18.855469 15.035156 18.84375 L 15.0625 18.828125 C 15.070312 18.824219 15.089844 18.800781 15.121094 18.757812 C 15.144531 18.71875 15.152344 18.695312 15.152344 18.6875 C 15.160156 18.65625 15.15625 18.628906 15.140625 18.601562 C 15.128906 18.582031 15.125 18.570312 15.121094 18.570312 C 15.109375 18.558594 15.089844 18.542969 15.058594 18.523438 C 14.964844 18.46875 14.871094 18.417969 14.777344 18.371094 L 14.65625 18.238281 " fill-opacity="1" fill-rule="nonzero"/><path fill="#ffffff" d="M 13.585938 10.597656 L 13.246094 10.953125 C 13.152344 11.011719 13.074219 11.070312 13.011719 11.136719 C 12.976562 11.167969 12.949219 11.203125 12.925781 11.238281 C 12.90625 11.253906 12.878906 11.308594 12.835938 11.402344 C 12.800781 11.507812 12.785156 11.605469 12.78125 11.699219 L 12.785156 11.761719 C 12.789062 11.804688 12.796875 11.847656 12.8125 11.886719 C 12.824219 11.925781 12.839844 11.960938 12.863281 11.996094 C 12.941406 12.09375 12.988281 12.148438 13.003906 12.15625 C 13.035156 12.183594 13.070312 12.207031 13.105469 12.226562 C 13.171875 12.265625 13.242188 12.28125 13.316406 12.28125 C 13.429688 12.28125 13.519531 12.261719 13.59375 12.226562 C 13.636719 12.210938 13.675781 12.1875 13.714844 12.164062 C 13.734375 12.15625 13.789062 12.109375 13.878906 12.023438 C 13.929688 11.964844 13.972656 11.90625 14.011719 11.84375 C 14.046875 11.78125 14.078125 11.71875 14.105469 11.652344 L 14.136719 11.550781 C 14.175781 11.414062 14.183594 11.269531 14.171875 11.117188 L 14.140625 11.007812 L 14.097656 10.914062 L 14.050781 10.828125 C 14.015625 10.777344 13.976562 10.734375 13.929688 10.703125 C 13.882812 10.667969 13.832031 10.640625 13.773438 10.625 L 13.683594 10.605469 L 13.585938 10.597656 " fill-opacity="1" fill-rule="nonzero"/><path fill="#ffffff" d="M 8.445312 11.382812 L 7.875 11.726562 L 7.765625 11.804688 L 7.679688 11.890625 L 7.617188 11.984375 L 7.578125 12.085938 L 7.566406 12.199219 L 7.578125 12.316406 L 7.613281 12.441406 L 7.675781 12.574219 L 7.757812 12.714844 C 7.828125 12.8125 7.902344 12.894531 7.976562 12.957031 C 7.992188 12.976562 8.046875 13.015625 8.144531 13.066406 C 8.179688 13.085938 8.21875 13.097656 8.257812 13.105469 C 8.410156 13.144531 8.578125 13.109375 8.761719 12.992188 C 8.839844 12.941406 8.910156 12.890625 8.96875 12.835938 C 9 12.808594 9.027344 12.78125 9.050781 12.753906 C 9.074219 12.722656 9.097656 12.695312 9.117188 12.664062 L 9.144531 12.621094 C 9.171875 12.566406 9.191406 12.507812 9.199219 12.441406 C 9.210938 12.398438 9.207031 12.308594 9.1875 12.171875 C 9.167969 12.101562 9.148438 12.039062 9.125 11.980469 C 9.074219 11.84375 9.042969 11.765625 9.03125 11.75 C 8.996094 11.675781 8.941406 11.597656 8.863281 11.519531 C 8.777344 11.4375 8.640625 11.394531 8.445312 11.382812 " fill-opacity="1" fill-rule="nonzero"/><g clip-path="url(#43ebcc50fc)"><path fill="#ffffff" d="M 4.679688 10.6875 L 4.648438 10.691406 C 4.625 10.691406 4.601562 10.699219 4.578125 10.707031 L 4.539062 10.71875 C 4.515625 10.730469 4.492188 10.742188 4.464844 10.757812 C 4.382812 10.816406 4.3125 10.875 4.265625 10.9375 C 4.214844 11 4.175781 11.074219 4.152344 11.15625 L 4.136719 11.21875 C 4.128906 11.265625 4.121094 11.308594 4.121094 11.359375 L 4.140625 11.464844 L 4.179688 11.558594 L 4.230469 11.644531 L 4.296875 11.714844 L 4.378906 11.777344 L 4.480469 11.824219 L 4.59375 11.859375 L 4.722656 11.886719 L 4.867188 11.898438 C 5.105469 11.890625 5.273438 11.8125 5.367188 11.65625 L 5.398438 11.597656 C 5.417969 11.542969 5.429688 11.484375 5.441406 11.425781 C 5.457031 11.308594 5.453125 11.179688 5.429688 11.042969 L 5.410156 10.9375 C 5.394531 10.863281 5.371094 10.789062 5.34375 10.710938 L 4.824219 10.726562 C 4.765625 10.699219 4.71875 10.6875 4.679688 10.6875 " fill-opacity="1" fill-rule="nonzero"/></g><path fill="#ffffff" d="M 6.144531 17.253906 L 6.121094 17.253906 C 5.957031 17.261719 5.800781 17.335938 5.652344 17.46875 C 5.511719 17.609375 5.441406 17.777344 5.4375 17.96875 L 5.449219 18.050781 L 5.480469 18.125 L 5.527344 18.195312 L 5.589844 18.257812 L 5.671875 18.316406 C 5.757812 18.363281 5.808594 18.386719 5.832031 18.390625 C 5.867188 18.40625 5.90625 18.414062 5.949219 18.425781 C 6.03125 18.441406 6.117188 18.449219 6.210938 18.449219 C 6.4375 18.457031 6.628906 18.398438 6.792969 18.273438 L 6.84375 18.21875 L 6.878906 18.15625 L 6.90625 18.085938 L 6.914062 18.007812 L 6.910156 17.917969 L 6.890625 17.824219 C 6.875 17.757812 6.847656 17.683594 6.8125 17.605469 L 6.328125 17.296875 C 6.320312 17.292969 6.296875 17.28125 6.253906 17.269531 C 6.21875 17.257812 6.183594 17.253906 6.144531 17.253906 " fill-opacity="1" fill-rule="nonzero"/><g clip-path="url(#5422f3cc6c)"><path fill="#ffffff" d="M 16.707031 20.835938 L 16.59375 20.867188 L 16.496094 20.910156 L 16.410156 20.96875 L 16.339844 21.03125 L 16.28125 21.109375 L 16.238281 21.195312 L 16.210938 21.292969 L 16.191406 21.402344 L 16.191406 21.523438 L 16.210938 21.652344 L 16.246094 21.773438 L 16.292969 21.882812 L 16.351562 21.984375 L 16.425781 22.070312 L 16.507812 22.148438 L 16.605469 22.214844 L 16.714844 22.269531 C 16.910156 22.355469 17.117188 22.367188 17.335938 22.300781 L 17.449219 22.261719 C 17.472656 22.25 17.496094 22.234375 17.515625 22.21875 L 17.546875 22.191406 C 17.566406 22.171875 17.585938 22.148438 17.601562 22.125 C 17.613281 22.113281 17.632812 22.070312 17.667969 21.988281 L 17.695312 21.84375 L 17.703125 21.707031 L 17.695312 21.582031 L 17.667969 21.460938 L 17.621094 21.347656 L 17.5625 21.242188 L 17.480469 21.144531 L 17.382812 21.054688 L 17.269531 20.972656 L 16.707031 20.835938 " fill-opacity="1" fill-rule="nonzero"/></g><path fill="#ffffff" d="M 21.984375 20.058594 L 21.910156 20.074219 C 21.671875 20.121094 21.496094 20.230469 21.390625 20.410156 C 21.367188 20.445312 21.347656 20.480469 21.335938 20.515625 L 21.316406 20.566406 C 21.308594 20.601562 21.300781 20.636719 21.300781 20.671875 C 21.300781 20.789062 21.316406 20.878906 21.347656 20.945312 C 21.363281 20.984375 21.382812 21.027344 21.410156 21.074219 C 21.484375 21.195312 21.539062 21.269531 21.566406 21.296875 C 21.628906 21.390625 21.734375 21.488281 21.882812 21.597656 C 21.925781 21.628906 21.96875 21.652344 22.015625 21.675781 C 22.035156 21.691406 22.105469 21.71875 22.222656 21.757812 C 22.296875 21.777344 22.382812 21.777344 22.488281 21.761719 C 22.574219 21.742188 22.667969 21.710938 22.769531 21.660156 C 22.898438 21.578125 23 21.492188 23.070312 21.398438 L 23.101562 21.351562 C 23.121094 21.320312 23.136719 21.289062 23.148438 21.253906 C 23.160156 21.226562 23.164062 21.195312 23.171875 21.164062 C 23.183594 21.074219 23.171875 20.96875 23.140625 20.855469 C 23.109375 20.753906 23.070312 20.667969 23.019531 20.605469 C 22.910156 20.449219 22.808594 20.316406 22.71875 20.210938 L 21.984375 20.058594 " fill-opacity="1" fill-rule="nonzero"/><g clip-path="url(#d68f13e29f)"><path fill="#ffffff" d="M 24.898438 11.394531 L 24.835938 11.394531 C 24.664062 11.410156 24.46875 11.488281 24.253906 11.621094 C 24.207031 11.652344 24.164062 11.6875 24.125 11.726562 C 24.101562 11.742188 24.046875 11.808594 23.960938 11.925781 C 23.894531 12.023438 23.839844 12.136719 23.792969 12.265625 C 23.769531 12.347656 23.75 12.429688 23.734375 12.511719 C 23.699219 12.632812 23.6875 12.859375 23.699219 13.1875 C 23.703125 13.382812 23.742188 13.574219 23.8125 13.765625 L 23.851562 13.851562 C 23.882812 13.90625 23.914062 13.957031 23.949219 14.003906 C 23.988281 14.046875 24.027344 14.089844 24.070312 14.128906 C 24.140625 14.199219 24.296875 14.289062 24.542969 14.402344 C 24.753906 14.476562 24.941406 14.507812 25.101562 14.496094 C 25.441406 14.484375 25.730469 14.378906 25.96875 14.1875 C 25.980469 14.191406 26.070312 14.085938 26.230469 13.871094 C 26.308594 13.773438 26.371094 13.679688 26.421875 13.59375 L 26.492188 13.46875 C 26.53125 13.390625 26.558594 13.320312 26.574219 13.253906 C 26.59375 13.191406 26.597656 13.132812 26.589844 13.082031 C 26.574219 13.035156 26.566406 12.988281 26.5625 12.945312 L 26.539062 12.867188 C 26.511719 12.8125 26.476562 12.75 26.429688 12.679688 C 26.332031 12.542969 26.183594 12.375 25.988281 12.183594 L 25.828125 12.035156 L 25.035156 11.40625 C 25.003906 11.398438 24.957031 11.394531 24.898438 11.394531 " fill-opacity="1" fill-rule="nonzero"/></g><path fill="#ffffff" d="M 19.945312 15.492188 L 19.859375 15.496094 C 19.648438 15.515625 19.453125 15.574219 19.277344 15.667969 L 19.148438 15.742188 C 19.042969 15.84375 18.964844 15.925781 18.914062 16 C 18.683594 16.304688 18.585938 16.679688 18.625 17.128906 C 18.640625 17.253906 18.691406 17.394531 18.78125 17.546875 C 18.792969 17.582031 18.878906 17.703125 19.046875 17.914062 C 19.117188 18 19.199219 18.089844 19.289062 18.179688 C 19.375 18.257812 19.480469 18.320312 19.601562 18.359375 C 19.660156 18.382812 19.726562 18.398438 19.796875 18.410156 C 19.824219 18.421875 19.941406 18.425781 20.140625 18.429688 C 20.414062 18.414062 20.613281 18.378906 20.738281 18.320312 C 20.867188 18.257812 20.980469 18.175781 21.082031 18.074219 C 21.351562 17.835938 21.472656 17.546875 21.449219 17.207031 C 21.445312 17.128906 21.421875 17.027344 21.375 16.902344 C 21.378906 16.796875 21.375 16.71875 21.363281 16.675781 C 21.359375 16.628906 21.339844 16.558594 21.304688 16.464844 C 21.265625 16.363281 21.171875 16.230469 21.03125 16.070312 C 20.925781 15.945312 20.75 15.796875 20.511719 15.628906 C 20.425781 15.585938 20.320312 15.550781 20.199219 15.519531 C 20.09375 15.5 20.011719 15.492188 19.945312 15.492188 " fill-opacity="1" fill-rule="nonzero"/></svg>